<?xml version="1.0" encoding="UTF-8" standalone="no"?>
<svg
   xmlns:dc="http://purl.org/dc/elements/1.1/"
   xmlns:cc="http://creativecommons.org/ns#"
   xmlns:rdf="http://www.w3.org/1999/02/22-rdf-syntax-ns#"
   xmlns:svg="http://www.w3.org/2000/svg"
   xmlns="http://www.w3.org/2000/svg"
   xmlns:sodipodi="http://sodipodi.sourceforge.net/DTD/sodipodi-0.dtd"
   xmlns:inkscape="http://www.inkscape.org/namespaces/inkscape"
   id="a3fdf556-7513-4367-833c-43bb1dab678b"
   data-name="Layer 1"
   width="1086.87"
   height="530"
   viewBox="0 0 1086.87 529.99999"
   version="1.1"
   sodipodi:docname="3d_modeling.svg"
   inkscape:version="1.0.2 (e86c870879, 2021-01-15)">
  <metadata
     id="metadata362">
    <rdf:RDF>
      <cc:Work
         rdf:about="">
        <dc:format>image/svg+xml</dc:format>
        <dc:type
           rdf:resource="http://purl.org/dc/dcmitype/StillImage" />
        <dc:title>3d modeling</dc:title>
      </cc:Work>
    </rdf:RDF>
  </metadata>
  <sodipodi:namedview
     pagecolor="#ffffff"
     bordercolor="#666666"
     borderopacity="1"
     objecttolerance="10"
     gridtolerance="10"
     guidetolerance="10"
     inkscape:pageopacity="0"
     inkscape:pageshadow="2"
     inkscape:window-width="1920"
     inkscape:window-height="1011"
     id="namedview360"
     showgrid="false"
     inkscape:zoom="0.85747766"
     inkscape:cx="575.15703"
     inkscape:cy="469.48659"
     inkscape:window-x="0"
     inkscape:window-y="0"
     inkscape:window-maximized="1"
     inkscape:current-layer="a3fdf556-7513-4367-833c-43bb1dab678b" />
  <defs
     id="defs9">
    <linearGradient
       id="a2e0af23-4ced-4921-9ce0-827007506601"
       x1="1755.38"
       y1="741.53003"
       x2="1755.38"
       y2="284.16"
       gradientTransform="matrix(0.77439401,0,0,0.77439401,-1059.38,-92.320785)"
       gradientUnits="userSpaceOnUse">
      <stop
         offset="0"
         stop-color="gray"
         stop-opacity="0.25"
         id="stop2" />
      <stop
         offset="0.54"
         stop-color="gray"
         stop-opacity="0.12"
         id="stop4" />
      <stop
         offset="1"
         stop-color="gray"
         stop-opacity="0.1"
         id="stop6" />
    </linearGradient>
  </defs>
  <title
     id="title11">3d modeling</title>
  <path
     d="m 874.3903,446.27023 c 4.5999,-8.51833 -0.61952,-18.94167 -6.61333,-26.53848 -5.9938,-7.5968 -13.30409,-15.48788 -13.16469,-25.16006 0.22456,-13.93909 14.97677,-22.10895 26.77079,-29.48118 a 130.93454,130.93454 0 0 0 24.00622,-19.32113 c 2.88849,-2.95818 5.6918,-6.11771 7.37997,-9.88901 2.43935,-5.42075 2.36965,-11.61591 2.21477,-17.571 q -0.77439,-29.75997 -2.93495,-59.45797"
     fill="none"
     stroke="#3f3d56"
     stroke-miterlimit="10"
     stroke-width="3.09758"
     id="path13" />
  <path
     d="m 934.5065,257.76725 a 21.683031,21.683031 0 0 0 -10.84151,-17.75686 l -4.85545,9.60249 0.14713,-11.61591 a 21.683031,21.683031 0 1 0 15.53434,19.78577 z"
     fill="#0aa8a7"
     id="path15"
     style="stroke-width:0.774394" />
  <path
     d="m 895.84101,404.50717 a 21.683031,21.683031 0 1 1 1.07641,-17.47807 l -13.53641,11.01962 14.89159,-3.45379 a 21.419737,21.419737 0 0 1 -2.43159,9.91224 z"
     fill="#0aa8a7"
     id="path17"
     style="stroke-width:0.774394" />
  <path
     d="m 885.13888,362.4111 a 21.683031,21.683031 0 0 1 -22.67425,-20.64533 21.411994,21.411994 0 0 1 1.87403,-9.87353 21.683031,21.683031 0 0 1 13.9391,-12.01085 l -0.10842,8.93651 4.90966,-9.71864 h 0.0542 a 21.683544,21.683544 0 1 1 2.02891,43.31959 z"
     fill="#0aa8a7"
     id="path19"
     style="stroke-width:0.774394" />
  <path
     d="m 937.7667,327.40075 a 21.683031,21.683031 0 1 1 9.587,-40.57049 l -3.87198,10.49303 7.88333,-7.56583 a 21.62108,21.62108 0 0 1 6.96955,14.96904 21.171932,21.171932 0 0 1 -0.54981,5.97057 21.683031,21.683031 0 0 1 -20.01809,16.70368 z"
     fill="#0aa8a7"
     id="path21"
     style="stroke-width:0.774394" />
  <path
     d="m 931.58703,263.54423 c -5.00257,0.54982 -9.86577,2.10635 -14.89159,2.42385 -5.02581,0.3175 -10.53176,-0.89829 -13.71452,-4.80124 -1.71141,-2.09861 -2.56324,-4.76252 -4.01136,-7.05474 a 15.441416,15.441416 0 0 0 -5.45947,-5.14197 21.683031,21.683031 0 1 0 40.53177,14.39599 c -0.82085,0.031 -1.64171,0.0929 -2.45483,0.17811 z"
     opacity="0.1"
     id="path23"
     style="stroke-width:0.774394" />
  <path
     d="m 937.7667,327.40075 a 21.683031,21.683031 0 0 1 -20.62211,-30.92929 16.029956,16.029956 0 0 1 4.35984,4.36758 c 1.54878,2.32318 2.47806,5.02582 4.29788,7.16314 3.36862,3.97265 9.13785,5.27363 14.37276,5.02582 5.2349,-0.2478 10.28395,-1.71915 15.48788,-2.19928 0.72018,-0.062 1.45586,-0.11616 2.18379,-0.13165 a 21.683031,21.683031 0 0 1 -20.08004,16.70368 z"
     opacity="0.1"
     id="path25"
     style="stroke-width:0.774394" />
  <path
     d="m 885.13888,362.4111 a 21.683031,21.683031 0 0 1 -22.67425,-20.64533 21.411994,21.411994 0 0 1 1.87403,-9.87353 17.617463,17.617463 0 0 1 4.58441,4.4063 c 1.68043,2.3774 2.73361,5.111 4.70058,7.31029 3.65514,4.07331 9.80382,5.50594 15.34849,5.37429 5.37429,-0.11616 10.5395,-1.43263 15.87507,-1.84306 a 21.683031,21.683031 0 0 1 -19.70833,15.27104 z"
     opacity="0.1"
     id="path27"
     style="stroke-width:0.774394" />
  <path
     d="m 895.84101,404.50717 a 21.683031,21.683031 0 0 1 -39.4941,-17.68716 21.628825,21.628825 0 0 1 4.75478,4.24367 c 2.0599,2.51679 3.42283,5.35881 5.80796,7.70522 4.42953,4.34436 11.61591,6.14095 17.95819,6.31132 a 94.166309,94.166309 0 0 0 10.97317,-0.57305 z"
     opacity="0.1"
     id="path29"
     style="stroke-width:0.774394" />
  <ellipse
     cx="544.38232"
     cy="466.51291"
     rx="394.94092"
     ry="39.494095"
     fill="#0aa8a7"
     opacity="0.1"
     id="ellipse31"
     style="stroke-width:0.774394" />
  <g
     opacity="0.1"
     id="g37"
     transform="matrix(0.774394,0,0,0.774394,116.76193,6.3137787)">
    <path
       d="m 147.41,238.36 a 18.18,18.18 0 0 1 4.51,-16.85 l 6.18,6.57 -2.87,-9.31 a 18.18,18.18 0 1 1 -7.82,19.59 z"
       transform="translate(-56.56,-127.37)"
       fill="#0aa8a7"
       id="path33" />
    <path
       d="m 151.13,242.32 c 4.15,-0.74 8.44,-0.64 12.55,-1.58 4.11,-0.94 8.27,-3.21 9.9,-7.1 0.88,-2.1 0.94,-4.44 1.56,-6.63 a 12.89,12.89 0 0 1 3.18,-5.43 18.19,18.19 0 1 1 -29.21,21.17 c 0.67,-0.16 1.34,-0.31 2.02,-0.43 z"
       transform="translate(-56.56,-127.37)"
       opacity="0.1"
       id="path35" />
  </g>
  <g
     opacity="0.1"
     id="g43"
     transform="matrix(0.774394,0,0,0.774394,116.76193,6.3137787)">
    <path
       d="m 995.57,130.09 a 14.71,14.71 0 0 1 14,-1.67 l -3.09,6.61 6.13,-4.94 a 14.68,14.68 0 1 1 -17,0 z"
       transform="translate(-56.56,-127.37)"
       fill="#0aa8a7"
       id="path39" />
    <path
       d="m 993.72,134.07 c 1.8,2.89 3,6.13 4.94,8.94 1.94,2.81 4.89,5.24 8.3,5.29 1.83,0 3.61,-0.62 5.43,-0.81 a 10.56,10.56 0 0 1 5,0.75 14.69,14.69 0 1 1 -24.63,-15.56 c 0.35,0.45 0.67,0.91 0.96,1.39 z"
       transform="translate(-56.56,-127.37)"
       opacity="0.1"
       id="path41" />
  </g>
  <g
     opacity="0.1"
     id="g49"
     transform="matrix(0.774394,0,0,0.774394,116.76193,6.3137787)">
    <path
       d="m 1057.23,202.2 a 17,17 0 0 1 16.2,-1.93 l -3.57,7.65 7.1,-5.73 a 17,17 0 1 1 -19.73,0 z"
       transform="translate(-56.56,-127.37)"
       fill="#0aa8a7"
       id="path45" />
    <path
       d="m 1055.08,206.8 c 2.09,3.35 3.48,7.11 5.73,10.36 2.25,3.25 5.65,6.06 9.6,6.13 2.13,0 4.18,-0.73 6.3,-0.95 a 12.15,12.15 0 0 1 5.81,0.88 17,17 0 1 1 -28.52,-18 c 0.38,0.5 0.74,1.03 1.08,1.58 z"
       transform="translate(-56.56,-127.37)"
       opacity="0.1"
       id="path47" />
  </g>
  <g
     opacity="0.2"
     id="g69"
     transform="matrix(0.774394,0,0,0.774394,116.76193,6.3137787)">
    <path
       d="m 213,593.31 c -8.79,-8.87 -6.13,-23.7 -1.47,-35.29 4.66,-11.59 10.84,-24 7.12,-36 -5.34,-17.14 -26.61,-21.94 -43.9,-26.77 A 168.59,168.59 0 0 1 138,480.1 c -4.66,-2.6 -9.28,-5.5 -12.75,-9.56 -5,-5.84 -7.17,-13.53 -9.15,-21 q -9.89,-37.14 -18,-74.72"
       transform="translate(-56.56,-127.37)"
       fill="none"
       stroke="#3f3d56"
       stroke-miterlimit="10"
       stroke-width="4"
       id="path51" />
    <path
       d="m 69.87,381.68 a 28,28 0 0 1 6.94,-25.95 l 9.51,10.13 -4.41,-14.35 a 28,28 0 1 1 -12,30.17 z"
       transform="translate(-56.56,-127.37)"
       fill="#0aa8a7"
       id="path53" />
    <path
       d="m 171.24,549.38 a 28,28 0 1 0 -7.66,-21.24 l 20.79,8.71 -19.71,1.15 a 27.72,27.72 0 0 0 6.58,11.38 z"
       transform="translate(-56.56,-127.37)"
       fill="#0aa8a7"
       id="path55" />
    <path
       d="m 169.16,493.33 a 28,28 0 0 0 -7,-55.2 l 3.39,11 -9.55,-10.22 h -0.07 a 28,28 0 1 0 13.27,54.4 z"
       transform="translate(-56.56,-127.37)"
       fill="#0aa8a7"
       id="path57" />
    <path
       d="M 91.2,469.12 A 28,28 0 1 0 64.54,422.35 L 73.11,434 60.59,427.49 a 27.91,27.91 0 0 0 -3.22,21.1 27.54,27.54 0 0 0 2.85,7.2 28,28 0 0 0 30.98,13.33 z"
       transform="translate(-56.56,-127.37)"
       fill="#0aa8a7"
       id="path59" />
    <path
       d="m 75.59,387.77 c 6.4,-1.14 13,-1 19.33,-2.43 6.33,-1.43 12.73,-4.94 15.24,-10.93 1.36,-3.23 1.45,-6.84 2.4,-10.21 a 20.07,20.07 0 0 1 4.89,-8.36 28,28 0 1 1 -45,32.6 c 1.06,-0.25 2.1,-0.44 3.14,-0.67 z"
       transform="translate(-56.56,-127.37)"
       opacity="0.1"
       id="path61" />
    <path
       d="m 91.2,469.12 a 28,28 0 0 0 14.28,-45.83 20.69,20.69 0 0 0 -3.81,7 c -1.06,3.44 -1.24,7.12 -2.71,10.44 -2.74,6.15 -9.41,9.86 -16,11.47 -6.59,1.61 -13.37,1.61 -20,2.91 -0.92,0.19 -1.84,0.39 -2.76,0.64 a 28,28 0 0 0 31,13.37 z"
       transform="translate(-56.56,-127.37)"
       opacity="0.1"
       id="path63" />
    <path
       d="m 169.16,493.33 a 28,28 0 0 0 14.65,-45.39 22.58,22.58 0 0 0 -4.07,7.13 c -1.22,3.56 -1.53,7.33 -3.17,10.77 -3,6.37 -10.14,10.39 -17,12.25 -6.7,1.81 -13.58,2.06 -20.34,3.5 a 28,28 0 0 0 29.93,11.74 z"
       transform="translate(-56.56,-127.37)"
       opacity="0.1"
       id="path65" />
    <path
       d="m 171.24,549.38 a 28,28 0 0 0 42.52,-36.31 27.5,27.5 0 0 0 -4.35,7 c -1.64,3.86 -2.28,7.88 -4.39,11.65 -3.9,7 -12.11,11.84 -19.94,14.37 a 122.41,122.41 0 0 1 -13.84,3.29 z"
       transform="translate(-56.56,-127.37)"
       opacity="0.1"
       id="path67" />
  </g>
  <path
     d="m 878.33196,60.505874 -0.17037,385.872776 c -27.10378,0 0,0 -27.36708,0.13939 H 748.95396 l -0.30976,-0.12391 a 62.772378,62.772378 0 0 0 -47.41614,0 l -0.25555,0.10842 H 598.91512 q -5.15747,-2.09086 -10.06712,-4.58441 a 60.968039,60.968039 0 0 0 -54.78063,0 q -4.94838,2.48581 -10.06712,4.58441 H 421.86542 l -0.25555,-0.10842 a 62.772378,62.772378 0 0 0 -47.41614,0 l -0.30976,0.12391 H 272.05891 A 137.06774,137.06774 0 0 1 225.7424,415.40289 V 60.505874 Z"
     fill="#ffffff"
     id="path71"
     style="stroke-width:0.774394" />
  <path
     d="m 878.33196,45.412928 v 16.64173 h -652.5973 v -16.64173 a 5.7072837,5.7072837 0 0 1 5.71503,-5.715027 h 641.15176 a 5.7072837,5.7072837 0 0 1 5.73051,5.715027 z"
     fill="#ededf4"
     id="path73"
     style="stroke-width:0.774394" />
  <circle
     cx="236.08057"
     cy="50.709793"
     r="2.6716592"
     fill="#fa5959"
     opacity="0.8"
     id="circle75"
     style="stroke-width:0.774394" />
  <circle
     cx="243.42183"
     cy="50.709793"
     r="2.6716592"
     fill="#fed253"
     opacity="0.8"
     id="circle77"
     style="stroke-width:0.774394" />
  <circle
     cx="250.75534"
     cy="50.709793"
     r="2.6716592"
     fill="#8ccf4d"
     opacity="0.8"
     id="circle79"
     style="stroke-width:0.774394" />
  <path
     d="M 311.28971,62.054658 V 447.29244 c 0,0 -34.84774,-0.1394 -85.54731,-0.91379 V 62.054658 Z"
     fill="#ededf4"
     id="path81"
     style="stroke-width:0.774394" />
  <path
     d="M 879.28446,62.054658 V 447.92744 c -0.32524,0.24005 -31.1616,-0.35622 -32.52454,0.13939 H 793.71393 V 62.054658 Z"
     fill="#ededf4"
     id="path83"
     style="stroke-width:0.774394" />
  <rect
     x="237.53644"
     y="80.864685"
     width="61.951519"
     height="7.7439399"
     fill="#ffffff"
     id="rect85"
     style="stroke-width:0.774394" />
  <rect
     x="237.53644"
     y="98.675743"
     width="61.951519"
     height="7.7439399"
     fill="#ffffff"
     id="rect87"
     style="stroke-width:0.774394" />
  <rect
     x="237.53644"
     y="116.48682"
     width="61.951519"
     height="7.7439399"
     fill="#ffffff"
     id="rect89"
     style="stroke-width:0.774394" />
  <rect
     x="237.53644"
     y="134.29788"
     width="61.951519"
     height="7.7439399"
     fill="#ffffff"
     id="rect91"
     style="stroke-width:0.774394" />
  <rect
     x="237.53644"
     y="152.10895"
     width="61.951519"
     height="7.7439399"
     fill="#ffffff"
     id="rect93"
     style="stroke-width:0.774394" />
  <rect
     x="237.72227"
     y="204.76773"
     width="61.951519"
     height="7.7439399"
     fill="#ffffff"
     id="rect95"
     style="stroke-width:0.774394" />
  <rect
     x="237.72227"
     y="222.5788"
     width="61.951519"
     height="7.7439399"
     fill="#ffffff"
     id="rect97"
     style="stroke-width:0.774394" />
  <rect
     x="237.72227"
     y="240.38983"
     width="61.951519"
     height="7.7439399"
     fill="#ffffff"
     id="rect99"
     style="stroke-width:0.774394" />
  <rect
     x="237.72227"
     y="258.2009"
     width="61.951519"
     height="7.7439399"
     fill="#ffffff"
     id="rect101"
     style="stroke-width:0.774394" />
  <rect
     x="237.72227"
     y="276.01196"
     width="61.951519"
     height="7.7439399"
     fill="#ffffff"
     id="rect103"
     style="stroke-width:0.774394" />
  <rect
     x="237.90039"
     y="328.67078"
     width="61.951519"
     height="7.7439399"
     fill="#ffffff"
     id="rect105"
     style="stroke-width:0.774394" />
  <rect
     x="237.90039"
     y="346.48184"
     width="61.951519"
     height="7.7439399"
     fill="#ffffff"
     id="rect107"
     style="stroke-width:0.774394" />
  <rect
     x="237.90039"
     y="364.29288"
     width="61.951519"
     height="7.7439399"
     fill="#ffffff"
     id="rect109"
     style="stroke-width:0.774394" />
  <rect
     x="237.90039"
     y="382.10394"
     width="61.951519"
     height="7.7439399"
     fill="#ffffff"
     id="rect111"
     style="stroke-width:0.774394" />
  <rect
     x="237.90039"
     y="399.91501"
     width="61.951519"
     height="7.7439399"
     fill="#ffffff"
     id="rect113"
     style="stroke-width:0.774394" />
  <rect
     x="798.38354"
     y="65.376801"
     width="7.7439399"
     height="7.7439399"
     fill="#ffffff"
     id="rect115"
     style="stroke-width:0.774394" />
  <rect
     x="807.67627"
     y="65.376801"
     width="7.7439399"
     height="7.7439399"
     fill="#ffffff"
     id="rect117"
     style="stroke-width:0.774394" />
  <rect
     x="816.96899"
     y="65.376801"
     width="7.7439399"
     height="7.7439399"
     fill="#ffffff"
     id="rect119"
     style="stroke-width:0.774394" />
  <rect
     x="826.26172"
     y="65.376801"
     width="7.7439399"
     height="7.7439399"
     fill="#ffffff"
     id="rect121"
     style="stroke-width:0.774394" />
  <rect
     x="835.55444"
     y="65.376801"
     width="7.7439399"
     height="7.7439399"
     fill="#ffffff"
     id="rect123"
     style="stroke-width:0.774394" />
  <rect
     x="798.38354"
     y="97.901352"
     width="7.7439399"
     height="7.7439399"
     fill="#ffffff"
     id="rect125"
     style="stroke-width:0.774394" />
  <rect
     x="807.67627"
     y="97.901352"
     width="7.7439399"
     height="7.7439399"
     fill="#ffffff"
     id="rect127"
     style="stroke-width:0.774394" />
  <rect
     x="816.96899"
     y="97.901352"
     width="7.7439399"
     height="7.7439399"
     fill="#ffffff"
     id="rect129"
     style="stroke-width:0.774394" />
  <rect
     x="826.26172"
     y="97.901352"
     width="7.7439399"
     height="7.7439399"
     fill="#ffffff"
     id="rect131"
     style="stroke-width:0.774394" />
  <rect
     x="835.55444"
     y="97.901352"
     width="7.7439399"
     height="7.7439399"
     fill="#ffffff"
     id="rect133"
     style="stroke-width:0.774394" />
  <rect
     x="798.38354"
     y="130.42592"
     width="7.7439399"
     height="7.7439399"
     fill="#ffffff"
     id="rect135"
     style="stroke-width:0.774394" />
  <rect
     x="807.67627"
     y="130.42592"
     width="7.7439399"
     height="7.7439399"
     fill="#ffffff"
     id="rect137"
     style="stroke-width:0.774394" />
  <rect
     x="816.96899"
     y="130.42592"
     width="7.7439399"
     height="7.7439399"
     fill="#ffffff"
     id="rect139"
     style="stroke-width:0.774394" />
  <rect
     x="826.26172"
     y="130.42592"
     width="7.7439399"
     height="7.7439399"
     fill="#ffffff"
     id="rect141"
     style="stroke-width:0.774394" />
  <rect
     x="835.55444"
     y="130.42592"
     width="7.7439399"
     height="7.7439399"
     fill="#ffffff"
     id="rect143"
     style="stroke-width:0.774394" />
  <rect
     x="798.38354"
     y="162.95047"
     width="7.7439399"
     height="7.7439399"
     fill="#ffffff"
     id="rect145"
     style="stroke-width:0.774394" />
  <rect
     x="807.67627"
     y="162.95047"
     width="7.7439399"
     height="7.7439399"
     fill="#ffffff"
     id="rect147"
     style="stroke-width:0.774394" />
  <rect
     x="816.96899"
     y="162.95047"
     width="7.7439399"
     height="7.7439399"
     fill="#ffffff"
     id="rect149"
     style="stroke-width:0.774394" />
  <rect
     x="826.26172"
     y="162.95047"
     width="7.7439399"
     height="7.7439399"
     fill="#ffffff"
     id="rect151"
     style="stroke-width:0.774394" />
  <rect
     x="835.55444"
     y="162.95047"
     width="7.7439399"
     height="7.7439399"
     fill="#ffffff"
     id="rect153"
     style="stroke-width:0.774394" />
  <rect
     x="798.38354"
     y="195.47501"
     width="7.7439399"
     height="7.7439399"
     fill="#ffffff"
     id="rect155"
     style="stroke-width:0.774394" />
  <rect
     x="807.67627"
     y="195.47501"
     width="7.7439399"
     height="7.7439399"
     fill="#ffffff"
     id="rect157"
     style="stroke-width:0.774394" />
  <rect
     x="816.96899"
     y="195.47501"
     width="7.7439399"
     height="7.7439399"
     fill="#ffffff"
     id="rect159"
     style="stroke-width:0.774394" />
  <rect
     x="826.26172"
     y="195.47501"
     width="7.7439399"
     height="7.7439399"
     fill="#ffffff"
     id="rect161"
     style="stroke-width:0.774394" />
  <rect
     x="835.55444"
     y="195.47501"
     width="7.7439399"
     height="7.7439399"
     fill="#ffffff"
     id="rect163"
     style="stroke-width:0.774394" />
  <rect
     x="798.38354"
     y="227.99954"
     width="7.7439399"
     height="7.7439399"
     fill="#ffffff"
     id="rect165"
     style="stroke-width:0.774394" />
  <rect
     x="807.67627"
     y="227.99954"
     width="7.7439399"
     height="7.7439399"
     fill="#ffffff"
     id="rect167"
     style="stroke-width:0.774394" />
  <rect
     x="816.96899"
     y="227.99954"
     width="7.7439399"
     height="7.7439399"
     fill="#ffffff"
     id="rect169"
     style="stroke-width:0.774394" />
  <rect
     x="826.26172"
     y="227.99954"
     width="7.7439399"
     height="7.7439399"
     fill="#ffffff"
     id="rect171"
     style="stroke-width:0.774394" />
  <rect
     x="835.55444"
     y="227.99954"
     width="7.7439399"
     height="7.7439399"
     fill="#ffffff"
     id="rect173"
     style="stroke-width:0.774394" />
  <rect
     x="798.38354"
     y="260.52411"
     width="7.7439399"
     height="7.7439399"
     fill="#ffffff"
     id="rect175"
     style="stroke-width:0.774394" />
  <rect
     x="807.67627"
     y="260.52411"
     width="7.7439399"
     height="7.7439399"
     fill="#ffffff"
     id="rect177"
     style="stroke-width:0.774394" />
  <rect
     x="816.96899"
     y="260.52411"
     width="7.7439399"
     height="7.7439399"
     fill="#ffffff"
     id="rect179"
     style="stroke-width:0.774394" />
  <rect
     x="826.26172"
     y="260.52411"
     width="7.7439399"
     height="7.7439399"
     fill="#ffffff"
     id="rect181"
     style="stroke-width:0.774394" />
  <rect
     x="835.55444"
     y="260.52411"
     width="7.7439399"
     height="7.7439399"
     fill="#ffffff"
     id="rect183"
     style="stroke-width:0.774394" />
  <rect
     x="798.38354"
     y="293.04865"
     width="7.7439399"
     height="7.7439399"
     fill="#ffffff"
     id="rect185"
     style="stroke-width:0.774394" />
  <rect
     x="807.67627"
     y="293.04865"
     width="7.7439399"
     height="7.7439399"
     fill="#ffffff"
     id="rect187"
     style="stroke-width:0.774394" />
  <rect
     x="816.96899"
     y="293.04865"
     width="7.7439399"
     height="7.7439399"
     fill="#ffffff"
     id="rect189"
     style="stroke-width:0.774394" />
  <rect
     x="826.26172"
     y="293.04865"
     width="7.7439399"
     height="7.7439399"
     fill="#ffffff"
     id="rect191"
     style="stroke-width:0.774394" />
  <rect
     x="835.55444"
     y="293.04865"
     width="7.7439399"
     height="7.7439399"
     fill="#ffffff"
     id="rect193"
     style="stroke-width:0.774394" />
  <rect
     x="798.38354"
     y="325.57318"
     width="7.7439399"
     height="7.7439399"
     fill="#ffffff"
     id="rect195"
     style="stroke-width:0.774394" />
  <rect
     x="807.67627"
     y="325.57318"
     width="7.7439399"
     height="7.7439399"
     fill="#ffffff"
     id="rect197"
     style="stroke-width:0.774394" />
  <rect
     x="816.96899"
     y="325.57318"
     width="7.7439399"
     height="7.7439399"
     fill="#ffffff"
     id="rect199"
     style="stroke-width:0.774394" />
  <rect
     x="826.26172"
     y="325.57318"
     width="7.7439399"
     height="7.7439399"
     fill="#ffffff"
     id="rect201"
     style="stroke-width:0.774394" />
  <rect
     x="835.55444"
     y="325.57318"
     width="7.7439399"
     height="7.7439399"
     fill="#ffffff"
     id="rect203"
     style="stroke-width:0.774394" />
  <rect
     x="798.38354"
     y="358.09775"
     width="7.7439399"
     height="7.7439399"
     fill="#ffffff"
     id="rect205"
     style="stroke-width:0.774394" />
  <rect
     x="807.67627"
     y="358.09775"
     width="7.7439399"
     height="7.7439399"
     fill="#ffffff"
     id="rect207"
     style="stroke-width:0.774394" />
  <rect
     x="816.96899"
     y="358.09775"
     width="7.7439399"
     height="7.7439399"
     fill="#ffffff"
     id="rect209"
     style="stroke-width:0.774394" />
  <rect
     x="826.26172"
     y="358.09775"
     width="7.7439399"
     height="7.7439399"
     fill="#ffffff"
     id="rect211"
     style="stroke-width:0.774394" />
  <rect
     x="835.55444"
     y="358.09775"
     width="7.7439399"
     height="7.7439399"
     fill="#ffffff"
     id="rect213"
     style="stroke-width:0.774394" />
  <rect
     x="798.38354"
     y="390.62228"
     width="7.7439399"
     height="7.7439399"
     fill="#ffffff"
     id="rect215"
     style="stroke-width:0.774394" />
  <rect
     x="807.67627"
     y="390.62228"
     width="7.7439399"
     height="7.7439399"
     fill="#ffffff"
     id="rect217"
     style="stroke-width:0.774394" />
  <rect
     x="816.96899"
     y="390.62228"
     width="7.7439399"
     height="7.7439399"
     fill="#ffffff"
     id="rect219"
     style="stroke-width:0.774394" />
  <rect
     x="826.26172"
     y="390.62228"
     width="7.7439399"
     height="7.7439399"
     fill="#ffffff"
     id="rect221"
     style="stroke-width:0.774394" />
  <rect
     x="835.55444"
     y="390.62228"
     width="7.7439399"
     height="7.7439399"
     fill="#ffffff"
     id="rect223"
     style="stroke-width:0.774394" />
  <rect
     x="798.38354"
     y="423.14685"
     width="7.7439399"
     height="7.7439399"
     fill="#ffffff"
     id="rect225"
     style="stroke-width:0.774394" />
  <rect
     x="807.67627"
     y="423.14685"
     width="7.7439399"
     height="7.7439399"
     fill="#ffffff"
     id="rect227"
     style="stroke-width:0.774394" />
  <rect
     x="816.96899"
     y="423.14685"
     width="7.7439399"
     height="7.7439399"
     fill="#ffffff"
     id="rect229"
     style="stroke-width:0.774394" />
  <rect
     x="826.26172"
     y="423.14685"
     width="7.7439399"
     height="7.7439399"
     fill="#ffffff"
     id="rect231"
     style="stroke-width:0.774394" />
  <rect
     x="835.55444"
     y="423.14685"
     width="7.7439399"
     height="7.7439399"
     fill="#ffffff"
     id="rect233"
     style="stroke-width:0.774394" />
  <path
     d="m 575.73751,148.08208 -24.44762,3.65514 -50.45177,7.53486 -111.14877,16.61075 -0.39494,0.0542 -36.39651,239.67495 -0.14714,0.9525 414.30078,-180.91393 1.09965,-0.48012 z m 167.44721,76.95153 -12.76201,4.83222 -18.81778,-9.14559 12.66134,-4.25143 z m -202.40335,-67.00056 0.41816,-0.062 4.64637,2.87301 -3.16727,0.5111 -5.63759,0.90603 v 0 l -4.31337,-2.98141 6.61332,-1.00671 z m -3.95716,5.3588 4.09654,2.83429 2.06764,1.43262 -2.06764,0.41043 -1.54878,0.30976 -4.09655,0.81312 -5.93185,-4.59216 7.01601,-1.13062 v 0 z m 6.45844,-1.04543 v 0 l 3.98814,-0.65049 6.26484,3.87197 -9.09913,1.81208 -2.00568,-1.38617 -4.09654,-2.83427 z m 17.7104,-2.86525 7.92979,-1.27776 5.90862,3.09758 -8.51833,1.69592 -3.17501,-1.81208 -2.8188,-1.61074 z m 7.49613,6.00154 v 0 l 3.64739,2.08312 -0.83634,0.17037 -9.19206,1.82757 -5.70728,-3.50801 9.7109,-1.92823 z m -26.24421,9.1456 8.3712,-1.6727 1.23903,0.86733 v 0 l 0.28653,0.19359 1.78884,1.23903 -8.51833,1.83533 -2.39288,-1.88953 -0.17811,-0.14713 z m 9.82706,-1.95922 9.82706,-1.95921 2.32318,1.42488 0.43366,0.26329 0.66598,0.41044 -9.91224,2.14506 -1.64172,-1.13836 v 0 l -0.29427,-0.20908 z m -31.5101,59.38828 -19.26692,5.08002 -5.58338,-9.87352 18.206,-4.4063 z m -7.2793,-10.1523 -18.12081,4.39855 -4.64637,-8.23181 16.75788,-3.9649 0.35623,-0.0852 4.43727,6.19514 v 0.0542 z m 58.48998,-34.32889 1.78111,1.23903 -4.41405,0.9525 -5.21167,1.11513 -0.55756,0.1239 -1.41715,-1.09963 -1.64171,-1.27776 -6.96955,-5.42076 9.09913,-2.07537 6.5204,4.51471 v 0 z m -32.02894,-1.23903 1.19257,-0.27104 11.10481,-2.53228 6.9076,5.35107 1.64171,1.27776 1.47135,1.13835 -13.07177,2.82654 -1.8508,-1.54879 -1.25452,-1.05317 -5.42076,-4.55344 z m 23.40994,5.81569 1.20031,0.92928 0.41817,0.32524 5.93186,4.59216 -13.39702,3.17501 -7.31803,-6.19515 z m -15.48788,2.26124 -4.23594,0.91378 h -0.0774 l -22.20188,4.80124 -0.92153,0.20135 -6.79917,-8.01498 7.4729,-1.70367 17.47033,-3.98039 z m -26.48428,6.81466 21.3423,-4.64636 v 0 l 1.83531,-0.39494 4.32886,-0.93702 7.349,6.19515 -4.90965,1.16159 -1.80434,0.42592 -22.31804,5.28136 -5.82344,-6.86112 -0.17811,-0.20909 z m 11.87921,15.88283 -11.3836,2.75684 -7.2793,1.76562 -5.66082,-7.87559 12.69232,-3.00465 5.18844,-1.22354 z m -11.36036,3.87197 12.13475,-2.93496 7.29479,8.60351 -19.14301,5.04906 -0.32526,0.0852 -6.59783,-9.19206 z m 6.08673,-11.70884 22.45743,-5.31234 1.80434,-0.42592 4.99484,-1.18483 8.27052,6.96955 -3.60093,0.87507 -6.96954,1.68043 v 0 l -20.55242,4.98709 z m 30.56533,-7.23284 13.43574,-3.17502 2.82654,2.19154 5.90088,4.57666 -5.90088,1.43263 -7.9995,1.93599 z m 16.26228,-2.32319 -1.49459,-1.16159 1.49459,-0.35622 9.29272,-2.19153 9.43213,6.52813 -11.47653,2.78008 z m 0,-2.61745 -2.57873,0.61178 -6.42747,-4.97936 -1.12287,-0.85184 2.84976,-0.61951 7.24833,-1.54879 h 0.13165 l 7.96077,5.51369 z m -22.32579,-14.71348 -5.75374,-4.44502 8.61126,-1.8508 6.11772,4.23593 z m -1.34744,0.30975 -10.01291,2.28446 -1.54879,0.34848 -0.66598,0.15488 -5.51368,-4.64636 6.19515,-1.33196 1.54879,-0.33299 4.27465,-0.92153 z m -13.5364,3.09758 -16.56429,3.76356 -8.22407,1.87403 -4.44501,-5.22716 12.48323,-2.68715 11.16676,-2.40837 z m -25.92672,5.90862 -9.41662,2.14508 -6.55138,1.49458 -3.96489,-5.52143 10.29943,-2.21476 5.16521,-1.14611 z m -9.37791,3.23697 10.15231,-2.32318 6.76046,7.98401 -16.62624,3.60093 -0.46464,0.10068 -5.76923,-8.0382 z m 17.68716,6.58235 1.4094,1.65721 4.60764,5.42075 -4.42953,1.09189 -13.34281,3.09758 -5.42076,-7.57356 z m 15.17812,16.22356 19.03461,-4.64636 v 0 l 8.2473,-2.00569 4.05782,-0.98348 8.27053,6.96955 0.61951,0.51884 -0.61951,0.16263 -32.3387,8.51833 z m 39.618,-2.02891 -6.96955,-5.8854 6.96955,-1.68818 6.96955,-1.69592 9.16883,7.11668 -14.25661,3.76355 z m 8.30925,-9.59475 11.56945,-2.80331 9.66444,6.69077 -12.10378,3.1905 z m 12.96335,-3.1363 13.2886,-3.22148 10.16006,6.24163 -13.82294,3.6861 z m -1.17708,-0.82085 -9.41662,-6.5204 12.3903,-2.93495 10.19102,6.26485 z m -10.61693,-7.34125 -7.9298,-5.49046 11.87146,-2.56325 8.38668,5.111 z m -9.13011,-6.31906 -0.36397,-0.25555 -10.71761,-7.41869 10.57822,-2.41612 0.13939,0.0852 12.11927,7.45742 z m -12.27414,-8.51834 -6.09449,-4.22044 10.06712,-2.1683 6.51266,4.00361 z m -21.18743,-4.64636 v 0 l 2.57874,1.99019 -3.17502,0.68148 -1.54878,0.33298 -7.21736,1.54879 -3.17501,-2.67166 3.87197,-0.7744 v 0 l 1.42488,-0.27877 h 0.062 l 4.99484,-0.99897 1.54879,-0.30202 v 0 l 0.41817,0.33299 v 0 z m -20.90864,3.56221 7.05474,-1.4094 3.19824,2.69489 -10.16004,2.19154 -13.25763,2.90398 -2.68715,-3.16727 z m -14.33403,6.58235 -4.45276,0.96025 -10.94218,2.32318 -2.48582,-3.46928 13.29635,-2.65617 1.88177,-0.37171 z m -16.53331,3.56222 -13.93909,2.9969 -2.14507,-3.77905 13.56738,-2.71037 z m 0.68147,0.94475 3.97264,5.53692 -14.71349,3.35313 -3.31441,-5.86217 z m 4.64636,6.47394 5.76149,8.02272 -16.01446,3.46929 -4.58441,-8.10791 z m 6.44296,8.97522 1.01445,1.38617 v 0 l 4.4218,6.19516 -0.41044,0.0929 -16.57976,3.92618 -4.59217,-8.1234 z m -7.41869,21.06353 -19.84772,4.87093 -3.63191,-8.58803 18.81778,-4.45276 z m 0.54207,0.96799 5.59887,9.889 -21.079,5.62985 -4.48375,-10.6092 z m 6.14095,10.84151 6.66753,11.80176 -22.53487,6.41199 -5.34331,-12.56067 z m 1.06866,-0.27878 19.35985,-5.111 7.92205,11.01962 -20.62212,5.86991 z m 20.49821,-5.42076 19.56894,-5.111 8.73516,10.2917 -20.45175,5.81569 z m 20.73827,-5.42076 v 0 l 31.57205,-8.33248 1.61848,-0.42592 10.67889,9.06816 -35.17297,10.00517 z m 34.42955,-9.11461 14.34178,-3.74032 11.07384,8.58028 -14.71349,4.18947 z m 15.62727,-4.11979 12.18897,-3.21373 11.72433,8.1234 -12.86269,3.65514 z m 13.54416,-3.4925 13.93909,-3.67064 12.39031,7.6123 -14.61282,4.15849 z m 15.37172,-4.06557 12.46775,-3.28344 12.69231,7.24058 -12.80074,3.63966 z m -1.25451,-0.7744 -10.12133,-6.19515 12.15024,-2.97367 10.35364,5.90862 z m -11.39909,-7.01601 -10.18328,-6.25711 11.61591,-2.74909 10.64792,6.07125 z m -11.46877,-7.05473 -8.35571,-5.09551 11.3681,-2.46258 8.51833,4.85546 z m -9.64896,-5.93185 -12.28188,-7.55034 10.43109,-2.3774 13.16469,7.49614 z m -13.58286,-8.35572 h -0.0465 l -6.4662,-3.97264 6.44296,-1.38617 3.73258,-0.77439 6.68302,3.81776 z m -0.0465,-6.46619 -3.46929,0.77439 h -0.0774 l -4.23594,0.94477 -0.48786,-0.30201 -0.44916,-0.27879 -2.43933,-1.50232 8.93651,-1.78111 1.16933,-0.23232 3.36862,1.9205 z m -14.01654,-0.92153 -9.7109,1.93599 -5.21167,-3.61642 9.21529,-1.82757 z m -11.16676,2.22251 -8.26278,1.64946 -0.24007,-0.18585 -1.54878,-1.20032 -2.98917,-2.32317 2.98917,-0.59629 1.54878,-0.30975 3.28343,-0.6505 z m -10.06712,1.61849 0.40268,0.30975 -0.40268,0.0775 -11.44555,2.28446 -4.476,-3.7713 11.53848,-2.32318 z m -12.7775,2.93495 -6.19515,1.24677 v 0 l -16.39393,3.26794 -2.43934,-2.873 -1.01445,-1.13061 0.91378,-0.17811 14.71349,-2.92721 v 0 l 5.9396,-1.18482 z m -25.02068,3.36087 1.18483,1.39391 -1.12288,0.22457 -13.93908,2.78782 -2.9427,-4.10429 14.62831,-2.90397 z m -15.03873,4.64636 -13.43573,2.67941 -2.38513,-4.2127 12.87817,-2.56325 z m -14.54311,2.90398 -15.02325,2.9969 -1.82757,-4.3366 14.45794,-2.86526 z m 0.55756,0.97574 2.14507,3.79453 -15.55757,3.35312 -1.74239,-4.12752 z m 2.69489,4.77027 3.32989,5.87764 -16.37842,3.73258 -2.63294,-6.23387 z m 3.87197,6.84563 4.57667,8.09242 -17.64069,3.81777 -3.43832,-8.14663 z m 5.12649,9.06816 4.58441,8.13114 -18.68612,4.42178 -3.68612,-8.71967 z m -11.07383,22.40322 -19.96389,4.83996 -2.55549,-8.96748 18.87972,-4.46826 z m 0.41817,0.99896 4.49148,10.6247 -21.37327,5.63758 -3.22923,-11.39134 z m 4.90966,11.61592 5.32009,12.57615 -23.01499,6.54364 -3.80228,-13.45123 z m 5.73825,13.56738 6.19516,14.71348 -24.83482,7.63553 -4.4605,-15.74342 z m 1.03769,-0.29426 22.65878,-6.45071 7.79814,13.77647 -24.23853,7.38772 z m 23.68872,-6.74498 20.75375,-5.90863 9.24627,12.88592 -22.20962,6.77595 z m 21.84566,-6.19515 20.54466,-5.83894 10.2917,12.11927 -21.60559,6.5901 z m 21.68303,-6.19515 35.39754,-10.06713 12.6536,10.65567 -37.75945,11.53072 z m 36.63657,-10.42335 14.79093,-4.20496 13.1647,10.18328 -15.29429,4.64637 z m 16.06094,-4.56892 12.96335,-3.63191 13.93909,9.64895 -13.76872,4.19722 z m 14.28756,-4.05782 14.71349,-4.18174 14.71348,9.06816 -15.54983,4.73929 z m 16.09965,-4.58442 12.87043,-3.65514 15.17812,8.66547 -13.31183,4.05782 z m 14.32629,-4.05783 12.04958,-3.43056 15.61952,8.23955 -12.52969,3.82551 z m -1.29323,-0.77439 -12.64586,-7.19412 11.61592,-3.05885 13.03304,6.86888 z m -13.9933,-7.96851 -10.31493,-5.87765 11.27517,-2.73362 10.57048,5.57564 z m -11.66238,-6.65205 -10.64792,-6.07124 10.68664,-2.52453 11.15902,5.8854 z m -12.0031,-6.84564 -8.47187,-4.83222 10.40786,-2.24574 8.67321,4.56893 z m -9.8348,-5.59887 -13.16471,-7.50388 9.41664,-2.15281 14.06299,7.41869 z m -14.53538,-8.28601 -6.65979,-3.80228 9.11461,-1.96696 6.89212,3.63965 z m -8.05371,-4.59216 -3.33763,-1.90501 9.03718,-1.80434 3.33764,1.75788 z m -4.74702,-2.71038 -6.03254,-3.44605 8.60352,-1.70367 6.381,3.36087 z m -9.06042,-3.93392 -9.63346,1.9205 -6.19515,-3.81002 9.74962,-1.54879 z m -30.84411,6.14094 -11.46878,2.27672 -6.00929,-5.05679 11.49201,-1.85855 z m -12.80073,2.54776 -5.86991,1.16934 -13.76872,2.7336 -1.66495,0.33299 -5.14198,-6.05576 6.56686,-1.06091 8.15437,-1.31647 5.65308,-0.91378 z m -22.50389,4.46826 -14.51214,2.88849 -4.80125,-6.68303 14.14818,-2.32318 z m -15.666,3.09757 -12.74652,2.53227 -4.143,-7.27156 12.05731,-1.95148 z m -13.8539,2.75685 -14.33404,2.84976 -3.39958,-8.02272 13.56738,-2.19153 z m -15.41044,3.09757 -14.10172,2.80331 -2.47806,-8.75066 13.1647,-2.12958 z m 0.42591,0.99896 1.83532,4.33661 -14.80641,2.95044 -1.26226,-4.45276 z m 2.26124,5.34333 1.75012,4.143 -15.41818,3.32215 -1.27001,-4.48373 z m 2.17605,5.14197 2.63294,6.24162 -16.31649,3.71709 -1.87403,-6.60558 z m 3.05885,7.24059 3.43831,8.13888 -17.571,3.79453 -2.32318,-8.18534 z m 3.87197,9.13785 3.69386,8.73516 -18.75582,4.43728 -2.64068,-9.34694 z m -13.28086,23.41767 -21.86889,5.29686 -1.20804,-9.41664 20.52917,-4.85544 z m 0.28653,1.02994 3.22922,11.4378 -23.66548,6.19515 -1.54878,-12.31286 z m 3.52349,12.43677 3.81776,13.47445 -25.77957,7.33352 -1.85855,-14.52763 z m 4.10429,14.50441 4.46825,15.76666 -28.21117,8.59577 -2.18379,-16.99021 z m 4.75478,16.78885 5.42075,19.11204 -31.09192,10.43883 -2.68714,-20.90863 z m 1.0222,-0.30975 25.03616,-7.63553 7.45741,17.63295 -27.10379,9.08364 z m 26.08159,-7.97626 24.35469,-7.42644 9.1998,16.26228 -26.11256,8.76613 z m 25.40012,-7.74394 22.33353,-6.80692 10.77956,15.01549 -23.93652,8.0537 z m 23.3867,-7.10894 21.68303,-6.61332 11.84823,13.93909 -22.79042,7.65101 z m 22.81365,-6.96955 37.99951,-11.61591 14.20238,11.96439 -40.37689,13.5519 z m 39.21531,-11.95664 15.35623,-4.64636 14.61282,11.32164 -15.7899,5.29685 z m 16.603,-5.06454 13.86166,-4.22045 15.333,10.61695 -14.62056,4.90191 z m 15.16264,-4.64636 15.6505,-4.77026 16.00673,9.90449 -16.38618,5.4982 z m 17.03667,-5.18069 13.37379,-4.08106 16.32422,9.29272 -13.70677,4.60765 z m 14.78318,-4.50698 12.59165,-3.87197 16.64172,8.77389 -12.9556,4.35209 z m 14.03977,-4.28239 11.44553,-3.49252 17.03667,8.26278 -11.85596,3.97264 z m -1.33971,-0.71245 -15.58081,-8.21632 10.84152,-3.09757 16.12289,7.82911 z m -16.96697,-8.89779 -12.99433,-6.85338 10.34591,-2.74136 13.41249,6.51266 z m -14.38824,-7.58906 -10.52402,-5.5524 9.95871,-2.41612 10.84152,5.25814 z m -11.95665,-6.30357 -11.14352,-5.87764 9.29272,-2.20703 11.70109,5.68406 z m -12.57616,-6.63655 -8.62674,-4.55344 8.99071,-1.94373 8.87456,4.31337 z m -10.06711,-5.32784 -14.09398,-7.43418 7.94528,-1.80433 15.05422,7.31028 z m -15.54209,-8.19308 -6.86113,-3.62417 7.58906,-1.63397 7.13217,3.46154 z m -8.33248,-4.39856 -3.29892,-1.74239 7.4729,-1.48683 3.3299,1.61073 z m -4.80125,-2.53227 -6.37326,-3.36086 6.96955,-1.39391 6.76046,3.28343 z m -7.87558,-4.15074 -5.82344,-3.09758 6.96954,-1.12287 5.80021,2.81879 z m -7.39547,-3.87198 -4.95611,-2.60971 6.61332,-1.01445 5.18844,2.52452 z m -1.75013,0.28653 -7.51162,1.17707 v 0 l -1.0222,0.16263 -4.79349,-2.72587 2.19927,-0.33299 6.12546,-0.93701 z m -10.19102,1.64946 -9.66444,1.54878 -4.64636,-2.85751 9.45535,-1.48683 z m -21.60559,3.48477 -7.37223,1.19257 -4.02686,-3.09758 7.05474,-1.07641 z m -8.80486,1.39391 -11.41457,1.84306 -3.87196,-3.26021 11.23645,-1.71915 z m -12.80848,2.06763 -5.58338,0.90605 -7.18638,1.16158 -7.3335,1.18483 -3.04338,-3.58545 10.23749,-1.54879 3.66289,-0.5653 5.36655,-0.81312 z m -21.37327,3.42282 -14.03976,2.32318 -2.70264,-3.76355 13.69129,-2.09087 z m -15.21684,2.45483 -11.92567,1.92825 -2.238,-3.95716 11.45329,-1.75014 z m -13.04855,2.10635 -13.44347,2.20702 -1.75787,-4.16623 12.94785,-1.97471 z m -14.51988,2.32318 -13.04079,2.10635 -1.2313,-4.34435 12.50647,-1.90501 z m -14.10171,2.33093 -13.27312,2.14507 -0.59628,-4.59216 12.63037,-1.92823 z m 0.29426,1.03769 2.47807,8.76614 -14.7135,2.91946 -1.2003,-9.54827 z m 2.77233,9.79608 1.26227,4.46051 -15.48788,3.09758 -0.59628,-4.5999 z m 1.5488,5.49046 1.27,4.49922 -16.32422,3.51576 -0.62727,-4.89418 z m 1.54878,5.52916 1.87403,6.62108 -17.44709,3.98038 -0.90604,-7.05473 z m 2.1683,7.65102 2.32319,8.17761 -18.86424,4.08104 -1.06092,-8.24729 z m 2.60196,9.20755 2.6949,9.3779 -20.38205,4.81674 -1.2855,-10.06713 z m -17.42385,24.92 -23.45641,5.68404 0.17038,-9.889 22.07797,-5.21942 z m 0.13938,1.06865 1.54879,12.33611 -25.37689,6.67527 0.23231,-13.31957 z m 1.71916,13.40476 1.86629,14.54313 -27.74654,7.89107 0.27878,-15.68922 z m 1.99794,15.61179 2.18379,17.03667 -30.40271,9.29272 0.32524,-18.34539 z m 2.32317,18.08985 2.67941,20.90863 -33.65516,11.3139 0.41043,-22.90657 z m 2.81881,22.00828 3.4383,26.77079 -37.77494,14.3108 0.52659,-29.73673 z m 1.03768,-0.34849 31.24679,-10.48529 6.82241,24.09914 -34.63863,13.11823 z m 32.26125,-10.84151 27.21221,-9.13011 9.29272,21.94633 -29.68252,11.2442 z m 28.25764,-9.48633 26.22873,-8.77388 11.3139,20.00259 -28.28862,10.70987 z m 27.26641,-9.15333 24.00622,-8.06145 13.095,18.24473 -25.80281,9.81156 z m 25.09811,-8.41766 22.8756,-7.67426 14.2411,16.77338 -24.05267,9.10688 z m 24.00622,-8.04596 40.59373,-13.6216 16.68044,14.05526 -43.06405,16.30873 z m 41.77855,-14.01654 15.80538,-5.28136 17.03667,13.16469 -16.26227,6.1487 z m 17.03667,-5.72277 14.71349,-4.93288 17.68716,12.24316 -15.41045,5.83893 z m 15.96801,-5.3588 16.47135,-5.52918 18.29894,11.25195 -17.13735,6.48942 z m 17.81106,-5.97058 13.76872,-4.64636 18.4693,10.53175 -14.00105,5.30461 z m 15.12391,-5.08003 13.0253,-4.36757 18.65515,9.84254 -13.27311,5.02582 z m 14.38825,-4.83221 11.92566,-3.99587 18.89522,9.17657 -12.22769,4.64636 z m 24.61023,-9.37792 -12.60713,4.2282 -16.98247,-8.20858 12.39031,-3.7713 z m -18.65515,-8.43314 -12.31287,3.74807 -16.08416,-7.81364 11.92567,-3.39185 z m -17.98142,-8.1234 -11.85598,3.37636 -13.37379,-6.49716 11.61592,-3.09758 z m -15.19362,-6.87662 -11.50749,3.03563 -10.77957,-5.2349 11.34487,-2.74911 z m -12.52195,-5.66856 -11.27517,2.73361 -11.69335,-5.67631 10.80279,-2.5555 z m -13.76098,-6.19515 -10.72536,2.53227 -8.82809,-4.32112 10.61695,-2.32318 z m -10.57047,-4.78576 -10.53177,2.22252 -15.0852,-7.32577 9.59475,-2.16056 z m -17.57101,-7.99174 -9.54053,2.1683 -7.1012,-3.44606 8.6345,-1.85853 -0.11616,-0.54208 z m -8.91327,-4.0346 -9.29273,1.99794 -3.28343,-1.59525 7.94528,-1.58751 -0.20134,-1.00671 z m -4.89417,-2.21476 -9.29274,1.84306 -6.76045,-3.28343 8.95199,-1.77337 z m -8.77388,-3.97264 -8.84359,1.76562 -5.746,-2.77233 9.07589,-1.46361 z m -7.2251,-3.26795 -8.98298,1.44812 -5.20393,-2.52452 8.83584,-1.34745 z m -11.15902,-5.04905 4.06556,1.83532 -8.78937,1.36293 -3.87197,-1.88952 z m -10.43883,1.5488 3.87197,1.89726 -6.51266,0.99123 -3.69385,-1.94374 z m -12.72329,1.89726 v 0 l 4.64636,-0.68921 3.7016,1.95147 -5.67631,0.86732 -2.5555,0.39494 -3.51574,-2.01342 z m -5.11875,0.77439 3.52349,2.01342 -9.40114,1.43263 -3.36087,-2.05988 z m -10.84151,1.62623 3.3686,2.07538 -8.34022,1.27 -3.09758,-2.13732 z m -9.60249,1.44037 3.09758,2.13733 -6.96955,1.06092 -2.84203,-2.19928 z m -8.16211,1.2158 2.84977,2.20702 -11.15903,1.70367 -2.77232,-2.24575 z m -17.81107,2.66392 0.27104,-0.0387 5.111,-0.77439 2.68715,2.26897 -5.28136,0.77439 -2.69489,0.41043 -11.00415,1.68043 -2.05989,-2.42385 z m -14.27208,2.0986 2.06764,2.42385 -13.58288,2.07539 -1.81208,-2.48581 z m -14.5044,2.16831 1.80434,2.50903 -11.32164,1.72691 -1.47135,-2.59423 z m -12.11927,1.80434 1.47136,2.60196 -12.81622,1.95921 -1.13837,-2.69489 z m -13.57512,2.02891 1.14611,2.69489 -12.39031,1.88952 -0.77439,-2.78781 z m -13.08726,1.95921 0.77439,2.78783 -12.46774,1.90501 -0.3717,-2.89624 z m -26.32939,3.92618 13.16469,-1.96696 0.37172,2.89623 -13.61385,2.07539 z m -0.0697,4.0888 13.7997,-2.03665 0.58854,4.60764 -14.44244,2.32319 z m -0.10842,5.92412 14.60507,-2.3619 1.22355,9.55602 -15.96027,3.21374 z m -0.13165,11.49975 16.13064,-3.19825 0.58853,4.5999 -16.84307,3.36088 z m -0.10068,5.83118 16.99794,-3.38409 0.62727,4.90191 -17.72588,3.81776 z m -0.11616,6.43522 17.88076,-3.87197 0.90604,7.06247 -18.91845,4.31338 z m -0.15488,8.619 19.07332,-4.34435 1.06093,8.23181 -20.28139,4.38307 z m 20.26589,4.94838 1.29324,10.06713 -21.91535,5.18844 0.1936,-10.84152 z m -36.32682,-44.80643 15.74343,-2.32319 -0.0542,3.00465 -16.1616,2.47032 z m -0.63501,4.22818 16.26228,-2.49355 -0.0852,4.84772 -16.99019,2.7491 z m -0.94475,6.19516 17.14508,-2.77234 -0.22458,10.44658 -18.68613,3.7171 z m -1.89728,12.49097 18.83327,-3.74806 -0.0774,4.74703 -19.49924,3.87197 z m -0.9525,6.02479 19.64638,-3.91843 -0.0929,5.35106 -20.43626,4.39856 z m -1.05317,6.96954 20.58339,-4.42953 -0.13164,7.53485 -21.68304,4.94064 z m -1.39391,9.17658 21.83017,-4.97162 -0.14714,8.25505 -22.93755,4.96386 z m -1.42488,9.40888 23.08468,-4.99485 -0.19359,10.88025 -24.6722,5.83118 z m -1.95147,12.85494 24.82707,-5.8854 -0.17812,9.89676 -26.22098,6.36552 z m -1.75014,11.52298 26.38361,-6.38874 -0.27104,13.29633 -28.32733,7.47291 z m -2.32318,15.57307 28.48221,-7.51162 -0.27879,15.70471 -30.77441,8.7584 z m -2.7491,18.10533 30.93704,-8.79712 -0.32524,18.37637 -33.62419,10.24523 z m -3.22148,20.93186 33.77132,-10.29169 -0.40268,22.92981 -37.17092,12.47548 z m 32.08314,83.50291 -47.95822,20.90864 6.65205,-43.81522 41.99539,-15.90605 z m -41.12806,-24.07591 5.04905,-33.09759 37.34128,-12.52971 -0.48788,29.7832 z m 42.20447,23.60353 0.68921,-38.7197 37.94531,-14.365 4.42953,34.32888 z m 44.04754,-19.2282 -4.39082,-34.23595 34.79352,-13.16471 8.59577,30.37948 z m 39.9897,-17.47033 -8.58803,-30.32527 29.80642,-11.28291 11.53848,27.30512 z m 33.74035,-14.71349 -11.52299,-27.25867 28.40478,-10.76407 13.93909,24.57927 z m 31.75014,-13.87714 -13.87713,-24.52505 25.9422,-9.82707 15.89056,22.14767 z m 28.9546,-12.64585 -15.81313,-22.13218 24.14561,-9.13785 17.10637,20.13424 z m 26.43007,-11.54621 -17.03667,-20.13425 43.27313,-16.38618 19.58443,16.50234 z m 46.88181,-20.47498 -19.51473,-16.44039 16.26228,-6.19514 19.87094,15.39494 z m 17.71039,-7.74394 -19.79351,-15.34075 15.48788,-5.86216 20.444,14.15592 z m 17.28448,-7.55034 -20.37431,-14.1172 17.22252,-6.5204 20.90863,12.87817 z m 18.97265,-8.28602 -20.90864,-12.82396 14.06299,-5.32784 20.97059,11.96439 z m 15.38721,-6.72174 -20.90864,-11.91792 13.32732,-5.04905 21.03254,11.08932 z m 14.71348,-6.41972 -20.9551,-11.05061 12.28189,-4.64636 21.12546,10.26072 z m 13.7455,-6.00156 -21.04029,-10.222 12.81622,-4.85545 20.99382,9.50181 z"
     fill="#ededf4"
     id="path235"
     style="stroke-width:0.774394" />
  <polygon
     points="495.99,198.54 495.93,196.35 557.96,185.27 591.2,211.85 591.2,276.11 522.51,291.62 498.14,260.6 "
     fill="#ededf4"
     id="polygon237"
     transform="matrix(0.774394,0,0,0.774394,116.76193,6.3137787)" />
  <polygon
     points="498.14,260.6 495.99,198.54 521.4,221.82 591.2,212.3 591.2,276.11 523.24,291.46 522.51,291.62 "
     opacity="0.1"
     id="polygon239"
     transform="matrix(0.774394,0,0,0.774394,116.76193,6.3137787)" />
  <polygon
     points="590.09,212.96 591.2,212.5 591.2,276.11 523.24,291.46 521.4,221.82 "
     opacity="0.1"
     id="polygon241"
     transform="matrix(0.774394,0,0,0.774394,116.76193,6.3137787)" />
  <polygon
     points="539.93,206.18 545.7,206.18 545.7,233.27 547.7,233.27 547.7,206.18 553.46,206.18 550.08,200.31 546.7,194.45 543.31,200.31 "
     fill="#0aa8a7"
     id="polygon243"
     transform="matrix(0.774394,0,0,0.774394,116.76193,6.3137787)" />
  <polygon
     points="549.51,245.49 567.33,262.38 567.31,262.41 563.93,268.27 570.7,268.27 577.46,268.27 574.08,262.41 570.7,256.54 568.36,260.6 550.88,244.04 "
     fill="#0aa8a7"
     id="polygon245"
     transform="matrix(0.774394,0,0,0.774394,116.76193,6.3137787)" />
  <polygon
     points="554.37,240.75 577.16,236.68 578.08,241.94 583.27,237.6 588.47,233.26 582.12,230.93 575.76,228.6 576.82,234.71 554.02,238.78 "
     fill="#0aa8a7"
     id="polygon247"
     transform="matrix(0.774394,0,0,0.774394,116.76193,6.3137787)" />
  <path
     d="m 357.39712,236.25458 c -1.30098,-8.71193 -9.20755,-29.02428 -9.20755,-29.02428 v 0 c -0.13939,-0.61178 -0.29426,-1.20806 -0.47238,-1.80435 -5.61435,-19.30564 -13.38927,-21.01705 -13.38927,-21.01705 l -27.83171,-5.93186 a 2.1295835,2.1295835 0 0 1 0.57305,0.55757 c -0.1394,0 -0.28653,0 -0.44141,0.062 a 10.911212,10.911212 0 0 1 -2.43934,-5.27362 c -0.0542,-0.28652 -0.10068,-0.58854 -0.13939,-0.89055 a 19.57668,19.57668 0 0 0 -1.59525,-29.42697 c -0.28652,-0.22458 -0.5808,-0.44916 -0.89055,-0.65824 1.31647,-1.39391 1.35518,-3.33764 0.37945,-5.27362 -2.19929,-4.56119 -6.96955,-7.44193 -11.86371,-8.84359 -3.74807,-1.0764 -7.81365,-1.42488 -11.52299,-0.2478 a 42.026362,42.026362 0 0 0 -6.02478,2.79557 c -3.70161,1.8508 -7.74395,3.30665 -10.555,6.34228 a 3.1440397,3.1440397 0 0 0 -1.05317,2.54775 6.8843626,6.8843626 0 0 0 1.04543,1.85081 c 0.7744,1.38616 0.58854,3.1363 0.0542,4.64637 -0.53432,1.51006 -1.33969,2.91171 -1.71914,4.4605 -0.37946,1.54879 -0.23233,3.36861 0.92927,4.476 a 20.134244,20.134244 0 0 0 1.74238,1.23129 9.2927279,9.2927279 0 0 1 1.65721,1.85855 l 3.29892,4.45276 a 45.689245,45.689245 0 0 1 4.11977,6.28033 30.480148,30.480148 0 0 0 2.5555,4.78575 6.9695459,6.9695459 0 0 0 1.09964,1.14611 l -0.32525,-0.1239 a 4.9948412,4.9948412 0 0 0 3.68612,1.41713 h 0.17037 a 0.99896825,0.99896825 0 0 0 0.66597,-0.27103 v 0.61177 c 0.062,2.13733 0.0465,4.41405 -0.10069,6.55137 l -0.25554,-0.13165 a 2.2379986,2.2379986 0 0 0 -2.40063,0.25555 l -25.64018,20.56017 c 0,0 -5.57564,7.62778 -4.79351,20.77698 l -4.49148,19.73157 c 0,0 -5.6221,16.74239 -1.30098,28.70678 4.32112,11.96439 6.82241,18.7868 6.82241,18.7868 0,0 1.73464,13.58287 4.32112,14.71349 2.58648,1.13061 3.71709,1.71141 3.71709,1.71141 l 0.51885,3.24471 v 0 c 0,0 0.17036,0.3175 0.47237,0.85183 1.88953,3.28343 8.8823,14.86837 12.94787,13.62934 a 52.658792,52.658792 0 0 1 0.65823,9.52504 l 4.01911,26.98763 c 0,0 2.80331,7.349 2.63294,11.19 -0.17036,3.84099 3.28343,9.29272 3.28343,9.29272 a 17.811062,17.811062 0 0 0 -1.7269,12.56067 c 1.64172,7.17089 3.7171,40.31496 3.7171,40.31496 l 3.02013,8.03047 -0.062,9.34692 a 9.0371779,9.0371779 0 0 1 -1.85855,4.17399 c -1.94372,2.10635 -1.81207,4.5457 -6.48167,7.42644 -4.6696,2.88074 -7.64327,3.97264 -7.64327,7.81364 a 10.012914,10.012914 0 0 1 -0.13939,1.54878 c -0.43366,2.81106 -1.27775,4.32112 7.33351,5.14198 a 22.658768,22.658768 0 0 0 16.84307,-5.63759 c 0,0 1.49458,-2.69489 8.51834,-3.77905 0,0 2.39287,-0.13164 2.52451,-2.24573 0.0465,-0.72793 0.0387,-2.12959 0,-3.66289 -0.11615,-2.93495 -0.39494,-6.35003 -0.77439,-6.52039 -0.37945,-0.17037 -1.28549,-3.15953 -1.54878,-4.2282 h 1.94372 c 0,0 1.81983,-13.58286 0,-22.37999 -1.81982,-8.79711 -0.17036,-15.03098 -0.17036,-15.03098 l -0.34848,-23.23182 c 0,0 -2.41611,-2.56324 -0.51884,-7.09345 1.89726,-4.5302 0,-26.90245 0,-26.90245 0,0 0.69695,-8.03047 2.6794,-9.91224 1.98245,-1.88177 0.10069,-11.76304 0,-12.27414 l 3.53898,11.84822 c 0,0 1.54879,23.5803 4.83997,27.87819 l 0.94475,10.67115 c 0,0 6.73723,9.82705 5.42076,15.12391 -1.31647,5.29686 1.38617,24.43213 1.38617,24.43213 v 19.56119 c 0,0 -3.02788,7.85236 1.20805,10.67116 l 1.81982,-0.0697 c -0.61951,0.55756 -1.06091,1.40165 -1.75787,2.12184 -0.81311,0.83634 -1.27,4.00362 -1.54878,6.72948 -0.21684,2.32318 -0.28653,4.29014 -0.28653,4.29014 a 7.1089369,7.1089369 0 0 0 5.18844,3.09758 c 3.36861,0.1936 14.51214,8.71193 14.51214,8.71193 0,0 11.01963,0 13.86939,-0.57305 h 0.16263 a 3.7712987,3.7712987 0 0 0 2.15282,-1.75787 4.4450215,4.4450215 0 0 0 0.51884,-3.22922 c -0.34848,-1.68819 -1.68818,-3.53125 -4.64636,-5.10327 -7.39547,-3.87197 -8.51833,-7.55034 -8.51833,-7.55034 l -4.83223,-7.25606 h 0.68922 c 0,0 -0.43367,-7.68199 4.83221,-16.31649 l -0.34073,-38.06147 c 0,0 2.16056,-13.07177 -1.54879,-20.13423 0,0 -0.30202,-7.51937 2.17605,-9.81932 2.47806,-2.29995 -3.29892,-25.63244 -3.29892,-25.63244 0,0 -1.18482,-12.51421 -2.6097,-23.93653 v 0 c 5.83118,5.52918 11.88694,-14.38824 12.90139,-17.91947 h 0.14714 c 0,0 0,-0.10069 -0.0697,-0.26329 l 0.0697,-0.25555 v 0 c 0,0 -1.29323,-4.60765 -0.34848,-3.67063 0.94476,0.93702 3.28343,-2.56324 3.28343,-2.56324 0,0 -0.34072,-19.05009 3.7171,-28.65258 4.05782,-9.60249 -1.7966,-32.95047 -1.7966,-32.95047 z m -17.36966,12.15799 v -0.0465 c 0.60403,11.6159 -0.11616,36.45072 -0.11616,36.45072 0,0 -0.77439,3.17502 -1.6572,6.92308 l -0.61177,-23.58029 v 0 l -0.58079,-22.20962 z m -74.34182,-8.01498 c 0,0 2.93495,36.72951 0,42.02637 -0.83635,1.50232 -1.54879,4.18947 -2.12184,7.25606 -0.96799,-2.54775 -3.02014,-8.51833 -2.32318,-11.70109 0.94476,-4.09654 -1.90501,-14.86062 -1.90501,-15.11617 0,-0.25555 -0.25555,-5.97832 1.81983,-10.37688 2.07537,-4.39856 0.6892,-6.28033 0.6892,-6.28033 0,0 1.73465,-7.21735 3.81002,-5.84668 z"
     fill="url(#a2e0af23-4ced-4921-9ce0-827007506601)"
     id="path249"
     style="fill:url(#a2e0af23-4ced-4921-9ce0-827007506601);stroke-width:0.774394" />
  <path
     d="m 272.80232,323.07189 c -2.5555,11.25195 -12.73104,-5.75374 -15.04648,-9.8348 l -0.47237,-0.84409 1.10738,-5.17295 5.83119,-2.3774 a 16.262274,16.262274 0 0 1 2.6097,1.69593 c 3.19051,2.49355 7.94528,7.82913 5.97058,16.53331 z"
     fill="#a1616a"
     id="path251"
     style="stroke-width:0.774394" />
  <path
     d="m 351.74404,304.67229 c 0,0 0,0.0852 -0.062,0.2478 l -0.0852,0.27879 c -0.99123,3.50801 -6.93082,23.27829 -12.6536,17.81106 -6.27259,-6.01704 -3.22148,-19.84772 -3.22148,-19.84772 h 0.0387 l 13.1647,-1.34744 2.60971,2.6794 c 0,0 0,0 0,0 z"
     fill="#a1616a"
     id="path253"
     style="stroke-width:0.774394" />
  <path
     d="m 344.10852,401.92843 0.33299,37.72073 c -5.16521,8.57255 -4.7393,16.20033 -4.7393,16.20033 l -17.03666,0.67372 c -4.15849,-2.79556 -1.18482,-10.5937 -1.18482,-10.5937 v -19.40632 c 0,0 -2.63294,-18.98814 -1.36294,-24.24628 1.27001,-5.25813 -5.33557,-15.00776 -5.33557,-15.00776 l -0.93702,-10.59371 c -3.22147,-4.24367 -4.74703,-27.64586 -4.74703,-27.64586 l -3.46929,-11.76305 c 0.093,0.5111 1.88952,10.36914 0,12.18897 -1.88951,1.81982 -2.62519,9.8348 -2.62519,9.8348 0,0 1.86628,22.21737 0,26.70884 -1.86629,4.49149 0.50335,7.03925 0.50335,7.03925 l 0.34074,23.06145 c 0,0 -1.61074,6.19515 0.17036,14.91483 1.78111,8.71968 0,22.21736 0,22.21736 h -18.32991 l 0.0852,-9.40888 -2.95044,-8.00724 c 0,0 -2.03666,-32.89625 -3.6474,-40.02068 a 17.857526,17.857526 0 0 1 1.69593,-12.46 c 0,0 -3.39185,-5.42075 -3.22148,-9.24626 0.17036,-3.82551 -2.57099,-11.06609 -2.57099,-11.06609 l -3.94166,-26.79403 a 51.884398,51.884398 0 0 0 -1.95148,-15.26331 c -2.32318,-7.62778 -5.6763,-17.63295 -5.6763,-17.63295 l 3.8255,0.34073 19.35985,1.71916 c 0,0 46.96699,-3.15953 49.07334,-0.53434 a 8.6577248,8.6577248 0 0 1 0.88282,2.73362 c 2.10635,9.47858 4.89416,39.15336 4.89416,39.15336 0,0 5.68406,23.14664 3.24472,25.43884 -2.43934,2.29221 -2.13732,9.74187 -2.13732,9.74187 3.56994,7.02376 1.45585,20.0026 1.45585,20.0026 z"
     fill="#2f2e41"
     id="path255"
     style="stroke-width:0.774394" />
  <path
     d="m 304.40535,467.56607 c -0.13165,2.0986 -2.47807,2.22251 -2.47807,2.22251 -6.86887,1.08415 -8.33248,3.75581 -8.33248,3.75581 a 22.108949,22.108949 0 0 1 -16.53331,5.59887 c -8.44864,-0.77439 -7.62003,-2.32319 -7.19412,-5.111 a 9.8115719,9.8115719 0 0 0 0.13939,-1.54879 c 0,-3.81776 2.91947,-4.89417 7.50388,-7.74394 4.58441,-2.84977 4.44502,-5.28136 6.35777,-7.37223 1.91276,-2.09087 2.09861,-6.19515 2.09861,-6.19515 2.16056,-3.75581 7.62778,0.5653 7.62778,0.5653 0.25555,1.33196 8.39443,1.14611 8.39443,1.14611 0,0 1.08416,4.32112 1.63397,4.57667 0.37171,0.17036 0.64275,3.56221 0.7744,6.47394 0.0387,1.47908 0.0542,2.8575 0.008,3.6319 z"
     fill="#303d5c"
     id="path257"
     style="stroke-width:0.774394" />
  <path
     d="m 304.40535,467.56607 c -0.13165,2.0986 -2.47807,2.22251 -2.47807,2.22251 -6.86887,1.08415 -8.33248,3.75581 -8.33248,3.75581 a 22.108949,22.108949 0 0 1 -16.53331,5.59887 c -8.44864,-0.77439 -7.62003,-2.32319 -7.19412,-5.111 3.7713,0.93702 10.9964,2.24574 15.20135,-0.0465 5.85442,-3.17502 10.06713,-5.42076 10.06713,-5.42076 l 9.25401,-4.64636 c 0.0465,1.49457 0.062,2.87299 0.0155,3.64739 z"
     opacity="0.1"
     id="path259"
     style="stroke-width:0.774394" />
  <path
     d="m 356.15809,478.84125 a 3.7016033,3.7016033 0 0 1 -2.1141,1.75013 h -0.16261 c -2.79557,0.5653 -13.61385,0.5653 -13.61385,0.5653 0,0 -10.93445,-8.44864 -14.2411,-8.64223 a 6.9695459,6.9695459 0 0 1 -5.08778,-3.09758 c 0,0 0.062,-1.96696 0.27879,-4.25142 0.25555,-2.71038 0.70469,-5.85442 1.50232,-6.68303 1.46361,-1.54878 1.78111,-3.62415 5.08776,-2.32317 0,0 4.70058,-8.27827 10.22975,-1.88179 l 5.73052,8.68871 c 0,0 1.0764,3.62416 8.33248,7.50388 2.90398,1.54879 4.22045,3.3841 4.56117,5.05679 a 4.4914852,4.4914852 0 0 1 -0.50335,3.31441 z"
     fill="#303d5c"
     id="path261"
     style="stroke-width:0.774394" />
  <path
     d="m 356.15809,478.84125 c -0.65049,0.54981 -1.36293,1.13835 -2.1141,1.75013 h -0.16261 c -2.79557,0.5653 -13.61385,0.5653 -13.61385,0.5653 0,0 -10.93445,-8.44864 -14.2411,-8.64223 a 6.9695459,6.9695459 0 0 1 -5.08778,-3.09758 c 0,0 0.062,-1.96696 0.27879,-4.25142 3.36087,1.0067 8.46412,2.78781 9.8348,4.70057 2.09086,2.91947 8.46412,6.96954 8.46412,6.96954 0,0 11.87147,-1.13835 17.14508,-1.30098 a 4.4914852,4.4914852 0 0 1 -0.50335,3.30667 z"
     opacity="0.1"
     id="path263"
     style="stroke-width:0.774394" />
  <path
     d="m 309.92677,182.96079 -15.6505,16.53331 c 0,0 -18.94942,-1.39391 -15.64276,-6.96954 1.68818,-2.84978 1.95147,-8.82035 1.80433,-14.00879 -0.13939,-5.00259 -0.65823,-9.29273 -0.65823,-9.29273 0,0 26.58495,-13.22665 24.54829,-0.89055 a 20.366562,20.366562 0 0 0 -0.0774,7.04698 c 1.17708,6.22613 5.67631,7.58132 5.67631,7.58132 z"
     fill="#a1616a"
     id="path265"
     style="stroke-width:0.774394" />
  <path
     d="m 304.34338,168.33249 a 20.366562,20.366562 0 0 0 -0.0774,7.04698 c -3.54672,3.58544 -8.47187,2.79556 -13.93909,2.79556 -3.60868,0 -7.48064,0.0542 -10.38462,-1.6572 -0.1394,-5.00259 -0.17038,-7.29479 -0.17038,-7.29479 0,0 26.60818,-13.22665 24.57152,-0.89055 z"
     opacity="0.1"
     id="path267"
     style="stroke-width:0.774394" />
  <path
     d="m 309.92677,160.5808 a 19.592168,19.592168 0 0 1 -19.59216,19.58443 19.584424,19.584424 0 1 1 19.59216,-19.58443 z"
     fill="#a1616a"
     id="path269"
     style="stroke-width:0.774394" />
  <path
     d="m 336.58141,307.57627 c -4.87094,11.61591 -36.24938,11.84823 -36.24938,11.84823 v -12.6536 l -1.89727,-0.1239 c 0.82086,3.62416 -1.15384,12.45999 -1.15384,12.45999 -24.78061,3.50027 -30.83637,-10.61694 -30.83637,-10.61694 l 0.85957,-4.83221 19.35986,1.71915 c 0,0 46.96699,-3.15953 49.07334,-0.53434 a 8.6577248,8.6577248 0 0 1 0.84409,2.73362 z"
     opacity="0.1"
     id="path271"
     style="stroke-width:0.774394" />
  <path
     d="m 300.33203,317.89894 v -12.6536 l -1.89727,-0.1239 c 0.82086,3.62416 -1.15384,12.46 -1.15384,12.46 -18.6629,2.63294 -26.70111,-4.71606 -29.5354,-8.51834 a 11.801764,11.801764 0 0 1 -1.30097,-2.10635 l 7.56583,-42.59167 1.7811,-62.72591 2.73361,-10.9964 0.62726,-5.28136 v -0.062 h 0.0697 l 1.92824,0.8286 11.54622,4.99484 13.11823,-9.9045 0.18585,-0.14713 0.65823,-0.48788 1.08416,0.86733 2.69489,2.16056 8.64998,55.84155 c 0,0 15.00001,42.99435 17.81106,60.34852 0.10841,0.68922 0.20135,1.33196 0.27104,1.94374 1.82757,15.85958 -36.83792,16.15385 -36.83792,16.15385 z"
     fill="#e1e7ef"
     id="path273"
     style="stroke-width:0.774394" />
  <circle
     cx="294.09818"
     cy="192.37743"
     r="1.1151273"
     fill="#67647e"
     id="circle275"
     style="stroke-width:0.774394" />
  <circle
     cx="294.60925"
     cy="202.54521"
     r="1.1151273"
     fill="#67647e"
     id="circle277"
     style="stroke-width:0.774394" />
  <circle
     cx="295.7244"
     cy="219.01659"
     r="1.1151273"
     fill="#67647e"
     id="circle279"
     style="stroke-width:0.774394" />
  <circle
     cx="297.56744"
     cy="236.75793"
     r="1.1151273"
     fill="#67647e"
     id="circle281"
     style="stroke-width:0.774394" />
  <circle
     cx="298.68256"
     cy="253.42293"
     r="1.1151273"
     fill="#67647e"
     id="circle283"
     style="stroke-width:0.774394" />
  <circle
     cx="299.7977"
     cy="271.16431"
     r="1.1151273"
     fill="#67647e"
     id="circle285"
     style="stroke-width:0.774394" />
  <circle
     cx="299.35629"
     cy="288.71207"
     r="1.1151273"
     fill="#67647e"
     id="circle287"
     style="stroke-width:0.774394" />
  <path
     d="m 279.89578,270.55249 c 0,0 -1.24679,16.31648 -3.53125,21.06352 -2.28446,4.74704 -3.30665,18.05887 -3.30665,18.05887 l -5.31236,-0.60403 a 11.801764,11.801764 0 0 1 -1.30097,-2.10635 l 7.56583,-42.59167 1.7811,-62.72591 2.73361,-10.9964 0.62726,-5.28136 h 0.0775 a 2.1605592,2.1605592 0 0 1 1.88951,0 l 0.25555,0.13164 c -0.0774,0.21683 -0.15488,0.44141 -0.21683,0.66597 -2.07537,6.48943 -2.84976,18.44608 -2.84976,18.44608 0,0 2.97366,21.87663 3.30665,32.05216 0.33299,10.17554 -1.71914,33.88748 -1.71914,33.88748 z"
     opacity="0.1"
     id="path289"
     style="stroke-width:0.774394" />
  <path
     d="m 266.83174,306.53858 a 3.1827594,3.1827594 0 0 1 -0.20909,0.39495 c -2.05988,3.48477 -7.2793,5.69953 -8.86681,6.30356 l -0.47237,-0.84409 1.10738,-5.17295 5.83119,-2.3774 a 16.262274,16.262274 0 0 1 2.6097,1.69593 z"
     opacity="0.1"
     id="path291"
     style="stroke-width:0.774394" />
  <path
     d="m 252.7068,223.27574 -4.83222,2.88849 -4.4063,19.58443 c 0,0 -5.51369,16.61849 -1.27776,28.4822 4.23594,11.86372 6.69851,18.65515 6.69851,18.65515 0,0 1.69593,13.4822 4.24369,14.58185 2.54775,1.09964 3.64739,1.69592 3.64739,1.69592 l 0.50336,3.22148 c 0,0 6.89985,-2.32319 9.34693,-6.46619 2.44709,-4.14301 -1.79659,-14.38824 -1.79659,-14.38824 0,0 -3.6474,-8.73517 -2.71813,-12.80074 0.92928,-4.06556 -1.85854,-14.71348 -1.85854,-15.00775 0,-0.29427 -0.25555,-5.9396 1.77336,-10.29944 2.02891,-4.35984 0.68147,-6.23387 0.68147,-6.23387 l -1.27001,-12.46774 z"
     fill="#303d5c"
     id="path293"
     style="stroke-width:0.774394" />
  <path
     d="m 336.9841,303.91339 c 0,0 -12.80073,4.83221 -16.87404,0.58854 -4.07332,-4.24369 -3.64741,-24.07591 -3.64741,-24.07591 0,0 -3.87196,-36.62884 -6.35777,-42.64588 -2.4858,-6.01704 -1.18482,-49.43732 -1.18482,-49.43732 0,0 -1.65721,-5.61435 -3.09758,-7.07796 a 1.3706774,1.3706774 0 0 0 -0.30201,-0.2478 l 0.48786,0.10069 1.7424,0.37945 2.69489,2.16057 8.64997,55.84155 c 0,0 15.00002,42.99435 17.81107,60.34851 z"
     opacity="0.1"
     id="path295"
     style="stroke-width:0.774394" />
  <path
     d="m 351.74404,305.18339 h -0.14713 c -1.60299,0.20909 -15.83636,1.92824 -15.89057,-1.03769 a 9.029434,9.029434 0 0 1 0.0542,-1.02219 l 13.1647,-1.34745 2.60971,2.6794 c 0,0 0,0 0,0 0.0465,0.17037 0.0852,0.32524 0.1239,0.44141 z"
     opacity="0.1"
     id="path297"
     style="stroke-width:0.774394" />
  <path
     d="m 338.09148,203.66034 9.35468,4.87868 c 0,0 7.74394,20.13425 9.03718,28.8152 0,0 5.76923,23.16213 1.7811,32.69492 -3.98812,9.53279 -3.63965,28.43574 -3.63965,28.43574 0,0 -2.32318,3.47703 -3.22923,2.54002 -0.90604,-0.93702 0.34074,3.64739 0.34074,3.64739 0,0 -15.97575,2.12184 -16.04545,-1.01445 -0.0697,-3.1363 3.66289,-18.14405 3.66289,-18.14405 0,0 1.01446,-35.69957 -0.42592,-41.29069 -1.44037,-5.59113 -0.83634,-40.56276 -0.83634,-40.56276 z"
     fill="#303d5c"
     id="path299"
     style="stroke-width:0.774394" />
  <path
     d="m 310.19007,241.67534 c 0,0 -5.2504,12.88592 -6.96955,13.73775 -1.71915,0.85184 0.33298,4.23593 0.33298,4.23593 0,0 9.61023,-13.39701 6.63657,-17.97368 z"
     opacity="0.1"
     id="path301"
     style="stroke-width:0.774394" />
  <path
     d="m 307.05377,196.4817 c 0.062,-0.24006 -6.27259,6.19516 -7.96852,7.17864 -1.69592,0.98348 6.19515,-0.0542 7.96852,-7.17864 z"
     opacity="0.1"
     id="path303"
     style="stroke-width:0.774394" />
  <path
     d="m 289.42082,240.66863 c 0,0 -9.66444,6.24936 -8.39444,8.71967 1.27001,2.47032 8.39444,-8.71967 8.39444,-8.71967 z"
     opacity="0.1"
     id="path305"
     style="stroke-width:0.774394" />
  <path
     d="m 306.96859,331.89224 c 0,0 8.2318,5.28911 21.03253,6.61332 z"
     opacity="0.1"
     id="path307"
     style="stroke-width:0.774394" />
  <path
     d="m 287.21379,344.60779 c 0,0 7.63553,9.57926 11.11256,9.83481 3.47703,0.25555 -11.11256,-9.83481 -11.11256,-9.83481 z"
     opacity="0.1"
     id="path309"
     style="stroke-width:0.774394" />
  <path
     d="m 297.90044,382.1659 c -0.34074,0.17036 -4.32888,8.64998 -8.39444,8.90553 -4.06557,0.25555 8.39444,-8.90553 8.39444,-8.90553 z"
     opacity="0.1"
     id="path311"
     style="stroke-width:0.774394" />
  <path
     d="m 333.25152,400.73586 c 0,0 7.56582,-1.69592 9.24626,3.73258 0,0 -0.5111,-1.69592 -9.24626,-3.73258 z"
     opacity="0.1"
     id="path313"
     style="stroke-width:0.774394" />
  <path
     d="m 328.17149,431.76583 c 0,0 9.15334,-1.86629 11.10481,0.68147 1.95147,2.54776 -11.10481,-0.68147 -11.10481,-0.68147 z"
     opacity="0.1"
     id="path315"
     style="stroke-width:0.774394" />
  <path
     d="m 302.25252,436.0947 c 0,0.0852 -9.29272,1.86629 -8.95973,3.05111 0.33299,1.18482 9.95096,1.01445 10.28395,-0.85183 a 1.7656183,1.7656183 0 0 0 -1.32422,-2.19928 z"
     opacity="0.1"
     id="path317"
     style="stroke-width:0.774394" />
  <path
     d="m 325.11263,444.1484 c 0,0 15.32526,-1.8663 14.35727,1.35518 -0.96799,3.22148 -14.35727,-1.35518 -14.35727,-1.35518 z"
     opacity="0.1"
     id="path319"
     style="stroke-width:0.774394" />
  <path
     d="m 244.87767,255.38211 c 0.0852,0.25555 10.06712,1.61075 11.44555,4.83223 0,0 -9.8348,-4.57668 -11.36036,-4.57668"
     opacity="0.1"
     id="path321"
     style="stroke-width:0.774394" />
  <path
     d="m 258.97939,281.61084 c 0,0 -8.30925,2.62519 -7.74394,6.61332 0.56531,3.98814 -0.81311,-1.86628 7.74394,-6.61332 z"
     opacity="0.1"
     id="path323"
     style="stroke-width:0.774394" />
  <path
     d="m 255.10742,301.79155 c 0,0 3.02788,-4.1585 5.90863,-3.39184 2.88074,0.76664 -5.90863,3.39184 -5.90863,3.39184 z"
     opacity="0.1"
     id="path325"
     style="stroke-width:0.774394" />
  <path
     d="m 302.57002,145.27103 a 4.7780109,4.7780109 0 0 1 -0.97573,0.72794 c -2.40836,1.3939 -3.05885,3.54672 -4.21271,6.02478 -1.05317,2.26897 -2.23025,4.64636 -4.36757,5.96283 -2.75685,1.66495 -6.3965,1.05318 -9.29274,2.50904 a 7.217352,7.217352 0 0 0 -3.83324,7.0857 20.505953,20.505953 0 0 0 0.81311,3.24472 22.852366,22.852366 0 0 1 0.87507,7.05473 0.95250461,0.95250461 0 0 1 0,0.20908 19.584424,19.584424 0 1 1 20.98608,-32.81882 z"
     opacity="0.1"
     id="path327"
     style="stroke-width:0.774394" />
  <path
     d="m 302.05892,139.37789 c -2.15281,-4.52246 -6.83015,-7.37997 -11.6159,-8.77388 -3.67063,-1.06867 -7.65876,-1.41714 -11.30616,-0.2478 a 41.422335,41.422335 0 0 0 -5.90862,2.77233 c -3.63191,1.83531 -7.62778,3.29116 -10.36139,6.30357 a 3.0975759,3.0975759 0 0 0 -1.02995,2.52451 6.6055808,6.6055808 0 0 0 1.02221,1.83532 c 0.77439,1.37842 0.57304,3.09757 0.0542,4.64637 -0.51884,1.54878 -1.31647,2.88849 -1.68817,4.42953 -0.37172,1.54104 -0.22458,3.33763 0.91378,4.43728 a 20.629856,20.629856 0 0 0 1.70367,1.22354 9.2927279,9.2927279 0 0 1 1.63397,1.84306 l 3.22922,4.42179 a 45.433695,45.433695 0 0 1 4.05008,6.19514 30.201366,30.201366 0 0 0 2.50904,4.74704 c 1.07641,1.43263 2.75684,2.58648 4.54569,2.42385 a 0.86732128,0.86732128 0 0 0 0.71244,-0.34073 0.97573643,0.97573643 0 0 0 0.0929,-0.44915 23.286027,23.286027 0 0 0 -0.87507,-7.04698 19.808999,19.808999 0 0 1 -0.82086,-3.25246 7.217352,7.217352 0 0 1 3.83325,-7.0857 c 2.88075,-1.44812 6.5204,-0.83634 9.29274,-2.50129 2.13732,-1.29324 3.3144,-3.69387 4.36757,-5.96283 1.15386,-2.48582 1.7966,-4.64638 4.21271,-6.03254 2.4161,-1.38616 2.62519,-3.73258 1.43262,-6.10997 z"
     fill="#2f2e41"
     id="path329"
     style="stroke-width:0.774394" />
  <path
     d="m 293.28505,459.51237 c 0,0 2.98141,3.81777 2.21476,5.97832 -0.76665,2.16056 -2.21476,-5.97832 -2.21476,-5.97832 z"
     opacity="0.1"
     id="path331"
     style="stroke-width:0.774394" />
  <path
     d="m 333.81682,469.05291 c 0,0 0.66599,-5.11874 3.33764,-5.16522 2.67167,-0.0465 2.79557,-0.27103 4.83222,0.50337 2.03666,0.77439 3.94942,2.00567 3.34539,2.19153 -0.60403,0.18585 -3.51576,-2.92721 -6.48169,-1.3397 a 21.528153,21.528153 0 0 0 -5.03356,3.81002 z"
     opacity="0.1"
     id="path333"
     style="stroke-width:0.774394" />
  <path
     d="m 284.37176,197.55811 8.36346,-5.88539 c 0,0 -12.27414,-7.24833 -13.73775,-6.23387 -1.46361,1.01445 -2.46257,10.18328 -2.46257,10.18328 z"
     opacity="0.1"
     id="path335"
     style="stroke-width:0.774394" />
  <path
     d="m 284.30981,197.17092 8.39444,-6.0093 c 0,0 -12.27415,-7.24832 -13.73775,-6.19515 -1.46361,1.05318 -2.46258,10.68663 -2.46258,10.68663 z"
     fill="#e1e7ef"
     id="path337"
     style="stroke-width:0.774394" />
  <path
     d="m 284.30981,197.17092 8.39444,-6.0093 c 0,0 -12.27415,-7.24832 -13.73775,-6.19515 -1.46361,1.05318 -2.46258,10.68663 -2.46258,10.68663 z"
     opacity="0.03"
     id="path339"
     style="stroke-width:0.774394" />
  <path
     d="m 280.3604,185.00519 -0.25555,-0.13165 a 2.1760472,2.1760472 0 0 0 -2.32317,0.2478 l -25.16006,20.41304 c 0,0 -5.46722,7.56583 -4.70832,20.62985 l 14.77543,21.0248 c 0,0 1.69593,-7.12443 3.73259,-5.76924 0,0 2.88074,36.45847 0,41.71661 -2.88075,5.25813 -4.13527,24.90451 -4.13527,24.90451 l 9.74962,1.09963 c 0,0 1.02221,-13.31182 3.30667,-18.05886 2.28446,-4.74704 3.53898,-21.05578 3.53898,-21.05578 0,0 2.05989,-23.71194 1.71915,-33.88748 -0.34073,-10.17553 -3.30666,-32.04442 -3.30666,-32.04442 0,0 0.82859,-12.80074 3.06659,-19.08881 z"
     fill="#303d5c"
     id="path341"
     style="stroke-width:0.774394" />
  <path
     d="m 305.42754,193.83328 -10.46206,-3.87197 c 0,0 13.31957,-14.58184 14.97677,-6.48943 z"
     opacity="0.1"
     id="path343"
     style="stroke-width:0.774394" />
  <path
     d="m 305.42754,193.32992 -10.46206,-3.87197 c 0,0 13.31957,-14.61281 14.96129,-6.49716 z"
     fill="#e1e7ef"
     id="path345"
     style="stroke-width:0.774394" />
  <path
     d="m 305.42754,193.32992 -10.46206,-3.87197 c 0,0 13.31957,-14.61281 14.96129,-6.49716 z"
     opacity="0.03"
     id="path347"
     style="stroke-width:0.774394" />
  <path
     d="m 305.08681,180.92413 a 0.57305156,0.57305156 0 0 1 0.43366,0.0929 z"
     opacity="0.1"
     id="path349"
     style="stroke-width:0.774394" />
  <path
     d="m 306.10127,179.90968 27.74653,5.97832 c 0,0 7.62778,1.69592 13.1647,20.85442 5.53692,19.15852 -7.5426,42.63814 -7.5426,42.63814 l -2.88849,-2.44708 1.44812,55.9577 c 0,0 -12.80848,4.83223 -16.87404,0.59629 -4.06557,-4.23593 -3.6474,-24.08365 -3.6474,-24.08365 0,0 -3.87197,-36.62884 -6.35778,-42.64588 -2.4858,-6.01704 -1.22354,-49.42957 -1.22354,-49.42957 0,0 -2.27672,-7.75943 -3.8255,-7.41869 z"
     fill="#303d5c"
     id="path351"
     style="stroke-width:0.774394" />
  <path
     d="m 331.47816,215.56277 c -0.39494,0.36397 -0.85183,17.29222 0.84409,30.20138 a 164.35738,164.35738 0 0 0 4.80899,23.23181 l -2.51679,-51.63659 c 0,0 -1.95147,-2.89623 -3.13629,-1.7966 z"
     opacity="0.1"
     id="path353"
     style="stroke-width:0.774394" />
  <path
     d="m 328.08631,200.98094 c 0.67372,0.42592 3.63965,7.45742 2.28446,10.3459 -1.35519,2.88849 -2.28446,-10.3459 -2.28446,-10.3459 z"
     opacity="0.1"
     id="path355"
     style="stroke-width:0.774394" />
  <path
     d="m 301.89631,139.37789 a 15.247818,15.247818 0 0 0 -6.10223,-6.38874 14.535375,14.535375 0 0 1 4.57667,5.37429 c 1.18482,2.37739 0.84409,4.76252 -1.48683,6.10997 -2.33093,1.34744 -3.05887,3.54672 -4.21271,6.02478 -1.05317,2.26898 -2.22252,4.64637 -4.36759,5.96283 -2.75684,1.66495 -6.39649,1.05318 -9.29272,2.50129 a 7.2328399,7.2328399 0 0 0 -3.83325,7.09345 20.722784,20.722784 0 0 0 0.81311,3.24472 22.852366,22.852366 0 0 1 0.87506,7.05473 0.88280915,0.88280915 0 0 1 -0.0929,0.44915 0.85957733,0.85957733 0 0 1 -0.71245,0.34073 4.2204473,4.2204473 0 0 1 -2.09086,-0.38719 4.8554503,4.8554503 0 0 0 3.61642,1.40164 0.69695459,0.69695459 0 0 0 0.77439,-0.77439 23.038221,23.038221 0 0 0 -0.86731,-7.04699 19.808999,19.808999 0 0 1 -0.82086,-3.25245 7.217352,7.217352 0 0 1 3.87197,-7.0857 c 2.87299,-1.44812 6.51265,-0.83635 9.29273,-2.50129 2.14507,-1.29325 3.3144,-3.69386 4.36757,-5.96284 1.1616,-2.48581 1.80435,-4.64637 4.21271,-6.03253 2.40837,-1.38617 2.66392,-3.74807 1.4791,-6.12546 z"
     opacity="0.1"
     id="path357"
     style="stroke-width:0.774394" />
</svg>
