<?xml version="1.0" encoding="UTF-8" standalone="no"?>
<svg
   xmlns:dc="http://purl.org/dc/elements/1.1/"
   xmlns:cc="http://creativecommons.org/ns#"
   xmlns:rdf="http://www.w3.org/1999/02/22-rdf-syntax-ns#"
   xmlns:svg="http://www.w3.org/2000/svg"
   xmlns="http://www.w3.org/2000/svg"
   xmlns:xlink="http://www.w3.org/1999/xlink"
   xmlns:sodipodi="http://sodipodi.sourceforge.net/DTD/sodipodi-0.dtd"
   xmlns:inkscape="http://www.inkscape.org/namespaces/inkscape"
   id="a3fdf556-7513-4367-833c-43bb1dab678b"
   data-name="Layer 1"
   width="1086.87"
   height="645.26"
   viewBox="0 0 1086.87 645.26"
   version="1.1"
   sodipodi:docname="banner-art.svg"
   inkscape:version="1.0.2 (e86c870879, 2021-01-15)">
  <metadata
     id="metadata362">
    <rdf:RDF>
      <cc:Work
         rdf:about="">
        <dc:format>image/svg+xml</dc:format>
        <dc:type
           rdf:resource="http://purl.org/dc/dcmitype/StillImage" />
        <dc:title>3d modeling</dc:title>
      </cc:Work>
    </rdf:RDF>
  </metadata>
  <sodipodi:namedview
     pagecolor="#ffffff"
     bordercolor="#666666"
     borderopacity="1"
     objecttolerance="10"
     gridtolerance="10"
     guidetolerance="10"
     inkscape:pageopacity="0"
     inkscape:pageshadow="2"
     inkscape:window-width="1360"
     inkscape:window-height="699"
     id="namedview360"
     showgrid="false"
     inkscape:snap-global="false"
     inkscape:zoom="0.60632827"
     inkscape:cx="200.72424"
     inkscape:cy="214.36929"
     inkscape:window-x="0"
     inkscape:window-y="0"
     inkscape:window-maximized="1"
     inkscape:current-layer="a3fdf556-7513-4367-833c-43bb1dab678b"
     inkscape:document-rotation="0"
     showguides="false" />
  <defs
     id="defs9">
    <linearGradient
       id="a2e0af23-4ced-4921-9ce0-827007506601"
       x1="1755.38"
       y1="741.53"
       x2="1755.38"
       y2="284.16"
       gradientTransform="matrix(0.6317045,0,0,0.6317045,-959.42505,157.18984)"
       gradientUnits="userSpaceOnUse">
      <stop
         offset="0"
         stop-color="gray"
         stop-opacity="0.25"
         id="stop2" />
      <stop
         offset="0.54"
         stop-color="gray"
         stop-opacity="0.12"
         id="stop4" />
      <stop
         offset="1"
         stop-color="gray"
         stop-opacity="0.1"
         id="stop6" />
    </linearGradient>
    <linearGradient
       id="eab5defd-bb13-45ae-a86e-22d39d3e2cea"
       x1="600"
       y1="803.52"
       x2="600"
       y2="630.46"
       gradientUnits="userSpaceOnUse">
      <stop
         offset="0"
         stop-color="gray"
         stop-opacity="0.25"
         id="stop1637" />
      <stop
         offset="0.54"
         stop-color="gray"
         stop-opacity="0.12"
         id="stop1639" />
      <stop
         offset="1"
         stop-color="gray"
         stop-opacity="0.1"
         id="stop1641" />
    </linearGradient>
    <linearGradient
       id="666c504c-cd42-41b9-a03e-d98f4dda3eb5"
       x1="199.26"
       y1="162.3"
       x2="199.26"
       y2="0"
       xlink:href="#eab5defd-bb13-45ae-a86e-22d39d3e2cea" />
    <linearGradient
       id="8e152b24-383a-4e7d-b315-0bee7e3d74a2"
       x1="2855.02"
       y1="635.26"
       x2="2855.02"
       y2="635.22"
       gradientTransform="matrix(-1,0,0,1,3466,0)"
       xlink:href="#eab5defd-bb13-45ae-a86e-22d39d3e2cea" />
    <linearGradient
       id="8f2a7dfd-1602-45be-be61-6ebd6ab5a03b"
       x1="2849.78"
       y1="664.28"
       x2="2849.78"
       y2="634.41"
       gradientTransform="matrix(-1,0,0,1,3466,0)"
       xlink:href="#eab5defd-bb13-45ae-a86e-22d39d3e2cea" />
    <linearGradient
       id="6fa74df0-cae9-46f9-9ace-4bf5394eec23"
       x1="902.47"
       y1="538.96"
       x2="902.47"
       y2="500.17"
       gradientTransform="rotate(0.13,41963.117,-69459.299)"
       gradientUnits="userSpaceOnUse">
      <stop
         offset="0"
         stop-opacity="0.12"
         id="stop1647" />
      <stop
         offset="0.55"
         stop-opacity="0.09"
         id="stop1649" />
      <stop
         offset="1"
         stop-opacity="0.02"
         id="stop1651" />
    </linearGradient>
    <linearGradient
       id="1fbefcf2-1d0d-411f-b7ef-97a6712cae01"
       x1="910.63"
       y1="452.78"
       x2="910.63"
       y2="204.14"
       xlink:href="#eab5defd-bb13-45ae-a86e-22d39d3e2cea"
       gradientTransform="matrix(0.55413975,0,0,0.55413975,-802.28265,72.5434)" />
    <linearGradient
       id="e2bf1f7d-47c1-4d5e-a8e7-eb090eb66cd5"
       x1="722.82"
       y1="71.75"
       x2="722.82"
       y2="27.57"
       gradientUnits="userSpaceOnUse">
      <stop
         offset="0"
         stop-color="gray"
         stop-opacity="0.25"
         id="stop4362" />
      <stop
         offset="0.54"
         stop-color="gray"
         stop-opacity="0.12"
         id="stop4364" />
      <stop
         offset="1"
         stop-color="gray"
         stop-opacity="0.1"
         id="stop4366" />
    </linearGradient>
    <linearGradient
       id="a3595478-8223-4729-894e-2a36a16c8458"
       x1="885.66"
       y1="728.42"
       x2="885.66"
       y2="125.42"
       xlink:href="#e2bf1f7d-47c1-4d5e-a8e7-eb090eb66cd5"
       gradientTransform="translate(-1739.7169,305.16124)" />
    <linearGradient
       id="a3595478-8223-4729-894e-2a36a16c8458-3"
       x1="885.66"
       y1="728.42"
       x2="885.66"
       y2="125.42"
       xlink:href="#e2bf1f7d-47c1-4d5e-a8e7-eb090eb66cd5"
       gradientTransform="translate(-1582.7745,-85.678383)" />
    <linearGradient
       inkscape:collect="always"
       xlink:href="#e2bf1f7d-47c1-4d5e-a8e7-eb090eb66cd5"
       id="linearGradient7162"
       gradientUnits="userSpaceOnUse"
       x1="722.82"
       y1="71.75"
       x2="722.82"
       y2="27.57"
       gradientTransform="translate(-1502.9345,39.741617)" />
  </defs>
  <title
     id="title11">3d modeling</title>
  <path
     d="m 43.562975,437.74685 a 14.23528,14.23528 0 0 1 28.470552,0"
     fill="#f2f2f2"
     id="path1937"
     style="stroke-width:0.829303" />
  <path
     d="m 57.798255,437.74685 a 0.38479647,0.38479647 0 0 1 -0.384738,-0.38473 v -7.50238 a 0.38473842,0.38473842 0 1 1 0.769476,0 v 7.50238 a 0.38479647,0.38479647 0 0 1 -0.384738,0.38473 z"
     fill="#cccccc"
     id="path1939"
     style="stroke-width:0.829303" />
  <path
     d="m 57.798064,435.16885 a 0.38297201,0.38297201 0 0 1 -0.250449,-0.0928 l -4.616803,-3.96252 a 0.38473013,0.38473013 0 1 1 0.501164,-0.58383 l 4.616853,3.96253 a 0.38474671,0.38474671 0 0 1 -0.250798,0.67671 z"
     fill="#cccccc"
     id="path1941"
     style="stroke-width:0.829303" />
  <path
     d="m 87.423014,437.74685 a 14.23528,14.23528 0 0 1 28.470556,0"
     fill="#f2f2f2"
     id="path1943"
     style="stroke-width:0.829303" />
  <path
     d="m 101.65829,437.74685 a 0.38474671,0.38474671 0 0 1 -0.38473,-0.38473 v -7.50238 a 0.38473842,0.38473842 0 0 1 0.76947,0 v 7.50238 a 0.38479647,0.38479647 0 0 1 -0.38474,0.38473 z"
     fill="#cccccc"
     id="path1945"
     style="stroke-width:0.829303" />
  <path
     d="m 101.6581,435.16885 a 0.38297201,0.38297201 0 0 1 -0.25045,-0.0928 l -4.616841,-3.96252 a 0.38474671,0.38474671 0 1 1 0.501206,-0.58383 l 4.616845,3.96253 a 0.38473842,0.38473842 0 0 1 -0.25079,0.67671 z"
     fill="#cccccc"
     id="path1947"
     style="stroke-width:0.829303" />
  <circle
     cx="670.08081"
     cy="138.23145"
     r="27.366991"
     fill="#f2f2f2"
     id="circle1949"
     style="stroke-width:0.829303" />
  <ellipse
     cx="109.47217"
     cy="462.48877"
     rx="24.879082"
     ry="5.805119"
     fill="#f2f2f2"
     id="ellipse1951"
     style="stroke-width:0.829303" />
  <path
     d="m 96.772017,224.19134 c 6.524903,-20.37477 22.457433,-36.17614 41.352283,-45.57427 22.41862,-11.15081 48.18,-12.41335 72.5219,-8.07346 26.27723,4.68494 50.83643,15.48511 74.60873,27.27118 23.31732,11.56048 46.25851,23.7675 70.50784,33.32105 a 456.42784,456.42784 0 0 0 151.71808,31.42682 c 46.79824,1.56117 96.83484,-3.56644 136.90513,-29.86983 36.71533,-24.10106 60.07819,-63.8609 72.24632,-105.30621 q 2.3367,-7.95893 4.15457,-16.05473 c 0.35358,-1.55903 -2.0445,-2.22467 -2.39904,-0.66139 -9.81546,43.2794 -30.7458,86.05426 -66.50826,113.64264 -38.67934,29.83853 -89.44367,36.73637 -136.9484,35.94704 A 454.22321,454.22321 0 0 1 361.23504,230.60083 c -24.87307,-9.46925 -48.3449,-21.76533 -72.11576,-33.63625 -23.24874,-11.61017 -47.1506,-22.47832 -72.71566,-27.833 -23.34435,-4.88957 -48.33804,-5.18753 -70.84555,3.51325 -18.5332,7.16443 -35.43162,19.93456 -45.32086,37.40361 a 71.729811,71.729811 0 0 0 -5.864233,13.48152 c -0.489446,1.5284 1.911842,2.18272 2.39904,0.66138 z"
     fill="#f2f2f2"
     id="path1953"
     style="stroke-width:0.829303" />
  <path
     d="m 767.66462,414.50249 a 0.82930274,0.82930274 0 0 0 0,-1.6586 h -7.87838 v -3.31721 h 7.87838 a 0.829305,0.829305 0 0 0 0,-1.65861 h -67.17353 a 0.829305,0.829305 0 0 0 0,1.65861 h 7.87838 v 3.31721 h -7.87838 a 0.82930274,0.82930274 0 0 0 0,1.6586 h 7.87838 v 3.31722 h -7.87838 a 0.82930274,0.82930274 0 0 0 0,1.6586 h 7.87838 v 3.31721 h -7.04907 a 1.6586055,1.6586055 0 0 0 0,3.31721 h 6.71055 a 1.236167,1.236167 0 0 0 -0.0761,0.41465 v 11.61024 a 1.243955,1.243955 0 0 0 2.48791,0 v -11.61024 a 1.2361587,1.2361587 0 0 0 -0.0761,-0.41465 h 47.4225 a 1.236167,1.236167 0 0 0 -0.0761,0.41465 v 11.61024 a 1.243955,1.243955 0 0 0 2.48791,0 v -11.61024 a 1.2361587,1.2361587 0 0 0 -0.0761,-0.41465 h 6.71055 a 1.6586055,1.6586055 0 0 0 0,-3.31721 h -7.0492 v -3.31721 h 7.87838 a 0.82930274,0.82930274 0 0 0 0,-1.6586 h -7.87838 v -3.31722 z m -57.63654,-4.97581 h 48.09955 v 3.31721 h -48.09955 z m 48.09955,13.26884 h -48.09955 v -3.31721 h 48.09955 z m 0,-4.97581 h -48.09955 v -3.31722 h 48.09955 z"
     fill="#3f3d56"
     id="path1955"
     style="stroke-width:0.829303" />
  <path
     d="m 199.03688,379.88893 c 0,-14.64646 -11.88134,-49.4018 -26.53769,-49.4018 -14.65635,0 -26.53769,34.75534 -26.53769,49.4018 a 26.53772,26.53772 0 0 0 53.07544,0 z"
     fill="#e6e6e6"
     id="path1957"
     style="stroke-width:0.829303" />
  <path
     d="m 192.40246,379.88893 c 0,-14.64646 -11.88134,-49.4018 -26.53769,-49.4018 -14.65635,0 -26.53769,34.75534 -26.53769,49.4018 a 26.53772,26.53772 0 0 0 53.07544,0 z"
     fill="#f2f2f2"
     id="path1959"
     style="stroke-width:0.829303" />
  <path
     d="m 166.69405,439.22597 a 0.82934421,0.82934421 0 0 1 -0.82931,-0.82931 V 364.4721 a 0.829305,0.829305 0 0 1 1.65861,0 v 73.92456 a 0.82930274,0.82930274 0 0 1 -0.8293,0.82931 z"
     fill="#cccccc"
     id="path1961"
     style="stroke-width:0.829303" />
  <path
     d="m 166.69405,376.59094 a 0.82930274,0.82930274 0 0 1 -0.58632,-1.41562 l 10.84532,-10.84573 a 0.82921352,0.82921352 0 0 1 1.17269,1.17268 L 167.28042,376.348 a 0.82630066,0.82630066 0 0 1 -0.58637,0.24294 z"
     fill="#cccccc"
     id="path1963"
     style="stroke-width:0.829303" />
  <path
     d="m 773.42504,439.22597 a 0.82934421,0.82934421 0 0 1 -0.82931,-0.82931 V 364.4721 a 0.829305,0.829305 0 0 1 1.65861,0 v 73.92456 a 0.82930274,0.82930274 0 0 1 -0.8293,0.82931 z"
     fill="#3f3d56"
     id="path1965"
     style="stroke-width:0.829303" />
  <path
     d="m 862.16045,379.88893 c 0,-14.64646 -11.88133,-49.4018 -26.53768,-49.4018 -14.65635,0 -26.53769,34.75534 -26.53769,49.4018 a 26.537717,26.537717 0 0 0 53.07543,0 z"
     fill="#e6e6e6"
     id="path1967"
     style="stroke-width:0.829303" />
  <path
     d="m 855.52603,379.88893 c 0,-14.64646 -11.88134,-49.4018 -26.53769,-49.4018 -14.65635,0 -26.53768,34.75534 -26.53768,49.4018 a 26.537717,26.537717 0 0 0 53.07543,0 z"
     fill="#f2f2f2"
     id="path1969"
     style="stroke-width:0.829303" />
  <path
     d="m 829.81762,439.22597 a 0.82934421,0.82934421 0 0 1 -0.8293,-0.82931 V 364.4721 a 0.82930274,0.82930274 0 0 1 1.6586,0 v 73.92456 a 0.82930274,0.82930274 0 0 1 -0.8293,0.82931 z"
     fill="#cccccc"
     id="path1971"
     style="stroke-width:0.829303" />
  <path
     d="m 829.81762,376.59094 a 0.82930274,0.82930274 0 0 1 -0.58631,-1.41562 l 10.84532,-10.84573 a 0.82921269,0.82921269 0 0 1 1.17268,1.17268 L 830.404,376.348 a 0.82630066,0.82630066 0 0 1 -0.58638,0.24294 z"
     fill="#cccccc"
     id="path1973"
     style="stroke-width:0.829303" />
  <path
     d="m 254.60014,152.74423 h -13.26885 a 3.7360088,3.7360088 0 0 1 -3.73186,-3.73186 v -30.6842 a 3.7360088,3.7360088 0 0 1 3.73186,-3.73186 h 13.26885 a 3.7360088,3.7360088 0 0 1 3.73186,3.73186 v 30.6842 a 3.7360088,3.7360088 0 0 1 -3.73186,3.73186 z"
     fill="#e6e6e6"
     id="path1975"
     style="stroke-width:0.829303" />
  <path
     d="m 306.84621,438.85368 h -68.00282 a 7.057018,7.057018 0 0 1 -7.04908,-7.04908 V 157.3054 a 7.057018,7.057018 0 0 1 7.04908,-7.04908 h 68.00282 a 7.0569517,7.0569517 0 0 1 7.04907,7.04908 v 274.4992 a 7.0569517,7.0569517 0 0 1 -7.04907,7.04908 z"
     fill="#e6e6e6"
     id="path1977"
     style="stroke-width:0.829303" />
  <path
     d="m 266.21038,438.85368 h -68.00283 a 7.057018,7.057018 0 0 1 -7.04907,-7.04908 V 157.3054 a 7.057018,7.057018 0 0 1 7.04907,-7.04908 h 68.00283 a 7.057018,7.057018 0 0 1 7.04907,7.04908 v 274.4992 a 7.057018,7.057018 0 0 1 -7.04907,7.04908 z"
     fill="#f2f2f2"
     id="path1979"
     style="stroke-width:0.829303" />
  <path
     d="m 242.1606,152.74423 h -13.26885 a 3.7360088,3.7360088 0 0 1 -3.73186,-3.73186 v -30.6842 a 3.7360088,3.7360088 0 0 1 3.73186,-3.73186 h 13.26885 a 3.7360088,3.7360088 0 0 1 3.73186,3.73186 v 30.6842 a 3.7360088,3.7360088 0 0 1 -3.73186,3.73186 z"
     fill="#f2f2f2"
     id="path1981"
     style="stroke-width:0.829303" />
  <path
     d="m 224.74524,212.45403 h -15.75675 a 2.0756287,2.0756287 0 0 1 -2.07326,-2.07326 v -24.04978 a 2.0756287,2.0756287 0 0 1 2.07326,-2.07325 h 15.75675 a 2.0756287,2.0756287 0 0 1 2.07326,2.07325 v 24.04978 a 2.0756287,2.0756287 0 0 1 -2.07326,2.07326 z"
     fill="#ffffff"
     id="path1983"
     style="stroke-width:0.829303" />
  <path
     d="m 255.42944,212.45403 h -15.75675 a 2.0756287,2.0756287 0 0 1 -2.07326,-2.07326 v -24.04978 a 2.0756287,2.0756287 0 0 1 2.07326,-2.07325 h 15.75675 a 2.0756287,2.0756287 0 0 1 2.07326,2.07325 v 24.04978 a 2.0756287,2.0756287 0 0 1 -2.07326,2.07326 z"
     fill="#ffffff"
     id="path1985"
     style="stroke-width:0.829303" />
  <path
     d="m 224.74524,256.40707 h -15.75675 a 2.0756287,2.0756287 0 0 1 -2.07326,-2.07325 v -24.04978 a 2.0756287,2.0756287 0 0 1 2.07326,-2.07326 h 15.75675 a 2.0756287,2.0756287 0 0 1 2.07326,2.07326 v 24.04978 a 2.0756287,2.0756287 0 0 1 -2.07326,2.07325 z"
     fill="#ffffff"
     id="path1987"
     style="stroke-width:0.829303" />
  <path
     d="m 255.42944,256.40707 h -15.75675 a 2.0756287,2.0756287 0 0 1 -2.07326,-2.07325 v -24.04978 a 2.0756287,2.0756287 0 0 1 2.07326,-2.07326 h 15.75675 a 2.0756287,2.0756287 0 0 1 2.07326,2.07326 v 24.04978 a 2.0756287,2.0756287 0 0 1 -2.07326,2.07325 z"
     fill="#ffffff"
     id="path1989"
     style="stroke-width:0.829303" />
  <path
     d="m 224.74524,300.36012 h -15.75675 a 2.0756287,2.0756287 0 0 1 -2.07326,-2.07326 v -24.04978 a 2.0756287,2.0756287 0 0 1 2.07326,-2.07325 h 15.75675 a 2.0756287,2.0756287 0 0 1 2.07326,2.07325 v 24.04978 a 2.0756287,2.0756287 0 0 1 -2.07326,2.07326 z"
     fill="#ffffff"
     id="path1991"
     style="stroke-width:0.829303" />
  <path
     d="m 255.42944,300.36012 h -15.75675 a 2.0756287,2.0756287 0 0 1 -2.07326,-2.07326 v -24.04978 a 2.0756287,2.0756287 0 0 1 2.07326,-2.07325 h 15.75675 a 2.0756287,2.0756287 0 0 1 2.07326,2.07325 v 24.04978 a 2.0756287,2.0756287 0 0 1 -2.07326,2.07326 z"
     fill="#ffffff"
     id="path1993"
     style="stroke-width:0.829303" />
  <path
     d="m 224.74524,344.31316 h -15.75675 a 2.0756287,2.0756287 0 0 1 -2.07326,-2.07325 v -24.04978 a 2.0756287,2.0756287 0 0 1 2.07326,-2.07326 h 15.75675 a 2.0756287,2.0756287 0 0 1 2.07326,2.07326 v 24.04978 a 2.0756287,2.0756287 0 0 1 -2.07326,2.07325 z"
     fill="#ffffff"
     id="path1995"
     style="stroke-width:0.829303" />
  <path
     d="m 255.42944,344.31316 h -15.75675 a 2.0756287,2.0756287 0 0 1 -2.07326,-2.07325 v -24.04978 a 2.0756287,2.0756287 0 0 1 2.07326,-2.07326 h 15.75675 a 2.0756287,2.0756287 0 0 1 2.07326,2.07326 v 24.04978 a 2.0756287,2.0756287 0 0 1 -2.07326,2.07325 z"
     fill="#ffffff"
     id="path1997"
     style="stroke-width:0.829303" />
  <path
     d="m 224.74524,388.26621 h -15.75675 a 2.0756287,2.0756287 0 0 1 -2.07326,-2.07326 v -24.04978 a 2.0756287,2.0756287 0 0 1 2.07326,-2.07325 h 15.75675 a 2.0756287,2.0756287 0 0 1 2.07326,2.07325 v 24.04978 a 2.0756287,2.0756287 0 0 1 -2.07326,2.07326 z"
     fill="#ffffff"
     id="path1999"
     style="stroke-width:0.829303" />
  <path
     d="m 255.42944,388.26621 h -15.75675 a 2.0756287,2.0756287 0 0 1 -2.07326,-2.07326 v -24.04978 a 2.0756287,2.0756287 0 0 1 2.07326,-2.07325 h 15.75675 a 2.0756287,2.0756287 0 0 1 2.07326,2.07325 v 24.04978 a 2.0756287,2.0756287 0 0 1 -2.07326,2.07326 z"
     fill="#ffffff"
     id="path2001"
     style="stroke-width:0.829303" />
  <path
     d="m 898.64975,297.87221 h -13.26884 a 3.7360752,3.7360752 0 0 1 -3.73187,-3.73186 v -17.41536 a 3.7360752,3.7360752 0 0 1 3.73187,-3.73186 h 13.26884 a 3.7360669,3.7360669 0 0 1 3.73186,3.73186 v 17.41536 a 3.7360669,3.7360669 0 0 1 -3.73186,3.73186 z"
     fill="#e6e6e6"
     id="path2003"
     style="stroke-width:0.829303" />
  <path
     d="m 1010.6056,439.68298 h -68.00281 a 7.05696,7.05696 0 0 1 -7.04907,-7.04907 V 300.77477 a 7.05696,7.05696 0 0 1 7.04907,-7.04907 h 68.00281 a 7.0569517,7.0569517 0 0 1 7.0491,7.04907 v 131.85914 a 7.0569517,7.0569517 0 0 1 -7.0491,7.04907 z"
     fill="#e6e6e6"
     id="path2005"
     style="stroke-width:0.829303" />
  <path
     d="M 969.96979,439.68298 H 852.2088 a 7.05696,7.05696 0 0 1 -7.04908,-7.04907 V 300.77477 a 7.05696,7.05696 0 0 1 7.04908,-7.04907 h 117.76099 a 7.0569517,7.0569517 0 0 1 7.04907,7.04907 v 131.85914 a 7.0569517,7.0569517 0 0 1 -7.04907,7.04907 z"
     fill="#f2f2f2"
     id="path2007"
     style="stroke-width:0.829303" />
  <path
     d="m 886.21021,297.87221 h -13.26885 a 3.7360752,3.7360752 0 0 1 -3.73186,-3.73186 v -17.41536 a 3.7360752,3.7360752 0 0 1 3.73186,-3.73186 h 13.26885 a 3.7360669,3.7360669 0 0 1 3.73186,3.73186 v 17.41536 a 3.7360669,3.7360669 0 0 1 -3.73186,3.73186 z"
     fill="#f2f2f2"
     id="path2009"
     style="stroke-width:0.829303" />
  <path
     d="m 903.62557,358.82596 h -15.75676 a 2.0757033,2.0757033 0 0 1 -2.07325,-2.07325 v -24.04978 a 2.0757033,2.0757033 0 0 1 2.07325,-2.07326 h 15.75676 a 2.075695,2.075695 0 0 1 2.07325,2.07326 v 24.04978 a 2.075695,2.075695 0 0 1 -2.07325,2.07325 z"
     fill="#ffffff"
     id="path2011"
     style="stroke-width:0.829303" />
  <path
     d="m 934.30977,358.82596 h -15.75675 a 2.0757033,2.0757033 0 0 1 -2.07326,-2.07325 v -24.04978 a 2.0757033,2.0757033 0 0 1 2.07326,-2.07326 h 15.75675 a 2.075695,2.075695 0 0 1 2.07325,2.07326 v 24.04978 a 2.075695,2.075695 0 0 1 -2.07325,2.07325 z"
     fill="#ffffff"
     id="path2013"
     style="stroke-width:0.829303" />
  <path
     d="m 903.62557,402.77901 h -15.75676 a 2.0757033,2.0757033 0 0 1 -2.07325,-2.07326 v -24.04978 a 2.0757033,2.0757033 0 0 1 2.07325,-2.07326 h 15.75676 a 2.075695,2.075695 0 0 1 2.07325,2.07326 v 24.04978 a 2.075695,2.075695 0 0 1 -2.07325,2.07326 z"
     fill="#ffffff"
     id="path2015"
     style="stroke-width:0.829303" />
  <path
     d="m 934.30977,402.77901 h -15.75675 a 2.0757033,2.0757033 0 0 1 -2.07326,-2.07326 v -24.04978 a 2.0757033,2.0757033 0 0 1 2.07326,-2.07326 h 15.75675 a 2.075695,2.075695 0 0 1 2.07325,2.07326 v 24.04978 a 2.075695,2.075695 0 0 1 -2.07325,2.07326 z"
     fill="#ffffff"
     id="path2017"
     style="stroke-width:0.829303" />
  <path
     d="M 887.3581,440.09763 H 20.077237 a 0.82930274,0.82930274 0 1 1 0,-1.6586 H 887.3581 a 0.82930274,0.82930274 0 0 1 0,1.6586 z"
     fill="#e6e6e6"
     id="path2019"
     style="stroke-width:0.829303" />
  <path
     d="M 320.11505,469.12323 H 242.9899 a 0.829305,0.829305 0 0 1 0,-1.65861 h 77.12515 a 0.829305,0.829305 0 1 1 0,1.65861 z"
     fill="#e6e6e6"
     id="path2021"
     style="stroke-width:0.829303" />
  <path
     d="m 527.31851,303.02925 h -77.12516 a 0.829305,0.829305 0 0 1 0,-1.65861 h 77.12516 a 0.829305,0.829305 0 1 1 0,1.65861 z"
     fill="#e6e6e6"
     id="path2023"
     style="stroke-width:0.829303" />
  <path
     d="m 718.88744,303.02925 h -77.12515 a 0.829305,0.829305 0 0 1 0,-1.65861 h 77.12515 a 0.829305,0.829305 0 1 1 0,1.65861 z"
     fill="#e6e6e6"
     id="path2025"
     style="stroke-width:0.829303" />
  <path
     d="m 364.06812,379.88893 c 0,-14.64646 -11.88133,-49.4018 -26.53768,-49.4018 -14.65635,0 -26.53769,34.75534 -26.53769,49.4018 a 26.537717,26.537717 0 0 0 53.07543,0 z"
     fill="#e6e6e6"
     id="path2027"
     style="stroke-width:0.829303" />
  <path
     d="m 357.4337,379.88893 c 0,-14.64646 -11.88133,-49.4018 -26.53769,-49.4018 -14.65635,0 -26.53768,34.75534 -26.53768,49.4018 a 26.537717,26.537717 0 0 0 53.07543,0 z"
     fill="#f2f2f2"
     id="path2029"
     style="stroke-width:0.829303" />
  <path
     d="m 331.72529,439.22597 a 0.82934421,0.82934421 0 0 1 -0.8293,-0.82931 V 364.4721 a 0.829305,0.829305 0 0 1 1.65861,0 v 73.92456 a 0.82930274,0.82930274 0 0 1 -0.82931,0.82931 z"
     fill="#cccccc"
     id="path2031"
     style="stroke-width:0.829303" />
  <path
     d="m 331.72529,376.59094 a 0.82930274,0.82930274 0 0 1 -0.58631,-1.41562 l 10.84532,-10.84573 a 0.82921269,0.82921269 0 0 1 1.17268,1.17268 L 332.31167,376.348 a 0.82630066,0.82630066 0 0 1 -0.58638,0.24294 z"
     fill="#cccccc"
     id="path2033"
     style="stroke-width:0.829303" />
  <path
     d="m 782.54722,389.09551 h -18.24466 a 2.0751725,2.0751725 0 0 1 -2.07326,-2.07325 V 368.7776 a 2.0751725,2.0751725 0 0 1 2.07326,-2.07326 h 18.24466 a 2.0751725,2.0751725 0 0 1 2.07325,2.07326 v 18.24466 a 2.0751725,2.0751725 0 0 1 -2.07325,2.07325 z"
     fill="#3f3d56"
     id="path2043"
     style="stroke-width:0.829303" />
  <path
     d="m 959.65798,397.98016 a 1.4096322,1.4096322 0 0 1 0.92144,1.95528 l 3.60581,3.47742 -2.54015,0.56944 -3.03473,-3.38951 a 1.4172784,1.4172784 0 0 1 1.04757,-2.61263 z"
     fill="#ffb8b8"
     id="path2045"
     style="stroke-width:0.829303" />
  <path
     d="m 964.72866,407.12787 -4.44829,-4.17313 a 0.63085059,0.63085059 0 0 1 -0.0172,-0.90328 l 0.90834,-0.91991 a 0.63174624,0.63174624 0 0 1 0.83189,-0.058 l 3.72771,2.84889 2.32571,-5.64038 a 1.7602863,1.7602863 0 0 1 2.40203,-0.90962 v 0 a 1.7494722,1.7494722 0 0 1 0.96314,1.86546 c -0.42212,2.56561 -2.97875,5.9573 -4.46522,7.75072 a 1.5367975,1.5367975 0 0 1 -1.71334,0.45975 1.5327339,1.5327339 0 0 1 -0.51471,-0.32051 z"
     fill="#0aa8a7"
     id="path2047"
     style="stroke-width:0.829303" />
  <path
     d="m 962.23255,403.0796 -3.27498,-4.75016 a 0.28066922,0.28066922 0 0 1 0.0717,-0.38994 l 0.13155,-0.0907 a 0.28036238,0.28036238 0 0 1 0.38996,0.0717 l 3.27491,4.75015 a 0.28030433,0.28030433 0 0 1 -0.0716,0.38995 l -0.13156,0.0907 a 0.28061946,0.28061946 0 0 1 -0.38995,-0.0717 z"
     fill="#ffffff"
     id="path2049"
     style="stroke-width:0.829303" />
  <path
     d="m 961.31701,403.11492 -2.71797,-3.94232 a 0.77187353,0.77187353 0 0 1 0.19713,-1.07239 l 0.27694,-0.1909 3.59323,5.21177 -0.27691,0.19097 v 0 a 0.77159156,0.77159156 0 0 1 -1.07239,-0.19713 z"
     fill="#3f3d56"
     id="path2051"
     style="stroke-width:0.829303" />
  <polygon
     points="770.699,394.507 770.972,386.492 773.674,386.804 772.758,394.744 "
     fill="#ffb8b8"
     id="polygon2053"
     transform="matrix(0.82930274,0,0,0.82930274,320.79551,109.77896)" />
  <path
     d="m 961.89019,438.84679 -5.50498,-0.63534 0.008,-0.0697 a 2.1568589,2.1568589 0 0 1 2.38993,-1.89547 h 1.3e-4 l 3.36224,0.38805 z"
     fill="#2f2e41"
     id="path2055"
     style="stroke-width:0.829303" />
  <polygon
     points="794.717,393.834 791.416,386.488 794.338,385.585 796.697,393.222 "
     fill="#ffb8b8"
     id="polygon2057"
     transform="matrix(0.82930274,0,0,0.82930274,320.79551,109.77896)" />
  <path
     d="m 982.40933,437.34166 -5.2947,1.63545 -0.0206,-0.067 a 2.1568672,2.1568672 0 0 1 1.42419,-2.69744 h 1.3e-4 l 3.23381,-0.99886 z"
     fill="#2f2e41"
     id="path2059"
     style="stroke-width:0.829303" />
  <path
     d="m 959.73967,435.60932 a 0.69910221,0.69910221 0 0 1 -0.46754,-0.85273 l 1.0291,-11.84673 a 3.5770232,3.5770232 0 0 1 0.49701,-1.52805 l 6.22956,-10.33839 5.57457,1.00168 0.0361,0.0149 c 2.70933,1.65934 5.11477,9.70533 7.44104,17.48651 0.36176,1.21004 0.73579,2.46129 1.10097,3.65709 a 0.70407803,0.70407803 0 0 1 -0.37816,0.90776 l -1.68792,0.71064 a 0.69882025,0.69882025 0 0 1 -0.88709,-0.31007 l -8.67758,-15.88644 a 0.1392731,0.1392731 0 0 0 -0.10791,-0.0723 0.13528416,0.13528416 0 0 0 -0.12016,0.0465 l -5.03596,5.69865 -1.85069,10.85996 -0.007,0.0236 a 0.70141596,0.70141596 0 0 1 -0.82882,0.39933 l -1.81526,0.0343 -0.0114,1.3e-4 z"
     fill="#2f2e41"
     id="path2061"
     style="stroke-width:0.829303" />
  <path
     d="m 966.72639,412.17638 -0.0353,-0.0112 -0.0106,-0.0355 c -0.026,-0.0864 -2.57406,-8.70882 -0.27794,-14.20568 l 0.002,-0.005 c 0.0673,-0.13088 1.66892,-3.20834 3.53008,-3.5163 l 0.0496,-0.008 0.60485,1.13104 c 0.19011,0.19064 3.4643,3.59029 1.97827,9.43385 0.13341,0.47913 1.94152,7.05762 0.95829,8.04082 a 1.8041647,1.8041647 0 0 1 -1.22692,0.30788 24.777625,24.777625 0 0 1 -5.57262,-1.13175 z"
     fill="#0aa8a7"
     id="path2063"
     style="stroke-width:0.829303" />
  <circle
     cx="969.55127"
     cy="388.97931"
     r="4.3456874"
     fill="#2f2e41"
     id="circle2065"
     style="stroke-width:0.829303" />
  <circle
     cx="967.82495"
     cy="389.86124"
     r="3.4430494"
     fill="#ffb8b8"
     id="circle2067"
     style="stroke-width:0.829303" />
  <path
     d="m 970.04049,393.20575 c -0.31414,0.11139 -0.69927,0.2096 -0.94647,-0.0214 a 0.8371977,0.8371977 0 0 1 -0.0552,-0.94183 4.2581959,4.2581959 0 0 0 0.43025,-0.90495 1.3928637,1.3928637 0 0 0 -0.5112,-1.27541 3.7819108,3.7819108 0 0 0 -1.24713,-0.62754 l -2.41019,-0.85676 a 2.7846327,2.7846327 0 0 1 -1.57334,-1.0193 1.8867218,1.8867218 0 0 1 0.75094,-2.4331 3.0601769,3.0601769 0 0 1 2.64817,-0.0521 13.678718,13.678718 0 0 0 1.41161,0.56476 c 0.96506,0.25459 2.06236,0.0262 2.91042,0.57033 a 2.6878531,2.6878531 0 0 1 1.05577,2.34444 7.2472766,7.2472766 0 0 1 -0.70905,2.59258 4.8210022,4.8210022 0 0 1 -0.78606,1.38108 1.6260139,1.6260139 0 0 1 -1.3762,0.5931 z"
     fill="#2f2e41"
     id="path2069"
     style="stroke-width:0.829303" />
  <circle
     cx="973.19604"
     cy="386.87656"
     r="2.8036652"
     fill="#2f2e41"
     id="circle2071"
     style="stroke-width:0.829303" />
  <path
     d="m 968.56996,390.94189 a 0.28037067,0.28037067 0 1 1 0.3855,0.25957 v 0.61657 a 0.105139,0.105139 0 1 1 -0.21027,0 v -0.61657 a 0.28013017,0.28013017 0 0 1 -0.17523,-0.25957 z"
     fill="#ffffff"
     id="path2073"
     style="stroke-width:0.829303" />
  <path
     d="m 959.82854,400.92303 a 1.4096322,1.4096322 0 0 1 1.54517,1.51151 l 4.59175,2.00257 -2.18235,1.41907 -4.02582,-2.11922 a 1.4172784,1.4172784 0 0 1 0.0712,-2.81393 z"
     fill="#ffb8b8"
     id="path2075"
     style="stroke-width:0.829303" />
  <path
     d="m 967.76962,407.72967 -5.62387,-2.36102 a 0.63085889,0.63085889 0 0 1 -0.33102,-0.84063 l 0.53075,-1.17883 a 0.63175453,0.63175453 0 0 1 0.75951,-0.34429 l 4.48694,1.37096 0.21396,-6.09729 a 1.7602863,1.7602863 0 0 1 1.93436,-1.68979 v 0 a 1.7494639,1.7494639 0 0 1 1.55294,1.41278 c 0.49861,2.55184 -0.71557,6.62198 -1.48373,8.82101 a 1.5368307,1.5368307 0 0 1 -1.44564,1.0281 1.5327339,1.5327339 0 0 1 -0.5942,-0.121 z"
     fill="#0aa8a7"
     id="path2077"
     style="stroke-width:0.829303" />
  <path
     d="m 89.566803,406.28696 h -8.613138 v -2.61471 c 2.721713,-1.89413 5.133185,-1.72945 8.305508,0.1538 z"
     fill="#0aa8a7"
     id="path2079"
     style="stroke-width:0.829303" />
  <polygon
     points="72.002,413.541 69.728,413.541 69.388,404.771 72.002,404.771 "
     fill="#ffb8b8"
     id="polygon2081"
     transform="matrix(0.82930274,0,0,0.82930274,19.247935,109.77896)" />
  <path
     d="m 79.440021,454.55741 -6.080016,-2.2e-4 v -0.0769 a 2.3664568,2.3664568 0 0 1 2.366531,-2.36648 h 1.5e-4 l 3.713451,1.5e-4 z"
     fill="#2f2e41"
     id="path2083"
     style="stroke-width:0.829303" />
  <polygon
     points="84.809,413.541 87.082,413.541 87.422,404.771 84.808,404.771 "
     fill="#ffb8b8"
     id="polygon2085"
     transform="matrix(0.82930274,0,0,0.82930274,19.247935,109.77896)" />
  <path
     d="m 89.099051,452.11395 3.713452,-1.5e-4 h 1.49e-4 a 2.3664568,2.3664568 0 0 1 2.366524,2.36648 v 0.0769 l -6.080017,2.3e-4 z"
     fill="#2f2e41"
     id="path2087"
     style="stroke-width:0.829303" />
  <path
     d="m 89.629548,451.79743 a 0.69521278,0.69521278 0 0 1 -0.675832,-0.54177 l -4.67361,-20.38526 a 0.22414394,0.22414394 0 0 0 -0.225189,-0.18054 h -8.29e-4 a 0.22430151,0.22430151 0 0 0 -0.224592,0.1828 l -4.291874,20.24782 a 0.69546157,0.69546157 0 0 1 -0.677109,0.54854 h -2.044489 a 0.69214436,0.69214436 0 0 1 -0.690925,-0.73298 l 1.522807,-25.66332 0.61278,-0.18129 0.01153,1.5e-4 12.0365,0.10532 2.563549,25.63508 a 0.69177947,0.69177947 0 0 1 -0.633132,0.75701 l -2.553788,0.20623 q -0.02786,0.002 -0.0554,0.002 z"
     fill="#2f2e41"
     id="path2089"
     style="stroke-width:0.829303" />
  <circle
     cx="84.658951"
     cy="397.82315"
     r="3.7776234"
     fill="#ffb8b8"
     id="circle2091"
     style="stroke-width:0.829303" />
  <path
     d="m 82.34477,428.08642 a 6.520285,6.520285 0 0 1 -1.957569,-0.27547 4.3214966,4.3214966 0 0 1 -2.620597,-2.21092 0.6929322,0.6929322 0 0 1 -0.0515,-0.51595 c 0.416617,-1.42194 2.429915,-8.81318 1.145358,-14.68889 a 6.2268113,6.2268113 0 0 1 0.885165,-4.78555 6.1486578,6.1486578 0 0 1 3.987727,-2.68213 v -1.6e-4 c 0.213064,-0.0416 0.427281,-0.0757 0.636631,-0.10153 a 6.1268886,6.1268886 0 0 1 4.961428,1.63238 6.2784023,6.2784023 0 0 1 1.971128,4.97721 l -0.987202,15.84258 a 0.68595776,0.68595776 0 0 1 -0.368816,0.56957 c -1.137016,0.59581 -4.552582,2.23886 -7.601737,2.23886 z"
     fill="#3f3d56"
     id="path2093"
     style="stroke-width:0.829303" />
  <path
     d="m 88.926482,395.04244 a 4.6381161,4.6381161 0 0 0 -5.083693,-2.85826 l 1.191078,0.96248 c -1.479849,0.0498 -3.037586,-0.0562 -4.094209,0.98118 0.336381,-0.009 0.777264,0.71016 1.113645,0.70083 a 1.7639269,1.7639269 0 0 0 -1.476988,1.01869 2.9015644,2.9015644 0 0 0 -0.171342,1.84519 21.43862,21.43862 0 0 0 1.326777,2.63625 c -0.04387,-1.5027 2.914501,-5.08703 4.35913,-4.71293 a 3.9638183,3.9638183 0 0 0 -1.830354,1.38967 5.3684498,5.3684498 0 0 1 3.183992,-0.52094 2.2532155,2.2532155 0 0 0 0.759019,0.0425 0.92670435,0.92670435 0 0 0 0.549405,-1.48092 z"
     fill="#2f2e41"
     id="path2095"
     style="stroke-width:0.829303" />
  <path
     d="m 82.084552,427.13512 a 0.69269999,0.69269999 0 0 1 -0.277162,-0.0585 l -7.167431,-3.12846 a 0.68754173,0.68754173 0 0 1 -0.3927,-0.81161 l 4.744881,-17.92433 a 2.5940009,2.5940009 0 0 1 3.220796,-1.8308 l 1.897262,0.54148 -1.335625,22.56035 a 0.69405176,0.69405176 0 0 1 -0.330063,0.54906 0.68693634,0.68693634 0 0 1 -0.359958,0.10285 z"
     fill="#0aa8a7"
     id="path2097"
     style="stroke-width:0.829303" />
  <path
     d="m 95.349912,423.13635 -0.315342,-1.18891 -0.456763,-1.72878 -0.219973,-0.82901 -0.456755,-1.72417 -3.296089,-12.45364 a 2.5911896,2.5911896 0 0 0 -3.22068,-1.83027 l -1.896433,0.54139 0.939733,15.86813 0.09695,1.65649 0.06153,1.04434 v 0.002 l 0.09838,1.64727 0.138494,2.34246 a 0.69680504,0.69680504 0 0 0 0.690544,0.65213 0.70475805,0.70475805 0 0 0 0.276896,-0.0585 l 7.167282,-3.12839 a 0.68694463,0.68694463 0 0 0 0.392243,-0.81212 z"
     fill="#0aa8a7"
     id="path2099"
     style="stroke-width:0.829303" />
  <polygon
     points="90.57,373.339 81.124,375.82 81.007,373.823 90.019,371.259 "
     fill="#cccccc"
     id="polygon2101"
     transform="matrix(0.82930274,0,0,0.82930274,19.247935,109.77896)" />
  <polygon
     points="81.198,377.081 81.198,377.079 90.835,374.338 91.386,376.423 81.317,379.068 "
     fill="#cccccc"
     id="polygon2103"
     transform="matrix(0.82930274,0,0,0.82930274,19.247935,109.77896)" />
  <polygon
     points="76.963,374.253 76.846,376.213 67.582,373.454 68.125,371.402 "
     fill="#cccccc"
     id="polygon2105"
     transform="matrix(0.82930274,0,0,0.82930274,19.247935,109.77896)" />
  <polygon
     points="76.77,377.504 67.317,374.453 66.773,376.51 76.655,379.453 "
     fill="#cccccc"
     id="polygon2107"
     transform="matrix(0.82930274,0,0,0.82930274,19.247935,109.77896)" />
  <path
     d="m 75.210362,424.54429 a 1.6523028,1.6523028 0 0 0 1.083334,-2.29029 l 3.685488,-11.57012 -2.613373,-0.54734 -3.378945,11.34365 a 1.6612427,1.6612427 0 0 0 1.223496,3.06408 z"
     fill="#ffb8b8"
     id="path2109"
     style="stroke-width:0.829303" />
  <path
     d="m 80.081487,404.99586 v 0 c 0.750428,0.0765 1.17251,0.9203 0.985933,1.97089 l -0.895323,5.04149 c -0.06709,0.37792 -0.378163,0.67716 -0.636648,0.61253 l -3.028506,-0.75703 c -0.233034,-0.0582 -0.318867,-0.38934 -0.186808,-0.72062 l 1.818097,-4.56087 a 2.1947082,2.1947082 0 0 1 1.943255,-1.58639 z"
     fill="#3f3d56"
     id="path2111"
     style="stroke-width:0.829303" />
  <path
     d="m 84.645024,390.75257 v 0 a 4.9207756,4.9207756 0 0 1 4.917873,4.76797 h 0.926746 a 0.30762156,0.30762156 0 0 1 0.307605,0.30762 v 1.23044 a 0.30761327,0.30761327 0 0 1 -0.307605,0.30761 H 80.030858 a 0.30762156,0.30762156 0 0 1 -0.307613,-0.30761 v -1.38423 a 4.9217625,4.9217625 0 0 1 4.921779,-4.9218 z"
     fill="#0aa8a7"
     id="path2113"
     style="stroke-width:0.829303" />
  <path
     d="m 85.23314,421.17608 h -2.174149 a 0.27959113,0.27959113 0 0 1 -0.279276,-0.25331 l -0.435194,-4.46063 h 3.603105 l -0.435185,4.46058 a 0.27959942,0.27959942 0 0 1 -0.279301,0.25336 z"
     fill="#e6e6e6"
     id="path2115"
     style="stroke-width:0.829303" />
  <path
     d="m 85.941821,417.02333 h -3.591544 a 0.2809263,0.2809263 0 0 1 -0.280587,-0.2806 v -0.67339 a 0.2809263,0.2809263 0 0 1 0.280587,-0.2806 h 3.591544 a 0.2809263,0.2809263 0 0 1 0.280595,0.2806 v 0.67339 a 0.2809263,0.2809263 0 0 1 -0.280595,0.2806 z"
     fill="#cccccc"
     id="path2117"
     style="stroke-width:0.829303" />
  <path
     d="m 84.192714,418.78389 a 1.6186248,1.6186248 0 0 1 0.250159,0.0491 l 5.790192,-4.96547 -0.338464,-1.82189 2.682795,-0.87016 0.912623,3.16705 a 1.2304531,1.2304531 0 0 1 -0.524385,1.38045 l -7.33306,4.64038 a 1.6145115,1.6145115 0 1 1 -1.439827,-1.57945 z"
     fill="#ffb8b8"
     id="path2119"
     style="stroke-width:0.829303" />
  <path
     d="m 90.248117,405.41229 v 0 c 0.801587,-0.22438 1.602536,0.38574 1.870907,1.42516 l 1.287907,4.98794 c 0.09654,0.3739 -0.09097,0.77125 -0.383835,0.81338 l -3.430892,0.49349 c -0.264008,0.038 -0.496611,-0.23277 -0.506289,-0.58931 l -0.133211,-4.90842 a 2.1590731,2.1590731 0 0 1 1.295413,-2.22224 z"
     fill="#3f3d56"
     id="path2121"
     style="stroke-width:0.829303" />
  <path
     d="m 129.24635,418.90666 h -2.61209 a 0.33591737,0.33591737 0 0 1 -0.33554,-0.30436 l -0.52285,-5.35918 h 4.32887 l -0.52285,5.35912 a 0.33591737,0.33591737 0 0 1 -0.33554,0.30442 z"
     fill="#e6e6e6"
     id="path2123"
     style="stroke-width:0.829303" />
  <path
     d="m 130.09785,413.91737 h -4.31504 a 0.33752622,0.33752622 0 0 1 -0.33712,-0.33712 v -0.80907 a 0.33752622,0.33752622 0 0 1 0.33712,-0.33711 h 4.31504 a 0.33752622,0.33752622 0 0 1 0.33712,0.33711 v 0.80907 a 0.33752622,0.33752622 0 0 1 -0.33712,0.33712 z"
     fill="#cccccc"
     id="path2125"
     style="stroke-width:0.829303" />
  <path
     d="m 154.90919,450.37875 a 30.95307,30.95307 0 0 1 -4.44884,-8.30283 0.79506912,0.79506912 0 0 1 0.37545,-0.95709 l 6.49442,-3.47985 a 0.78472772,0.78472772 0 0 1 0.68843,-0.0279 0.79814584,0.79814584 0 0 1 0.45482,0.53294 18.909006,18.909006 0 0 0 4.14767,7.74089 0.7979468,0.7979468 0 0 1 0.19186,0.67384 0.78472772,0.78472772 0 0 1 -0.40457,0.55771 l -6.49442,3.47985 a 0.79505254,0.79505254 0 0 1 -1.00482,-0.21751 z"
     fill="#cccccc"
     id="path2127"
     style="stroke-width:0.829303" />
  <path
     d="m 155.35237,450.04573 a 0.23995045,0.23995045 0 0 0 0.29974,0.0619 l 6.49446,-3.47993 a 0.23020615,0.23020615 0 0 0 0.12058,-0.16575 0.24353304,0.24353304 0 0 0 -0.06,-0.20842 19.465576,19.465576 0 0 1 -4.26988,-7.96898 0.24364915,0.24364915 0 0 0 -0.14007,-0.16539 0.23039689,0.23039689 0 0 0 -0.20518,0.008 l -6.49433,3.47984 a 0.23990899,0.23990899 0 0 0 -0.1145,0.28403 30.398813,30.398813 0 0 0 4.36922,8.15421 z"
     fill="#ffffff"
     id="path2129"
     style="stroke-width:0.829303" />
  <path
     d="m 157.75657,442.60509 -3.53713,1.56138 a 0.55497769,0.55497769 0 0 1 -0.73103,-0.28328 l -0.0875,-0.1982 a 0.5549611,0.5549611 0 0 1 0.28328,-0.73102 l 3.53714,-1.56137 a 0.5549611,0.5549611 0 0 1 0.73101,0.28328 l 0.0875,0.1982 a 0.55497769,0.55497769 0 0 1 -0.28328,0.73101 z"
     fill="#cccccc"
     id="path2131"
     style="stroke-width:0.829303" />
  <path
     d="m 159.05008,445.00734 -3.53713,1.56137 a 0.55497769,0.55497769 0 0 1 -0.73102,-0.28328 l -0.0875,-0.1982 a 0.5549611,0.5549611 0 0 1 0.28328,-0.73102 l 3.53714,-1.56137 a 0.55497769,0.55497769 0 0 1 0.73102,0.28328 l 0.0875,0.1982 a 0.55497769,0.55497769 0 0 1 -0.28328,0.73102 z"
     fill="#cccccc"
     id="path2133"
     style="stroke-width:0.829303" />
  <path
     d="m 150.75432,443.00564 a 1.98516,1.98516 0 0 1 -0.38107,-3.02 l -1.4917,-21.16889 4.29687,0.41672 0.11802,20.73072 a 1.9958746,1.9958746 0 0 1 -2.54212,3.04145 z"
     fill="#a0616a"
     id="path2135"
     style="stroke-width:0.829303" />
  <path
     d="m 149.85426,425.92982 a 0.82814172,0.82814172 0 0 1 -0.34347,-0.62839 l -0.31485,-5.70554 a 2.2911147,2.2911147 0 0 1 4.49892,-0.72564 l 1.38305,5.10104 a 0.83247897,0.83247897 0 0 1 -0.58496,1.02018 l -3.93421,1.0667 a 0.82840709,0.82840709 0 0 1 -0.70448,-0.12835 z"
     fill="#3f3d56"
     id="path2137"
     style="stroke-width:0.829303" />
  <polygon
     points="148.658,433.198 145.927,433.197 144.627,422.661 148.659,422.661 "
     fill="#a0616a"
     id="polygon2139"
     transform="matrix(0.82930274,0,0,0.82930274,19.247935,109.77896)" />
  <path
     d="m 138.14122,468.38346 h 4.87502 v 2.7509 h -7.12001 v -0.50587 a 2.2449889,2.2449889 0 0 1 2.24499,-2.24503 z"
     fill="#2f2e41"
     id="path2141"
     style="stroke-width:0.829303" />
  <polygon
     points="158.908,433.198 156.177,433.197 154.877,422.661 158.909,422.661 "
     fill="#a0616a"
     id="polygon2143"
     transform="matrix(0.82930274,0,0,0.82930274,19.247935,109.77896)" />
  <path
     d="m 146.64147,468.38346 h 4.87502 v 2.7509 h -7.12001 v -0.50587 a 2.2449889,2.2449889 0 0 1 2.24499,-2.24503 z"
     fill="#2f2e41"
     id="path2145"
     style="stroke-width:0.829303" />
  <path
     d="m 142.42379,464.62871 -2.49395,-0.11891 a 0.83135112,0.83135112 0 0 1 -0.79199,-0.82469 c -0.65749,-10.1484 -1.56809,-21.03018 -0.17405,-25.23403 a 0.83174089,0.83174089 0 0 1 0.951,-0.82884 l 9.97734,1.44835 a 0.82671532,0.82671532 0 0 1 0.71209,0.81675 c 1.27381,4.97752 1.33141,14.0036 1.28323,23.38197 a 0.83164137,0.83164137 0 0 1 -0.83155,0.83786 h -2.68867 a 0.82764413,0.82764413 0 0 1 -0.82144,-0.70233 l -1.65885,-10.54536 a 0.64675662,0.64675662 0 0 0 -1.28111,0.0236 l -1.31681,11.01384 a 0.8347015,0.8347015 0 0 1 -0.82577,0.73284 q -0.0196,0 -0.0395,-8.3e-4 z"
     fill="#2f2e41"
     id="path2147"
     style="stroke-width:0.829303" />
  <path
     d="m 144.17946,439.88845 a 12.551928,12.551928 0 0 0 -4.74534,-1.62538 0.8163905,0.8163905 0 0 1 -0.56425,-0.30912 0.82747827,0.82747827 0 0 1 -0.17206,-0.62853 l 2.39069,-17.74901 a 6.1384989,6.1384989 0 0 1 3.57815,-4.79655 5.9697358,5.9697358 0 0 1 5.8015,0.45475 q 0.12289,0.0818 0.24118,0.16692 a 6.1309191,6.1309191 0 0 1 2.33507,6.38872 c -1.46604,5.9973 -1.9696,15.82932 -2.05568,17.73945 a 0.82515623,0.82515623 0 0 1 -0.5392,0.74005 8.3311753,8.3311753 0 0 1 -2.81355,0.50095 7.0450014,7.0450014 0 0 1 -3.45651,-0.88225 z"
     fill="#3f3d56"
     id="path2149"
     style="stroke-width:0.829303" />
  <circle
     cx="146.17917"
     cy="407.8313"
     r="4.5385752"
     fill="#a0616a"
     id="circle2151"
     style="stroke-width:0.829303" />
  <path
     d="m 149.39089,411.422 a 1.465975,1.465975 0 0 1 -2.52944,-0.81437 1.4883994,1.4883994 0 0 1 0.002,-0.28747 6.6631987,6.6631987 0 0 0 0.29674,-1.61757 0.8482606,0.8482606 0 0 0 -0.15524,-0.39708 c -0.6747,-0.9035 -2.25852,0.4041 -2.8953,-0.41383 -0.39044,-0.50152 0.0685,-1.29113 -0.2311,-1.85166 -0.39545,-0.73982 -1.56678,-0.37485 -2.30131,-0.78002 -0.81727,-0.45078 -0.76839,-1.70472 -0.23041,-2.46742 a 3.8812944,3.8812944 0 0 1 2.94244,-1.498 7.8930464,7.8930464 0 0 1 3.32476,0.64887 6.6443736,6.6443736 0 0 1 3.14152,2.1782 5.3176302,5.3176302 0 0 1 0.53757,4.52762 8.5348189,8.5348189 0 0 1 -1.90211,2.77273 z"
     fill="#2f2e41"
     id="path2153"
     style="stroke-width:0.829303" />
  <path
     d="m 152.98514,415.83452 c -0.0794,-0.37328 -0.7613,-0.88329 -1.73698,-1.29907 a 10.742705,10.742705 0 0 0 -9.70136,0.83155 0.45820635,0.45820635 0 0 0 -0.42317,0.36034 l -3.28188,14.51508 -0.42687,1.89037 -0.28269,1.25102 -0.42687,1.88484 -0.22728,1.00709 a 0.46341437,0.46341437 0 0 0 0.41026,0.5636 l 14.17137,1.2233 c 0.0129,0 0.0277,0.002 0.0406,0.002 a 0.46201285,0.46201285 0 0 0 0.45828,-0.43241 l 0.13489,-2.05299 0.14418,-2.19528 0.0628,-0.95167 0.14229,-2.18972 0.94425,-14.38389 v -0.0129 z"
     fill="#0aa8a7"
     id="path2155"
     style="stroke-width:0.829303" />
  <path
     d="m 129.73236,416.74817 a 1.9455442,1.9455442 0 0 1 0.0442,0.30308 l 7.93801,4.57941 1.92944,-1.11074 2.05691,2.69274 -4.12763,2.94192 -9.05606,-7.14438 a 1.9394986,1.9394986 0 1 1 1.21511,-2.26206 z"
     fill="#a0616a"
     id="path2157"
     style="stroke-width:0.829303" />
  <path
     d="m 137.99811,421.24125 a 0.82817489,0.82817489 0 0 1 0.23896,-0.67509 l 4.04009,-4.04104 a 2.2911147,2.2911147 0 0 1 3.54203,2.86722 l -2.87714,4.43345 a 0.83247897,0.83247897 0 0 1 -1.15021,0.24487 l -3.41937,-2.21903 a 0.82840709,0.82840709 0 0 1 -0.37436,-0.61038 z"
     fill="#3f3d56"
     id="path2159"
     style="stroke-width:0.829303" />
  <polygon
     points="160.128,386.425 159.957,389.066 142.489,388.705 143.004,386.425 "
     fill="#cccccc"
     id="polygon2161"
     transform="matrix(0.82930274,0,0,0.82930274,19.247935,109.77896)" />
  <polygon
     points="159.881,390.213 159.707,392.86 141.634,392.486 142.149,390.213 "
     fill="#cccccc"
     id="polygon2163"
     transform="matrix(0.82930274,0,0,0.82930274,19.247935,109.77896)" />
  <path
     d="m 146.26805,399.01328 v 0 a 5.9119997,5.9119997 0 0 0 -5.90852,5.72842 h -1.11345 a 0.36958706,0.36958706 0 0 0 -0.36957,0.36958 v 1.4783 a 0.36958706,0.36958706 0 0 0 0.36957,0.36958 h 12.5656 a 0.36958706,0.36958706 0 0 0 0.36958,-0.36958 v -1.6631 a 5.913169,5.913169 0 0 0 -5.91321,-5.9132 z"
     fill="#0aa8a7"
     id="path2165"
     style="stroke-width:0.829303" />
  <path
     d="m 179.54824,459.17159 h -1.26744 c -0.008,-0.15347 -1.70962,-4.14651 -1.70962,-4.14651 l -1.02853,-2.48791 -0.67989,-1.6586 -1.02852,-2.48791 -1.17755,-2.8611 a 0.58754441,0.58754441 0 0 0 -1.14434,0 l -1.17755,2.8611 -1.02852,2.48791 -0.67989,1.6586 -1.02853,2.48791 c 0,0 -1.70153,3.99304 -1.70963,4.14651 h -1.26744 a 1.243955,1.243955 0 0 0 0,2.48791 h 14.92745 a 1.243955,1.243955 0 0 0 0,-2.48791 z"
     fill="#ff6584"
     id="path2167"
     style="stroke-width:0.829303" />
  <path
     d="m 178.71894,480.73346 h -0.49118 c 0.045,-0.10609 -2.13765,-5.68901 -2.13765,-5.68901 l -1.31036,-3.19282 -0.8791,-2.1396 -1.31037,-3.19281 -1.42617,-3.4582 a 0.75161366,0.75161366 0 0 0 -1.45978,0 l -1.42618,3.4582 -1.31037,3.19281 -0.88761,2.1396 -1.30996,3.19282 c 0,0 -2.17449,5.58291 -2.12954,5.68901 h -0.50779 a 1.243955,1.243955 0 0 0 0,2.48791 h 16.58606 a 1.243955,1.243955 0 0 0 0,-2.48791 z"
     fill="#ff6584"
     id="path2169"
     style="stroke-width:0.829303" />
  <polygon
     points="187.645,411.309 180.945,411.309 182.185,408.309 186.405,408.309 "
     fill="#f2f2f2"
     id="polygon2171"
     transform="matrix(0.82930274,0,0,0.82930274,19.247935,109.77896)" />
  <polygon
     points="189.705,416.309 178.885,416.309 180.125,413.309 188.465,413.309 "
     fill="#f2f2f2"
     id="polygon2173"
     transform="matrix(0.82930274,0,0,0.82930274,19.247935,109.77896)" />
  <polygon
     points="186.485,434.019 178.125,434.019 179.705,430.169 184.905,430.169 "
     fill="#f2f2f2"
     id="polygon2175"
     transform="matrix(0.82930274,0,0,0.82930274,19.247935,109.77896)" />
  <polygon
     points="189.125,440.449 175.475,440.449 177.055,436.599 187.545,436.599 "
     fill="#f2f2f2"
     id="polygon2177"
     transform="matrix(0.82930274,0,0,0.82930274,19.247935,109.77896)" />
  <path
     d="m 290.72436,438.59787 a 1.2320122,1.2320122 0 0 0 -0.1561,-1.8827 l -0.62218,-4.10173 -2.55569,0.80435 1.4001,3.65943 a 1.2386963,1.2386963 0 0 0 1.93387,1.52065 z"
     fill="#ffb8b8"
     id="path2179"
     style="stroke-width:0.829303" />
  <path
     d="m 288.09156,436.66817 -1.57651,-7.36262 a 4.2160756,4.2160756 0 0 1 1.20402,-3.94261 c 2.01795,-1.94461 4.6115,-4.39567 5.5074,-5.02972 a 4.6189011,4.6189011 0 0 1 2.88976,-0.85299 l 0.0217,0.002 1.35611,1.2816 -2.95417,4.86313 -4.48473,2.80994 0.49908,7.21632 z"
     fill="#0aa8a7"
     id="path2181"
     style="stroke-width:0.829303" />
  <rect
     x="286.478"
     y="426.66287"
     width="7.653635"
     height="1.0377811"
     rx="0.51888645"
     fill="#cccccc"
     id="rect2183"
     style="stroke-width:0.829303" />
  <rect
     x="286.478"
     y="437.9487"
     width="7.653635"
     height="1.0377811"
     rx="0.51888645"
     fill="#cccccc"
     id="rect2185"
     style="stroke-width:0.829303" />
  <path
     d="m 290.36967,466.22827 a 0.25947224,0.25947224 0 0 1 -0.25843,-0.23652 l -3.30742,-38.78706 a 0.25944736,0.25944736 0 1 1 0.51686,-0.0459 l 3.04525,35.83605 2.9587,-35.83542 a 0.25945566,0.25945566 0 1 1 0.51698,0.0446 l -3.21345,38.78705 a 0.25948883,0.25948883 0 0 1 -0.25817,0.23718 z"
     fill="#cccccc"
     id="path2187"
     style="stroke-width:0.829303" />
  <circle
     cx="297.79431"
     cy="414.52393"
     r="3.4037654"
     fill="#ffb8b8"
     id="circle2189"
     style="stroke-width:0.829303" />
  <polygon
     points="407.321,394.875 408.792,387.05 411.673,387.968 409.273,395.497 "
     fill="#ffb8b8"
     id="polygon2191"
     transform="matrix(0.82930274,0,0,0.82930274,-51.761112,136.68609)" />
  <path
     d="m 287.56008,466.10848 -5.21111,-1.66099 0.043,-0.13536 a 2.0533536,2.0533536 0 0 1 2.57679,-1.33117 l 3.25718,1.03822 z"
     fill="#2f2e41"
     id="path2193"
     style="stroke-width:0.829303" />
  <polygon
     points="421.426,395.456 420.451,387.554 423.475,387.554 423.475,395.456 "
     fill="#ffb8b8"
     id="polygon2195"
     transform="matrix(0.82930274,0,0,0.82930274,-51.761112,136.68609)" />
  <path
     d="m 294.5168,466.15187 h 5.21003 v -1.93336 h -3.28896 a 1.9232692,1.9232692 0 0 0 -1.92107,1.92108 z"
     fill="#2f2e41"
     id="path2197"
     style="stroke-width:0.829303" />
  <path
     d="m 299.37786,462.51243 -0.57343,-0.0856 a 8.6676981,8.6676981 0 0 1 -2.11942,-0.39588 c -0.14098,-0.062 -0.15093,-0.998 -0.0663,-6.25988 0.0621,-3.86241 0.13945,-8.6693 -0.0107,-11.24988 a 0.45395203,0.45395203 0 0 0 -0.86955,-0.15316 c -1.29406,2.98843 -3.46517,9.67605 -4.90184,14.10138 -0.49973,1.53937 -0.89445,2.75521 -1.14416,3.48401 a 0.5868312,0.5868312 0 0 1 -0.69448,0.37593 c -1.18229,-0.29555 -1.10324,-0.42122 -2.78716,-0.85676 a 0.58227833,0.58227833 0 0 1 -0.42572,-0.68515 c 0.30457,-1.43635 5.87831,-24.72508 6.30494,-26.93891 a 0.58397011,0.58397011 0 0 1 0.6882,-0.46334 c 1.25492,0.25285 2.01837,0.5211 3.2585,0.78049 1.33814,0.2799 2.72185,0.56937 4.07153,0.83952 v 0 a 0.57895283,0.57895283 0 0 1 0.33976,0.20826 3.6139852,3.6139852 0 0 0 1.35347,0.9092 c 0.35348,0.16899 -0.44751,0.15377 -0.13966,0.39747 1.24662,0.98687 -0.54607,21.02642 -1.62927,25.55247 a 0.58570335,0.58570335 0 0 1 -0.65475,0.43985 z"
     fill="#2f2e41"
     id="path2199"
     style="stroke-width:0.829303" />
  <path
     d="m 299.24507,417.50234 c -0.19872,-0.84321 0.80586,-2.65757 0.60714,-3.50078 -0.13458,-0.57104 -1.47735,-0.18286 -1.79072,-0.67884 a 1.8011046,1.8011046 0 0 0 -1.42489,-0.90438 c -0.6743,-0.007 -1.33781,0.4926 -1.97656,0.27644 a 1.2732617,1.2732617 0 0 1 -0.56674,-1.72219 3.0946178,3.0946178 0 0 1 1.50834,-1.32288 4.5534443,4.5534443 0 0 1 3.34742,-0.56262 5.5017934,5.5017934 0 0 1 1.77114,1.11305 6.17221,6.17221 0 0 1 1.34121,1.36144 3.6577724,3.6577724 0 0 1 0.0576,3.58929 5.3951948,5.3951948 0 0 1 -2.79144,2.40211"
     fill="#2f2e41"
     id="path2201"
     style="stroke-width:0.829303" />
  <path
     d="m 290.88727,437.12503 c 0.36738,-0.61368 0.92513,-3.48921 1.61295,-8.31567 0.46828,-3.29482 0.87629,-6.64259 1.07873,-8.35267 a 0.82227855,0.82227855 0 0 1 0.46175,-0.6488 q 0.19706,-0.0951 0.39177,-0.18002 a 8.979151,8.979151 0 0 1 9.57911,1.34588 l 0.0153,0.0143 0.004,0.0205 c 0.007,0.038 0.71034,3.82656 -0.72969,6.38618 -1.42023,2.52553 -1.4368,9.21372 -1.4368,9.28099 v 0.086 l -0.0827,-0.0236 c -2.20942,-0.63131 -10.74426,0.47316 -10.83025,0.48444 l -0.13289,0.0173 z"
     fill="#0aa8a7"
     id="path2203"
     style="stroke-width:0.829303" />
  <rect
     x="296.59637"
     y="428.34927"
     width="7.653635"
     height="1.0377811"
     rx="0.51888645"
     fill="#cccccc"
     id="rect2205"
     style="stroke-width:0.829303" />
  <rect
     x="296.59637"
     y="439.6351"
     width="7.653635"
     height="1.0377811"
     rx="0.51888645"
     fill="#cccccc"
     id="rect2207"
     style="stroke-width:0.829303" />
  <path
     d="m 300.48803,466.35799 a 0.25946395,0.25946395 0 0 1 -0.25843,-0.23652 l -3.30743,-37.23039 a 0.259457,0.259457 0 0 1 0.51688,-0.0459 l 3.04524,34.27939 2.9587,-34.27875 a 0.25945566,0.25945566 0 1 1 0.51699,0.0446 l -3.21346,37.23038 a 0.25947224,0.25947224 0 0 1 -0.25817,0.23719 z"
     fill="#cccccc"
     id="path2209"
     style="stroke-width:0.829303" />
  <path
     d="m 298.35188,439.79948 a 1.2320287,1.2320287 0 0 1 1.15405,-1.49569 l 2.75111,-3.10529 1.70836,2.06395 -3.16379,2.31126 a 1.2386963,1.2386963 0 0 1 -2.44976,0.22577 z"
     fill="#ffb8b8"
     id="path2211"
     style="stroke-width:0.829303" />
  <path
     d="m 299.95366,437.63816 4.34014,-5.78688 -2.23803,-4.79581 0.1625,-5.68778 1.83483,-0.339 0.0194,0.01 a 4.6189011,4.6189011 0 0 1 1.96242,2.2863 c 0.40757,1.01903 1.25299,4.48594 1.89039,7.21493 a 4.2160756,4.2160756 0 0 1 -1.13156,3.96402 l -5.32412,5.3242 z"
     fill="#0aa8a7"
     id="path2213"
     style="stroke-width:0.829303" />
  <path
     d="m 281.76004,464.74881 5.93781,1.42961 a 0.50883528,0.50883528 0 0 0 0.59084,-0.27579 l 5.10067,-13.56146 a 0.41786077,0.41786077 0 0 0 4.5e-4,-0.33026 0.47270256,0.47270256 0 0 0 -0.27174,-0.25437 l -4.46434,-1.70489 a 0.53687401,0.53687401 0 0 0 -0.43775,0.0242 0.45547794,0.45547794 0 0 0 -0.23874,0.29213 l -1.2e-4,6.3e-4 -3.15097,11.95248 -0.0468,0.003 a 4.3275007,4.3275007 0 0 0 -2.63676,1.09909 1.7242365,1.7242365 0 0 0 -0.38254,1.32573 z"
     fill="#cccccc"
     id="path2215"
     style="stroke-width:0.829303" />
  <rect
     x="-424.73831"
     y="332.61282"
     width="0.25948882"
     height="5.4438171"
     transform="rotate(-83.95484)"
     fill="#b3b3b3"
     id="rect2217"
     style="stroke-width:0.829303" />
  <rect
     x="-301.92151"
     y="448.89041"
     width="0.25949711"
     height="4.777082"
     transform="rotate(-65.77563)"
     fill="#b3b3b3"
     id="rect2219"
     style="stroke-width:0.829303" />
  <polygon
     points="408.379,382.871 408.508,382.586 414.699,384.636 414.571,384.922 "
     fill="#b3b3b3"
     id="polygon2221"
     transform="matrix(0.82930274,0,0,0.82930274,-51.761112,136.68609)" />
  <polygon
     points="409.005,380.525 409.133,380.239 415.325,383.228 415.197,383.514 "
     fill="#b3b3b3"
     id="polygon2223"
     transform="matrix(0.82930274,0,0,0.82930274,-51.761112,136.68609)" />
  <rect
     x="-165.81837"
     y="516.43427"
     width="0.25940588"
     height="4.8690853"
     transform="rotate(-49.49475)"
     fill="#b3b3b3"
     id="rect2225"
     style="stroke-width:0.829303" />
  <rect
     x="67.509575"
     y="538.41589"
     width="0.25943077"
     height="3.5993397"
     transform="rotate(-24.39334)"
     fill="#b3b3b3"
     id="rect2227"
     style="stroke-width:0.829303" />
  <path
     d="m 801.35283,412.77694 a 1.5450905,1.5450905 0 0 1 -1.07073,-2.11343 l -5.6958,-12.86829 3.25829,-0.82066 4.57425,12.9072 a 1.5534416,1.5534416 0 0 1 -1.06601,2.89521 z"
     fill="#a0616a"
     id="path2229"
     style="stroke-width:0.829303" />
  <path
     d="m 795.64337,401.8273 a 0.69203655,0.69203655 0 0 1 -0.38046,-0.43362 l -0.99587,-3.33141 a 1.9239936,1.9239936 0 0 1 3.48028,-1.64153 l 1.92589,2.90853 a 0.69279122,0.69279122 0 0 1 -0.28395,1.00989 l -3.16896,1.48335 a 0.69199509,0.69199509 0 0 1 -0.57693,0.005 z"
     fill="#0aa8a7"
     id="path2231"
     style="stroke-width:0.829303" />
  <path
     d="m 807.23822,400.16757 -3.49375,2.47354 a 0.26223382,0.26223382 0 0 1 -0.30793,0 l -0.94407,-0.7089 a 0.25884197,0.25884197 0 0 1 -0.0169,-0.40436 l 2.68841,-2.3974 a 0.26561737,0.26561737 0 0 1 0.26224,-0.0507 l 1.74942,0.62599 a 0.26393389,0.26393389 0 0 1 0.0626,0.46192 z"
     fill="#3f3d56"
     id="path2233"
     style="stroke-width:0.829303" />
  <path
     d="m 806.9537,399.93322 a 0.09402634,0.09402634 0 0 0 -0.0542,-0.12036 l -1.57576,-0.56379 a 0.09440782,0.09440782 0 0 0 -0.0933,0.0172 l -2.42488,2.16243 -0.0133,0.0144 a 0.09018667,0.09018667 0 0 0 0.0208,0.12627 l 0.84908,0.63752 a 0.09251701,0.09251701 0 0 0 0.10998,-8.3e-4 l 3.14852,-2.22917 a 0.09319704,0.09319704 0 0 0 0.0331,-0.0435 z"
     fill="#ffffff"
     id="path2235"
     style="stroke-width:0.829303" />
  <polygon
     points="573.34,394.628 574.352,386.427 571.214,386.427 571.214,394.628 "
     fill="#a0616a"
     id="polygon2237"
     transform="matrix(0.82930274,0,0,0.82930274,320.79551,109.77896)" />
  <path
     d="m 794.05507,436.46934 3.47248,-1.4e-4 h 1.4e-4 a 2.2129114,2.2129114 0 0 1 2.21296,2.21293 v 0.0719 l -5.68548,2.1e-4 z"
     fill="#2f2e41"
     id="path2239"
     style="stroke-width:0.829303" />
  <polygon
     points="566.23,394.628 567.241,386.427 564.103,386.427 564.103,394.628 "
     fill="#a0616a"
     id="polygon2241"
     transform="matrix(0.82930274,0,0,0.82930274,320.79551,109.77896)" />
  <path
     d="m 788.15823,436.46934 3.47249,-1.4e-4 h 1.3e-4 a 2.2128948,2.2128948 0 0 1 2.21296,2.21293 v 0.0719 l -5.68547,2.1e-4 z"
     fill="#2f2e41"
     id="path2243"
     style="stroke-width:0.829303" />
  <path
     d="m 788.2339,434.96657 a 0.77475121,0.77475121 0 0 1 -0.19118,-0.49876 c -0.42025,-4.32429 0.72347,-27.05633 3.36619,-28.99746 l 0.0163,-0.0158 7.73461,-1.33551 v 0 l 0.14382,0.14383 c 0.0112,0.20042 1.41742,20.12602 -2.46589,30.29533 a 0.64722932,0.64722932 0 0 1 -0.60296,0.41139 h -1.54412 a 0.64717957,0.64717957 0 0 1 -0.6452,-0.69792 l 1.25015,-19.04137 a 0.21573481,0.21573481 0 0 0 -0.42587,-0.063 l -3.52083,19.32608 a 0.65113534,0.65113534 0 0 1 -0.58457,0.50774 l -2.02777,0.15014 q -0.024,0.002 -0.0479,0.002 a 0.64788447,0.64788447 0 0 1 -0.45476,-0.18635 z"
     fill="#2f2e41"
     id="path2245"
     style="stroke-width:0.829303" />
  <circle
     cx="798.41144"
     cy="388.93024"
     r="3.5324898"
     fill="#a0616a"
     id="circle2247"
     style="stroke-width:0.829303" />
  <path
     d="m 789.9031,408.56389 a 0.83714794,0.83714794 0 0 1 -0.23997,-0.56791 l 1.44254,-6.75351 c -1.1506,-4.89005 0.38126,-5.80678 2.11011,-6.73346 l -0.011,-0.006 0.72201,-1.95401 a 0.61056585,0.61056585 0 0 1 0.85392,-0.39528 l 3.68187,1.95621 a 0.72844294,0.72844294 0 0 1 0.34167,0.42997 0.91326135,0.91326135 0 0 1 -0.0121,0.59385 l -0.27188,0.73583 c 0.70305,0.93911 1.79027,4.6535 0.63967,6.09175 l 0.86828,4.79311 a 0.75667241,0.75667241 0 0 1 -0.53905,0.80656 l -9.07221,1.16414 a 0.53646765,0.53646765 0 0 1 -0.10706,0.0108 0.58565359,0.58565359 0 0 1 -0.40675,-0.17229 z"
     fill="#0aa8a7"
     id="path2249"
     style="stroke-width:0.829303" />
  <path
     d="m 803.1103,400.81864 a 1.5138922,1.5138922 0 0 0 -0.16024,0.1765 l -7.11578,-0.4917 -0.76337,-1.5556 -2.49825,0.84522 1.08377,2.88521 a 1.1505912,1.1505912 0 0 0 1.16413,0.74271 l 8.0916,-0.61364 a 1.5097456,1.5097456 0 1 0 0.19814,-1.98866 z"
     fill="#a0616a"
     id="path2251"
     style="stroke-width:0.829303" />
  <path
     d="m 795.56867,400.52821 -3.10143,1.03253 a 0.64722932,0.64722932 0 0 1 -0.84183,-0.50181 l -0.56516,-3.2095 a 1.7974391,1.7974391 0 0 1 3.41412,-1.12554 l 1.46736,2.89805 a 0.64721274,0.64721274 0 0 1 -0.37306,0.90627 z"
     fill="#0aa8a7"
     id="path2253"
     style="stroke-width:0.829303" />
  <circle
     cx="796.42725"
     cy="383.26434"
     r="2.876503"
     fill="#2f2e41"
     id="circle2255"
     style="stroke-width:0.829303" />
  <path
     d="m 801.75546,389.36693 a 1.5053337,1.5053337 0 0 0 0.83269,-0.0697 0.98887717,0.98887717 0 0 0 0.49435,-0.74594 c 0.53595,-3.56099 -2.49205,-3.26807 -2.85021,-3.42229 a 3.9248411,3.9248411 0 0 1 -0.63329,-0.46212 2.9608347,2.9608347 0 0 0 -1.65438,-0.36386 4.7702323,4.7702323 0 0 0 -2.01032,0.24579 3.0111982,3.0111982 0 0 0 -1.33624,1.23167 6.2186012,6.2186012 0 0 0 -0.66258,1.71629 4.2831082,4.2831082 0 0 0 -0.11268,2.10394 2.6017964,2.6017964 0 0 0 2.36148,1.89247 1.9464896,1.9464896 0 0 1 1.02736,-2.13222 2.9688126,2.9688126 0 0 1 1.95842,-0.23319 8.6216635,8.6216635 0 0 0 1.29905,0.16177 c 0.4283,0.016 0.94254,0.0411 1.28635,0.0775 z"
     fill="#2f2e41"
     id="path2257"
     style="stroke-width:0.829303" />
  <g
     id="g7554"
     transform="matrix(0.42725014,0,0,0.42725014,964.68089,237.08765)"
     style="display:inline">
    <rect
       x="-1342.6145"
       y="447.90161"
       width="103"
       height="41"
       rx="8.8400002"
       ry="8.8400002"
       fill="#0aa8a7"
       id="rect6797" />
    <rect
       x="-1239.6145"
       y="447.90161"
       width="103"
       height="41"
       rx="8.8400002"
       ry="8.8400002"
       fill="#0aa8a7"
       id="rect6799" />
    <rect
       x="-1239.6145"
       y="447.90161"
       width="103"
       height="41"
       rx="8.8400002"
       ry="8.8400002"
       opacity="0.1"
       id="rect6801" />
    <rect
       x="-1136.6145"
       y="447.90161"
       width="103"
       height="41"
       rx="8.8400002"
       ry="8.8400002"
       fill="#0aa8a7"
       id="rect6803" />
    <rect
       x="-1033.6145"
       y="447.90161"
       width="103"
       height="41"
       rx="8.8400002"
       ry="8.8400002"
       fill="#0aa8a7"
       id="rect6805" />
    <rect
       x="-1033.6145"
       y="447.90161"
       width="103"
       height="41"
       rx="8.8400002"
       ry="8.8400002"
       opacity="0.1"
       id="rect6807" />
    <rect
       x="-930.6145"
       y="447.90161"
       width="103"
       height="41"
       rx="8.8400002"
       ry="8.8400002"
       fill="#0aa8a7"
       id="rect6809" />
    <rect
       x="-827.6145"
       y="447.90161"
       width="103"
       height="41"
       rx="8.8400002"
       ry="8.8400002"
       fill="#0aa8a7"
       id="rect6811" />
    <rect
       x="-827.6145"
       y="447.90161"
       width="103"
       height="41"
       rx="8.8400002"
       ry="8.8400002"
       opacity="0.1"
       id="rect6813" />
    <rect
       x="724.6145"
       y="-447.90164"
       width="103"
       height="41"
       rx="8.8400002"
       ry="8.8400002"
       transform="scale(-1)"
       fill="#0aa8a7"
       id="rect6815" />
    <rect
       x="827.6145"
       y="-447.90164"
       width="103"
       height="41"
       rx="8.8400002"
       ry="8.8400002"
       transform="scale(-1)"
       fill="#0aa8a7"
       id="rect6817" />
    <rect
       x="827.6145"
       y="-447.90164"
       width="103"
       height="41"
       rx="8.8400002"
       ry="8.8400002"
       transform="scale(-1)"
       opacity="0.1"
       id="rect6819" />
    <rect
       x="930.6145"
       y="-447.90164"
       width="103"
       height="41"
       rx="8.8400002"
       ry="8.8400002"
       transform="scale(-1)"
       fill="#0aa8a7"
       id="rect6821" />
    <rect
       x="1033.6145"
       y="-447.90164"
       width="103"
       height="41"
       rx="8.8400002"
       ry="8.8400002"
       transform="scale(-1)"
       fill="#0aa8a7"
       id="rect6823" />
    <rect
       x="1033.6145"
       y="-447.90164"
       width="103"
       height="41"
       rx="8.8400002"
       ry="8.8400002"
       transform="scale(-1)"
       opacity="0.1"
       id="rect6825" />
    <rect
       x="1136.6145"
       y="-447.90164"
       width="103"
       height="41"
       rx="8.8400002"
       ry="8.8400002"
       transform="scale(-1)"
       fill="#0aa8a7"
       id="rect6827" />
    <rect
       x="1239.6145"
       y="-447.90164"
       width="103"
       height="41"
       rx="8.8400002"
       ry="8.8400002"
       transform="scale(-1)"
       fill="#0aa8a7"
       id="rect6829" />
    <rect
       x="1239.6145"
       y="-447.90164"
       width="103"
       height="41"
       rx="8.8400002"
       ry="8.8400002"
       transform="scale(-1)"
       opacity="0.1"
       id="rect6831" />
    <rect
       x="-1342.6145"
       y="365.90161"
       width="103"
       height="41"
       rx="8.8400002"
       ry="8.8400002"
       fill="#0aa8a7"
       id="rect6833" />
    <rect
       x="-1239.6145"
       y="365.90161"
       width="103"
       height="41"
       rx="8.8400002"
       ry="8.8400002"
       fill="#0aa8a7"
       id="rect6835" />
    <rect
       x="-1239.6145"
       y="365.90161"
       width="103"
       height="41"
       rx="8.8400002"
       ry="8.8400002"
       opacity="0.1"
       id="rect6837" />
    <rect
       x="-1136.6145"
       y="365.90161"
       width="103"
       height="41"
       rx="8.8400002"
       ry="8.8400002"
       fill="#0aa8a7"
       id="rect6839" />
    <rect
       x="-1033.6145"
       y="365.90161"
       width="103"
       height="41"
       rx="8.8400002"
       ry="8.8400002"
       fill="#0aa8a7"
       id="rect6841" />
    <rect
       x="-1033.6145"
       y="365.90161"
       width="103"
       height="41"
       rx="8.8400002"
       ry="8.8400002"
       opacity="0.1"
       id="rect6843" />
    <rect
       x="-930.6145"
       y="365.90161"
       width="103"
       height="41"
       rx="8.8400002"
       ry="8.8400002"
       fill="#0aa8a7"
       id="rect6845" />
    <rect
       x="-827.6145"
       y="365.90161"
       width="103"
       height="41"
       rx="8.8400002"
       ry="8.8400002"
       fill="#0aa8a7"
       id="rect6847" />
    <rect
       x="-827.6145"
       y="365.90161"
       width="103"
       height="41"
       rx="8.8400002"
       ry="8.8400002"
       opacity="0.1"
       id="rect6849" />
    <rect
       x="724.6145"
       y="-365.90164"
       width="103"
       height="41"
       rx="8.8400002"
       ry="8.8400002"
       transform="scale(-1)"
       fill="#0aa8a7"
       id="rect6851" />
    <rect
       x="827.6145"
       y="-365.90164"
       width="103"
       height="41"
       rx="8.8400002"
       ry="8.8400002"
       transform="scale(-1)"
       fill="#0aa8a7"
       id="rect6853" />
    <rect
       x="827.6145"
       y="-365.90164"
       width="103"
       height="41"
       rx="8.8400002"
       ry="8.8400002"
       transform="scale(-1)"
       opacity="0.1"
       id="rect6855" />
    <rect
       x="930.6145"
       y="-365.90164"
       width="103"
       height="41"
       rx="8.8400002"
       ry="8.8400002"
       transform="scale(-1)"
       fill="#0aa8a7"
       id="rect6857" />
    <rect
       x="1033.6145"
       y="-365.90164"
       width="103"
       height="41"
       rx="8.8400002"
       ry="8.8400002"
       transform="scale(-1)"
       fill="#0aa8a7"
       id="rect6859" />
    <rect
       x="1033.6145"
       y="-365.90164"
       width="103"
       height="41"
       rx="8.8400002"
       ry="8.8400002"
       transform="scale(-1)"
       opacity="0.1"
       id="rect6861" />
    <rect
       x="1136.6145"
       y="-365.90164"
       width="103"
       height="41"
       rx="8.8400002"
       ry="8.8400002"
       transform="scale(-1)"
       fill="#0aa8a7"
       id="rect6863" />
    <rect
       x="1239.6145"
       y="-365.90164"
       width="103"
       height="41"
       rx="8.8400002"
       ry="8.8400002"
       transform="scale(-1)"
       fill="#0aa8a7"
       id="rect6865" />
    <rect
       x="1239.6145"
       y="-365.90164"
       width="103"
       height="41"
       rx="8.8400002"
       ry="8.8400002"
       transform="scale(-1)"
       opacity="0.1"
       id="rect6867" />
    <rect
       x="-1342.6145"
       y="285.90161"
       width="103"
       height="41"
       rx="8.8400002"
       ry="8.8400002"
       fill="#0aa8a7"
       id="rect6869" />
    <rect
       x="-1239.6145"
       y="285.90161"
       width="103"
       height="41"
       rx="8.8400002"
       ry="8.8400002"
       fill="#0aa8a7"
       id="rect6871" />
    <rect
       x="-1239.6145"
       y="285.90161"
       width="103"
       height="41"
       rx="8.8400002"
       ry="8.8400002"
       opacity="0.1"
       id="rect6873" />
    <rect
       x="-1136.6145"
       y="285.90161"
       width="103"
       height="41"
       rx="8.8400002"
       ry="8.8400002"
       fill="#0aa8a7"
       id="rect6875" />
    <rect
       x="-1033.6145"
       y="285.90161"
       width="103"
       height="41"
       rx="8.8400002"
       ry="8.8400002"
       fill="#0aa8a7"
       id="rect6877" />
    <rect
       x="-1033.6145"
       y="285.90161"
       width="103"
       height="41"
       rx="8.8400002"
       ry="8.8400002"
       opacity="0.1"
       id="rect6879" />
    <rect
       x="-930.6145"
       y="285.90161"
       width="103"
       height="41"
       rx="8.8400002"
       ry="8.8400002"
       fill="#0aa8a7"
       id="rect6881" />
    <rect
       x="-827.6145"
       y="285.90161"
       width="103"
       height="41"
       rx="8.8400002"
       ry="8.8400002"
       fill="#0aa8a7"
       id="rect6883" />
    <rect
       x="-827.6145"
       y="285.90161"
       width="103"
       height="41"
       rx="8.8400002"
       ry="8.8400002"
       opacity="0.1"
       id="rect6885" />
    <rect
       x="724.6145"
       y="-285.90164"
       width="103"
       height="41"
       rx="8.8400002"
       ry="8.8400002"
       transform="scale(-1)"
       fill="#0aa8a7"
       id="rect6887" />
    <rect
       x="827.6145"
       y="-285.90164"
       width="103"
       height="41"
       rx="8.8400002"
       ry="8.8400002"
       transform="scale(-1)"
       fill="#0aa8a7"
       id="rect6889" />
    <rect
       x="827.6145"
       y="-285.90164"
       width="103"
       height="41"
       rx="8.8400002"
       ry="8.8400002"
       transform="scale(-1)"
       opacity="0.1"
       id="rect6891" />
    <rect
       x="930.6145"
       y="-285.90164"
       width="103"
       height="41"
       rx="8.8400002"
       ry="8.8400002"
       transform="scale(-1)"
       fill="#0aa8a7"
       id="rect6893" />
    <rect
       x="1033.6145"
       y="-285.90164"
       width="103"
       height="41"
       rx="8.8400002"
       ry="8.8400002"
       transform="scale(-1)"
       fill="#0aa8a7"
       id="rect6895" />
    <rect
       x="1033.6145"
       y="-285.90164"
       width="103"
       height="41"
       rx="8.8400002"
       ry="8.8400002"
       transform="scale(-1)"
       opacity="0.1"
       id="rect6897" />
    <rect
       x="1136.6145"
       y="-285.90164"
       width="103"
       height="41"
       rx="8.8400002"
       ry="8.8400002"
       transform="scale(-1)"
       fill="#0aa8a7"
       id="rect6899" />
    <rect
       x="1239.6145"
       y="-285.90164"
       width="103"
       height="41"
       rx="8.8400002"
       ry="8.8400002"
       transform="scale(-1)"
       fill="#0aa8a7"
       id="rect6901" />
    <rect
       x="1239.6145"
       y="-285.90164"
       width="103"
       height="41"
       rx="8.8400002"
       ry="8.8400002"
       transform="scale(-1)"
       opacity="0.1"
       id="rect6903" />
    <rect
       x="-1342.6145"
       y="203.90163"
       width="103"
       height="41"
       rx="8.8400002"
       ry="8.8400002"
       fill="#0aa8a7"
       id="rect6905" />
    <rect
       x="-1239.6145"
       y="203.90163"
       width="103"
       height="41"
       rx="8.8400002"
       ry="8.8400002"
       fill="#0aa8a7"
       id="rect6907" />
    <rect
       x="-1239.6145"
       y="203.90163"
       width="103"
       height="41"
       rx="8.8400002"
       ry="8.8400002"
       opacity="0.1"
       id="rect6909" />
    <rect
       x="-1136.6145"
       y="203.90163"
       width="103"
       height="41"
       rx="8.8400002"
       ry="8.8400002"
       fill="#0aa8a7"
       id="rect6911" />
    <rect
       x="-1033.6145"
       y="203.90163"
       width="103"
       height="41"
       rx="8.8400002"
       ry="8.8400002"
       fill="#0aa8a7"
       id="rect6913" />
    <rect
       x="-1033.6145"
       y="203.90163"
       width="103"
       height="41"
       rx="8.8400002"
       ry="8.8400002"
       opacity="0.1"
       id="rect6915" />
    <rect
       x="-930.6145"
       y="203.90163"
       width="103"
       height="41"
       rx="8.8400002"
       ry="8.8400002"
       fill="#0aa8a7"
       id="rect6917" />
    <rect
       x="-827.6145"
       y="203.90163"
       width="103"
       height="41"
       rx="8.8400002"
       ry="8.8400002"
       fill="#0aa8a7"
       id="rect6919" />
    <rect
       x="-827.6145"
       y="203.90163"
       width="103"
       height="41"
       rx="8.8400002"
       ry="8.8400002"
       opacity="0.1"
       id="rect6921" />
    <rect
       x="-835.6145"
       y="67.311615"
       width="111"
       height="44.18"
       rx="8.8400002"
       ry="8.8400002"
       fill="url(#e2bf1f7d-47c1-4d5e-a8e7-eb090eb66cd5)"
       id="rect6923"
       style="fill:url(#linearGradient7162)" />
    <rect
       x="728.6145"
       y="-109.90162"
       width="103"
       height="41"
       rx="8.8400002"
       ry="8.8400002"
       transform="scale(-1)"
       fill="#0aa8a7"
       id="rect6925" />
    <rect
       x="827.6145"
       y="-203.90161"
       width="103"
       height="41"
       rx="8.8400002"
       ry="8.8400002"
       transform="scale(-1)"
       fill="#0aa8a7"
       id="rect6927" />
    <rect
       x="827.6145"
       y="-203.90161"
       width="103"
       height="41"
       rx="8.8400002"
       ry="8.8400002"
       transform="scale(-1)"
       opacity="0.1"
       id="rect6929" />
    <rect
       x="930.6145"
       y="-203.90161"
       width="103"
       height="41"
       rx="8.8400002"
       ry="8.8400002"
       transform="scale(-1)"
       fill="#0aa8a7"
       id="rect6931" />
    <rect
       x="1033.6145"
       y="-203.90161"
       width="103"
       height="41"
       rx="8.8400002"
       ry="8.8400002"
       transform="scale(-1)"
       fill="#0aa8a7"
       id="rect6933" />
    <rect
       x="1033.6145"
       y="-203.90161"
       width="103"
       height="41"
       rx="8.8400002"
       ry="8.8400002"
       transform="scale(-1)"
       opacity="0.1"
       id="rect6935" />
    <rect
       x="1136.6145"
       y="-203.90161"
       width="103"
       height="41"
       rx="8.8400002"
       ry="8.8400002"
       transform="scale(-1)"
       fill="#0aa8a7"
       id="rect6937" />
    <rect
       x="1239.6145"
       y="-203.90161"
       width="103"
       height="41"
       rx="8.8400002"
       ry="8.8400002"
       transform="scale(-1)"
       fill="#0aa8a7"
       id="rect6939" />
    <rect
       x="1239.6145"
       y="-203.90161"
       width="103"
       height="41"
       rx="8.8400002"
       ry="8.8400002"
       transform="scale(-1)"
       opacity="0.1"
       id="rect6941" />
    <ellipse
       cx="-1003.9345"
       cy="575.40161"
       rx="499"
       ry="113.5"
       fill="#f5f5f5"
       id="ellipse6943" />
    <path
       d="m -1388.9845,524.46162 c 0,0 9,-30.41 -1.68,-52.8 a 48,48 0 0 1 -3.89,-30.14 80.79,80.79 0 0 1 4.27,-14.15"
       fill="none"
       stroke="#535461"
       stroke-miterlimit="10"
       stroke-width="2"
       id="path6945" />
    <path
       d="m -1396.9045,413.23162 c 0,3.73 6.75,14.54 6.75,14.54 0,0 6.75,-10.81 6.75,-14.54 a 6.75,6.75 0 0 0 -13.5,0 z"
       fill="#0aa8a7"
       id="path6947" />
    <path
       d="m -1408.0645,433.88162 c 2,3.13 13.57,8.53 13.57,8.53 0,0 -0.21,-12.74 -2.24,-15.87 a 6.75,6.75 0 0 0 -11.33,7.34 z"
       fill="#0aa8a7"
       id="path6949" />
    <path
       d="m -1407.5745,469.16162 c 3.33,1.68 16,0.52 16,0.52 0,0 -6.61,-10.89 -9.94,-12.57 a 6.75,6.75 0 0 0 -6.08,12.05 z"
       fill="#0aa8a7"
       id="path6951" />
    <path
       d="m -1401.1945,495.77162 c 3,2.22 15.7,3.22 15.7,3.22 0,0 -4.68,-11.85 -7.67,-14.07 a 6.75,6.75 0 0 0 -8,10.85 z"
       fill="#0aa8a7"
       id="path6953" />
    <path
       d="m -1380.3245,443.13162 c -2.67,2.6 -15.13,5.29 -15.13,5.29 0,0 3.05,-12.37 5.72,-15 a 6.7500093,6.7500093 0 1 1 9.41,9.68 z"
       fill="#0aa8a7"
       id="path6955" />
    <path
       d="m -1373.2545,474.32162 c -3.33,1.68 -16,0.52 -16,0.52 0,0 6.61,-10.89 9.94,-12.57 a 6.75,6.75 0 0 1 6.06,12.05 z"
       fill="#0aa8a7"
       id="path6957" />
    <path
       d="m -1370.5545,505.64162 c -3,2.22 -15.7,3.22 -15.7,3.22 0,0 4.68,-11.85 7.67,-14.07 a 6.75,6.75 0 0 1 8,10.85 z"
       fill="#0aa8a7"
       id="path6959" />
    <path
       d="m -905.9545,352.12162 c 0,0 32.89,32.89 14.32,81.69 -18.57,48.8 31.83,130 31.83,130 0,0 -0.54,-0.08 -1.54,-0.26 -67.55,-11.97 -101.11,-89.23 -63.55,-146.61 13.96,-21.34 25.43,-46.36 18.94,-64.82 z"
       fill="#0aa8a7"
       id="path6961" />
    <path
       d="m -905.9545,352.12162 c 0,0 32.89,32.89 14.32,81.69 -18.57,48.8 31.83,130 31.83,130 0,0 -0.54,-0.08 -1.54,-0.26 -67.55,-11.97 -101.11,-89.23 -63.55,-146.61 13.96,-21.34 25.43,-46.36 18.94,-64.82 z"
       opacity="0.2"
       id="path6963" />
    <path
       d="m -905.9545,352.12162 c 0,0 18.57,40.31 0,73.2 -18.57,32.89 -3.18,125.18 46.18,138.44"
       fill="none"
       stroke="#535461"
       stroke-miterlimit="10"
       id="path6965" />
    <path
       d="m -964.5245,485.13162 c 0,0 37.53,-6 40.95,27.66 3.42,33.66 72.16,38.29 72.16,38.29 l -1.29,0.86 c -56.76,37.26 -111,23.73 -102.84,-25.74 3.04,-18.39 2.77,-36.88 -8.98,-41.07 z"
       fill="#0aa8a7"
       id="path6967" />
    <path
       d="m -964.5245,485.13162 c 0,0 37.53,-6 40.95,27.66 3.42,33.66 72.16,38.29 72.16,38.29 l -1.29,0.86 c -56.76,37.26 -111,23.73 -102.84,-25.74 3.04,-18.39 2.77,-36.88 -8.98,-41.07 z"
       fill="#f5f5f5"
       opacity="0.2"
       id="path6969" />
    <path
       d="m -964.5245,485.13162 c 0,0 29.13,6.39 26.74,32.88 -2.39,26.49 43.26,58.24 86.37,33.07"
       fill="none"
       stroke="#535461"
       stroke-miterlimit="10"
       id="path6971" />
    <path
       d="m -679.0045,562.55162 c 0,0 -55.7,-11.14 -70.56,-26 -14.86,-14.86 -81.7,-40.85 -89.13,-22.28 -7.43,18.57 -100.26,81.71 -37.08,92.85 63.18,11.14 148.54,14.85 167.11,7.43 18.57,-7.42 29.66,-52 29.66,-52 z"
       fill="#a8a8a8"
       id="path6973" />
    <path
       d="m -875.7745,600.22162 c 63.13,11.14 148.54,14.85 167.11,7.43 14.14,-5.66 24,-32.83 27.85,-45.48 l 1.86,0.39 c 0,0 -11.14,44.56 -29.71,52 -18.57,7.44 -104,3.71 -167.11,-7.43 -18.22,-3.22 -23.43,-10.77 -21.47,-20.33 1.47,6.23 7.86,11.02 21.47,13.42 z"
       opacity="0.2"
       id="path6975" />
    <path
       d="m -566.3045,67.911617 a 16.36,16.36 0 0 0 -4.61,-6.39 c -14.95,-13.62 -39.12,-9.49 -57.68,-17.82 -4.28,-1.92 -8.66,-4.58 -13.3,-3.85 -6.48,1 -12.51,8.4 -18.16,5.12 l 0.4,1.23 -0.4,-0.21 4.16,12.66 c 1.6,4.86 3.28,9.86 6.38,13.91 a 36.42,36.42 0 0 0 8.81,60.580003 c 0.2,0.42 0.39,0.85 0.58,1.28 l 0.53,0.22 a 42.52,42.52 0 0 1 2.74,8.82 c -4.81,0.67 -13.2,6 -21.44,13.84 l -16.48,-0.55 a 53.94,53.94 0 0 1 -29.64,-10.08 l -49.36,-35.45 a 16.51,16.51 0 0 0 -9.45,4.18 c -6.12,-6.38 -11.32,-13 -10.88,-17.000003 0,0 -22.94,-42.93 -31.28,-21.47 -8.34,21.46 15.64,44.000003 15.64,44.000003 l 15.21,19.71 a 82.91,82.91 0 0 0 -1.14,10.45 c 18.77,21.47 84.45,40.89 84.45,40.89 l 10.24,0.5 0.06,0.5 a 34.87,34.87 0 0 0 -0.92,8.2 c 0,0.4 0,0.81 0,1.23 0,0.42 0,0.55 0,0.82 0.52,34.24 5.21,139 5.21,139 0.91,-0.41 1.86,-0.78 2.82,-1.13 l -0.73,9.31 c 0,0 -43.79,6.13 -76.11,18.4 -32.32,12.27 -33.36,26.58 -33.36,26.58 v 126.26 c -9.23,4.74 -23.8,11 -31.28,7.63 -8.12,-3.62 -12.57,-0.58 -13.38,2.59 v 0 a 4,4 0 0 0 0,1.91 v 0 a 3.42,3.42 0 0 0 0.31,0.81 v 0.06 a 3.25,3.25 0 0 0 0.55,0.72 c 3.13,3.07 70.9,29.64 86.54,25.55 a 10.81,10.81 0 0 0 1.42,-0.48 c 0.15,-0.06 0.28,-0.14 0.43,-0.21 0.15,-0.07 0.58,-0.27 0.85,-0.43 0.27,-0.16 0.31,-0.21 0.46,-0.31 0.15,-0.1 0.47,-0.31 0.69,-0.48 0.22,-0.17 0.29,-0.26 0.43,-0.39 0.14,-0.13 0.41,-0.35 0.59,-0.55 0.18,-0.2 0.26,-0.3 0.39,-0.45 0.13,-0.15 0.36,-0.4 0.52,-0.62 0.16,-0.22 0.22,-0.33 0.34,-0.49 0.12,-0.16 0.32,-0.46 0.46,-0.7 0.14,-0.24 0.19,-0.34 0.28,-0.52 0.09,-0.18 0.28,-0.51 0.41,-0.78 0.13,-0.27 0.16,-0.35 0.23,-0.53 0.07,-0.18 0.25,-0.57 0.36,-0.86 0.11,-0.29 0.12,-0.35 0.19,-0.53 0.07,-0.18 0.22,-0.63 0.31,-1 0,-0.17 0.09,-0.34 0.14,-0.51 0.09,-0.35 0.19,-0.69 0.27,-1 0,-0.16 0.07,-0.32 0.1,-0.48 0.08,-0.38 0.16,-0.76 0.22,-1.14 0,-0.14 0,-0.29 0.07,-0.43 0.07,-0.41 0.13,-0.83 0.18,-1.24 v -0.36 c 0.05,-0.45 0.1,-0.9 0.14,-1.35 v -0.28 q 0.06,-0.73 0.09,-1.46 v -0.2 q 0,-0.78 0,-1.56 v -0.1 a 85.59,85.59 0 0 0 -2,-18.13 v 0 l 3.93,-107.53 a 586.59,586.59 0 0 0 61.36,-2.26 l 2.24,51.32 c 0,0 0,33.73 11.47,49.06 9.82,13.12 21.16,71.15 24.22,87.62 -4.21,8 -12.27,18 -26.31,17.66 0,0 -26.41,-2.28 -24.92,5 v 0 a 3.74,3.74 0 0 0 0.17,0.56 v 0 a 5.16,5.16 0 0 0 0.29,0.61 v 0 c 0.11,0.19 0.23,0.38 0.37,0.58 l 0.08,0.12 c 0.15,0.21 0.32,0.43 0.51,0.66 v 0.05 c 0.18,0.21 0.37,0.42 0.58,0.63 l 0.18,0.18 c 0.24,0.24 0.48,0.48 0.76,0.73 13.55,12.27 92.79,14.31 92.79,14.31 v -0.28 c 0,-0.08 0,-0.18 0,-0.29 v 0 c 0,-3.55 -0.52,-22.17 -5.26,-36.19 h 1.1 c 0,0 -11.47,-103.24 -20.85,-115.5 0,0 -2.49,-54.44 3.13,-88.55 l 1,-0.38 c 26.28,-9.82 28.15,-34 25.44,-51.76 5,1.6 7.92,2.69 7.92,2.69 0,0 -0.09,-0.77 -0.26,-2.14 l 0.26,0.1 c 0,0 -0.5,-3.25 -1.33,-8.31 -1.88,-13.93 -5.52,-38.27 -9.4,-49.76 -0.63,-2.53 -1.23,-4.69 -1.78,-6.32 a 108.06,108.06 0 0 1 -4.59,-21.23 251.65,251.65 0 0 1 -1.61,-28.16 270.27,270.27 0 0 1 2.88,-37.56 c 1.59,-10.86 3,-23.22 2.9,-31.85 a 42.47,42.47 0 0 0 -0.63,-9 c -1.39,-6.37 -7.54,-10.51 -13.93,-13.15 -0.41,-0.17 -0.83,-0.31 -1.25,-0.47 0.16,-2.41 0.36,-5.15 0.62,-8 a 6.87,6.87 0 0 0 5.31,1.08 c 2.75,-0.6 4.72,-2.89 6.47,-5 9.24,-11.35 18.73,-23.18 22.28,-37.280003 a 80.54,80.54 0 0 0 2,-19.2 q 0,-0.53 0,-1.06 a 20.88,20.88 0 0 0 -0.74,-7.17 z"
       fill="url(#a3595478-8223-4729-894e-2a36a16c8458)"
       id="path6977"
       style="fill:url(#a3595478-8223-4729-894e-2a36a16c8458-3)" />
    <path
       d="m -650.4345,123.24162 c 0,0 14,21 11,31 -3,10 33,4 33,4 0,0 1,-39 8,-48 7,-9 -52,13 -52,13 z"
       fill="#f7c4a7"
       id="path6979" />
    <path
       d="m -742.9345,136.74162 c 0,0 -29,-24 -28,-33 0,0 -22,-42.000003 -30,-21.000003 -8,21.000003 15,43.000003 15,43.000003 l 28,37 z"
       fill="#f7c4a7"
       id="path6981" />
    <path
       d="m -772.4345,513.24162 c 0,0 -27,17 -38,12 -11,-5 -15,3 -12,6 3,3 68,29 83,25 15,-4 7.37,-36.76 7.37,-36.76 z"
       fill="#535461"
       id="path6983" />
    <path
       d="m -629.4345,586.24162 c 0,0 -6.5,27.5 -29,27 0,0 -34,-3 -21,9 13,12 89,14 89,14 0,0 0,-41 -14,-50 -14,-9 -25,0 -25,0 z"
       fill="#535461"
       id="path6985" />
    <path
       d="m -670.4345,392.24162 3,70 c 0,0 0,33 11,48 11,15 24,90 24,90 h 38 c 0,0 -11,-101 -20,-113 0,0 -4,-89 10,-109 z"
       fill="#575988"
       id="path6987" />
    <path
       d="m -670.4345,392.24162 3,70 c 0,0 0,33 11,48 11,15 24,90 24,90 h 38 c 0,0 -11,-101 -20,-113 0,0 -4,-89 10,-109 z"
       opacity="0.1"
       id="path6989" />
    <path
       d="m -591.4345,329.24162 c 0,0 23,55 -19,71 -42,16 -118,14 -118,14 l -4,116 c 0,0 -47,6 -48,-9 v -127 c 0,0 1,-14 32,-26 31,-12 73,-18 73,-18 l 2,-26 z"
       fill="#575988"
       id="path6991" />
    <path
       d="m -628.2845,148.05162 a 47.85,47.85 0 0 1 23.5,3.32 c 6.13,2.58 12,6.63 13.36,12.86 1.58,7.38 -0.17,23.93 -2.18,37.94 a 261.28,261.28 0 0 0 -1.22,66.29 c 1,9.19 2.45,17.2 4.4,20.77 6,11 12,63 12,63 0,0 -66,-25 -99,-10 0,0 -4.5,-102.5 -5,-136 -0.39,-25.94 32.5,-55.5 43.5,-56.5 6.44,-0.58 4.23,-1.01 10.64,-1.68 z"
       opacity="0.1"
       id="path6993" />
    <path
       d="m -628.2845,146.05162 a 47.85,47.85 0 0 1 23.5,3.32 c 6.13,2.58 12,6.63 13.36,12.86 1.58,7.38 -0.17,23.93 -2.18,37.94 a 261.28,261.28 0 0 0 -1.22,66.29 107.53,107.53 0 0 0 4.4,20.77 c 4.5,13.5 12,63 12,63 0,0 -66,-25 -99,-10 0,0 -4.5,-102.5 -5,-136 -0.39,-25.94 32.5,-55.5 43.5,-56.5 6.44,-0.58 4.23,-1.01 10.64,-1.68 z"
       fill="#e14b5a"
       id="path6995" />
    <path
       d="m -610.4345,201.24162 -71,-4 c 0,0 -4.52,-34.81 5.73,-34.45 l 70.27,2.45 c 0,0 15,18 -5,36 z"
       opacity="0.1"
       id="path6997" />
    <path
       d="m -610.4345,199.24162 -81,-4 c 0,0 -63,-19 -81,-40 0,0 1,-37 21,-39 l 47.31,34.69 a 51.08,51.08 0 0 0 28.42,9.86 l 70.27,2.45 c 0,0 15,18 -5,36 z"
       fill="#e14b5a"
       id="path6999" />
    <path
       d="m -606.9345,127.74162 c 1.19,-9.48 5.49,-12.63 8.5,-16.5 7,-9 -52,13 -52,13 a 106.08,106.08 0 0 1 8,14.71 35.85,35.85 0 0 0 15,3.29 c 8.66,0 14.28,-9.37 20.5,-14.5 z"
       opacity="0.1"
       id="path7001" />
    <circle
       cx="-627.43451"
       cy="105.24162"
       r="36"
       fill="#f7c4a7"
       id="circle7003" />
    <path
       d="m -650.1645,80.011617 c -3.83,-4.19 -5.68,-9.77 -7.42,-15.18 l -4,-12.39 c 5.42,3.2 11.2,-4 17.42,-5 4.45,-0.71 8.66,1.89 12.76,3.76 17.8,8.14 41,4.1 55.32,17.43 a 16,16 0 0 1 4.42,6.25 20.91,20.91 0 0 1 0.8,7 80.32,80.32 0 0 1 -1.87,18.780003 c -3.4,13.79 -12.5,25.37 -21.37,36.47 -1.68,2.11 -3.57,4.35 -6.21,4.94 -5.15,1.15 -9.13,-4.41 -11.12,-9.29 a 98.9,98.9 0 0 1 -5.8,-20.07 c -0.52,-2.91 -0.93,-5.91 -2.38,-8.48 -3.1,-5.490003 -10.74,-10.690003 -15.38,-14.950003 -4.64,-4.26 -10.91,-4.62 -15.17,-9.27 z"
       opacity="0.1"
       id="path7005" />
    <path
       d="m -650.1645,79.011617 c -3.83,-4.19 -5.68,-9.77 -7.42,-15.18 l -4,-12.39 c 5.42,3.2 11.2,-4 17.42,-5 4.45,-0.71 8.66,1.89 12.76,3.76 17.8,8.14 41,4.1 55.32,17.43 a 16,16 0 0 1 4.42,6.25 20.91,20.91 0 0 1 0.8,7 80.32,80.32 0 0 1 -1.87,18.78 c -3.4,13.790003 -12.5,25.370003 -21.37,36.470003 -1.68,2.11 -3.57,4.35 -6.21,4.94 -5.15,1.15 -9.13,-4.41 -11.12,-9.29 a 98.9,98.9 0 0 1 -5.8,-20.07 c -0.52,-2.91 -0.93,-5.91 -2.38,-8.48 -3.1,-5.490003 -10.74,-10.690003 -15.38,-14.950003 -4.64,-4.26 -10.91,-4.62 -15.17,-9.27 z"
       fill="#632652"
       id="path7007" />
    <ellipse
       cx="-617.93451"
       cy="109.24162"
       rx="3"
       ry="6.5"
       fill="#f7c4a7"
       id="ellipse7009" />
    <path
       d="m -599.9345,282.74162 c 0,0 -2,6 -12,5 -10,-1 -39,-3 -39,0"
       opacity="0.1"
       id="path7011" />
    <path
       d="m -679.4345,621.24162 c -1.8,-1.66 -2.7,-3 -2.91,-4.17 -0.26,1.3 0.54,3 2.91,5.17 13,12 89,14 89,14 0,0 0,-0.35 0,-1 -0.49,-0.01 -76.04,-2.04 -89,-14 z"
       fill="#ffffff"
       opacity="0.5"
       id="path7013" />
    <path
       d="m -739.4345,554.24162 c -15,4 -80,-22 -83,-25 a 3.25,3.25 0 0 1 -0.83,-1.46 3.6,3.6 0 0 0 0.83,3.46 c 3,3 68,29 83,25 7.72,-2.06 9.44,-11.73 9.3,-20.64 -0.15,8.3 -2.16,16.72 -9.3,18.64 z"
       fill="#ffffff"
       opacity="0.5"
       id="path7015" />
    <path
       d="m -1000.8445,543.48162 a 1.5,1.5 0 0 0 0,-3 1.5,1.5 0 0 0 0,3 z"
       fill="#67647e"
       id="path7017" />
    <path
       d="m -1411.4445,516.95162 c 0,0 37.32,-1.15 48.56,-9.16 11.24,-8.01 57.4,-17.57 60.19,-4.73 2.79,12.84 56.09,63.88 13.92,64.26 -42.17,0.38 -97.89,-6.56 -109.12,-13.4 -11.23,-6.84 -13.55,-36.97 -13.55,-36.97 z"
       fill="#a8a8a8"
       id="path7019" />
    <path
       d="m -1287.9845,562.81162 c -42.13,0.34 -97.89,-6.56 -109.12,-13.4 -8.55,-5.21 -12,-23.89 -13.09,-32.51 h -1.25 c 0,0 2.36,30.1 13.59,36.93 11.23,6.83 66.99,13.79 109.08,13.49 12.16,-0.1 16.36,-4.42 16.13,-10.83 -1.65,3.83 -6.29,6.25 -15.34,6.32 z"
       opacity="0.2"
       id="path7021" />
    <rect
       x="462.61447"
       y="-612.90161"
       width="103"
       height="41"
       rx="8.8400002"
       ry="8.8400002"
       transform="scale(-1)"
       fill="#0aa8a7"
       id="rect7023" />
    <rect
       x="462.61447"
       y="-612.90161"
       width="103"
       height="41"
       rx="8.8400002"
       ry="8.8400002"
       transform="scale(-1)"
       opacity="0.1"
       id="rect7025" />
    <rect
       x="-565.6145"
       y="532.90161"
       width="103"
       height="41"
       rx="8.8400002"
       ry="8.8400002"
       fill="#0aa8a7"
       id="rect7027" />
    <rect
       x="462.61447"
       y="-532.90161"
       width="103"
       height="41"
       rx="8.8400002"
       ry="8.8400002"
       transform="scale(-1)"
       fill="#0aa8a7"
       id="rect7029" />
    <rect
       x="462.61447"
       y="-532.90161"
       width="103"
       height="41"
       rx="8.8400002"
       ry="8.8400002"
       transform="scale(-1)"
       opacity="0.1"
       id="rect7031" />
    <rect
       x="-565.6145"
       y="450.90161"
       width="103"
       height="41"
       rx="8.8400002"
       ry="8.8400002"
       fill="#0aa8a7"
       id="rect7033" />
  </g>
</svg>
