<svg xmlns="http://www.w3.org/2000/svg" xmlns:xlink="http://www.w3.org/1999/xlink" data-name="Layer 1" viewBox="0 0 1086.87 645.26"><defs><linearGradient id="a" x1="600" x2="600" y1="803.52" y2="630.46" gradientUnits="userSpaceOnUse"><stop offset="0" stop-color="gray" stop-opacity=".25"/><stop offset=".54" stop-color="gray" stop-opacity=".12"/><stop offset="1" stop-color="gray" stop-opacity=".1"/></linearGradient><linearGradient id="b" x1="722.82" x2="722.82" y1="71.75" y2="27.57" gradientUnits="userSpaceOnUse"><stop offset="0" stop-color="gray" stop-opacity=".25"/><stop offset=".54" stop-color="gray" stop-opacity=".12"/><stop offset="1" stop-color="gray" stop-opacity=".1"/></linearGradient><linearGradient id="d" x1="885.66" x2="885.66" y1="728.42" y2="125.42" gradientTransform="translate(-1582.774 -85.678)" xlink:href="#b"/><linearGradient id="c" x1="722.82" x2="722.82" y1="71.75" y2="27.57" gradientTransform="translate(-1502.935 39.742)" gradientUnits="userSpaceOnUse" xlink:href="#b"/></defs><path fill="#f2f2f2" d="M43.563 437.747a14.235 14.235 0 0 1 28.47 0"/><path fill="#ccc" d="M57.798 437.747a.385.385 0 0 1-.384-.385v-7.502a.385.385 0 1 1 .769 0v7.502a.385.385 0 0 1-.385.385z"/><path fill="#ccc" d="M57.798 435.169a.383.383 0 0 1-.25-.093l-4.617-3.962a.385.385 0 1 1 .501-.584l4.617 3.962a.385.385 0 0 1-.251.677z"/><path fill="#f2f2f2" d="M87.423 437.747a14.235 14.235 0 0 1 28.47 0"/><path fill="#ccc" d="M101.658 437.747a.385.385 0 0 1-.384-.385v-7.502a.385.385 0 0 1 .769 0v7.502a.385.385 0 0 1-.385.385z"/><path fill="#ccc" d="M101.658 435.169a.383.383 0 0 1-.25-.093l-4.617-3.962a.385.385 0 1 1 .501-.584l4.617 3.962a.385.385 0 0 1-.25.677z"/><circle cx="670.081" cy="138.231" r="27.367" fill="#f2f2f2"/><ellipse cx="109.472" cy="462.489" fill="#f2f2f2" rx="24.879" ry="5.805"/><path fill="#f2f2f2" d="M96.772 224.191c6.525-20.374 22.457-36.176 41.352-45.574 22.419-11.15 48.18-12.413 72.522-8.073 26.277 4.685 50.837 15.485 74.609 27.27 23.317 11.561 46.258 23.768 70.508 33.322a456.428 456.428 0 0 0 151.718 31.427c46.798 1.56 96.835-3.567 136.905-29.87 36.715-24.101 60.078-63.861 72.246-105.306q2.337-7.96 4.155-16.055c.353-1.56-2.045-2.225-2.4-.661-9.815 43.279-30.745 86.054-66.507 113.642-38.68 29.839-89.444 36.737-136.949 35.947a454.223 454.223 0 0 1-153.696-29.66c-24.873-9.468-48.345-21.764-72.116-33.635-23.248-11.61-47.15-22.479-72.715-27.833-23.345-4.89-48.338-5.188-70.846 3.513-18.533 7.164-35.432 19.934-45.32 37.403a71.73 71.73 0 0 0-5.865 13.482c-.49 1.528 1.912 2.183 2.399.661z"/><path fill="#3f3d56" d="M767.665 414.502a.83.83 0 0 0 0-1.658h-7.879v-3.317h7.879a.83.83 0 0 0 0-1.659H700.49a.83.83 0 0 0 0 1.659h7.878v3.317h-7.878a.83.83 0 0 0 0 1.658h7.878v3.318h-7.878a.83.83 0 0 0 0 1.658h7.878v3.318h-7.049a1.659 1.659 0 0 0 0 3.317h6.71a1.236 1.236 0 0 0-.075.414v11.61a1.244 1.244 0 0 0 2.488 0v-11.61a1.236 1.236 0 0 0-.076-.414h47.422a1.236 1.236 0 0 0-.076.414v11.61a1.244 1.244 0 0 0 2.488 0v-11.61a1.236 1.236 0 0 0-.076-.414h6.71a1.659 1.659 0 0 0 0-3.317h-7.049v-3.318h7.879a.83.83 0 0 0 0-1.658h-7.879v-3.318zm-57.637-4.975h48.1v3.317h-48.1zm48.1 13.269h-48.1v-3.318h48.1zm0-4.976h-48.1v-3.318h48.1z"/><path fill="#e6e6e6" d="M199.037 379.889c0-14.647-11.881-49.402-26.538-49.402-14.656 0-26.537 34.755-26.537 49.402a26.538 26.538 0 0 0 53.075 0z"/><path fill="#f2f2f2" d="M192.402 379.889c0-14.647-11.88-49.402-26.537-49.402-14.657 0-26.538 34.755-26.538 49.402a26.538 26.538 0 0 0 53.076 0z"/><path fill="#ccc" d="M166.694 439.226a.83.83 0 0 1-.83-.83v-73.924a.83.83 0 0 1 1.66 0v73.925a.83.83 0 0 1-.83.829z"/><path fill="#ccc" d="M166.694 376.59a.83.83 0 0 1-.586-1.415l10.845-10.845a.83.83 0 0 1 1.173 1.172l-10.846 10.846a.826.826 0 0 1-.586.243z"/><path fill="#3f3d56" d="M773.425 439.226a.83.83 0 0 1-.83-.83v-73.924a.83.83 0 0 1 1.66 0v73.925a.83.83 0 0 1-.83.829z"/><path fill="#e6e6e6" d="M862.16 379.889c0-14.647-11.88-49.402-26.537-49.402-14.657 0-26.538 34.755-26.538 49.402a26.538 26.538 0 0 0 53.076 0z"/><path fill="#f2f2f2" d="M855.526 379.889c0-14.647-11.881-49.402-26.538-49.402-14.656 0-26.537 34.755-26.537 49.402a26.538 26.538 0 0 0 53.075 0z"/><path fill="#ccc" d="M829.818 439.226a.83.83 0 0 1-.83-.83v-73.924a.83.83 0 0 1 1.659 0v73.925a.83.83 0 0 1-.83.829z"/><path fill="#ccc" d="M829.818 376.59a.83.83 0 0 1-.587-1.415l10.846-10.845a.83.83 0 0 1 1.172 1.172l-10.845 10.846a.826.826 0 0 1-.586.243z"/><path fill="#e6e6e6" d="M254.6 152.744h-13.269a3.736 3.736 0 0 1-3.732-3.732v-30.684a3.736 3.736 0 0 1 3.732-3.732h13.27a3.736 3.736 0 0 1 3.731 3.732v30.684a3.736 3.736 0 0 1-3.732 3.732z"/><path fill="#e6e6e6" d="M306.846 438.854h-68.003a7.057 7.057 0 0 1-7.049-7.05V157.306a7.057 7.057 0 0 1 7.05-7.049h68.002a7.057 7.057 0 0 1 7.05 7.05v274.499a7.057 7.057 0 0 1-7.05 7.049z"/><path fill="#f2f2f2" d="M266.21 438.854h-68.002a7.057 7.057 0 0 1-7.05-7.05V157.306a7.057 7.057 0 0 1 7.05-7.049h68.002a7.057 7.057 0 0 1 7.05 7.05v274.499a7.057 7.057 0 0 1-7.05 7.049z"/><path fill="#f2f2f2" d="M242.16 152.744h-13.268a3.736 3.736 0 0 1-3.732-3.732v-30.684a3.736 3.736 0 0 1 3.732-3.732h13.269a3.736 3.736 0 0 1 3.731 3.732v30.684a3.736 3.736 0 0 1-3.731 3.732z"/><path fill="#fff" d="M224.745 212.454h-15.757a2.076 2.076 0 0 1-2.073-2.073v-24.05a2.076 2.076 0 0 1 2.073-2.073h15.757a2.076 2.076 0 0 1 2.073 2.073v24.05a2.076 2.076 0 0 1-2.073 2.073zM255.43 212.454h-15.757a2.076 2.076 0 0 1-2.074-2.073v-24.05a2.076 2.076 0 0 1 2.074-2.073h15.756a2.076 2.076 0 0 1 2.074 2.073v24.05a2.076 2.076 0 0 1-2.074 2.073zM224.745 256.407h-15.757a2.076 2.076 0 0 1-2.073-2.073v-24.05a2.076 2.076 0 0 1 2.073-2.073h15.757a2.076 2.076 0 0 1 2.073 2.073v24.05a2.076 2.076 0 0 1-2.073 2.073zM255.43 256.407h-15.757a2.076 2.076 0 0 1-2.074-2.073v-24.05a2.076 2.076 0 0 1 2.074-2.073h15.756a2.076 2.076 0 0 1 2.074 2.073v24.05a2.076 2.076 0 0 1-2.074 2.073zM224.745 300.36h-15.757a2.076 2.076 0 0 1-2.073-2.073v-24.05a2.076 2.076 0 0 1 2.073-2.073h15.757a2.076 2.076 0 0 1 2.073 2.073v24.05a2.076 2.076 0 0 1-2.073 2.073zM255.43 300.36h-15.757a2.076 2.076 0 0 1-2.074-2.073v-24.05a2.076 2.076 0 0 1 2.074-2.073h15.756a2.076 2.076 0 0 1 2.074 2.073v24.05a2.076 2.076 0 0 1-2.074 2.073zM224.745 344.313h-15.757a2.076 2.076 0 0 1-2.073-2.073v-24.05a2.076 2.076 0 0 1 2.073-2.073h15.757a2.076 2.076 0 0 1 2.073 2.073v24.05a2.076 2.076 0 0 1-2.073 2.073zM255.43 344.313h-15.757a2.076 2.076 0 0 1-2.074-2.073v-24.05a2.076 2.076 0 0 1 2.074-2.073h15.756a2.076 2.076 0 0 1 2.074 2.073v24.05a2.076 2.076 0 0 1-2.074 2.073zM224.745 388.266h-15.757a2.076 2.076 0 0 1-2.073-2.073v-24.05a2.076 2.076 0 0 1 2.073-2.073h15.757a2.076 2.076 0 0 1 2.073 2.073v24.05a2.076 2.076 0 0 1-2.073 2.073zM255.43 388.266h-15.757a2.076 2.076 0 0 1-2.074-2.073v-24.05a2.076 2.076 0 0 1 2.074-2.073h15.756a2.076 2.076 0 0 1 2.074 2.073v24.05a2.076 2.076 0 0 1-2.074 2.073z"/><path fill="#e6e6e6" d="M898.65 297.872h-13.27a3.736 3.736 0 0 1-3.731-3.732v-17.415a3.736 3.736 0 0 1 3.732-3.732h13.269a3.736 3.736 0 0 1 3.732 3.732v17.415a3.736 3.736 0 0 1-3.732 3.732zM1010.606 439.683h-68.003a7.057 7.057 0 0 1-7.05-7.05V300.776a7.057 7.057 0 0 1 7.05-7.05h68.003a7.057 7.057 0 0 1 7.049 7.05v131.859a7.057 7.057 0 0 1-7.05 7.049z"/><path fill="#f2f2f2" d="M969.97 439.683H852.209a7.057 7.057 0 0 1-7.05-7.05V300.776a7.057 7.057 0 0 1 7.05-7.05h117.76a7.057 7.057 0 0 1 7.05 7.05v131.859a7.057 7.057 0 0 1-7.05 7.049z"/><path fill="#f2f2f2" d="M886.21 297.872h-13.269a3.736 3.736 0 0 1-3.732-3.732v-17.415a3.736 3.736 0 0 1 3.732-3.732h13.27a3.736 3.736 0 0 1 3.731 3.732v17.415a3.736 3.736 0 0 1-3.732 3.732z"/><path fill="#fff" d="M903.626 358.826h-15.757a2.076 2.076 0 0 1-2.073-2.073v-24.05a2.076 2.076 0 0 1 2.073-2.073h15.757a2.076 2.076 0 0 1 2.073 2.073v24.05a2.076 2.076 0 0 1-2.073 2.073zM934.31 358.826h-15.757a2.076 2.076 0 0 1-2.073-2.073v-24.05a2.076 2.076 0 0 1 2.073-2.073h15.757a2.076 2.076 0 0 1 2.073 2.073v24.05a2.076 2.076 0 0 1-2.073 2.073zM903.626 402.779h-15.757a2.076 2.076 0 0 1-2.073-2.073v-24.05a2.076 2.076 0 0 1 2.073-2.073h15.757a2.076 2.076 0 0 1 2.073 2.073v24.05a2.076 2.076 0 0 1-2.073 2.073zM934.31 402.779h-15.757a2.076 2.076 0 0 1-2.073-2.073v-24.05a2.076 2.076 0 0 1 2.073-2.073h15.757a2.076 2.076 0 0 1 2.073 2.073v24.05a2.076 2.076 0 0 1-2.073 2.073z"/><path fill="#e6e6e6" d="M887.358 440.098H20.078a.83.83 0 1 1 0-1.659h867.28a.83.83 0 0 1 0 1.659zM320.115 469.123H242.99a.83.83 0 0 1 0-1.658h77.125a.83.83 0 1 1 0 1.658zM527.319 303.03h-77.126a.83.83 0 0 1 0-1.66h77.126a.83.83 0 1 1 0 1.66zM718.887 303.03h-77.125a.83.83 0 0 1 0-1.66h77.125a.83.83 0 1 1 0 1.66zM364.068 379.889c0-14.647-11.881-49.402-26.538-49.402-14.656 0-26.537 34.755-26.537 49.402a26.538 26.538 0 0 0 53.075 0z"/><path fill="#f2f2f2" d="M357.434 379.889c0-14.647-11.882-49.402-26.538-49.402s-26.538 34.755-26.538 49.402a26.538 26.538 0 0 0 53.076 0z"/><path fill="#ccc" d="M331.725 439.226a.83.83 0 0 1-.829-.83v-73.924a.83.83 0 0 1 1.659 0v73.925a.83.83 0 0 1-.83.829z"/><path fill="#ccc" d="M331.725 376.59a.83.83 0 0 1-.586-1.415l10.845-10.845a.83.83 0 0 1 1.173 1.172l-10.845 10.846a.826.826 0 0 1-.587.243z"/><path fill="#3f3d56" d="M782.547 389.096h-18.244a2.075 2.075 0 0 1-2.074-2.074v-18.244a2.075 2.075 0 0 1 2.074-2.074h18.244a2.075 2.075 0 0 1 2.073 2.074v18.244a2.075 2.075 0 0 1-2.073 2.074z"/><path fill="#ffb8b8" d="M959.658 397.98a1.41 1.41 0 0 1 .921 1.955l3.606 3.478-2.54.57-3.035-3.39a1.417 1.417 0 0 1 1.048-2.613z"/><path fill="#0aa8a7" d="M964.729 407.128l-4.449-4.173a.63.63 0 0 1-.017-.904l.909-.92a.632.632 0 0 1 .831-.057l3.728 2.848 2.326-5.64a1.76 1.76 0 0 1 2.402-.91 1.75 1.75 0 0 1 .963 1.866c-.422 2.566-2.979 5.957-4.465 7.75a1.537 1.537 0 0 1-1.714.46 1.533 1.533 0 0 1-.514-.32z"/><path fill="#fff" d="M962.233 403.08l-3.275-4.75a.28.28 0 0 1 .071-.39l.132-.091a.28.28 0 0 1 .39.071l3.275 4.75a.28.28 0 0 1-.072.39l-.131.091a.28.28 0 0 1-.39-.071z"/><path fill="#3f3d56" d="M961.317 403.115l-2.718-3.942a.772.772 0 0 1 .197-1.073l.277-.19 3.593 5.211-.277.191a.772.772 0 0 1-1.072-.197z"/><path fill="#ffb8b8" d="M959.938 436.945l.227-6.647 2.24.259-.76 6.584z"/><path fill="#2f2e41" d="M961.89 438.847l-5.505-.636.008-.07a2.157 2.157 0 0 1 2.39-1.895l3.363.388z"/><path fill="#ffb8b8" d="M979.856 436.387l-2.737-6.092 2.423-.75 1.957 6.334z"/><path fill="#2f2e41" d="M982.41 437.342l-5.295 1.635-.021-.067a2.157 2.157 0 0 1 1.424-2.697l3.234-1zM959.74 435.61a.7.7 0 0 1-.468-.853l1.03-11.847a3.577 3.577 0 0 1 .496-1.528l6.23-10.339 5.574 1.002.036.015c2.71 1.66 5.115 9.705 7.442 17.487.361 1.21.735 2.46 1.1 3.657a.704.704 0 0 1-.378.907l-1.688.711a.699.699 0 0 1-.887-.31l-8.677-15.887a.14.14 0 0 0-.108-.072.135.135 0 0 0-.12.047l-5.036 5.698-1.851 10.86-.007.024a.701.701 0 0 1-.829.4l-1.815.034h-.011z"/><path fill="#0aa8a7" d="M966.726 412.176l-.035-.01-.01-.036c-.027-.087-2.575-8.71-.278-14.206l.002-.005c.067-.13 1.668-3.208 3.53-3.516l.05-.008.604 1.13c.19.191 3.464 3.591 1.978 9.435.134.479 1.942 7.057.959 8.04a1.804 1.804 0 0 1-1.227.308 24.778 24.778 0 0 1-5.573-1.131z"/><circle cx="969.551" cy="388.979" r="4.346" fill="#2f2e41"/><circle cx="967.825" cy="389.861" r="3.443" fill="#ffb8b8"/><path fill="#2f2e41" d="M970.04 393.206c-.314.111-.699.21-.946-.022a.837.837 0 0 1-.055-.941 4.258 4.258 0 0 0 .43-.905 1.393 1.393 0 0 0-.511-1.276 3.782 3.782 0 0 0-1.247-.627l-2.41-.857a2.785 2.785 0 0 1-1.574-1.02 1.887 1.887 0 0 1 .751-2.433 3.06 3.06 0 0 1 2.648-.052 13.679 13.679 0 0 0 1.412.565c.965.255 2.062.026 2.91.57a2.688 2.688 0 0 1 1.056 2.345 7.247 7.247 0 0 1-.709 2.592 4.821 4.821 0 0 1-.786 1.382 1.626 1.626 0 0 1-1.376.593z"/><circle cx="973.196" cy="386.877" r="2.804" fill="#2f2e41"/><path fill="#fff" d="M968.57 390.942a.28.28 0 1 1 .385.26v.616a.105.105 0 1 1-.21 0v-.617a.28.28 0 0 1-.175-.26z"/><path fill="#ffb8b8" d="M959.829 400.923a1.41 1.41 0 0 1 1.545 1.512l4.591 2.002-2.182 1.42-4.026-2.12a1.417 1.417 0 0 1 .071-2.814z"/><path fill="#0aa8a7" d="M967.77 407.73l-5.624-2.361a.63.63 0 0 1-.331-.841l.53-1.179a.632.632 0 0 1 .76-.344l4.487 1.37.214-6.096a1.76 1.76 0 0 1 1.934-1.69 1.75 1.75 0 0 1 1.553 1.413c.499 2.551-.715 6.622-1.484 8.82a1.537 1.537 0 0 1-1.445 1.029 1.533 1.533 0 0 1-.594-.121zM89.567 406.287h-8.613v-2.615c2.721-1.894 5.133-1.73 8.305.154z"/><path fill="#ffb8b8" d="M78.96 452.73h-1.886l-.282-7.273h2.167z"/><path fill="#2f2e41" d="M79.44 454.557h-6.08v-.077a2.366 2.366 0 0 1 2.367-2.366h3.713z"/><path fill="#ffb8b8" d="M89.58 452.73h1.885l.282-7.273H89.58z"/><path fill="#2f2e41" d="M89.1 452.114h3.713a2.366 2.366 0 0 1 2.366 2.366v.077H89.1zM89.63 451.797a.695.695 0 0 1-.676-.541L84.28 430.87a.224.224 0 0 0-.225-.18.224.224 0 0 0-.226.183l-4.291 20.247a.695.695 0 0 1-.677.549h-2.045a.692.692 0 0 1-.69-.733l1.522-25.663.613-.182h.011l12.037.106 2.563 25.635a.692.692 0 0 1-.633.757l-2.554.206-.055.002z"/><circle cx="84.659" cy="397.823" r="3.778" fill="#ffb8b8"/><path fill="#3f3d56" d="M82.345 428.086a6.52 6.52 0 0 1-1.958-.275 4.321 4.321 0 0 1-2.62-2.211.693.693 0 0 1-.052-.516c.417-1.422 2.43-8.813 1.145-14.689a6.227 6.227 0 0 1 .886-4.785 6.149 6.149 0 0 1 3.987-2.682c.213-.042.428-.076.637-.102a6.127 6.127 0 0 1 4.961 1.632 6.278 6.278 0 0 1 1.972 4.977l-.988 15.843a.686.686 0 0 1-.368.57c-1.137.595-4.553 2.238-7.602 2.238z"/><path fill="#2f2e41" d="M88.926 395.042a4.638 4.638 0 0 0-5.083-2.858l1.19.963c-1.479.05-3.037-.057-4.093.98.336-.008.777.711 1.113.702a1.764 1.764 0 0 0-1.477 1.018 2.902 2.902 0 0 0-.171 1.846 21.439 21.439 0 0 0 1.327 2.636c-.044-1.503 2.914-5.087 4.359-4.713a3.964 3.964 0 0 0-1.83 1.39 5.368 5.368 0 0 1 3.184-.521 2.253 2.253 0 0 0 .759.042.927.927 0 0 0 .549-1.48z"/><path fill="#0aa8a7" d="M82.085 427.135a.693.693 0 0 1-.278-.058l-7.167-3.129a.688.688 0 0 1-.393-.811l4.745-17.925a2.594 2.594 0 0 1 3.22-1.83l1.898.54-1.335 22.561a.694.694 0 0 1-.33.55.687.687 0 0 1-.36.102zM95.35 423.136l-.315-1.189-.457-1.728-.22-.83-.457-1.724-3.296-12.453a2.591 2.591 0 0 0-3.22-1.83l-1.897.541.94 15.868.097 1.657.061 1.044v.002l.098 1.647.139 2.343a.697.697 0 0 0 .69.652.705.705 0 0 0 .277-.059l7.168-3.128a.687.687 0 0 0 .392-.812z"/><path fill="#ccc" d="M94.358 419.39l-7.834 2.058-.097-1.657 7.474-2.126zM86.586 422.493v-.001l7.992-2.274.457 1.73-8.35 2.193zM83.074 420.148l-.097 1.625-7.683-2.288.45-1.701zM82.914 422.844l-7.84-2.53-.451 1.706 8.195 2.44z"/><path fill="#ffb8b8" d="M75.21 424.544a1.652 1.652 0 0 0 1.084-2.29l3.685-11.57-2.613-.547-3.38 11.343a1.661 1.661 0 0 0 1.224 3.064z"/><path fill="#3f3d56" d="M80.081 404.996c.75.076 1.173.92.986 1.97l-.895 5.042c-.067.378-.378.677-.637.613l-3.028-.757c-.233-.058-.319-.39-.187-.72l1.818-4.562a2.195 2.195 0 0 1 1.943-1.586z"/><path fill="#0aa8a7" d="M84.645 390.753a4.92 4.92 0 0 1 4.918 4.768h.927a.308.308 0 0 1 .307.307v1.23a.308.308 0 0 1-.307.308H80.03a.308.308 0 0 1-.307-.307v-1.385a4.922 4.922 0 0 1 4.922-4.921z"/><path fill="#e6e6e6" d="M85.233 421.176H83.06a.28.28 0 0 1-.28-.253l-.434-4.46h3.603l-.436 4.46a.28.28 0 0 1-.279.253z"/><path fill="#ccc" d="M85.942 417.023H82.35a.28.28 0 0 1-.28-.28v-.674a.28.28 0 0 1 .28-.28h3.592a.28.28 0 0 1 .28.28v.674a.28.28 0 0 1-.28.28z"/><path fill="#ffb8b8" d="M84.193 418.784a1.619 1.619 0 0 1 .25.049l5.79-4.965-.338-1.822 2.682-.87.913 3.167a1.23 1.23 0 0 1-.524 1.38l-7.333 4.64a1.615 1.615 0 1 1-1.44-1.58z"/><path fill="#3f3d56" d="M90.248 405.412c.802-.224 1.603.386 1.871 1.425l1.288 4.988c.096.374-.091.772-.384.814l-3.43.493c-.265.038-.497-.233-.507-.59l-.133-4.907a2.16 2.16 0 0 1 1.295-2.223z"/><path fill="#e6e6e6" d="M129.246 418.907h-2.612a.336.336 0 0 1-.335-.305l-.523-5.359h4.329l-.523 5.36a.336.336 0 0 1-.336.304z"/><path fill="#ccc" d="M130.098 413.917h-4.315a.338.338 0 0 1-.337-.337v-.809a.338.338 0 0 1 .337-.337h4.315a.338.338 0 0 1 .337.337v.81a.338.338 0 0 1-.337.336zM154.91 450.379a30.953 30.953 0 0 1-4.45-8.303.795.795 0 0 1 .376-.957l6.494-3.48a.785.785 0 0 1 .689-.028.798.798 0 0 1 .454.533 18.909 18.909 0 0 0 4.148 7.74.798.798 0 0 1 .192.675.785.785 0 0 1-.405.557l-6.494 3.48a.795.795 0 0 1-1.005-.217z"/><path fill="#fff" d="M155.352 450.046a.24.24 0 0 0 .3.062l6.495-3.48a.23.23 0 0 0 .12-.166.244.244 0 0 0-.06-.208 19.466 19.466 0 0 1-4.27-7.97.244.244 0 0 0-.14-.165.23.23 0 0 0-.205.008l-6.494 3.48a.24.24 0 0 0-.115.284 30.399 30.399 0 0 0 4.37 8.154z"/><path fill="#ccc" d="M157.757 442.605l-3.538 1.561a.555.555 0 0 1-.73-.283l-.088-.198a.555.555 0 0 1 .283-.731l3.537-1.561a.555.555 0 0 1 .731.283l.088.198a.555.555 0 0 1-.283.731zM159.05 445.007l-3.537 1.562a.555.555 0 0 1-.731-.284l-.088-.198a.555.555 0 0 1 .284-.73l3.537-1.562a.555.555 0 0 1 .73.283l.088.198a.555.555 0 0 1-.283.731z"/><path fill="#a0616a" d="M150.754 443.006a1.985 1.985 0 0 1-.38-3.02l-1.492-21.17 4.296.417.118 20.731a1.996 1.996 0 0 1-2.542 3.042z"/><path fill="#3f3d56" d="M149.854 425.93a.828.828 0 0 1-.343-.629l-.315-5.705a2.291 2.291 0 0 1 4.499-.726l1.383 5.101a.832.832 0 0 1-.585 1.02l-3.934 1.067a.828.828 0 0 1-.705-.128z"/><path fill="#a0616a" d="M142.53 469.031h-2.264l-1.078-8.738h3.343z"/><path fill="#2f2e41" d="M138.141 468.383h4.875v2.751h-7.12v-.506a2.245 2.245 0 0 1 2.245-2.245z"/><path fill="#a0616a" d="M151.03 469.031h-2.264l-1.078-8.738h3.344z"/><path fill="#2f2e41" d="M146.641 468.383h4.875v2.751h-7.12v-.506a2.245 2.245 0 0 1 2.245-2.245zM142.424 464.629l-2.494-.12a.831.831 0 0 1-.792-.824c-.658-10.148-1.568-21.03-.174-25.234a.832.832 0 0 1 .95-.829l9.978 1.449a.827.827 0 0 1 .712.816c1.274 4.978 1.332 14.004 1.283 23.382a.832.832 0 0 1-.831.838h-2.689a.828.828 0 0 1-.821-.702l-1.66-10.546a.647.647 0 0 0-1.28.024l-1.317 11.014a.835.835 0 0 1-.826.733l-.04-.001z"/><path fill="#3f3d56" d="M144.18 439.888a12.552 12.552 0 0 0-4.746-1.625.816.816 0 0 1-.564-.31.827.827 0 0 1-.172-.628l2.39-17.749a6.138 6.138 0 0 1 3.579-4.796 5.97 5.97 0 0 1 5.801.455q.123.081.241.167a6.13 6.13 0 0 1 2.335 6.388c-1.466 5.998-1.97 15.83-2.055 17.74a.825.825 0 0 1-.54.74 8.331 8.331 0 0 1-2.813.5 7.045 7.045 0 0 1-3.457-.882z"/><circle cx="146.179" cy="407.831" r="4.539" fill="#a0616a"/><path fill="#2f2e41" d="M149.39 411.422a1.466 1.466 0 0 1-2.529-.814 1.488 1.488 0 0 1 .002-.288 6.663 6.663 0 0 0 .297-1.617.848.848 0 0 0-.155-.397c-.675-.904-2.259.404-2.895-.414-.39-.502.068-1.291-.231-1.852-.396-.74-1.567-.375-2.302-.78-.817-.45-.768-1.705-.23-2.467a3.881 3.881 0 0 1 2.942-1.498 7.893 7.893 0 0 1 3.325.648 6.644 6.644 0 0 1 3.142 2.179 5.318 5.318 0 0 1 .537 4.527 8.535 8.535 0 0 1-1.902 2.773z"/><path fill="#0aa8a7" d="M152.985 415.835c-.08-.374-.761-.884-1.737-1.3a10.743 10.743 0 0 0-9.701.832.458.458 0 0 0-.423.36l-3.282 14.515-.427 1.89-.283 1.252-.427 1.885-.227 1.007a.463.463 0 0 0 .41.563l14.172 1.224.04.002a.462.462 0 0 0 .459-.433l.134-2.053.145-2.195.062-.952.143-2.19.944-14.383v-.013z"/><path fill="#a0616a" d="M129.732 416.748a1.946 1.946 0 0 1 .045.303l7.938 4.58 1.929-1.111 2.057 2.693-4.128 2.942-9.056-7.145a1.94 1.94 0 1 1 1.215-2.262z"/><path fill="#3f3d56" d="M137.998 421.241a.828.828 0 0 1 .24-.675l4.04-4.04a2.291 2.291 0 0 1 3.541 2.866l-2.877 4.434a.832.832 0 0 1-1.15.245l-3.42-2.22a.828.828 0 0 1-.374-.61z"/><path fill="#ccc" d="M152.043 430.242l-.142 2.19-14.487-.299.428-1.89zM151.838 433.384l-.145 2.195-14.988-.31.427-1.885z"/><path fill="#0aa8a7" d="M146.268 399.013a5.912 5.912 0 0 0-5.908 5.729h-1.114a.37.37 0 0 0-.37.37v1.478a.37.37 0 0 0 .37.37h12.566a.37.37 0 0 0 .37-.37v-1.664a5.913 5.913 0 0 0-5.914-5.913z"/><path fill="#ff6584" d="M179.548 459.172h-1.267c-.008-.154-1.71-4.147-1.71-4.147l-1.028-2.488-.68-1.658-1.029-2.488-1.177-2.861a.588.588 0 0 0-1.145 0l-1.177 2.86-1.029 2.489-.68 1.658-1.028 2.488s-1.702 3.993-1.71 4.147h-1.267a1.244 1.244 0 0 0 0 2.487h14.927a1.244 1.244 0 0 0 0-2.487zM178.719 480.733h-.491c.045-.106-2.138-5.689-2.138-5.689l-1.31-3.192-.88-2.14-1.31-3.193-1.426-3.458a.752.752 0 0 0-1.46 0l-1.426 3.458-1.31 3.193-.888 2.14-1.31 3.192s-2.174 5.583-2.13 5.69h-.507a1.244 1.244 0 0 0 0 2.487h16.586a1.244 1.244 0 0 0 0-2.488z"/><path fill="#f2f2f2" d="M174.862 450.879h-5.556l1.028-2.488h3.5zM176.57 455.025h-8.972l1.028-2.488h6.916zM173.9 469.712h-6.933l1.31-3.193h4.313zM176.09 475.045h-11.32l1.31-3.193h8.7z"/><path fill="#ffb8b8" d="M290.724 438.598a1.232 1.232 0 0 0-.156-1.883l-.622-4.102-2.556.805 1.4 3.66a1.239 1.239 0 0 0 1.934 1.52z"/><path fill="#0aa8a7" d="M288.092 436.668l-1.577-7.362a4.216 4.216 0 0 1 1.204-3.943c2.018-1.945 4.612-4.396 5.507-5.03a4.619 4.619 0 0 1 2.89-.853l.022.002 1.356 1.282-2.954 4.863-4.485 2.81.5 7.216z"/><rect width="7.654" height="1.038" x="286.478" y="426.663" fill="#ccc" rx=".519"/><rect width="7.654" height="1.038" x="286.478" y="437.949" fill="#ccc" rx=".519"/><path fill="#ccc" d="M290.37 466.228a.26.26 0 0 1-.259-.236l-3.307-38.787a.26.26 0 1 1 .517-.046l3.045 35.836 2.959-35.836a.26.26 0 1 1 .517.045l-3.214 38.787a.26.26 0 0 1-.258.237z"/><circle cx="297.794" cy="414.524" r="3.404" fill="#ffb8b8"/><path fill="#ffb8b8" d="M286.031 464.157l1.22-6.49 2.39.762-1.99 6.244z"/><path fill="#2f2e41" d="M287.56 466.108l-5.211-1.66.043-.136a2.053 2.053 0 0 1 2.577-1.331l3.257 1.038z"/><path fill="#ffb8b8" d="M297.729 464.639l-.809-6.553h2.508v6.553z"/><path fill="#2f2e41" d="M294.517 466.152h5.21v-1.933h-3.29a1.923 1.923 0 0 0-1.92 1.92zM299.378 462.512l-.574-.085a8.668 8.668 0 0 1-2.119-.396c-.141-.062-.15-.998-.066-6.26.062-3.862.14-8.67-.011-11.25a.454.454 0 0 0-.87-.153c-1.294 2.988-3.465 9.676-4.901 14.101-.5 1.54-.895 2.756-1.145 3.484a.587.587 0 0 1-.694.376c-1.182-.295-1.103-.42-2.787-.856a.582.582 0 0 1-.426-.686c.305-1.436 5.878-24.725 6.305-26.938a.584.584 0 0 1 .688-.464c1.255.253 2.019.521 3.259.78 1.338.28 2.722.57 4.071.84a.579.579 0 0 1 .34.208 3.614 3.614 0 0 0 1.354.91c.353.169-.448.153-.14.397 1.246.987-.546 21.027-1.63 25.553a.586.586 0 0 1-.654.44zM299.245 417.502c-.199-.843.806-2.657.607-3.5-.134-.571-1.477-.183-1.79-.68a1.801 1.801 0 0 0-1.425-.904c-.675-.007-1.338.493-1.977.277a1.273 1.273 0 0 1-.567-1.722 3.095 3.095 0 0 1 1.509-1.323 4.553 4.553 0 0 1 3.347-.563 5.502 5.502 0 0 1 1.771 1.113 6.172 6.172 0 0 1 1.341 1.362 3.658 3.658 0 0 1 .058 3.589 5.395 5.395 0 0 1-2.791 2.402"/><path fill="#0aa8a7" d="M290.887 437.125c.368-.614.925-3.49 1.613-8.316a381.75 381.75 0 0 0 1.079-8.352.822.822 0 0 1 .462-.65q.197-.094.391-.18a8.98 8.98 0 0 1 9.58 1.347l.015.014.004.02c.007.039.71 3.827-.73 6.387-1.42 2.525-1.437 9.213-1.437 9.28v.087l-.082-.024c-2.21-.631-10.745.473-10.83.485l-.133.017z"/><rect width="7.654" height="1.038" x="296.596" y="428.349" fill="#ccc" rx=".519"/><rect width="7.654" height="1.038" x="296.596" y="439.635" fill="#ccc" rx=".519"/><path fill="#ccc" d="M300.488 466.358a.26.26 0 0 1-.258-.237l-3.308-37.23a.26.26 0 0 1 .517-.046l3.045 34.28 2.959-34.28a.26.26 0 1 1 .517.045l-3.213 37.23a.26.26 0 0 1-.259.238z"/><path fill="#ffb8b8" d="M298.352 439.8a1.232 1.232 0 0 1 1.154-1.496l2.751-3.105 1.708 2.063-3.163 2.312a1.239 1.239 0 0 1-2.45.225z"/><path fill="#0aa8a7" d="M299.954 437.638l4.34-5.787-2.238-4.796.162-5.687 1.835-.34.02.01a4.619 4.619 0 0 1 1.962 2.287c.407 1.019 1.253 4.486 1.89 7.215a4.216 4.216 0 0 1-1.131 3.964l-5.324 5.324z"/><path fill="#ccc" d="M281.76 464.749l5.938 1.43a.509.509 0 0 0 .59-.276l5.101-13.562a.418.418 0 0 0 0-.33.473.473 0 0 0-.27-.254l-4.465-1.705a.537.537 0 0 0-.438.024.455.455 0 0 0-.239.292l-3.15 11.953-.048.003a4.328 4.328 0 0 0-2.636 1.1 1.724 1.724 0 0 0-.383 1.325z"/><path fill="#b3b3b3" d="M286.033 457.404l.028-.257 5.413.573-.027.258zM285.481 459.52l.107-.235 4.356 1.96-.106.236zM286.909 454.202l.107-.236 5.134 1.7-.106.237zM287.428 452.257l.106-.238 5.135 2.48-.106.236zM284.967 461.512l.168-.197 3.702 3.163-.168.197zM283.849 462.471l.235-.107 1.487 3.278-.236.107z"/><path fill="#a0616a" d="M801.353 412.777a1.545 1.545 0 0 1-1.07-2.113l-5.697-12.869 3.259-.82 4.574 12.907a1.553 1.553 0 0 1-1.066 2.895z"/><path fill="#0aa8a7" d="M795.643 401.827a.692.692 0 0 1-.38-.433l-.996-3.332a1.924 1.924 0 0 1 3.48-1.641l1.926 2.908a.693.693 0 0 1-.284 1.01l-3.169 1.484a.692.692 0 0 1-.577.005z"/><path fill="#3f3d56" d="M807.238 400.168l-3.494 2.473a.262.262 0 0 1-.307 0l-.945-.709a.259.259 0 0 1-.016-.404l2.688-2.398a.266.266 0 0 1 .262-.05l1.75.626a.264.264 0 0 1 .062.462z"/><path fill="#fff" d="M806.954 399.933a.094.094 0 0 0-.054-.12l-1.576-.564a.094.094 0 0 0-.094.017l-2.424 2.163-.014.014a.09.09 0 0 0 .021.126l.85.638a.093.093 0 0 0 .11 0l3.148-2.23a.093.093 0 0 0 .033-.044z"/><path fill="#a0616a" d="M796.268 437.045l.84-6.801h-2.603v6.801z"/><path fill="#2f2e41" d="M794.055 436.47h3.473a2.213 2.213 0 0 1 2.213 2.212v.072h-5.686z"/><path fill="#a0616a" d="M790.372 437.045l.838-6.801h-2.602v6.801z"/><path fill="#2f2e41" d="M788.158 436.47h3.473a2.213 2.213 0 0 1 2.213 2.212v.072h-5.686zM788.234 434.967a.775.775 0 0 1-.191-.5c-.42-4.323.723-27.056 3.366-28.997l.016-.015 7.735-1.336.144.144c.01.2 1.417 20.126-2.466 30.295a.647.647 0 0 1-.603.412h-1.544a.647.647 0 0 1-.646-.698l1.25-19.042a.216.216 0 0 0-.425-.063l-3.521 19.326a.651.651 0 0 1-.585.508l-2.027.15-.048.002a.648.648 0 0 1-.455-.186z"/><circle cx="798.411" cy="388.93" r="3.532" fill="#a0616a"/><path fill="#0aa8a7" d="M789.903 408.564a.837.837 0 0 1-.24-.568l1.443-6.754c-1.15-4.89.38-5.806 2.11-6.733l-.011-.006.722-1.954a.61.61 0 0 1 .854-.395l3.682 1.956a.728.728 0 0 1 .341.43.913.913 0 0 1-.012.594l-.272.736c.703.939 1.79 4.653.64 6.091l.868 4.793a.757.757 0 0 1-.539.807l-9.072 1.164a.536.536 0 0 1-.107.01.586.586 0 0 1-.407-.171z"/><path fill="#a0616a" d="M803.11 400.819a1.514 1.514 0 0 0-.16.176l-7.116-.492-.763-1.555-2.498.845 1.083 2.885a1.15 1.15 0 0 0 1.165.743l8.091-.614a1.51 1.51 0 1 0 .198-1.988z"/><path fill="#0aa8a7" d="M795.569 400.528l-3.102 1.033a.647.647 0 0 1-.842-.502l-.565-3.21a1.797 1.797 0 0 1 3.414-1.125l1.468 2.898a.647.647 0 0 1-.373.906z"/><circle cx="796.427" cy="383.264" r="2.877" fill="#2f2e41"/><path fill="#2f2e41" d="M801.755 389.367a1.505 1.505 0 0 0 .833-.07.989.989 0 0 0 .494-.746c.536-3.56-2.492-3.268-2.85-3.422a3.925 3.925 0 0 1-.633-.462 2.96 2.96 0 0 0-1.654-.364 4.77 4.77 0 0 0-2.01.246 3.011 3.011 0 0 0-1.337 1.231 6.219 6.219 0 0 0-.663 1.717 4.283 4.283 0 0 0-.112 2.104 2.602 2.602 0 0 0 2.361 1.892 1.946 1.946 0 0 1 1.028-2.132 2.969 2.969 0 0 1 1.958-.233 8.622 8.622 0 0 0 1.3.162c.427.016.942.04 1.285.077z"/><g transform="translate(964.68 237.088) scale(.42725)"><rect width="103" height="41" x="-1342.614" y="447.902" fill="#0aa8a7" rx="8.84" ry="8.84"/><rect width="103" height="41" x="-1239.614" y="447.902" fill="#0aa8a7" rx="8.84" ry="8.84"/><rect width="103" height="41" x="-1239.614" y="447.902" opacity=".1" rx="8.84" ry="8.84"/><rect width="103" height="41" x="-1136.614" y="447.902" fill="#0aa8a7" rx="8.84" ry="8.84"/><rect width="103" height="41" x="-1033.614" y="447.902" fill="#0aa8a7" rx="8.84" ry="8.84"/><rect width="103" height="41" x="-1033.614" y="447.902" opacity=".1" rx="8.84" ry="8.84"/><rect width="103" height="41" x="-930.615" y="447.902" fill="#0aa8a7" rx="8.84" ry="8.84"/><rect width="103" height="41" x="-827.615" y="447.902" fill="#0aa8a7" rx="8.84" ry="8.84"/><rect width="103" height="41" x="-827.615" y="447.902" opacity=".1" rx="8.84" ry="8.84"/><rect width="103" height="41" x="724.615" y="-447.902" fill="#0aa8a7" rx="8.84" ry="8.84" transform="scale(-1)"/><rect width="103" height="41" x="827.615" y="-447.902" fill="#0aa8a7" rx="8.84" ry="8.84" transform="scale(-1)"/><rect width="103" height="41" x="827.615" y="-447.902" opacity=".1" rx="8.84" ry="8.84" transform="scale(-1)"/><rect width="103" height="41" x="930.615" y="-447.902" fill="#0aa8a7" rx="8.84" ry="8.84" transform="scale(-1)"/><rect width="103" height="41" x="1033.614" y="-447.902" fill="#0aa8a7" rx="8.84" ry="8.84" transform="scale(-1)"/><rect width="103" height="41" x="1033.614" y="-447.902" opacity=".1" rx="8.84" ry="8.84" transform="scale(-1)"/><rect width="103" height="41" x="1136.614" y="-447.902" fill="#0aa8a7" rx="8.84" ry="8.84" transform="scale(-1)"/><rect width="103" height="41" x="1239.614" y="-447.902" fill="#0aa8a7" rx="8.84" ry="8.84" transform="scale(-1)"/><rect width="103" height="41" x="1239.614" y="-447.902" opacity=".1" rx="8.84" ry="8.84" transform="scale(-1)"/><rect width="103" height="41" x="-1342.614" y="365.902" fill="#0aa8a7" rx="8.84" ry="8.84"/><rect width="103" height="41" x="-1239.614" y="365.902" fill="#0aa8a7" rx="8.84" ry="8.84"/><rect width="103" height="41" x="-1239.614" y="365.902" opacity=".1" rx="8.84" ry="8.84"/><rect width="103" height="41" x="-1136.614" y="365.902" fill="#0aa8a7" rx="8.84" ry="8.84"/><rect width="103" height="41" x="-1033.614" y="365.902" fill="#0aa8a7" rx="8.84" ry="8.84"/><rect width="103" height="41" x="-1033.614" y="365.902" opacity=".1" rx="8.84" ry="8.84"/><rect width="103" height="41" x="-930.615" y="365.902" fill="#0aa8a7" rx="8.84" ry="8.84"/><rect width="103" height="41" x="-827.615" y="365.902" fill="#0aa8a7" rx="8.84" ry="8.84"/><rect width="103" height="41" x="-827.615" y="365.902" opacity=".1" rx="8.84" ry="8.84"/><rect width="103" height="41" x="724.615" y="-365.902" fill="#0aa8a7" rx="8.84" ry="8.84" transform="scale(-1)"/><rect width="103" height="41" x="827.615" y="-365.902" fill="#0aa8a7" rx="8.84" ry="8.84" transform="scale(-1)"/><rect width="103" height="41" x="827.615" y="-365.902" opacity=".1" rx="8.84" ry="8.84" transform="scale(-1)"/><rect width="103" height="41" x="930.615" y="-365.902" fill="#0aa8a7" rx="8.84" ry="8.84" transform="scale(-1)"/><rect width="103" height="41" x="1033.614" y="-365.902" fill="#0aa8a7" rx="8.84" ry="8.84" transform="scale(-1)"/><rect width="103" height="41" x="1033.614" y="-365.902" opacity=".1" rx="8.84" ry="8.84" transform="scale(-1)"/><rect width="103" height="41" x="1136.614" y="-365.902" fill="#0aa8a7" rx="8.84" ry="8.84" transform="scale(-1)"/><rect width="103" height="41" x="1239.614" y="-365.902" fill="#0aa8a7" rx="8.84" ry="8.84" transform="scale(-1)"/><rect width="103" height="41" x="1239.614" y="-365.902" opacity=".1" rx="8.84" ry="8.84" transform="scale(-1)"/><rect width="103" height="41" x="-1342.614" y="285.902" fill="#0aa8a7" rx="8.84" ry="8.84"/><rect width="103" height="41" x="-1239.614" y="285.902" fill="#0aa8a7" rx="8.84" ry="8.84"/><rect width="103" height="41" x="-1239.614" y="285.902" opacity=".1" rx="8.84" ry="8.84"/><rect width="103" height="41" x="-1136.614" y="285.902" fill="#0aa8a7" rx="8.84" ry="8.84"/><rect width="103" height="41" x="-1033.614" y="285.902" fill="#0aa8a7" rx="8.84" ry="8.84"/><rect width="103" height="41" x="-1033.614" y="285.902" opacity=".1" rx="8.84" ry="8.84"/><rect width="103" height="41" x="-930.615" y="285.902" fill="#0aa8a7" rx="8.84" ry="8.84"/><rect width="103" height="41" x="-827.615" y="285.902" fill="#0aa8a7" rx="8.84" ry="8.84"/><rect width="103" height="41" x="-827.615" y="285.902" opacity=".1" rx="8.84" ry="8.84"/><rect width="103" height="41" x="724.615" y="-285.902" fill="#0aa8a7" rx="8.84" ry="8.84" transform="scale(-1)"/><rect width="103" height="41" x="827.615" y="-285.902" fill="#0aa8a7" rx="8.84" ry="8.84" transform="scale(-1)"/><rect width="103" height="41" x="827.615" y="-285.902" opacity=".1" rx="8.84" ry="8.84" transform="scale(-1)"/><rect width="103" height="41" x="930.615" y="-285.902" fill="#0aa8a7" rx="8.84" ry="8.84" transform="scale(-1)"/><rect width="103" height="41" x="1033.614" y="-285.902" fill="#0aa8a7" rx="8.84" ry="8.84" transform="scale(-1)"/><rect width="103" height="41" x="1033.614" y="-285.902" opacity=".1" rx="8.84" ry="8.84" transform="scale(-1)"/><rect width="103" height="41" x="1136.614" y="-285.902" fill="#0aa8a7" rx="8.84" ry="8.84" transform="scale(-1)"/><rect width="103" height="41" x="1239.614" y="-285.902" fill="#0aa8a7" rx="8.84" ry="8.84" transform="scale(-1)"/><rect width="103" height="41" x="1239.614" y="-285.902" opacity=".1" rx="8.84" ry="8.84" transform="scale(-1)"/><rect width="103" height="41" x="-1342.614" y="203.902" fill="#0aa8a7" rx="8.84" ry="8.84"/><rect width="103" height="41" x="-1239.614" y="203.902" fill="#0aa8a7" rx="8.84" ry="8.84"/><rect width="103" height="41" x="-1239.614" y="203.902" opacity=".1" rx="8.84" ry="8.84"/><rect width="103" height="41" x="-1136.614" y="203.902" fill="#0aa8a7" rx="8.84" ry="8.84"/><rect width="103" height="41" x="-1033.614" y="203.902" fill="#0aa8a7" rx="8.84" ry="8.84"/><rect width="103" height="41" x="-1033.614" y="203.902" opacity=".1" rx="8.84" ry="8.84"/><rect width="103" height="41" x="-930.615" y="203.902" fill="#0aa8a7" rx="8.84" ry="8.84"/><rect width="103" height="41" x="-827.615" y="203.902" fill="#0aa8a7" rx="8.84" ry="8.84"/><rect width="103" height="41" x="-827.615" y="203.902" opacity=".1" rx="8.84" ry="8.84"/><rect width="111" height="44.18" x="-835.615" y="67.312" fill="url(#c)" rx="8.84" ry="8.84"/><rect width="103" height="41" x="728.615" y="-109.902" fill="#0aa8a7" rx="8.84" ry="8.84" transform="scale(-1)"/><rect width="103" height="41" x="827.615" y="-203.902" fill="#0aa8a7" rx="8.84" ry="8.84" transform="scale(-1)"/><rect width="103" height="41" x="827.615" y="-203.902" opacity=".1" rx="8.84" ry="8.84" transform="scale(-1)"/><rect width="103" height="41" x="930.615" y="-203.902" fill="#0aa8a7" rx="8.84" ry="8.84" transform="scale(-1)"/><rect width="103" height="41" x="1033.614" y="-203.902" fill="#0aa8a7" rx="8.84" ry="8.84" transform="scale(-1)"/><rect width="103" height="41" x="1033.614" y="-203.902" opacity=".1" rx="8.84" ry="8.84" transform="scale(-1)"/><rect width="103" height="41" x="1136.614" y="-203.902" fill="#0aa8a7" rx="8.84" ry="8.84" transform="scale(-1)"/><rect width="103" height="41" x="1239.614" y="-203.902" fill="#0aa8a7" rx="8.84" ry="8.84" transform="scale(-1)"/><rect width="103" height="41" x="1239.614" y="-203.902" opacity=".1" rx="8.84" ry="8.84" transform="scale(-1)"/><ellipse cx="-1003.934" cy="575.402" fill="#f5f5f5" rx="499" ry="113.5"/><path fill="none" stroke="#535461" stroke-miterlimit="10" stroke-width="2" d="M-1388.985 524.462s9-30.41-1.68-52.8a48 48 0 0 1-3.89-30.14 80.79 80.79 0 0 1 4.27-14.15"/><path fill="#0aa8a7" d="M-1396.905 413.232c0 3.73 6.75 14.54 6.75 14.54s6.75-10.81 6.75-14.54a6.75 6.75 0 0 0-13.5 0zM-1408.064 433.882c2 3.13 13.57 8.53 13.57 8.53s-.21-12.74-2.24-15.87a6.75 6.75 0 0 0-11.33 7.34zM-1407.574 469.162c3.33 1.68 16 .52 16 .52s-6.61-10.89-9.94-12.57a6.75 6.75 0 0 0-6.08 12.05zM-1401.195 495.772c3 2.22 15.7 3.22 15.7 3.22s-4.68-11.85-7.67-14.07a6.75 6.75 0 0 0-8 10.85zM-1380.324 443.132c-2.67 2.6-15.13 5.29-15.13 5.29s3.05-12.37 5.72-15a6.75 6.75 0 1 1 9.41 9.68zM-1373.255 474.322c-3.33 1.68-16 .52-16 .52s6.61-10.89 9.94-12.57a6.75 6.75 0 0 1 6.06 12.05zM-1370.554 505.642c-3 2.22-15.7 3.22-15.7 3.22s4.68-11.85 7.67-14.07a6.75 6.75 0 0 1 8 10.85zM-905.955 352.122s32.89 32.89 14.32 81.69 31.83 130 31.83 130-.54-.08-1.54-.26c-67.55-11.97-101.11-89.23-63.55-146.61 13.96-21.34 25.43-46.36 18.94-64.82z"/><path d="M-905.955 352.122s32.89 32.89 14.32 81.69 31.83 130 31.83 130-.54-.08-1.54-.26c-67.55-11.97-101.11-89.23-63.55-146.61 13.96-21.34 25.43-46.36 18.94-64.82z" opacity=".2"/><path fill="none" stroke="#535461" stroke-miterlimit="10" d="M-905.955 352.122s18.57 40.31 0 73.2-3.18 125.18 46.18 138.44"/><path fill="#0aa8a7" d="M-964.524 485.132s37.53-6 40.95 27.66c3.42 33.66 72.16 38.29 72.16 38.29l-1.29.86c-56.76 37.26-111 23.73-102.84-25.74 3.04-18.39 2.77-36.88-8.98-41.07z"/><path fill="#f5f5f5" d="M-964.524 485.132s37.53-6 40.95 27.66c3.42 33.66 72.16 38.29 72.16 38.29l-1.29.86c-56.76 37.26-111 23.73-102.84-25.74 3.04-18.39 2.77-36.88-8.98-41.07z" opacity=".2"/><path fill="none" stroke="#535461" stroke-miterlimit="10" d="M-964.524 485.132s29.13 6.39 26.74 32.88c-2.39 26.49 43.26 58.24 86.37 33.07"/><path fill="#a8a8a8" d="M-679.005 562.552s-55.7-11.14-70.56-26-81.7-40.85-89.13-22.28c-7.43 18.57-100.26 81.71-37.08 92.85 63.18 11.14 148.54 14.85 167.11 7.43 18.57-7.42 29.66-52 29.66-52z"/><path d="M-875.774 600.222c63.13 11.14 148.54 14.85 167.11 7.43 14.14-5.66 24-32.83 27.85-45.48l1.86.39s-11.14 44.56-29.71 52c-18.57 7.44-104 3.71-167.11-7.43-18.22-3.22-23.43-10.77-21.47-20.33 1.47 6.23 7.86 11.02 21.47 13.42z" opacity=".2"/><path fill="url(#d)" d="M-566.304 67.912a16.36 16.36 0 0 0-4.61-6.39c-14.95-13.62-39.12-9.49-57.68-17.82-4.28-1.92-8.66-4.58-13.3-3.85-6.48 1-12.51 8.4-18.16 5.12l.4 1.23-.4-.21 4.16 12.66c1.6 4.86 3.28 9.86 6.38 13.91a36.42 36.42 0 0 0 8.81 60.58c.2.42.39.85.58 1.28l.53.22a42.52 42.52 0 0 1 2.74 8.82c-4.81.67-13.2 6-21.44 13.84l-16.48-.55a53.94 53.94 0 0 1-29.64-10.08l-49.36-35.45a16.51 16.51 0 0 0-9.45 4.18c-6.12-6.38-11.32-13-10.88-17 0 0-22.94-42.93-31.28-21.47s15.64 44 15.64 44l15.21 19.71a82.91 82.91 0 0 0-1.14 10.45c18.77 21.47 84.45 40.89 84.45 40.89l10.24.5.06.5a34.87 34.87 0 0 0-.92 8.2v2.05c.52 34.24 5.21 139 5.21 139 .91-.41 1.86-.78 2.82-1.13l-.73 9.31s-43.79 6.13-76.11 18.4-33.36 26.58-33.36 26.58v126.26c-9.23 4.74-23.8 11-31.28 7.63-8.12-3.62-12.57-.58-13.38 2.59a4 4 0 0 0 0 1.91 3.42 3.42 0 0 0 .31.81v.06a3.25 3.25 0 0 0 .55.72c3.13 3.07 70.9 29.64 86.54 25.55a10.81 10.81 0 0 0 1.42-.48c.15-.06.28-.14.43-.21.15-.07.58-.27.85-.43.27-.16.31-.21.46-.31.15-.1.47-.31.69-.48.22-.17.29-.26.43-.39s.41-.35.59-.55c.18-.2.26-.3.39-.45.13-.15.36-.4.52-.62.16-.22.22-.33.34-.49.12-.16.32-.46.46-.7.14-.24.19-.34.28-.52.09-.18.28-.51.41-.78.13-.27.16-.35.23-.53.07-.18.25-.57.36-.86.11-.29.12-.35.19-.53.07-.18.22-.63.31-1 0-.17.09-.34.14-.51.09-.35.19-.69.27-1 0-.16.07-.32.1-.48.08-.38.16-.76.22-1.14 0-.14 0-.29.07-.43.07-.41.13-.83.18-1.24v-.36c.05-.45.1-.9.14-1.35v-.28q.06-.73.09-1.46v-.2V541.482a85.59 85.59 0 0 0-2-18.13l3.93-107.53a586.59 586.59 0 0 0 61.36-2.26l2.24 51.32s0 33.73 11.47 49.06c9.82 13.12 21.16 71.15 24.22 87.62-4.21 8-12.27 18-26.31 17.66 0 0-26.41-2.28-24.92 5a3.74 3.74 0 0 0 .17.56 5.16 5.16 0 0 0 .29.61c.11.19.23.38.37.58l.08.12c.15.21.32.43.51.66v.05c.18.21.37.42.58.63l.18.18c.24.24.48.48.76.73 13.55 12.27 92.79 14.31 92.79 14.31v-.28-.29c0-3.55-.52-22.17-5.26-36.19h1.1s-11.47-103.24-20.85-115.5c0 0-2.49-54.44 3.13-88.55l1-.38c26.28-9.82 28.15-34 25.44-51.76 5 1.6 7.92 2.69 7.92 2.69s-.09-.77-.26-2.14l.26.1s-.5-3.25-1.33-8.31c-1.88-13.93-5.52-38.27-9.4-49.76-.63-2.53-1.23-4.69-1.78-6.32a108.06 108.06 0 0 1-4.59-21.23 251.65 251.65 0 0 1-1.61-28.16 270.27 270.27 0 0 1 2.88-37.56c1.59-10.86 3-23.22 2.9-31.85a42.47 42.47 0 0 0-.63-9c-1.39-6.37-7.54-10.51-13.93-13.15-.41-.17-.83-.31-1.25-.47.16-2.41.36-5.15.62-8a6.87 6.87 0 0 0 5.31 1.08c2.75-.6 4.72-2.89 6.47-5 9.24-11.35 18.73-23.18 22.28-37.28a80.54 80.54 0 0 0 2-19.2v-1.06a20.88 20.88 0 0 0-.74-7.17z"/><path fill="#f7c4a7" d="M-650.434 123.242s14 21 11 31 33 4 33 4 1-39 8-48-52 13-52 13zM-742.934 136.742s-29-24-28-33c0 0-22-42-30-21s15 43 15 43l28 37z"/><path fill="#535461" d="M-772.434 513.242s-27 17-38 12-15 3-12 6 68 29 83 25 7.37-36.76 7.37-36.76zM-629.434 586.242s-6.5 27.5-29 27c0 0-34-3-21 9s89 14 89 14 0-41-14-50-25 0-25 0z"/><path fill="#575988" d="M-670.434 392.242l3 70s0 33 11 48 24 90 24 90h38s-11-101-20-113c0 0-4-89 10-109z"/><path d="M-670.434 392.242l3 70s0 33 11 48 24 90 24 90h38s-11-101-20-113c0 0-4-89 10-109z" opacity=".1"/><path fill="#575988" d="M-591.434 329.242s23 55-19 71-118 14-118 14l-4 116s-47 6-48-9v-127s1-14 32-26 73-18 73-18l2-26z"/><path d="M-628.284 148.052a47.85 47.85 0 0 1 23.5 3.32c6.13 2.58 12 6.63 13.36 12.86 1.58 7.38-.17 23.93-2.18 37.94a261.28 261.28 0 0 0-1.22 66.29c1 9.19 2.45 17.2 4.4 20.77 6 11 12 63 12 63s-66-25-99-10c0 0-4.5-102.5-5-136-.39-25.94 32.5-55.5 43.5-56.5 6.44-.58 4.23-1.01 10.64-1.68z" opacity=".1"/><path fill="#e14b5a" d="M-628.284 146.052a47.85 47.85 0 0 1 23.5 3.32c6.13 2.58 12 6.63 13.36 12.86 1.58 7.38-.17 23.93-2.18 37.94a261.28 261.28 0 0 0-1.22 66.29 107.53 107.53 0 0 0 4.4 20.77c4.5 13.5 12 63 12 63s-66-25-99-10c0 0-4.5-102.5-5-136-.39-25.94 32.5-55.5 43.5-56.5 6.44-.58 4.23-1.01 10.64-1.68z"/><path d="M-610.434 201.242l-71-4s-4.52-34.81 5.73-34.45l70.27 2.45s15 18-5 36z" opacity=".1"/><path fill="#e14b5a" d="M-610.434 199.242l-81-4s-63-19-81-40c0 0 1-37 21-39l47.31 34.69a51.08 51.08 0 0 0 28.42 9.86l70.27 2.45s15 18-5 36z"/><path d="M-606.934 127.742c1.19-9.48 5.49-12.63 8.5-16.5 7-9-52 13-52 13a106.08 106.08 0 0 1 8 14.71 35.85 35.85 0 0 0 15 3.29c8.66 0 14.28-9.37 20.5-14.5z" opacity=".1"/><circle cx="-627.435" cy="105.242" r="36" fill="#f7c4a7"/><path d="M-650.164 80.012c-3.83-4.19-5.68-9.77-7.42-15.18l-4-12.39c5.42 3.2 11.2-4 17.42-5 4.45-.71 8.66 1.89 12.76 3.76 17.8 8.14 41 4.1 55.32 17.43a16 16 0 0 1 4.42 6.25 20.91 20.91 0 0 1 .8 7 80.32 80.32 0 0 1-1.87 18.78c-3.4 13.79-12.5 25.37-21.37 36.47-1.68 2.11-3.57 4.35-6.21 4.94-5.15 1.15-9.13-4.41-11.12-9.29a98.9 98.9 0 0 1-5.8-20.07c-.52-2.91-.93-5.91-2.38-8.48-3.1-5.49-10.74-10.69-15.38-14.95-4.64-4.26-10.91-4.62-15.17-9.27z" opacity=".1"/><path fill="#632652" d="M-650.164 79.012c-3.83-4.19-5.68-9.77-7.42-15.18l-4-12.39c5.42 3.2 11.2-4 17.42-5 4.45-.71 8.66 1.89 12.76 3.76 17.8 8.14 41 4.1 55.32 17.43a16 16 0 0 1 4.42 6.25 20.91 20.91 0 0 1 .8 7 80.32 80.32 0 0 1-1.87 18.78c-3.4 13.79-12.5 25.37-21.37 36.47-1.68 2.11-3.57 4.35-6.21 4.94-5.15 1.15-9.13-4.41-11.12-9.29a98.9 98.9 0 0 1-5.8-20.07c-.52-2.91-.93-5.91-2.38-8.48-3.1-5.49-10.74-10.69-15.38-14.95-4.64-4.26-10.91-4.62-15.17-9.27z"/><ellipse cx="-617.935" cy="109.242" fill="#f7c4a7" rx="3" ry="6.5"/><path d="M-599.934 282.742s-2 6-12 5-39-3-39 0" opacity=".1"/><path fill="#fff" d="M-679.434 621.242c-1.8-1.66-2.7-3-2.91-4.17-.26 1.3.54 3 2.91 5.17 13 12 89 14 89 14v-1c-.49-.01-76.04-2.04-89-14zM-739.434 554.242c-15 4-80-22-83-25a3.25 3.25 0 0 1-.83-1.46 3.6 3.6 0 0 0 .83 3.46c3 3 68 29 83 25 7.72-2.06 9.44-11.73 9.3-20.64-.15 8.3-2.16 16.72-9.3 18.64z" opacity=".5"/><path fill="#67647e" d="M-1000.845 543.482a1.5 1.5 0 0 0 0-3 1.5 1.5 0 0 0 0 3z"/><path fill="#a8a8a8" d="M-1411.445 516.952s37.32-1.15 48.56-9.16c11.24-8.01 57.4-17.57 60.19-4.73 2.79 12.84 56.09 63.88 13.92 64.26-42.17.38-97.89-6.56-109.12-13.4-11.23-6.84-13.55-36.97-13.55-36.97z"/><path d="M-1287.985 562.812c-42.13.34-97.89-6.56-109.12-13.4-8.55-5.21-12-23.89-13.09-32.51h-1.25s2.36 30.1 13.59 36.93c11.23 6.83 66.99 13.79 109.08 13.49 12.16-.1 16.36-4.42 16.13-10.83-1.65 3.83-6.29 6.25-15.34 6.32z" opacity=".2"/><rect width="103" height="41" x="462.614" y="-612.902" fill="#0aa8a7" rx="8.84" ry="8.84" transform="scale(-1)"/><rect width="103" height="41" x="462.614" y="-612.902" opacity=".1" rx="8.84" ry="8.84" transform="scale(-1)"/><rect width="103" height="41" x="-565.615" y="532.902" fill="#0aa8a7" rx="8.84" ry="8.84"/><rect width="103" height="41" x="462.614" y="-532.902" fill="#0aa8a7" rx="8.84" ry="8.84" transform="scale(-1)"/><rect width="103" height="41" x="462.614" y="-532.902" opacity=".1" rx="8.84" ry="8.84" transform="scale(-1)"/><rect width="103" height="41" x="-565.615" y="450.902" fill="#0aa8a7" rx="8.84" ry="8.84"/></g></svg>