<?xml version="1.0" encoding="UTF-8" standalone="no"?>
<svg
   xmlns:dc="http://purl.org/dc/elements/1.1/"
   xmlns:cc="http://creativecommons.org/ns#"
   xmlns:rdf="http://www.w3.org/1999/02/22-rdf-syntax-ns#"
   xmlns:svg="http://www.w3.org/2000/svg"
   xmlns="http://www.w3.org/2000/svg"
   xmlns:sodipodi="http://sodipodi.sourceforge.net/DTD/sodipodi-0.dtd"
   xmlns:inkscape="http://www.inkscape.org/namespaces/inkscape"
   width="325"
   height="206"
   viewBox="0 0 325 206"
   fill="none"
   version="1.1"
   id="svg330"
   sodipodi:docname="cta.svg"
   inkscape:version="1.0.2 (e86c870879, 2021-01-15)">
  <metadata
     id="metadata336">
    <rdf:RDF>
      <cc:Work
         rdf:about="">
        <dc:format>image/svg+xml</dc:format>
        <dc:type
           rdf:resource="http://purl.org/dc/dcmitype/StillImage" />
      </cc:Work>
    </rdf:RDF>
  </metadata>
  <defs
     id="defs334" />
  <sodipodi:namedview
     pagecolor="#ffffff"
     bordercolor="#666666"
     borderopacity="1"
     objecttolerance="10"
     gridtolerance="10"
     guidetolerance="10"
     inkscape:pageopacity="0"
     inkscape:pageshadow="2"
     inkscape:window-width="1360"
     inkscape:window-height="699"
     id="namedview332"
     showgrid="false"
     inkscape:zoom="1.3627252"
     inkscape:cx="105.69974"
     inkscape:cy="79.006342"
     inkscape:window-x="0"
     inkscape:window-y="0"
     inkscape:window-maximized="1"
     inkscape:current-layer="svg330" />
  <g
     id="g895"
     transform="matrix(0.24546288,0,0,0.24546288,43.910961,14.527005)">
    <rect
       y="717.46136"
       width="364"
       height="2"
       fill="#3f3d56"
       id="rect768"
       x="0" />
    <path
       d="m 994.30354,459.37405 -1.26717,-0.475 c -0.27845,-0.10493 -27.99251,-10.72311 -40.975,-34.79938 -12.983,-24.07743 -6.62585,-53.06673 -6.56013,-53.35614 l 0.29921,-1.32021 1.2666,0.475 c 0.27845,0.10493 27.99194,10.72312 40.975,34.79939 12.98305,24.07742 6.62585,53.06672 6.56013,53.35613 z M 954.1403,422.97889 c 10.9762,20.35662 32.87672,30.79147 38.42564,33.17362 1.055,-5.94729 4.36361,-29.997 -6.60279,-50.33406 -10.96524,-20.33471 -32.87441,-30.78571 -38.42564,-33.17362 -1.05559,5.95075 -4.36304,29.99817 6.60279,50.33406 z"
       transform="translate(-138.25,-76.53861)"
       fill="#3f3d56"
       id="path770" />
    <path
       d="m 962.983,417.65405 c 23.33122,14.03683 32.3168,41.91784 32.3168,41.91784 0,0 -28.84178,5.12282 -52.173,-8.914 C 919.79558,436.62107 910.81,408.74 910.81,408.74 c 0,0 28.84179,-5.12277 52.173,8.91405 z"
       transform="translate(-138.25,-76.53861)"
       fill="#d0cde1"
       id="path772" />
    <path
       d="m 990.75,537.53861 a 71.08056,71.08056 0 0 1 -71,-71 v -1 h 142 v 1 a 71.08056,71.08056 0 0 1 -71,71 z m -68.99316,-70 a 69.00041,69.00041 0 0 0 137.98636,0 z"
       transform="translate(-138.25,-76.53861)"
       fill="#3f3d56"
       id="path774" />
    <path
       d="m 990.75,525.03861 a 47,47 0 0 0 47,-47 h -94 a 47,47 0 0 0 47,47 z"
       transform="translate(-138.25,-76.53861)"
       fill="#0aa8a7"
       id="path776" />
    <circle
       cx="225.5"
       cy="62"
       r="51"
       fill="#2f2e41"
       id="circle778" />
    <path
       d="m 347.25,173.03861 c 0,0 7,47 -6,58 -13,11 21,57 21,57 l 46,-74 c 0,0 -35,-9 -17,-36 z"
       transform="translate(-138.25,-76.53861)"
       fill="#a0616a"
       id="path780" />
    <path
       d="m 330.25,311.03861 -6.99,27.44 -7.01,27.56 -24,-2 11,-46 c 0,0 -2,-43 -3,-53 a 13.54364,13.54364 0 0 1 0.40991,-5.48 6.16992,6.16992 0 0 1 5.59009,-4.52 z"
       transform="translate(-138.25,-76.53861)"
       fill="#575a89"
       id="path782" />
    <path
       d="m 357.25,694.03861 -30,6 -2.91992,-25.51 -10.51,-92.01 -2.57007,-22.48 35,-10 -0.23,8 -0.77,27 a 111.97973,111.97973 0 0 1 3.35,16.08 172.24237,172.24237 0 0 1 1.65,30.92 c -1.00001,28 6.99999,62 6.99999,62 z"
       transform="translate(-138.25,-76.53861)"
       fill="#a0616a"
       id="path784" />
    <path
       d="m 325.25,698.03861 31,-9 17,42 24,56 c 0,0 31,41 -2,36 -33,-5 -38,-13 -38,-17 v -7 l -4,1 -3,-3 -4,-30 c 0,0 -9,-8 -5,-19 z"
       transform="translate(-138.25,-76.53861)"
       fill="#2f2e41"
       id="path786" />
    <path
       d="m 348.6,601.11857 -0.35,0.92 c 0,0 -5.21,48.6 -22.11,69.3 l -1.80993,3.19 -10.51,-92.01 6.59985,-24.48 H 346.02 l -0.77,27 a 111.97973,111.97973 0 0 1 3.35,16.08 z"
       transform="translate(-138.25,-76.53861)"
       opacity="0.2"
       id="path788" />
    <path
       d="m 362.25,558.03861 -17,44 c 0,0 -5.21027,48.60389 -22.10514,69.30194 L 301.25,710.03861 c 0,0 -26,-9 -24,-9 2,0 17,-51 17,-51 l 14,-58 9.16929,-34 z"
       transform="translate(-138.25,-76.53861)"
       fill="#a0616a"
       id="path790" />
    <path
       d="m 310.25,698.03861 -31,-9 -17,42 -24,56 c 0,0 -31,41 2,36 33,-5 38,-13 38,-17 v -7 l 4,1 3,-3 4,-30 c 0,0 9,-8 5,-19 z"
       transform="translate(-138.25,-76.53861)"
       fill="#2f2e41"
       id="path792" />
    <circle
       cx="233.5"
       cy="75"
       r="35"
       fill="#a0616a"
       id="circle794" />
    <path
       d="m 330.25,311.03861 -6.99,27.44 -6.01,-0.44 a 17.2737,17.2737 0 0 0 -2,-7 c -2,-4 0,-1 4,-5 4,-4 1,-2 -2,-7 -3,-5 2,-16 2,-16 -5.6,-4 -13,-48 -13,-48 z"
       transform="translate(-138.25,-76.53861)"
       opacity="0.2"
       id="path796" />
    <path
       d="m 363.25,273.03861 -21,-46 -40,28 c 0,0 13,43 20,48 0,0 -5,11 -2,16 3,5 6,3 2,7 -4,4 -6,1 -4,5 a 17.2737,17.2737 0 0 1 2,7 l 95,7 6,-17 c 0,0 12,-23 8,-55 l 15,-55 -42,-7 z"
       transform="translate(-138.25,-76.53861)"
       fill="#575a89"
       id="path798" />
    <path
       d="m 418.44259,339.24727 c 0,0 16.80741,36.79134 -0.19259,96.79134 -17,60 -32,123 -32,123 l -77,9 -2,-35 -27,-4 c 0,0 4,-113 16,-141 12,-28 23.437,-53.30267 23.437,-53.30267 z"
       transform="translate(-138.25,-76.53861)"
       fill="#2f2e41"
       id="path800" />
    <rect
       x="255.02058"
       y="470.03864"
       width="124.45883"
       height="1.99998"
       transform="rotate(-81.23682,203.50447,513.36641)"
       opacity="0.2"
       id="rect802" />
    <path
       d="M 398.09259,123.66542 A 24.048,24.048 0 0 0 385.954,110.26917 c -6.97607,-3.32208 -15.10766,-3.05556 -22.75464,-1.94857 -8.82114,1.27695 -18.09216,3.94576 -23.7876,10.80178 -3.65354,4.398 -5.40931,10.02389 -7.08158,15.49149 -1.93321,6.32081 -3.88261,12.73712 -4.05359,19.34475 a 73.262,73.262 0 0 0 1.3556,13.63138 20.26339,20.26339 0 0 0 2.06918,7.0863 c 1.2505,2.13656 3.53473,3.853 6.0055,3.69832 a 26.32309,26.32309 0 0 1 1.6678,-28.22947 51.41241,51.41241 0 0 1 4.66841,-5.19124 l 12.712,-12.90826 c 3.89958,-3.95978 7.974,-8.03554 13.18018,-9.9804 a 19.49633,19.49633 0 0 1 18.08639,2.54639 19.07908,19.07908 0 0 1 5.24279,6.00113 c 0.93129,1.65929 3.09291,7.00412 3.09291,7.00412 0,0 2.50405,-11.81896 1.73524,-13.95147 z"
       transform="translate(-138.25,-76.53861)"
       fill="#2f2e41"
       id="path804" />
    <ellipse
       cx="199"
       cy="75"
       rx="3.5"
       ry="7"
       fill="#a0616a"
       id="ellipse806" />
    <circle
       cx="202.5"
       cy="16"
       r="16"
       fill="#2f2e41"
       id="circle808" />
    <path
       d="m 378.8777,402.64932 h -59.5679 a 5.653,5.653 0 0 1 -5.653,-5.653 l -2.625,-77.94259 a 5.653,5.653 0 0 1 5.653,-5.653 h 64.81782 a 5.653,5.653 0 0 1 5.653,5.653 l -2.625,77.94259 a 5.653,5.653 0 0 1 -5.65292,5.653 z"
       transform="translate(-138.25,-76.53861)"
       fill="#3f3d56"
       id="path810" />
    <circle
       cx="210.84375"
       cy="260.48679"
       r="5.2499099"
       fill="#d0cde1"
       id="circle812" />
    <path
       d="m 420.25,339.03861 -33.67185,3.88739 c 0,0 -57.32815,-2.88739 -43.32815,14.11261 14,17 46,3 46,3 l 42,-2 z"
       transform="translate(-138.25,-76.53861)"
       fill="#a0616a"
       id="path814" />
    <path
       d="m 298.14041,348.50984 c 0,0 -11.12063,4.93039 -5.6753,13.98027 5.44533,9.04988 31.20363,18.20377 34.55072,4.74394 3.34709,-13.45983 -15.936,-17.70533 -20.72392,-18.34625 a 42.78187,42.78187 0 0 0 -8.1515,-0.37796 z"
       transform="translate(-138.25,-76.53861)"
       fill="#a0616a"
       id="path816" />
    <path
       d="m 432.25,222.03861 12,-4 a 27.14477,27.14477 0 0 1 8,14 c 2,9 34,111 18,119 -16,8 -44,21 -44,21 l -13,-34 21,-11 -8,-44 c 0,0 -8,-61 6,-61 z"
       transform="translate(-138.25,-76.53861)"
       fill="#575a89"
       id="path818" />
    <path
       d="m 845.25,537.03861 h -256 v -256 h 256 z m -254,-2 h 252 v -252 h -252 z"
       transform="translate(-138.25,-76.53861)"
       fill="#3f3d56"
       id="path820" />
    <rect
       x="482"
       y="235.5"
       width="194"
       height="194"
       fill="#0aa8a7"
       id="rect822" />
    <path
       d="m 692.59668,448.22562 c -5.80469,-18.0083 -13.124,-30.76757 -23.03418,-40.15332 l -0.63281,-0.59961 0.50781,-0.709 c 18.96387,-26.47461 34.6123,-52.375 46.51074,-76.981 l 0.88086,-1.8208 0.91211,1.80518 c 15.19629,30.07617 30.66895,55.25342 47.30274,76.97119 l 0.5166,0.6748 -0.582,0.61866 c -12.04688,12.79638 -19.8545,25.93212 -23.86817,40.15869 l -1.92578,-0.543 c 4.03906,-14.313 11.81348,-27.52539 23.75684,-40.3667 -16.18262,-21.228 -31.27051,-45.72656 -46.07422,-74.81494 -11.72852,23.94677 -26.96,49.084 -45.29981,74.75781 9.84473,9.56494 17.14453,22.42822 22.9336,40.38867 z"
       transform="translate(-138.25,-76.53861)"
       fill="#3f3d56"
       id="path824" />
    <rect
       x="577.59863"
       y="253.67969"
       width="2"
       height="77.12793"
       fill="#3f3d56"
       id="rect826" />
    <circle
       cx="578.59827"
       cy="330.80768"
       r="5.62393"
       fill="#3f3d56"
       id="circle828" />
    <rect
       x="670.30194"
       y="469.89844"
       width="93.407539"
       height="2.0000801"
       transform="rotate(-33.626027,521.23292,661.3947)"
       fill="#cfcce0"
       id="rect830" />
    <path
       d="m 673.37805,469.89834 c -3.44654,-2.349 -4.42028,-4.65183 -4.51583,-4.89659 l 1.86233,-0.728 -0.93117,0.364 0.92827,-0.37187 c 0.0581,0.14185 6.37621,14.25461 47.05974,6.55085 42.60715,-8.0691 47.57171,4.50959 47.762,5.04879 l -1.88662,0.66652 c -0.038,-0.10034 -5.00269,-11.41991 -45.50331,-3.75044 -26.55441,5.02911 -39.06213,1.01066 -44.77541,-2.88326 z"
       transform="translate(-138.25,-76.53861)"
       fill="#3f3d56"
       id="path832" />
    <rect
       x="665.37775"
       y="460.03595"
       width="10"
       height="10"
       transform="rotate(-10.72343,193.49763,1163.2851)"
       fill="#3f3d56"
       id="rect834" />
    <rect
       x="758.4317"
       y="470.40259"
       width="10"
       height="10"
       transform="rotate(-10.72343,286.55149,1173.6518)"
       fill="#3f3d56"
       id="rect836" />
    <circle
       cx="579.20258"
       cy="394.58975"
       r="5"
       fill="#cfcce0"
       id="circle838" />
    <circle
       cx="539.86652"
       cy="420.22321"
       r="5"
       fill="#cfcce0"
       id="circle840" />
    <circle
       cx="617.64441"
       cy="368.49695"
       r="5"
       fill="#cfcce0"
       id="circle842" />
    <rect
       x="578"
       y="332.4614"
       width="2"
       height="18"
       fill="#3f3d56"
       id="rect844" />
    <rect
       x="430"
       y="459.4614"
       width="484"
       height="2"
       fill="#3f3d56"
       id="rect846" />
  </g>
</svg>
