<?xml version="1.0" encoding="UTF-8" standalone="no"?>
<svg
   xmlns:dc="http://purl.org/dc/elements/1.1/"
   xmlns:cc="http://creativecommons.org/ns#"
   xmlns:rdf="http://www.w3.org/1999/02/22-rdf-syntax-ns#"
   xmlns:svg="http://www.w3.org/2000/svg"
   xmlns="http://www.w3.org/2000/svg"
   xmlns:sodipodi="http://sodipodi.sourceforge.net/DTD/sodipodi-0.dtd"
   xmlns:inkscape="http://www.inkscape.org/namespaces/inkscape"
   id="aadec279-818b-408a-a9a2-133d1084e5d4"
   data-name="Layer 1"
   width="784.39764"
   height="530"
   viewBox="0 0 784.39764 529.99998"
   version="1.1"
   sodipodi:docname="estimate_valuation.svg"
   inkscape:version="1.0.2 (e86c870879, 2021-01-15)">
  <metadata
     id="metadata73">
    <rdf:RDF>
      <cc:Work
         rdf:about="">
        <dc:format>image/svg+xml</dc:format>
        <dc:type
           rdf:resource="http://purl.org/dc/dcmitype/StillImage" />
        <dc:title>personal_finance</dc:title>
      </cc:Work>
    </rdf:RDF>
  </metadata>
  <defs
     id="defs71">
    <rect
       x="1020.3369"
       y="204.84219"
       width="50.356888"
       height="136.46278"
       id="rect1469" />
  </defs>
  <sodipodi:namedview
     pagecolor="#ffffff"
     bordercolor="#666666"
     borderopacity="1"
     objecttolerance="10"
     gridtolerance="10"
     guidetolerance="10"
     inkscape:pageopacity="0"
     inkscape:pageshadow="2"
     inkscape:window-width="1920"
     inkscape:window-height="1011"
     id="namedview69"
     showgrid="false"
     inkscape:zoom="0.76531858"
     inkscape:cx="705.57966"
     inkscape:cy="337.29415"
     inkscape:window-x="0"
     inkscape:window-y="0"
     inkscape:window-maximized="1"
     inkscape:current-layer="text1475"
     inkscape:document-rotation="0" />
  <title
     id="title2">personal_finance</title>
  <path
     d="m 525.18232,375.56865 c 0,0 67.37639,3.48337 51.68299,24.69327 -15.69341,21.20993 -56.93,-12.44187 -56.93,-12.44187 z"
     fill="#ffb8b8"
     id="path4"
     style="stroke-width:0.694311" />
  <path
     d="m 401.0193,173.54739 13.71408,3.42851 c 0,0 7.9999,23.99967 13.7141,45.71366 5.71421,21.71397 17.14263,86.85597 17.14263,86.85597 l 88.60123,62.09409 -10.5675,23.63968 L 405.59092,348.76044 379.30529,245.5464 Z"
     fill="#575a89"
     id="path6"
     style="stroke-width:0.694311" />
  <polygon
     points="427.5,458.607 464.5,291.607 457.138,445.772 472.5,491.607 "
     opacity="0.2"
     id="polygon8"
     transform="matrix(0.69431127,0,0,0.69431127,91.415075,13.68124)" />
  <path
     d="m 432.44744,406.1156 c 0,0 14.85695,39.99944 17.14264,67.42763 2.28568,27.4282 4.57134,49.14218 4.57134,49.14218 H 384.44809 L 370.734,502.11428 v 20.57113 h -81.14173 c 0,0 -22.85683,-74.28467 -13.71409,-83.42741 9.14273,-9.14274 95.99866,-47.99932 95.99866,-47.99932 z"
     fill="#2f2e41"
     id="path10"
     style="stroke-width:0.694311" />
  <rect
     x="161.88766"
     y="521.64398"
     width="403.39487"
     height="1.3886225"
     fill="#3f3d56"
     id="rect12"
     style="stroke-width:0.694311" />
  <circle
     cx="345.02011"
     cy="86.691437"
     r="43.427971"
     fill="#ffb8b8"
     id="circle14"
     style="stroke-width:0.694311" />
  <path
     d="m 311.87767,104.97691 -3.4285,50.28503 43.42796,58.28491 21.71398,-54.85641 c 0,0 -19.42832,-12.57125 -7.99987,-38.8566 z"
     fill="#ffb8b8"
     id="path16"
     style="stroke-width:0.694311" />
  <path
     d="m 438.73039,415.82863 c 0,10.28968 -28.57091,26.28665 -28.57091,26.28665 v 5.71418 l -11.42836,5.71419 -25.14102,-50.28202 -6.85285,54.85059 c 0,0 -50.28897,8.00539 -66.2859,0 -16.00388,-7.99848 -24.00235,-4.56857 -46.85906,-12.56704 -22.85673,-7.99846 9.14407,-115.42925 9.14407,-115.42925 l -22.85672,-165.71128 49.93486,-24.96743 2.63143,-1.3192 6.86675,-1.26363 10.52576,-1.94407 35.18075,23.78016 2.83279,14.85826 1.74273,9.14409 9.13714,-10.28969 6.90144,-22.69706 49.1017,27.27255 -13.71265,109.70814 c 0,0 37.70805,118.8591 37.70805,129.14186 z"
     fill="#575a89"
     id="path18"
     style="stroke-width:0.694311" />
  <path
     d="m 270.73541,451.25783 c 0,0 52.57071,42.28514 27.42819,50.28503 -25.1425,7.99988 -38.8566,-43.42797 -38.8566,-43.42797 z"
     fill="#ffb8b8"
     id="path20"
     style="stroke-width:0.694311" />
  <path
     d="m 251.30707,166.69035 -11.42841,-2.28567 c 0,0 -17.14261,9.14272 -18.28546,27.42819 -1.14283,18.28545 -15.99978,146.2837 -15.99978,146.2837 l 47.99935,129.14105 38.85659,-14.85693 -37.71376,-121.1412 28.57102,-105.14139 z"
     fill="#575a89"
     id="path22"
     style="stroke-width:0.694311" />
  <circle
     cx="350.04605"
     cy="197.40059"
     r="4.1658678"
     fill="#2f2e41"
     id="circle24"
     style="stroke-width:0.694311" />
  <circle
     cx="350.04605"
     cy="224.4787"
     r="4.1658678"
     fill="#2f2e41"
     id="circle26"
     style="stroke-width:0.694311" />
  <circle
     cx="373.65262"
     cy="402.91678"
     r="4.1658678"
     fill="#2f2e41"
     id="circle28"
     style="stroke-width:0.694311" />
  <path
     d="m 308.35429,42.201475 -8.0279,-3.213935 c 0,0 16.78559,-18.479981 40.13964,-16.872979 l -6.56842,-7.231346 c 0,0 16.0558,-6.4277647 30.65199,10.445215 7.67293,8.869734 16.55057,19.295681 22.08487,31.040347 h 8.59733 l -3.58819,7.900825 12.55869,7.900828 -12.89029,-1.419173 a 44.150558,44.150558 0 0 1 0.34979,13.104987 16.95606,16.95606 0 0 1 -6.20913,11.092316 v 0 c 0,0 -9.9561,-20.608073 -9.9561,-23.821997 v 8.034781 c 0,0 -8.02791,-7.231253 -8.02791,-12.05211 l -4.3788,5.624358 h -29.19225 l 4.37881,-7.231263 -16.78563,2.410394 6.56847,-8.838296 -25.98877,36.496414 c 0,0 -14.88058,-41.31727 6.2838,-53.369366 z"
     fill="#2f2e41"
     id="path30"
     style="stroke-width:0.694311" />
  <circle
     cx="566.60016"
     cy="279.98096"
     r="69.431129"
     fill="#3f3d56"
     id="circle32"
     style="stroke-width:0.694311" />
  <circle
     cx="566.60016"
     cy="279.98096"
     r="59.710773"
     opacity="0.1"
     id="circle34"
     style="stroke-width:0.694311" />
  <polygon
     points="290,629.803 258,499.803 250.005,504.87 "
     opacity="0.2"
     id="polygon38"
     transform="matrix(0.69431127,0,0,0.69431127,91.415075,13.68124)" />
  <path
     d="m 123.41814,194.7599 h -17.62629 a 2.9008326,2.9008326 0 0 1 -2.89759,-2.89759 v -25.3376 a 2.9008326,2.9008326 0 0 1 2.89759,-2.89761 h 17.62629 a 2.9008326,2.9008326 0 0 1 2.8976,2.89761 v 25.3376 a 2.9008326,2.9008326 0 0 1 -2.8976,2.89759 z m -17.62629,-29.74417 a 1.5108214,1.5108214 0 0 0 -1.50896,1.50898 v 25.3376 a 1.5108214,1.5108214 0 0 0 1.50896,1.50899 h 17.62629 a 1.5108214,1.5108214 0 0 0 1.50898,-1.50899 v -25.3376 a 1.5108214,1.5108214 0 0 0 -1.50898,-1.50898 z"
     fill="#3f3d56"
     id="path40"
     style="stroke-width:0.694311" />
  <path
     d="m 155.61309,194.7599 h -15.91761 a 3.756335,3.756335 0 0 1 -3.75193,-3.75191 v -51.17018 a 3.756335,3.756335 0 0 1 3.75193,-3.75194 h 15.91761 a 3.756335,3.756335 0 0 1 3.75193,3.75194 v 51.1702 a 3.756335,3.756335 0 0 1 -3.75193,3.75189 z m -15.91761,-57.28542 a 2.3659073,2.3659073 0 0 0 -2.36333,2.36329 v 51.17022 a 2.3659073,2.3659073 0 0 0 2.36333,2.36331 h 15.91761 a 2.3659073,2.3659073 0 0 0 2.36332,-2.36331 v -51.17018 a 2.3659073,2.3659073 0 0 0 -2.36332,-2.36331 z"
     fill="#3f3d56"
     id="path42"
     style="stroke-width:0.694311" />
  <path
     d="M 188.04774,194.7599 H 173.3594 a 4.3715366,4.3715366 0 0 1 -4.36659,-4.36655 v -75.27852 a 4.3715366,4.3715366 0 0 1 4.36659,-4.36659 h 14.68834 a 4.3715366,4.3715366 0 0 1 4.36657,4.36659 v 75.27852 a 4.3715366,4.3715366 0 0 1 -4.36657,4.36655 z M 173.3594,112.13687 a 2.9813239,2.9813239 0 0 0 -2.97795,2.97796 v 75.27852 a 2.9813239,2.9813239 0 0 0 2.97795,2.97795 h 14.68834 a 2.9813239,2.9813239 0 0 0 2.97795,-2.97795 v -75.27852 a 2.9813239,2.9813239 0 0 0 -2.97795,-2.97796 z"
     fill="#3f3d56"
     id="path44"
     style="stroke-width:0.694311" />
  <rect
     x="107.99522"
     y="168.45248"
     width="13.219687"
     height="21.481993"
     fill="#0aa8a7"
     id="rect46"
     style="stroke-width:0.694311" />
  <rect
     x="141.04446"
     y="141.18686"
     width="13.219687"
     height="48.747597"
     fill="#0aa8a7"
     id="rect48"
     style="stroke-width:0.694311" />
  <rect
     x="174.09366"
     y="115.84911"
     width="13.219687"
     height="74.085327"
     fill="#0aa8a7"
     id="rect50"
     style="stroke-width:0.694311" />
  <path
     d="m 593.40211,114.91412 h -92.34338 a 0.69413075,0.69413075 0 0 1 -0.69431,-0.69432 V 20.487791 a 0.69431131,0.69431131 0 0 1 1.38862,0 V 113.5255 h 91.64907 a 0.69431131,0.69431131 0 0 1 0,1.38862 z"
     fill="#3f3d56"
     id="path52"
     style="stroke-width:0.694311" />
  <path
     d="M 201.81055,204.48028 H 92.109376 a 0.69413075,0.69413075 0 0 1 -0.694301,-0.69432 V 94.779081 a 0.69431127,0.69431127 0 0 1 1.388602,0 V 203.09165 H 201.81055 a 0.6943165,0.6943165 0 0 1 0,1.38863 z"
     fill="#3f3d56"
     id="path54"
     style="stroke-width:0.694311" />
  <path
     d="m 532.92652,106.21253 h -17.62627 a 2.9008813,2.9008813 0 0 1 -2.89795,-2.89761 V 77.977309 a 2.9008742,2.9008742 0 0 1 2.89795,-2.897597 h 17.62627 a 2.9007353,2.9007353 0 0 1 2.89726,2.897597 v 25.337641 a 2.9007353,2.9007353 0 0 1 -2.89726,2.89758 z M 515.30025,76.468325 a 1.5111059,1.5111059 0 0 0 -1.50932,1.508984 v 25.337641 a 1.5111059,1.5111059 0 0 0 1.50932,1.50897 h 17.62627 a 1.5105229,1.5105229 0 0 0 1.50865,-1.50897 V 77.977309 a 1.5105229,1.5105229 0 0 0 -1.50865,-1.508984 z"
     fill="#3f3d56"
     id="path56"
     style="stroke-width:0.694311" />
  <path
     d="m 569.02325,106.21253 h -16.22341 a 3.6032602,3.6032602 0 0 1 -3.59905,-3.59941 V 56.71944 a 3.6029687,3.6029687 0 0 1 3.59905,-3.59902 h 16.22341 a 3.6029687,3.6029687 0 0 1 3.59904,3.59902 v 45.89368 a 3.6032602,3.6032602 0 0 1 -3.59904,3.59941 z M 552.79984,54.509034 a 2.21277,2.21277 0 0 0 -2.21041,2.210406 v 45.89368 a 2.2128325,2.2128325 0 0 0 2.21041,2.21078 h 16.22341 a 2.2128257,2.2128257 0 0 0 2.21041,-2.21078 V 56.71944 a 2.21277,2.21277 0 0 0 -2.21041,-2.210406 z"
     fill="#3f3d56"
     id="path58"
     style="stroke-width:0.694311" />
  <rect
     x="517.18622"
     y="80.145561"
     width="13.219687"
     height="21.481993"
     fill="#0aa8a7"
     id="rect60"
     style="stroke-width:0.694311" />
  <rect
     x="554.30176"
     y="58.884438"
     width="13.219687"
     height="41.564041"
     fill="#0aa8a7"
     id="rect62"
     style="stroke-width:0.694311" />
  <circle
     cx="523.97107"
     cy="61.45216"
     r="6.2488017"
     fill="#0aa8a7"
     id="circle64"
     style="stroke-width:0.694311" />
  <circle
     cx="560.76947"
     cy="37.845573"
     r="6.2488017"
     fill="#0aa8a7"
     id="circle66"
     style="stroke-width:0.694311" />
  <text
     xml:space="preserve"
     id="text1467"
     style="font-style:normal;font-weight:normal;font-size:40px;line-height:1.25;font-family:sans-serif;letter-spacing:0px;word-spacing:0px;white-space:pre;shape-inside:url(#rect1469);fill:#000000;fill-opacity:1;stroke:none;" />
  <g
     aria-label="₹"
     transform="scale(0.93453097,1.0700555)"
     id="text1475"
     style="font-style:normal;font-weight:normal;font-size:105.259px;line-height:1.25;font-family:sans-serif;letter-spacing:0px;word-spacing:0px;fill:#0aa8a7;fill-opacity:1;stroke:none;stroke-width:2.63147">
    <path
       d="m 586.79176,239.40135 1.96265,-4.38922 h 37.04085 l -1.96267,4.38922 h -12.63243 q 2.81911,2.78343 3.5685,7.38677 h 11.0266 l -1.96267,4.38922 h -8.77846 q -0.17843,4.49629 -2.3552,7.5295 -2.31952,3.3187 -6.78012,4.60334 2.31952,0.78507 4.49629,3.35437 2.10541,2.42656 4.42491,7.0656 l 7.3154,14.55941 h -7.74362 l -6.81579,-13.6673 q -2.67637,-5.38838 -5.10293,-7.10126 -2.49795,-1.74856 -6.78011,-1.74856 h -7.85067 v -5.92367 h 9.06396 q 5.20997,0 7.85064,-2.39089 2.42657,-2.21247 2.64069,-6.28054 h -20.62582 l 1.96265,-4.38922 h 18.27063 q -0.64232,-2.39089 -2.24815,-4.2465 -2.64067,-3.14027 -7.85064,-3.14027 z"
       style="font-style:normal;font-variant:normal;font-weight:normal;font-stretch:normal;font-size:105.259px;font-family:Chomsky;-inkscape-font-specification:'Chomsky, Normal';font-variant-ligatures:normal;font-variant-caps:normal;font-variant-numeric:normal;font-variant-east-asian:normal;fill:#0aa8a7;fill-opacity:1;stroke-width:1.82705"
       id="path1477" />
  </g>
</svg>
