<?xml version="1.0" encoding="UTF-8" standalone="no"?>
<svg
   xmlns:dc="http://purl.org/dc/elements/1.1/"
   xmlns:cc="http://creativecommons.org/ns#"
   xmlns:rdf="http://www.w3.org/1999/02/22-rdf-syntax-ns#"
   xmlns:svg="http://www.w3.org/2000/svg"
   xmlns="http://www.w3.org/2000/svg"
   xmlns:sodipodi="http://sodipodi.sourceforge.net/DTD/sodipodi-0.dtd"
   xmlns:inkscape="http://www.inkscape.org/namespaces/inkscape"
   id="bc4ccc1a-6088-4a0b-8e75-630a9ab24761"
   data-name="Layer 1"
   width="923.5"
   height="530"
   viewBox="0 0 923.5 529.99999"
   version="1.1"
   sodipodi:docname="interior_design.svg"
   inkscape:version="1.0.2 (e86c870879, 2021-01-15)">
  <metadata
     id="metadata89">
    <rdf:RDF>
      <cc:Work
         rdf:about="">
        <dc:format>image/svg+xml</dc:format>
        <dc:type
           rdf:resource="http://purl.org/dc/dcmitype/StillImage" />
        <dc:title>interior_design</dc:title>
      </cc:Work>
    </rdf:RDF>
  </metadata>
  <defs
     id="defs87" />
  <sodipodi:namedview
     pagecolor="#ffffff"
     bordercolor="#666666"
     borderopacity="1"
     objecttolerance="10"
     gridtolerance="10"
     guidetolerance="10"
     inkscape:pageopacity="0"
     inkscape:pageshadow="2"
     inkscape:window-width="1920"
     inkscape:window-height="1011"
     id="namedview85"
     showgrid="false"
     inkscape:zoom="0.75167446"
     inkscape:cx="322.53108"
     inkscape:cy="376.5842"
     inkscape:window-x="0"
     inkscape:window-y="0"
     inkscape:window-maximized="1"
     inkscape:current-layer="bc4ccc1a-6088-4a0b-8e75-630a9ab24761" />
  <title
     id="title2">interior_design</title>
  <rect
     y="496.78244"
     width="248.61757"
     height="1.3660307"
     fill="#3f3d56"
     id="rect4"
     x="132.39886"
     style="stroke-width:0.683015" />
  <path
     d="m 717.09654,268.22784 -0.8655,-0.32443 c -0.19018,-0.0716 -19.1193,-7.32405 -27.98654,-23.76851 -8.8676,-16.44526 -4.52556,-36.24539 -4.48068,-36.44306 l 0.20437,-0.90173 0.8651,0.32444 c 0.19019,0.0716 19.11893,7.32405 27.98655,23.76851 8.86763,16.44525 4.52557,36.24538 4.48068,36.44305 z m -27.4321,-24.85845 c 7.49691,13.90389 22.4553,21.03104 26.2453,22.65809 0.72058,-4.06208 2.9804,-20.48841 -4.50982,-34.37894 -7.48942,-13.88891 -22.45371,-21.02711 -26.2453,-22.65808 -0.72097,4.06445 -2.98001,20.48921 4.50982,34.37893 z"
     fill="#3f3d56"
     id="path6"
     style="stroke-width:0.683015" />
  <path
     d="m 695.70413,239.73244 c 15.93558,9.58737 22.07287,28.63053 22.07287,28.63053 0,0 -19.69937,3.49896 -35.63495,-6.0884 -15.93559,-9.58737 -22.07288,-28.63056 -22.07288,-28.63056 0,0 19.69939,-3.49894 35.63496,6.08843 z"
     fill="#d0cde1"
     id="path8"
     style="stroke-width:0.683015" />
  <path
     d="m 714.66943,321.61543 a 48.549112,48.549112 0 0 1 -48.49411,-48.49409 v -0.68301 h 96.9882 v 0.68301 a 48.549112,48.549112 0 0 1 -48.49409,48.49409 z m -47.12339,-47.81107 a 47.128338,47.128338 0 0 0 94.24679,0 z"
     fill="#3f3d56"
     id="path10"
     style="stroke-width:0.683015" />
  <path
     d="m 714.66943,313.07774 a 32.101721,32.101721 0 0 0 32.10171,-32.10172 H 682.5677 a 32.101721,32.101721 0 0 0 32.10173,32.10172 z"
     fill="#0aa8a7"
     id="path12"
     style="stroke-width:0.683015" />
  <circle
     cx="286.41879"
     cy="49.092312"
     r="34.833782"
     fill="#2f2e41"
     id="circle14"
     style="stroke-width:0.683015" />
  <path
     d="m 275.14905,72.656335 c 0,0 4.78112,32.101725 -4.09809,39.614905 -8.87919,7.51316 14.34332,38.93187 14.34332,38.93187 L 316.813,100.65998 c 0,0 -23.90555,-6.14714 -11.61127,-24.588564 z"
     fill="#a0616a"
     id="path16"
     style="stroke-width:0.683015" />
  <path
     d="m 263.53779,166.91246 -4.77426,18.74194 -4.78796,18.8239 -16.39236,-1.36603 7.51318,-31.4187 c 0,0 -1.36604,-29.36967 -2.04906,-36.19982 a 9.2505138,9.2505138 0 0 1 0.27998,-3.74292 4.21415,4.21415 0 0 1 3.81811,-3.08722 z"
     fill="#575a89"
     id="path18"
     style="stroke-width:0.683015" />
  <path
     d="m 281.9792,428.50734 -20.49045,4.09808 -1.99435,-17.42372 -7.17849,-62.84424 -1.7554,-15.35418 23.90554,-6.83016 -0.15709,5.46412 -0.52592,18.44142 a 76.483872,76.483872 0 0 1 2.28809,10.98289 117.64417,117.64417 0 0 1 1.12698,21.11883 c -0.68302,19.12444 4.78109,42.34696 4.78109,42.34696 z"
     fill="#a0616a"
     id="path20"
     style="stroke-width:0.683015" />
  <path
     d="m 260.12271,431.2394 21.17348,-6.14714 11.61126,28.68664 16.39237,38.24885 c 0,0 21.17347,28.00363 -1.36602,24.58856 -22.53952,-3.41508 -25.9546,-8.8792 -25.9546,-11.61125 v -4.78111 l -2.73206,0.683 -2.04904,-2.04903 -2.73206,-20.49047 c 0,0 -6.14714,-5.46412 -3.41508,-12.97729 z"
     fill="#2f2e41"
     id="path22"
     style="stroke-width:0.683015" />
  <path
     d="m 276.07112,365.04151 -0.23906,0.62839 c 0,0 -3.55851,33.19453 -15.10146,47.33296 l -1.23622,2.17881 -7.17848,-62.84423 4.5078,-16.72022 h 17.48525 l -0.52592,18.44141 a 76.483872,76.483872 0 0 1 2.28809,10.98288 z"
     opacity="0.2"
     id="path24"
     style="stroke-width:0.683015" />
  <path
     d="m 285.39428,335.61724 -11.61125,30.05268 c 0,0 -3.5587,33.1972 -15.09816,47.33429 l -14.95452,26.43138 c 0,0 -17.75841,-6.14714 -16.39237,-6.14714 1.36603,0 11.61127,-34.83379 11.61127,-34.83379 l 9.56221,-39.61489 6.26277,-23.22253 z"
     fill="#a0616a"
     id="path26"
     style="stroke-width:0.683015" />
  <path
     d="m 249.87749,431.2394 -21.17348,-6.14714 -11.61125,28.68664 -16.39238,38.24885 c 0,0 -21.17346,28.00363 1.36604,24.58856 22.5395,-3.41508 25.95458,-8.8792 25.95458,-11.61125 v -4.78111 l 2.73205,0.683 2.04906,-2.04903 2.73205,-20.49047 c 0,0 6.14714,-5.46412 3.41509,-12.97729 z"
     fill="#2f2e41"
     id="path28"
     style="stroke-width:0.683015" />
  <circle
     cx="291.88293"
     cy="57.971504"
     r="23.905537"
     fill="#a0616a"
     id="circle30"
     style="stroke-width:0.683015" />
  <path
     d="m 263.53779,166.91246 -4.77426,18.74194 -4.10493,-0.30053 a 11.798202,11.798202 0 0 0 -1.36604,-4.78111 c -1.36602,-2.73205 0,-0.68302 2.73207,-3.41507 2.73205,-2.73206 0.68301,-1.36603 -1.36603,-4.7811 -2.04905,-3.41509 1.36603,-10.92825 1.36603,-10.92825 -3.82489,-2.73206 -8.87921,-32.78473 -8.87921,-32.78473 z"
     opacity="0.2"
     id="path32"
     style="stroke-width:0.683015" />
  <path
     d="m 286.0773,140.95787 -14.34332,-31.4187 -27.32062,19.12444 c 0,0 8.8792,29.36964 13.66032,32.78473 0,0 -3.41508,7.51316 -1.36604,10.92825 2.04904,3.41507 4.0981,2.04904 1.36604,4.7811 -2.73207,2.73205 -4.09811,0.68302 -2.73207,3.41507 a 11.798202,11.798202 0 0 1 1.36603,4.78111 l 64.88646,4.78112 4.09808,-11.61126 c 0,0 8.19619,-15.70936 5.46413,-37.56586 l 10.24522,-37.56584 -28.68663,-4.781108 z"
     fill="#575a89"
     id="path34"
     style="stroke-width:0.683015" />
  <path
     d="m 323.77468,186.17941 c 0,0 11.47972,25.12905 -0.13153,66.10996 -11.61127,40.98093 -21.85649,84.01089 -21.85649,84.01089 l -52.59219,6.14714 -1.36604,-23.90554 -18.44139,-2.73205 c 0,0 2.73204,-77.18074 10.92824,-96.30517 8.19618,-19.12442 16.00782,-36.40655 16.00782,-36.40655 z"
     fill="#2f2e41"
     id="path36"
     style="stroke-width:0.683015" />
  <rect
     x="-276.67697"
     y="293.08136"
     width="85.007294"
     height="1.366017"
     transform="rotate(-81.23682)"
     opacity="0.2"
     id="rect38"
     style="stroke-width:0.683015" />
  <path
     d="m 309.87532,38.93369 a 16.425152,16.425152 0 0 0 -8.29084,-9.149846 c -4.76477,-2.269032 -10.31877,-2.086994 -15.54177,-1.330902 -6.02498,0.872177 -12.35722,2.695012 -16.2473,7.377781 -2.49542,3.003907 -3.69463,6.846471 -4.83682,10.580925 -1.32042,4.317216 -2.65189,8.699654 -2.76867,13.212761 a 50.039069,50.039069 0 0 0 0.92589,9.310445 13.840206,13.840206 0 0 0 1.4133,4.840059 c 0.8541,1.459292 2.41426,2.631647 4.10185,2.526005 a 17.979074,17.979074 0 0 1 1.13913,-19.281169 35.115465,35.115465 0 0 1 3.18858,-3.545692 l 8.68251,-8.816543 c 2.66347,-2.704588 5.44635,-5.488391 9.00226,-6.816763 a 13.316292,13.316292 0 0 1 12.35328,1.739218 13.031304,13.031304 0 0 1 3.5809,4.098871 c 0.63609,1.133318 2.11251,4.783916 2.11251,4.783916 0,0 1.71029,-8.072525 1.18519,-9.529066 z"
     fill="#2f2e41"
     id="path40"
     style="stroke-width:0.683015" />
  <ellipse
     cx="268.31891"
     cy="57.971504"
     rx="2.3905535"
     ry="4.7811069"
     fill="#a0616a"
     id="ellipse42"
     style="stroke-width:0.683015" />
  <circle
     cx="270.70947"
     cy="17.673594"
     r="10.928246"
     fill="#2f2e41"
     id="circle44"
     style="stroke-width:0.683015" />
  <path
     d="m 296.75126,229.48398 h -40.68578 a 3.8610856,3.8610856 0 0 1 -3.86109,-3.86109 l -1.79292,-53.23598 a 3.8610856,3.8610856 0 0 1 3.86108,-3.86109 h 44.27157 a 3.8610856,3.8610856 0 0 1 3.86109,3.86109 l -1.79293,53.23598 a 3.8610856,3.8610856 0 0 1 -3.86102,3.86109 z"
     fill="#3f3d56"
     id="path46"
     style="stroke-width:0.683015" />
  <circle
     cx="276.40836"
     cy="184.66183"
     r="3.5857687"
     fill="#d0cde1"
     id="circle48"
     style="stroke-width:0.683015" />
  <path
     d="m 325.00917,186.03688 -22.99838,2.65515 c 0,0 -39.15601,-1.97213 -29.5938,9.63913 9.56221,11.61127 31.4187,2.04906 31.4187,2.04906 l 28.68666,-1.36604 z"
     fill="#a0616a"
     id="path50"
     style="stroke-width:0.683015" />
  <path
     d="m 241.60645,192.50589 c 0,0 -7.59556,3.36754 -3.87632,9.54874 3.71925,6.1812 21.31256,12.43344 23.59867,3.24019 2.28612,-9.19328 -10.88452,-12.09302 -14.15475,-12.53079 a 29.220673,29.220673 0 0 0 -5.5676,-0.25814 z"
     fill="#a0616a"
     id="path52"
     style="stroke-width:0.683015" />
  <path
     d="m 333.20536,106.1241 8.19617,-2.73207 a 18.540294,18.540294 0 0 1 5.46413,9.56222 c 1.36604,6.14713 23.22253,75.8147 12.29428,81.27883 -10.92824,5.46412 -30.05268,14.34331 -30.05268,14.34331 l -8.87919,-23.22252 14.34332,-7.51316 -5.46413,-30.05268 c 0,0 -5.46411,-41.66393 4.0981,-41.66393 z"
     fill="#575a89"
     id="path54"
     style="stroke-width:0.683015" />
  <path
     d="M 615.29069,321.27393 H 440.43877 V 146.422 H 615.29069 Z M 441.8048,319.90789 H 613.92466 V 147.78803 H 441.8048 Z"
     fill="#3f3d56"
     id="path56"
     style="stroke-width:0.683015" />
  <rect
     x="461.61224"
     y="167.59547"
     width="132.50497"
     height="132.50497"
     fill="#0aa8a7"
     id="rect58"
     style="stroke-width:0.683015" />
  <path
     d="m 511.02613,260.6133 c -3.96469,-12.29995 -8.96389,-21.01473 -15.7327,-27.42535 l -0.43222,-0.40953 0.34685,-0.48426 c 12.95261,-18.08256 23.64073,-35.77293 31.76754,-52.57921 l 0.60165,-1.24362 0.62299,1.23296 c 10.3793,20.54248 20.94736,37.73893 32.30848,52.57249 l 0.35285,0.46091 -0.39751,0.42255 c -8.2282,8.74012 -13.56092,17.71203 -16.30233,27.429 l -1.31534,-0.37087 c 2.75875,-9.776 8.06879,-18.80027 16.22629,-27.57109 -11.05298,-14.49904 -21.35823,-31.23193 -31.46941,-51.09974 -8.01075,16.35601 -18.41408,33.52513 -30.94045,51.06073 6.72409,6.533 11.70998,15.31881 15.66399,27.58608 z"
     fill="#3f3d56"
     id="path60"
     style="stroke-width:0.683015" />
  <rect
     x="526.90759"
     y="180.0125"
     width="1.3660307"
     height="52.679558"
     fill="#3f3d56"
     id="rect62"
     style="stroke-width:0.683015" />
  <circle
     cx="527.59033"
     cy="232.69208"
     r="3.8412304"
     fill="#3f3d56"
     id="circle64"
     style="stroke-width:0.683015" />
  <rect
     x="254.60292"
     y="521.44049"
     width="63.798782"
     height="1.3660855"
     transform="rotate(-33.626027)"
     fill="#cfcce0"
     id="rect66"
     style="stroke-width:0.683015" />
  <path
     d="m 497.89951,275.4161 c -2.35403,-1.60441 -3.01911,-3.17728 -3.08438,-3.34446 l 1.272,-0.49723 -0.636,0.24862 0.63403,-0.25399 c 0.0396,0.0969 4.35504,9.73611 32.14252,4.47433 29.10133,-5.51132 32.4922,3.08012 32.62218,3.4484 l -1.28859,0.45523 c -0.0259,-0.0685 -3.41691,-7.79997 -31.07946,-2.56159 -18.13708,3.43496 -26.68003,0.69028 -30.5823,-1.96931 z"
     fill="#3f3d56"
     id="path68"
     style="stroke-width:0.683015" />
  <rect
     x="433.1478"
     y="356.19028"
     width="6.8301535"
     height="6.8301535"
     transform="rotate(-10.72343)"
     fill="#3f3d56"
     id="rect70"
     style="stroke-width:0.683015" />
  <rect
     x="494.27765"
     y="374.97324"
     width="6.8301535"
     height="6.8301535"
     transform="rotate(-10.72343)"
     fill="#3f3d56"
     id="rect72"
     style="stroke-width:0.683015" />
  <circle
     cx="528.00311"
     cy="276.25623"
     r="3.4150767"
     fill="#cfcce0"
     id="circle74"
     style="stroke-width:0.683015" />
  <circle
     cx="501.13596"
     cy="293.76425"
     r="3.4150767"
     fill="#cfcce0"
     id="circle76"
     style="stroke-width:0.683015" />
  <circle
     cx="554.25946"
     cy="258.43442"
     r="3.4150767"
     fill="#cfcce0"
     id="circle78"
     style="stroke-width:0.683015" />
  <rect
     x="527.18164"
     y="233.82161"
     width="1.3660307"
     height="12.294275"
     fill="#3f3d56"
     id="rect80"
     style="stroke-width:0.683015" />
  <rect
     x="426.09546"
     y="320.56454"
     width="330.57941"
     height="1.3660307"
     fill="#3f3d56"
     id="rect82"
     style="stroke-width:0.683015" />
</svg>
