<svg xmlns="http://www.w3.org/2000/svg" viewBox="0 0 153.323 30.323"><defs><path id="d" d="M.505.087h151.066v29.334H.505z"/><filter id="e" width="1.025" height="1.044" x="-.002" y="-.014" color-interpolation-filters="sRGB"><feGaussianBlur stdDeviation=".079"/></filter><path id="a" d="M.505.087h151.066v29.334H.505z"/><filter id="c" width="1.016" height="1.016" x="-.008" y="-.008" color-interpolation-filters="sRGB"><feGaussianBlur stdDeviation=".081"/></filter><filter id="b" width="1.003" height="1.017" x="-.002" y="-.008" color-interpolation-filters="sRGB"><feGaussianBlur stdDeviation=".072"/></filter></defs><text filter="url(#b)" font-family="AnjaliOldLipi" font-size="14.111" font-weight="400" letter-spacing="0" opacity=".094" transform="translate(24.612 3.454) scale(1.13145)" word-spacing="0" style="line-height:1.25;-inkscape-font-specification:'AnjaliOldLipi, Normal';font-variant-ligatures:normal;font-variant-caps:normal;font-variant-numeric:normal;font-variant-east-asian:normal;white-space:pre;shape-inside:url(#a)"><tspan x=".506" y="19.942"><tspan font-family="Noto Sans CJK JP" font-size="19.756" font-weight="700" style="-inkscape-font-specification:'Noto Sans CJK JP, Bold';font-variant-ligatures:normal;font-variant-caps:normal;font-variant-numeric:normal;font-variant-east-asian:normal">ashrayBuild</tspan></tspan></text><path d="M13.67 8.545l-7.707 8.192v8.841a.669.863 0 0 0 .668.864l4.685-.016a.669.863 0 0 0 .665-.863v-5.164a.669.863 0 0 1 .669-.863h2.675a.669.863 0 0 1 .669.863v5.16a.669.863 0 0 0 .669.866l4.682.017a.669.863 0 0 0 .669-.864v-8.847l-7.705-8.186a.51.658 0 0 0-.64 0zm12.173 5.568l-3.495-3.718V2.922a.502.647 0 0 0-.501-.647h-2.341a.502.647 0 0 0-.502.647V6.84l-3.742-3.974a2.006 2.59 0 0 0-2.55 0L2.132 14.113a.502.647 0 0 0-.068.911l1.066 1.673a.502.647 0 0 0 .707.088L13.67 6.333a.51.658 0 0 1 .64 0l9.833 10.452a.502.647 0 0 0 .706-.087l1.066-1.672a.502.647 0 0 0-.071-.913z" filter="url(#c)" opacity=".094"/><text fill="#0aa8a7" filter="url(#e)" font-family="AnjaliOldLipi" font-size="14.111" font-weight="400" letter-spacing="0" transform="translate(23.081 2.12) scale(1.13145)" word-spacing="0" style="line-height:1.25;-inkscape-font-specification:'AnjaliOldLipi, Normal';font-variant-ligatures:normal;font-variant-caps:normal;font-variant-numeric:normal;font-variant-east-asian:normal;white-space:pre;shape-inside:url(#d)"><tspan x=".506" y="19.942"><tspan font-family="Noto Sans CJK JP" font-size="19.756" font-weight="700" style="-inkscape-font-specification:'Noto Sans CJK JP, Bold';font-variant-ligatures:normal;font-variant-caps:normal;font-variant-numeric:normal;font-variant-east-asian:normal">ashrayBuild</tspan></tspan></text><path fill="#0aa8a7" d="M12.138 7.21l-7.706 8.192v8.842a.669.863 0 0 0 .668.863l4.685-.016a.669.863 0 0 0 .665-.863v-5.163a.669.863 0 0 1 .669-.864h2.675a.669.863 0 0 1 .669.864v5.16a.669.863 0 0 0 .669.865l4.682.017a.669.863 0 0 0 .669-.863v-8.848L12.778 7.21a.51.658 0 0 0-.64 0zm12.174 5.568L20.817 9.06V1.588a.502.647 0 0 0-.501-.648h-2.341a.502.647 0 0 0-.502.648v3.917l-3.742-3.974a2.006 2.59 0 0 0-2.55 0L.601 12.778a.502.647 0 0 0-.068.912L1.6 15.362a.502.647 0 0 0 .707.088l9.832-10.452a.51.658 0 0 1 .64 0L22.61 15.45a.502.647 0 0 0 .706-.086l1.066-1.673a.502.647 0 0 0-.071-.913z"/></svg>