<?xml version="1.0" encoding="UTF-8" standalone="no"?>
<svg
   xmlns:dc="http://purl.org/dc/elements/1.1/"
   xmlns:cc="http://creativecommons.org/ns#"
   xmlns:rdf="http://www.w3.org/1999/02/22-rdf-syntax-ns#"
   xmlns:svg="http://www.w3.org/2000/svg"
   xmlns="http://www.w3.org/2000/svg"
   xmlns:sodipodi="http://sodipodi.sourceforge.net/DTD/sodipodi-0.dtd"
   xmlns:inkscape="http://www.inkscape.org/namespaces/inkscape"
   id="ad467010-4b2c-4db1-84f0-cd2022f75deb"
   data-name="Layer 1"
   width="700"
   height="530"
   viewBox="0 0 700.00002 529.99999"
   version="1.1"
   sodipodi:docname="other_building_services.svg"
   inkscape:version="1.0.2 (e86c870879, 2021-01-15)">
  <metadata
     id="metadata217">
    <rdf:RDF>
      <cc:Work
         rdf:about="">
        <dc:format>image/svg+xml</dc:format>
        <dc:type
           rdf:resource="http://purl.org/dc/dcmitype/StillImage" />
        <dc:title>QA engineers</dc:title>
      </cc:Work>
    </rdf:RDF>
  </metadata>
  <defs
     id="defs215" />
  <sodipodi:namedview
     pagecolor="#ffffff"
     bordercolor="#666666"
     borderopacity="1"
     objecttolerance="10"
     gridtolerance="10"
     guidetolerance="10"
     inkscape:pageopacity="0"
     inkscape:pageshadow="2"
     inkscape:window-width="1920"
     inkscape:window-height="1011"
     id="namedview213"
     showgrid="false"
     inkscape:zoom="0.71966926"
     inkscape:cx="211.73865"
     inkscape:cy="497.78384"
     inkscape:window-x="0"
     inkscape:window-y="0"
     inkscape:window-maximized="1"
     inkscape:current-layer="ad467010-4b2c-4db1-84f0-cd2022f75deb"
     inkscape:document-rotation="0" />
  <title
     id="title2">QA engineers</title>
  <path
     d="M 667.44015,416.25163 C 651.4721,452.5386 619.031,476.80274 585.42356,492.80448 a 302.60525,333.22964 0 0 1 -84.43945,24.81363 q -8.35677,1.0924 -16.76765,1.69486 a 325.2046,358.11609 0 0 1 -43.02835,-0.0529 q -12.92594,-0.94674 -25.76169,-3.02558 A 324.91603,357.7983 0 0 1 329.29157,488.6138 q -11.8678,-5.88562 -23.25467,-12.85039 a 297.50701,327.61545 0 0 1 -36.34895,-26.17746 q -3.82366,-3.21756 -7.55113,-6.57414 l -1.02207,-0.92028 c -1.9539,-1.77429 -3.8898,-3.5883 -5.85574,-5.34936 A 85.130834,93.746283 0 0 0 244.88219,428.546 c -0.24649,-0.1589 -0.493,-0.31778 -0.7455,-0.47006 -0.67334,-0.43033 -1.35872,-0.83418 -2.05613,-1.21816 a 47.080479,51.845136 0 0 0 -4.41285,-2.14505 c -6.94393,-2.91302 -14.38086,-3.97229 -21.91999,-3.79354 -1.25052,0 -2.50101,0.0927 -3.75754,0.18538 v 0 c -1.75553,0.13245 -3.51706,0.33103 -5.27258,0.5826 l -0.6493,0.0993 a 119.50181,131.59568 0 0 0 -16.55122,3.91273 c -8.38082,2.64819 -16.61133,5.95844 -24.89596,8.94428 v 0 c -3.51705,1.27777 -7.04012,2.49593 -10.59325,3.58832 l -0.78158,0.23834 a 115.95469,127.68958 0 0 1 -15.39689,3.54858 85.792161,94.47454 0 0 1 -35.23672,-3.12488 l -0.39679,-0.1258 -0.73346,-0.23834 -1.00403,-0.34426 q -2.525065,-0.8739 -5.008049,-1.91332 L 94.46634,435.8484 q -2.404826,-1.01956 -4.707453,-2.19138 l -1.004011,-0.50317 q -2.404826,-1.23139 -4.707454,-2.60186 c -0.553105,-0.31777 -1.100207,-0.66204 -1.641291,-0.98644 q -2.452909,-1.50949 -4.809652,-3.1646 -2.501023,-1.75444 -4.893828,-3.66114 -1.10621,-0.87391 -2.188393,-1.79415 a 97.010677,106.82839 0 0 1 -11.645365,-11.566 c -0.198395,-0.21847 -0.38477,-0.44357 -0.571144,-0.66205 -0.955912,-1.13873 -1.893801,-2.29732 -2.801616,-3.48238 -0.336686,-0.43695 -0.673357,-0.8739 -1.004026,-1.32411 q -1.617234,-2.17152 -3.120249,-4.44235 c -0.150297,-0.21847 -0.294591,-0.44357 -0.438885,-0.66204 A 86.928445,95.725809 0 0 1 40.790622,378.6142 c -0.08422,-0.21848 -0.162332,-0.44357 -0.234472,-0.66205 q -1.202421,-3.40956 -2.194395,-6.93166 c -0.27055,-0.97984 -0.529064,-1.98615 -0.757518,-2.966 -0.07817,-0.29129 -0.150297,-0.58921 -0.216434,-0.88052 -3.318674,-14.38635 -3.69744,-29.34205 -3.69744,-44.2117 q 0,-2.60186 0,-5.19708 c 0.09617,-24.05229 0.432882,-48.51504 3.655345,-72.23628 0,-0.16553 0.04204,-0.33102 0.06608,-0.48994 a 204.8671,225.60015 0 0 1 4.394825,-23.71463 158.86881,174.94671 0 0 1 7.400853,-24.0324 C 56.62034,178.09249 67.399971,160.62099 79.370002,144.42725 93.798945,124.94312 110.33214,106.96183 128.74708,92.125296 q 3.96796,-3.19771 8.04413,-6.21003 l 1.25654,-0.90701 c 0.43887,-0.32441 0.87775,-0.66205 1.31662,-0.94674 v 0 c 0.90182,-0.66205 1.80363,-1.28437 2.71748,-1.91332 l 1.02204,-0.70177 1.94791,-1.32411 0.6012,-0.37736 1.04009,-0.66205 1.02807,-0.66204 q 1.8036,-1.17185 3.64931,-2.2907 7.88183,-4.83959 16.1364,-8.84499 2.43487,-1.18508 4.89983,-2.28408 a 172.80476,190.29303 0 0 1 22.93602,-8.28225 q 4.32869,-1.20491 8.71148,-2.11855 5.17038,-1.09901 10.39487,-1.82065 a 164.95902,181.65329 0 0 1 16.7015,-1.37044 c 39.27081,-1.05265 78.93841,13.02254 109.71417,40.00106 12.2646,10.751704 23.28472,23.482934 37.05836,31.725464 12.02413,7.17661 26.09838,10.14921 38.97621,4.50193 10.64137,-4.66746 17.56725,-6.98463 29.51924,-6.27624 a 247.43254,272.4733 0 0 1 72.33115,16.6572 c 0.93789,0.37736 1.87578,0.76796 2.80765,1.15858 60.54749,25.52202 112.60596,76.20195 139.64822,141.32781 q 1.07016,2.58198 2.08619,5.20371 c 16.13037,41.47744 21.95005,90.105 4.14833,130.54302 z"
     fill="#0aa8a7"
     opacity="0.1"
     id="path4"
     style="stroke-width:0.630895" />
  <path
     d="m 154.00983,187.22205 v 251.02289 l -0.78158,0.23834 a 115.95469,127.68958 0 0 1 -15.39689,3.54858 85.792161,94.47454 0 0 1 -35.23672,-3.12487 l -0.39679,-0.1258 -0.73346,-0.23835 -1.00401,-0.34426 q -2.525069,-0.87391 -5.008068,-1.91332 l -1.00401,-0.4237 q -2.404827,-1.01956 -4.707439,-2.19141 l -1.004026,-0.50314 q -2.404826,-1.23142 -4.707438,-2.60188 c -0.553105,-0.31777 -1.100207,-0.66203 -1.641291,-0.98644 q -2.452924,-1.50947 -4.809653,-3.1646 -2.501037,-1.75443 -4.893828,-3.66113 -1.106224,-0.87392 -2.188393,-1.79416 a 97.010677,106.82839 0 0 1 -11.64538,-11.56601 c -0.198395,-0.21848 -0.384754,-0.44358 -0.571128,-0.66205 -0.955928,-1.13872 -1.893817,-2.29732 -2.801617,-3.48238 -0.336686,-0.43695 -0.673357,-0.8739 -1.004025,-1.32411 q -1.61725,-2.17152 -3.120264,-4.44235 c -0.150297,-0.21848 -0.294591,-0.44359 -0.43887,-0.66205 A 86.928445,95.725809 0 0 1 40.772584,378.62732 c -0.08422,-0.21847 -0.162318,-0.44358 -0.234472,-0.66204 q -1.202406,-3.40957 -2.194411,-6.93169 c -0.270535,-0.97981 -0.529048,-1.98612 -0.757503,-2.96597 -0.07817,-0.2913 -0.150297,-0.58921 -0.216448,-0.88052 -3.318644,-14.38635 -3.697426,-29.34206 -3.697426,-44.2117 q 0,-2.60186 0,-5.1971 c 0.09617,-24.05227 0.432883,-48.51501 3.655361,-72.23627 0,-0.16552 0.04203,-0.33103 0.06608,-0.48992 a 204.8671,225.60015 0 0 1 4.394809,-23.71463 h 61.395206 v -34.11545 h 12.24056 V 159.8198 h 26.34486 v 27.40225 z"
     fill="#0aa8a7"
     opacity="0.1"
     id="path6"
     style="stroke-width:0.630895" />
  <path
     d="M 667.44015,416.25163 C 651.4721,452.5386 619.031,476.80274 585.42356,492.80448 a 302.60525,333.22964 0 0 1 -84.43945,24.81363 q -8.35677,1.0924 -16.76765,1.69486 a 325.2046,358.11609 0 0 1 -43.02835,-0.0529 q -12.92594,-0.94674 -25.76169,-3.02558 A 324.91603,357.7983 0 0 1 329.29157,488.6138 q -11.8678,-5.88562 -23.25467,-12.85039 a 297.50701,327.61545 0 0 1 -36.34895,-26.17746 q -3.82366,-3.21756 -7.55113,-6.57414 l -1.02207,-0.92028 c -1.9539,-1.77429 -3.8898,-3.5883 -5.85574,-5.34936 A 85.130834,93.746283 0 0 0 244.88219,428.546 c -0.24649,-0.1589 -0.493,-0.31778 -0.7455,-0.47006 -0.67334,-0.43033 -1.35872,-0.83418 -2.05613,-1.21816 a 47.080479,51.845136 0 0 0 -4.41285,-2.14505 V 322.02209 H 349.2456 v 22.86058 h 48.96828 V 177.66206 h 57.63766 v 66.86704 h 28.50921 v -39.59058 h 23.55526 v -42.29176 h 10.82173 v -24.62825 c 0.93789,0.37736 1.87576,0.76797 2.80763,1.15859 v 23.46966 h 10.53314 v 42.31825 h 23.53724 v 39.59058 h 34.70764 V 395.39044 H 645.4901 V 285.69538 h 17.77767 c 16.15442,41.49068 21.9741,90.11825 4.17238,130.55625 z"
     fill="#0aa8a7"
     opacity="0.1"
     id="path8"
     style="stroke-width:0.630895" />
  <rect
     x="415.43851"
     y="202.82657"
     width="25.761696"
     height="28.368839"
     fill="#0aa8a7"
     opacity="0.1"
     id="rect10"
     style="stroke-width:0.630895" />
  <rect
     x="415.43851"
     y="261.62982"
     width="25.761696"
     height="28.368839"
     fill="#0aa8a7"
     opacity="0.1"
     id="rect12"
     style="stroke-width:0.630895" />
  <rect
     x="415.43851"
     y="320.43973"
     width="25.761696"
     height="28.368839"
     fill="#0aa8a7"
     opacity="0.1"
     id="rect14"
     style="stroke-width:0.630895" />
  <rect
     x="415.43851"
     y="379.24969"
     width="25.761696"
     height="28.368839"
     fill="#0aa8a7"
     opacity="0.1"
     id="rect16"
     style="stroke-width:0.630895" />
  <rect
     x="415.43851"
     y="438.05298"
     width="25.761696"
     height="28.368839"
     fill="#0aa8a7"
     opacity="0.1"
     id="rect18"
     style="stroke-width:0.630895" />
  <path
     d="m 441.20015,496.84961 v 22.40377 q -12.92596,-0.94674 -25.76171,-3.02557 v -19.3782 z"
     fill="#0aa8a7"
     opacity="0.1"
     id="path20"
     style="stroke-width:0.630895" />
  <rect
     x="246.16275"
     y="358.68643"
     width="90.174965"
     height="12.850389"
     fill="#0aa8a7"
     opacity="0.1"
     id="rect22"
     style="stroke-width:0.630895" />
  <rect
     x="246.16275"
     y="397.71429"
     width="90.174965"
     height="12.850389"
     fill="#0aa8a7"
     opacity="0.1"
     id="rect24"
     style="stroke-width:0.630895" />
  <path
     d="m 336.33771,436.74208 v 12.84378 h -66.63772 q -3.82368,-3.21757 -7.55115,-6.57415 l -1.02205,-0.92027 c -1.95392,-1.77429 -3.88982,-3.5883 -5.85576,-5.34936 z"
     fill="#0aa8a7"
     opacity="0.1"
     id="path26"
     style="stroke-width:0.630895" />
  <path
     d="m 336.33771,475.76332 v 12.85038 h -7.03412 q -11.8678,-5.88562 -23.25465,-12.85038 z"
     fill="#0aa8a7"
     opacity="0.1"
     id="path28"
     style="stroke-width:0.630895" />
  <rect
     x="484.22849"
     y="279.6442"
     width="16.767647"
     height="18.464575"
     fill="#0aa8a7"
     opacity="0.1"
     id="rect30"
     style="stroke-width:0.630895" />
  <rect
     x="121.09978"
     y="193.591"
     width="16.767647"
     height="18.464575"
     fill="#0aa8a7"
     opacity="0.1"
     id="rect32"
     style="stroke-width:0.630895" />
  <rect
     x="121.09978"
     y="236.49182"
     width="16.767647"
     height="18.464575"
     fill="#0aa8a7"
     opacity="0.1"
     id="rect34"
     style="stroke-width:0.630895" />
  <rect
     x="121.09978"
     y="279.38602"
     width="16.767647"
     height="18.464575"
     fill="#0aa8a7"
     opacity="0.1"
     id="rect36"
     style="stroke-width:0.630895" />
  <rect
     x="121.09978"
     y="322.28687"
     width="16.767647"
     height="18.464575"
     fill="#0aa8a7"
     opacity="0.1"
     id="rect38"
     style="stroke-width:0.630895" />
  <rect
     x="121.09978"
     y="365.18774"
     width="16.767647"
     height="18.464575"
     fill="#0aa8a7"
     opacity="0.1"
     id="rect40"
     style="stroke-width:0.630895" />
  <rect
     x="121.09978"
     y="408.082"
     width="16.767647"
     height="18.464575"
     fill="#0aa8a7"
     opacity="0.1"
     id="rect42"
     style="stroke-width:0.630895" />
  <rect
     x="548.25098"
     y="279.6442"
     width="16.767647"
     height="18.464575"
     fill="#0aa8a7"
     opacity="0.1"
     id="rect44"
     style="stroke-width:0.630895" />
  <rect
     x="484.22849"
     y="325.19324"
     width="16.767647"
     height="18.464575"
     fill="#0aa8a7"
     opacity="0.1"
     id="rect46"
     style="stroke-width:0.630895" />
  <rect
     x="548.25098"
     y="325.19324"
     width="16.767647"
     height="18.464575"
     fill="#0aa8a7"
     opacity="0.1"
     id="rect48"
     style="stroke-width:0.630895" />
  <rect
     x="484.22849"
     y="370.74899"
     width="16.767647"
     height="18.464575"
     fill="#0aa8a7"
     opacity="0.1"
     id="rect50"
     style="stroke-width:0.630895" />
  <rect
     x="548.25098"
     y="370.74899"
     width="16.767647"
     height="18.464575"
     fill="#0aa8a7"
     opacity="0.1"
     id="rect52"
     style="stroke-width:0.630895" />
  <rect
     x="484.22849"
     y="416.30463"
     width="16.767647"
     height="18.464575"
     fill="#0aa8a7"
     opacity="0.1"
     id="rect54"
     style="stroke-width:0.630895" />
  <rect
     x="548.25098"
     y="416.30463"
     width="16.767647"
     height="18.464575"
     fill="#0aa8a7"
     opacity="0.1"
     id="rect56"
     style="stroke-width:0.630895" />
  <rect
     x="484.22849"
     y="461.8537"
     width="16.767647"
     height="18.464575"
     fill="#0aa8a7"
     opacity="0.1"
     id="rect58"
     style="stroke-width:0.630895" />
  <rect
     x="548.25098"
     y="461.8537"
     width="16.767647"
     height="18.464575"
     fill="#0aa8a7"
     opacity="0.1"
     id="rect60"
     style="stroke-width:0.630895" />
  <polygon
     points="749.43,779 749.43,761.01 777.32,761.01 777.32,776.44 "
     fill="#0aa8a7"
     opacity="0.1"
     id="polygon62"
     transform="matrix(0.60120647,0,0,0.66205002,33.666322,3.5759891)" />
  <path
     d="m 37.333687,245.05875 v 10.59279 h 64.130703 v -10.59279 z m 5.71145,9.93074 h -4.707439 v -9.26869 h 4.707439 z m 5.711464,0 h -4.707438 v -9.26869 h 4.707438 z m 5.711465,0 h -4.707439 v -9.26869 h 4.707439 z m 5.711464,0 h -4.707439 v -9.26869 h 4.707439 z m 5.711465,0 h -4.707454 v -9.26869 h 4.707454 z m 5.711449,0 h -4.707439 v -9.26869 h 4.707439 z m 5.71148,0 H 72.60647 v -9.26869 h 4.707454 z m 5.711449,0 h -4.707454 v -9.26869 h 4.707454 z m 5.711464,0 h -4.707438 v -9.26869 h 4.707438 z m 5.711465,0 h -4.707439 v -9.26869 h 4.707439 z m 6.012078,0 h -5.008068 v -9.26869 h 5.008068 z"
     fill="#0aa8a7"
     opacity="0.1"
     id="path64"
     style="stroke-width:0.630895" />
  <path
     d="m 37.333687,275.81759 v 10.55969 h 64.130703 v -10.55969 z m 5.71145,9.89764 h -4.707439 v -9.23559 h 4.707439 z m 5.711464,0 h -4.707438 v -9.23559 h 4.707438 z m 5.711465,0 h -4.707439 v -9.23559 h 4.707439 z m 5.711464,0 h -4.707439 v -9.23559 h 4.707439 z m 5.711465,0 h -4.707454 v -9.23559 h 4.707454 z m 5.711449,0 h -4.707439 v -9.23559 h 4.707439 z m 5.71148,0 H 72.60647 v -9.23559 h 4.707454 z m 5.711449,0 h -4.707454 v -9.23559 h 4.707454 z m 5.711464,0 h -4.707438 v -9.23559 h 4.707438 z m 5.711465,0 h -4.707439 v -9.23559 h 4.707439 z m 6.012078,0 h -5.008068 v -9.23559 h 5.008068 z"
     fill="#0aa8a7"
     opacity="0.1"
     id="path66"
     style="stroke-width:0.630895" />
  <path
     d="m 37.333687,306.56981 v 10.5597 h 64.130703 v -10.5597 z m 5.71145,9.89764 h -4.707439 v -9.23559 h 4.707439 z m 5.711464,0 h -4.707438 v -9.23559 h 4.707438 z m 5.711465,0 h -4.707439 v -9.23559 h 4.707439 z m 5.711464,0 h -4.707439 v -9.23559 h 4.707439 z m 5.711465,0 h -4.707454 v -9.23559 h 4.707454 z m 5.711449,0 h -4.707439 v -9.23559 h 4.707439 z m 5.71148,0 H 72.60647 v -9.23559 h 4.707454 z m 5.711449,0 h -4.707454 v -9.23559 h 4.707454 z m 5.711464,0 h -4.707438 v -9.23559 h 4.707438 z m 5.711465,0 h -4.707439 v -9.23559 h 4.707439 z m 6.012078,0 h -5.008068 v -9.23559 h 5.008068 z"
     fill="#0aa8a7"
     opacity="0.1"
     id="path68"
     style="stroke-width:0.630895" />
  <path
     d="m 37.333687,337.29555 v 10.5928 h 64.130703 v -10.5928 z m 5.71145,9.93076 h -4.707439 v -9.2687 h 4.707439 z m 5.711464,0 h -4.707438 v -9.2687 h 4.707438 z m 5.711465,0 h -4.707439 v -9.2687 h 4.707439 z m 5.711464,0 h -4.707439 v -9.2687 h 4.707439 z m 5.711465,0 h -4.707454 v -9.2687 h 4.707454 z m 5.711449,0 h -4.707439 v -9.2687 h 4.707439 z m 5.71148,0 H 72.60647 v -9.2687 h 4.707454 z m 5.711449,0 h -4.707454 v -9.2687 h 4.707454 z m 5.711464,0 h -4.707438 v -9.2687 h 4.707438 z m 5.711465,0 h -4.707439 v -9.2687 h 4.707439 z m 6.012078,0 h -5.008068 v -9.2687 h 5.008068 z"
     fill="#0aa8a7"
     opacity="0.1"
     id="path70"
     style="stroke-width:0.630895" />
  <path
     d="m 37.58018,368.07426 c 0.228455,0.99308 0.486969,1.98615 0.757518,2.96599 v -2.30393 h 4.707439 v 9.26869 h -2.513028 c 0.07212,0.21848 0.150297,0.44358 0.234457,0.66205 h 60.721864 v -10.5928 z m 11.176421,9.93075 h -4.707438 v -9.26869 h 4.707438 z m 5.711465,0 h -4.707439 v -9.26869 h 4.707439 z m 5.711464,0 h -4.707439 v -9.26869 h 4.707439 z m 5.711465,0 h -4.707454 v -9.26869 h 4.707454 z m 5.711449,0 h -4.707439 v -9.26869 h 4.707439 z m 5.71148,0 H 72.60647 v -9.26869 h 4.707454 z m 5.711449,0 h -4.707454 v -9.26869 h 4.707454 z m 5.711464,0 h -4.707438 v -9.26869 h 4.707438 z m 5.711465,0 h -4.707439 v -9.26869 h 4.707439 z m 6.012078,0 h -5.008068 v -9.26869 h 5.008068 z"
     fill="#0aa8a7"
     opacity="0.1"
     id="path72"
     style="stroke-width:0.630895" />
  <path
     d="m 50.908932,398.82649 c 0.144249,0.21847 0.288573,0.44356 0.43887,0.66203 h 3.120264 v 4.44236 c 0.330668,0.44359 0.667339,0.88054 1.004025,1.32411 v -5.75985 h 4.707439 v 9.26871 h -1.905822 c 0.186374,0.21848 0.372748,0.44358 0.571143,0.66205 h 42.619539 v -10.5928 z m 14.982063,9.93074 h -4.707454 v -9.26871 h 4.707454 z m 5.711449,0 h -4.707439 v -9.26871 h 4.707439 z m 5.71148,0 H 72.60647 v -9.26871 h 4.707454 z m 5.711449,0 h -4.707454 v -9.26871 h 4.707454 z m 5.711464,0 h -4.707438 v -9.26871 h 4.707438 z m 5.711465,0 h -4.707439 v -9.26871 h 4.707439 z m 6.012078,0 h -5.008068 v -9.26871 h 5.008068 z"
     fill="#0aa8a7"
     opacity="0.1"
     id="path74"
     style="stroke-width:0.630895" />
  <path
     d="m 82.388108,429.57871 c 0.541084,0.33765 1.088186,0.66204 1.641291,0.98644 v -0.3244 h 4.707438 v 2.92627 l 1.004026,0.50315 v -3.42942 h 4.707439 v 5.62082 l 1.00401,0.42371 v -6.04453 h 5.008068 v 7.9446 l 1.00401,0.34426 v -8.9509 z"
     fill="#0aa8a7"
     opacity="0.1"
     id="path76"
     style="stroke-width:0.630895" />
  <path
     d="m 280.13692,153.3582 c 0,0 -14.33275,-0.95336 -12.62532,10.10289 a 2.4529224,2.7011641 0 0 0 1.27456,2.84681 c 0,0 0,-0.82095 1.46693,-0.54289 a 6.703452,7.3818578 0 0 0 1.55712,0.0794 3.2405028,3.5684495 0 0 0 1.90584,-0.86066 v 0 c 0,0 4.02808,-1.83389 5.59723,-9.08334 0,0 1.15432,-1.5823 1.11222,-1.98615 l -2.40482,1.13874 c 0,0 0.82966,1.91994 0.18037,3.51548 0,0 -0.0782,-3.44266 -0.5471,-3.36322 -0.0901,0 -1.25652,0.66205 -1.25652,0.66205 0,0 1.42485,3.34997 0.3487,5.7797 0,0 0.40881,-4.11795 -0.78759,-5.53474 l -1.74349,1.10562 c 0,0 1.66533,3.45591 0.53507,6.27623 0,0 0.2946,-4.32317 -0.88979,-6.00479 l -1.5451,1.32411 c 0,0 1.56314,3.40293 0.60122,5.74659 0,0 -0.12626,-5.03821 -0.94391,-5.42218 a 9.2706035,10.208811 0 0 0 -1.55711,1.85374 c 0,0 1.07013,2.46943 0.40881,3.77367 0,0 -0.40881,-3.34997 -0.74548,-3.36982 0,0 -1.3407,2.22448 -1.47898,3.7472 a 7.3226946,8.0637691 0 0 1 1.15431,-3.97232 4.0401075,4.4489761 0 0 0 -2.05612,1.17184 c 0,0 0.21042,-1.56906 2.40481,-1.7081 0,0 1.11225,-1.6816 1.41285,-1.78752 0,0 -2.17035,-0.19862 -3.48699,0.44358 0,0 1.16033,-1.483 3.88378,-0.80771 l 1.52106,-1.37044 c 0,0 -2.85573,-0.43034 -4.06416,0.0463 0,0 1.3888,-1.32409 4.47298,-0.35749 l 1.65933,-1.0924 a 15.138378,16.670419 0 0 0 -3.8838,-0.37074 c 0,0 1.52707,-0.90701 4.37077,0.0795 l 1.20242,-0.58923 c 0,0 -1.80362,-0.38399 -2.30263,-0.44357 -0.49898,-0.0596 -0.5531,-0.21847 -0.5531,-0.21847 a 6.1804023,6.8058742 0 0 1 3.34872,0.41047 c 0,0 2.49502,-1.04604 2.45291,-1.21817 z"
     fill="#0aa8a7"
     opacity="0.1"
     id="path78"
     style="stroke-width:0.630895" />
  <path
     d="m 242.51344,207.16302 c 0,0 -4.89985,14.85639 5.21244,16.21359 a 2.4469104,2.6945436 0 0 0 2.8317,-0.53626 c 0,0 -0.70342,-0.2582 -0.0541,-1.70808 a 6.8477415,7.5407496 0 0 0 0.51705,-1.61542 3.252527,3.5816906 0 0 0 -0.21644,-2.25758 v 0 c 0,0 -0.45092,-4.77338 -6.31868,-8.48749 0,0 -1.04609,-1.67499 -1.41284,-1.74119 l 0.30061,2.87993 c 0,0 1.90582,-0.33103 3.11425,0.80768 0,0 -3.00603,-0.89375 -3.08419,-0.37736 0,0.0993 0.22244,1.5161 0.22244,1.5161 0,0 3.31867,-0.55612 5.12831,1.27114 0,0 -3.47499,-1.60217 -5.04414,-0.73488 l 0.46895,2.10532 c 0,0 3.48099,-0.76798 5.61526,1.21816 0,0 -3.67938,-1.52932 -5.48299,-0.76134 l 0.71542,1.98614 c 0,0 3.40884,-0.66205 5.1764,0.98646 0,0 -4.42488,-1.3241 -4.98401,-0.54287 a 9.4629898,10.420667 0 0 0 1.16635,2.16489 c 0,0 2.45892,-0.4237 3.40283,0.66203 0,0 -3.0361,-0.523 -3.14432,-0.17873 0,0 1.55713,2.05235 2.84371,2.6482 a 7.3587671,8.1034921 0 0 1 -3.12026,-2.35029 4.0401075,4.4489761 0 0 0 0.43887,2.50918 c 0,0 -1.31062,-0.66205 -0.81162,-3.01232 0,0 -1.15432,-1.64852 -1.15432,-1.98616 0,0 -0.79358,2.23111 -0.60121,3.80679 0,0 -0.96193,-1.6485 0.39679,-4.32982 l -0.75751,-1.98613 c 0,0 -1.20241,2.89316 -1.11823,4.30994 0,0 -0.7455,-1.84712 0.96191,-4.83297 l -0.47495,-2.05897 a 14.988077,16.504906 0 0 0 -1.42485,3.97229 c 0,0 -0.36071,-1.8736 1.3046,-4.59462 l -0.17434,-1.4168 c 0,0 -0.84169,1.77431 -1.04008,2.31057 -0.1984,0.53626 -0.34871,0.5164 -0.34871,0.5164 a 6.1804023,6.8058742 0 0 1 1.30462,-3.4228 c 0,0 -0.19238,-2.95273 -0.35471,-2.95273 z"
     fill="#0aa8a7"
     opacity="0.1"
     id="path80"
     style="stroke-width:0.630895" />
  <path
     d="m 337.5221,194.63702 c 0,0 -4.89383,14.88288 5.21244,16.20699 a 2.4529224,2.7011641 0 0 0 2.83769,-0.54289 c 0,0 -0.70942,-0.25819 -0.0541,-1.70147 a 6.4329092,7.0839353 0 0 0 0.51103,-1.62202 3.252527,3.5816906 0 0 0 -0.21042,-2.2576 v 0 c 0,0 -0.45092,-4.77337 -6.31868,-8.48747 0,0 -1.05211,-1.66837 -1.41886,-1.73458 l 0.30663,2.8733 c 0,0 1.90582,-0.32441 3.11425,0.81432 0,0 -3.00603,-0.89376 -3.09021,-0.38398 0,0.10584 0.22245,1.51609 0.22245,1.51609 0,0 3.31865,-0.5495 5.13431,1.27115 0,0 -3.47498,-1.59555 -5.05013,-0.73489 l 0.47495,2.11193 c 0,0 3.48097,-0.77459 5.61525,1.21818 0,0 -3.68539,-1.53596 -5.48901,-0.76798 l 0.71543,1.98616 c 0,0 3.40884,-0.66205 5.1764,0.98645 0,0 -4.41888,-1.32409 -4.984,-0.53626 a 9.2766157,10.215431 0 0 0 1.2024,2.16491 c 0,0 2.45293,-0.43034 3.40284,0.66205 0,0 -3.03609,-0.52303 -3.14431,-0.17213 0,0 1.55111,2.04571 2.83769,2.64819 a 7.2926343,8.0306668 0 0 1 -3.11424,-2.35027 4.0701678,4.4820786 0 0 0 0.43286,2.50915 c 0,0 -1.30461,-0.66203 -0.80561,-3.00569 0,0 -1.15432,-1.65513 -1.16033,-1.98616 0,0 -0.78759,2.23773 -0.60121,3.80679 0,0 -0.96193,-1.64188 0.3968,-4.32981 l -0.75752,-1.98615 c 0,0 -1.20242,2.89317 -1.11824,4.30333 0,0 -0.74551,-1.8405 0.96193,-4.82635 l -0.48098,-2.0656 a 14.988077,16.504906 0 0 0 -1.42486,3.9723 c 0,0 -0.35471,-1.87358 1.31064,-4.59461 l -0.17436,-1.4168 c 0,0 -0.84167,1.77429 -1.04609,2.31055 -0.20441,0.53628 -0.3487,0.51641 -0.3487,0.51641 a 6.2224868,6.8522178 0 0 1 1.31063,-3.42281 c 0,0 -0.21643,-2.94612 -0.38476,-2.95273 z"
     fill="#0aa8a7"
     opacity="0.1"
     id="path82"
     style="stroke-width:0.630895" />
  <path
     d="m 201.70955,316.10996 c 0,0 -4.89983,14.86302 5.21246,16.22023 a 2.4408982,2.6879231 0 0 0 2.83169,-0.5429 c 0,0 -0.70342,-0.2582 -0.0541,-1.70146 a 6.4749935,7.1302786 0 0 0 0.51704,-1.62202 3.2104426,3.5353471 0 0 0 -0.21643,-2.2576 v 0 c 0,0 -0.45091,-4.77337 -6.31869,-8.48085 0,0 -1.04609,-1.67499 -1.41283,-1.7412 l 0.30061,2.8733 c 0,0 1.91184,-0.32441 3.11424,0.81432 0,0 -3.00603,-0.89376 -3.08419,-0.38399 0,0.10584 0.22246,1.5161 0.22246,1.5161 0,0 3.31865,-0.5495 5.12828,1.27115 0,0 -3.47497,-1.59555 -5.04412,-0.73488 l 0.46894,2.11192 c 0,0 3.48099,-0.77458 5.61527,1.21818 0,0 -3.67939,-1.53596 -5.483,-0.76798 l 0.71543,1.98614 c 0,0 3.40883,-0.66203 5.17638,0.98647 0,0 -4.41887,-1.32411 -4.98399,-0.53626 a 9.4629898,10.420667 0 0 0 1.16633,2.16491 c 0,0 2.45894,-0.43034 3.40885,0.66205 0,0 -3.04211,-0.52303 -3.15032,-0.17215 0,0 1.55713,2.04574 2.84371,2.64821 a 7.3166826,8.0571487 0 0 1 -3.12027,-2.34367 4.0220711,4.4291146 0 0 0 0.43889,2.50257 c 0,0 -1.31064,-0.66205 -0.81163,-3.00571 0,0 -1.14831,-1.65513 -1.15433,-1.98616 0,0 -0.79358,2.23773 -0.6012,3.80679 0,0 -0.96193,-1.64188 0.39679,-4.32982 l -0.75752,-1.98614 c 0,0 -1.2024,2.89315 -1.11223,4.30331 0,0 -0.74549,-1.84048 0.96193,-4.82633 l -0.48096,-2.05897 a 14.873848,16.379118 0 0 0 -1.42486,3.97229 c 0,0 -0.36073,-1.8802 1.30462,-4.59462 l -0.17435,-1.42341 c 0,0 -0.84169,1.77429 -1.04009,2.31055 -0.19839,0.53627 -0.34869,0.51641 -0.34869,0.51641 a 6.1563541,6.7793921 0 0 1 1.31062,-3.42281 c 0,0 -0.19839,-2.96597 -0.36073,-2.96597 z"
     fill="#0aa8a7"
     opacity="0.1"
     id="path84"
     style="stroke-width:0.630895" />
  <path
     d="m 182.26654,176.02679 c 0,0 -4.89383,14.85641 5.21245,16.2136 a 2.4589343,2.7077846 0 0 0 2.8377,-0.53624 c 0,0 -0.70943,-0.25821 -0.0541,-1.7081 a 6.7395244,7.4215806 0 0 0 0.51103,-1.62202 3.2344908,3.5618291 0 0 0 -0.21042,-2.25098 v 0 c 0,0 -0.4509,-4.77338 -6.32469,-8.48748 0,0 -1.0461,-1.67498 -1.41283,-1.74119 l 0.30661,2.87991 c 0,0 1.90582,-0.33102 3.10824,0.80771 0,0 -3.00604,-0.89376 -3.0842,-0.37737 0,0.0992 0.22247,1.51609 0.22247,1.51609 0,0 3.31864,-0.55611 5.13429,1.27115 0,0 -3.47498,-1.60218 -5.05013,-0.73489 l 0.46894,2.10534 c 0,0 3.48098,-0.77462 5.62127,1.21816 0,0 -3.6854,-1.53596 -5.48901,-0.76136 l 0.71542,1.98614 c 0,0 3.40886,-0.66204 5.1764,0.99308 0,0 -4.41886,-1.32409 -4.984,-0.54288 a 9.4629898,10.420667 0 0 0 1.16634,2.16491 c 0,0 2.45893,-0.42372 3.40884,0.66205 0,0 -3.03609,-0.52303 -3.14431,-0.17876 0,0 1.55111,2.05236 2.83769,2.64821 a 7.3948394,8.1432153 0 0 1 -3.12025,-2.35029 4.0401075,4.4489761 0 0 0 0.43887,2.50917 c 0,0 -1.31063,-0.66206 -0.80561,-3.01233 0,0 -1.15432,-1.6485 -1.16033,-1.98614 0,0 -0.78757,2.23111 -0.6012,3.80679 0,0 -0.96795,-1.64852 0.39679,-4.32982 l -0.76353,-1.98614 c 0,0 -1.20241,2.89317 -1.11223,4.30995 0,0 -0.7455,-1.84713 0.96193,-4.83297 l -0.48097,-2.05898 a 14.988077,16.504906 0 0 0 -1.42485,3.9723 c 0,0 -0.35471,-1.8736 1.30462,-4.59464 l -0.16834,-1.41677 c 0,0 -0.84771,1.77429 -1.04611,2.30393 -0.19839,0.52964 -0.34869,0.52302 -0.34869,0.52302 a 6.1563541,6.7793921 0 0 1 1.31062,-3.4228 c 0,0 -0.18637,-2.95936 -0.35471,-2.95936 z"
     fill="#0aa8a7"
     opacity="0.1"
     id="path86"
     style="stroke-width:0.630895" />
  <path
     d="m 218.60345,256.92931 c 0,0 3.78159,15.22715 12.75158,9.93074 a 2.4469104,2.6945436 0 0 0 2.03209,-2.23772 c 0,0 -0.70942,0.23833 -0.93187,-1.35721 a 6.6132709,7.2825502 0 0 0 -0.43287,-1.6485 3.1803822,3.5022446 0 0 0 -1.35272,-1.70809 v 0 c 0,0 -2.86776,-3.6148 -9.6193,-2.92627 0,0 -1.73147,-0.69515 -2.06814,-0.51639 l 1.75552,2.15166 c 0,0 1.38878,-1.47637 2.96996,-1.32409 0,0 -2.93991,1.19168 -2.72348,1.6485 0.0481,0.0927 0.97397,1.099 0.97397,1.099 0,0 2.40482,-2.56213 4.85775,-2.22449 0,0 -3.67337,0.90039 -4.50304,2.60848 l 1.48497,1.42341 c 0,0 2.44089,-2.8402 5.23049,-2.57538 0,0 -3.81765,1.08576 -4.8878,2.86007 l 1.63529,1.18506 c 0,0 2.40483,-2.72103 4.74952,-2.47607 0,0 -4.29261,1.74119 -4.35875,2.72102 a 9.3728088,10.32136 0 0 0 2.09221,1.02619 c 0,0 1.80361,-1.90671 3.12027,-1.63529 0,0 -2.75955,1.50287 -2.66336,1.85375 0,0 2.34471,0.66206 3.69743,0.34426 a 7.3347188,8.0770102 0 0 1 -3.77558,0.0662 4.004035,4.4092531 0 0 0 1.67136,1.76767 c 0,0 -1.41887,0.28467 -2.2365,-1.94642 0,0 -1.80361,-0.61572 -1.99601,-0.89377 0,0 0.52907,2.3304 1.50303,3.49561 0,0 -1.6473,-0.73486 -1.9419,-3.79354 l -1.66534,-1.14534 c 0,0 0.54708,3.11825 1.34069,4.22387 0,0 -1.57517,-1.0328 -1.7435,-4.55491 l -1.46695,-1.37704 a 15.030162,16.55125 0 0 0 0.92585,4.1709 c 0,0 -1.26853,-1.32411 -1.33466,-4.58139 l -0.88378,-1.05265 c 0,0 0.24048,1.98614 0.35471,2.54887 0.11416,0.56276 0,0.66207 0,0.66207 a 6.1743905,6.7992537 0 0 1 -0.72145,-3.62803 c 0,0 -1.70141,-2.28408 -1.83969,-2.18477 z"
     fill="#0aa8a7"
     opacity="0.1"
     id="path88"
     style="stroke-width:0.630895" />
  <path
     d="m 321.19332,270.52781 c 0,0 3.78158,15.22715 12.74559,9.93075 a 2.4408982,2.6879231 0 0 0 2.03808,-2.23773 c 0,0 -0.71544,0.23834 -0.93788,-1.32409 a 6.3186799,6.9581457 0 0 0 -0.42686,-1.64851 3.2224665,3.5485882 0 0 0 -1.35872,-1.70809 v 0 c 0,0 -2.86776,-3.61479 -9.61931,-2.91965 0,0 -1.73148,-0.70177 -2.06214,-0.52301 l 1.74951,2.15166 c 0,0 1.38878,-1.47637 2.96997,-1.32411 0,0 -2.93991,1.1917 -2.71746,1.64851 0.042,0.0927 0.97395,1.09901 0.97395,1.09901 0,0 2.40483,-2.56214 4.85775,-2.22449 0,0 -3.67938,0.90039 -4.50905,2.60847 l 1.49099,1.42342 c 0,0 2.40483,-2.8402 5.22448,-2.57537 0,0 -3.81164,1.08574 -4.88179,2.86004 l 1.63529,1.18507 c 0,0 2.40481,-2.72101 4.74351,-2.47606 0,0 -4.29261,1.74119 -4.35273,2.72102 a 9.3006641,10.241914 0 0 0 2.08618,1.02618 c 0,0 1.80363,-1.9067 3.12027,-1.63526 0,0 -2.75352,1.50285 -2.66336,1.85374 0,0 2.34472,0.66206 3.70344,0.34427 a 7.3647791,8.1101126 0 0 1 -3.78158,0.0662 4.0461194,4.4555967 0 0 0 1.67135,1.76767 c 0,0 -1.41886,0.28468 -2.23649,-1.94642 0,0 -1.80363,-0.61571 -1.98998,-0.89377 0,0 0.52304,2.33042 1.49699,3.49563 0,0 -1.64731,-0.73489 -1.9419,-3.79355 l -1.66533,-1.15859 c 0,0 0.54709,3.11824 1.3467,4.22388 0,0 -1.57517,-1.0328 -1.7435,-4.55491 l -1.47296,-1.37706 a 14.843787,16.346015 0 0 0 0.93187,4.17092 c 0,0 -1.27456,-1.32411 -1.3407,-4.58139 l -0.88377,-1.05267 c 0,0 0.24049,1.98616 0.35471,2.54889 0.11431,0.56275 0,0.66205 0,0.66205 a 6.1743905,6.7992537 0 0 1 -0.72144,-3.62802 c 0,0 -1.69541,-2.30393 -1.83368,-2.20463 z"
     fill="#0aa8a7"
     opacity="0.1"
     id="path90"
     style="stroke-width:0.630895" />
  <path
     d="m 282.70409,423.44812 c 0,0 31.19059,-11.56601 24.73363,-52.5469 l -39.6195,-11.32767 -9.19847,33.62551 z"
     fill="#ced7e7"
     id="path92"
     style="stroke-width:0.630895" />
  <path
     d="m 258.61975,393.19906 24.07832,30.24906 c 0,0 31.19059,-11.56601 24.73363,-52.5469 z"
     opacity="0.1"
     id="path94"
     style="stroke-width:0.630895" />
  <path
     d="m 127.55675,90.443586 c 0,0 4.20845,7.54075 9.96198,3.77368 5.75355,-3.76707 0.23447,-14.1745 0.23447,-14.1745 0,0 -11.0201,-1.66173 -10.19645,10.40082 z"
     fill="#fed253"
     id="path96"
     style="stroke-width:0.630895" />
  <path
     d="m 137.51873,94.217266 a 5.9339078,6.5344335 0 0 1 -4.6353,0.86065 c -2.11023,-0.58921 -3.73349,-2.37674 -4.60524,-3.54856 a 10.040148,11.056235 0 0 1 -0.72144,-1.07916 c -0.29459,-4.30332 0.91984,-6.86546 2.60321,-8.37493 v 0 c 2.31465,-2.0722 5.51909,-2.15828 6.90186,-2.09207 0.42685,0 0.67334,0.0662 0.67334,0.0662 l 0.11416,0.21185 c 0.16232,0.33765 0.51705,1.08576 0.8958,2.08547 1.28659,3.27715 2.81965,9.21574 -1.22646,11.87055 z"
     opacity="0.1"
     id="path98"
     style="stroke-width:0.630895" />
  <path
     d="m 285.77024,368.97465 21.64344,1.92657 40.28081,0.36411 -31.73767,43.03326 c 0,0 -10.07022,0.60246 -12.14439,2.16491 -2.07414,1.56242 -31.19659,0.72824 -31.19659,0.72824 l -4.70144,-22.0595 z"
     fill="#ffa2a2"
     id="path100"
     style="stroke-width:0.630895" />
  <path
     d="m 285.77024,368.97465 21.64344,1.92657 40.28081,0.36411 -31.73767,43.03326 c 0,0 -10.07022,0.60246 -12.14439,2.16491 -2.07414,1.56242 -31.19659,0.72824 -31.19659,0.72824 l -4.70144,-22.0595 z"
     opacity="0.05"
     id="path102"
     style="stroke-width:0.630895" />
  <path
     d="m 263.88031,253.27479 5.0321,9.40111 1.09421,16.39235 c 0,0 3.50501,13.97588 6.13228,18.07398 2.62728,4.09807 3.72146,14.94909 3.72146,14.94909 0,0 1.09421,10.12273 2.40483,12.28763 1.31065,2.16491 3.06616,17.87535 3.06616,17.87535 0,0 11.60329,25.54852 22.10637,28.68001 0,0 -52.09453,18.80222 -24.73363,52.54691 0,0 -19.4791,5.29639 -24.07832,-0.72162 -4.59924,-6.01804 -16.63539,-95.20941 -16.63539,-95.20941 l 3.72147,-75.20889 z"
     fill="#ced7e7"
     id="path104"
     style="stroke-width:0.630895" />
  <path
     d="m 263.88031,253.27479 5.0321,9.40111 1.09421,16.39235 c 0,0 3.50501,13.97588 6.13228,18.07398 2.62728,4.09807 3.72146,14.94909 3.72146,14.94909 0,0 1.09421,10.12273 2.40483,12.28763 1.31065,2.16491 3.06616,17.87535 3.06616,17.87535 0,0 11.60329,25.54852 22.10637,28.68001 0,0 -52.09453,18.80222 -24.73363,52.54691 0,0 -19.4791,5.29639 -24.07832,-0.72162 -4.59924,-6.01804 -16.63539,-95.20941 -16.63539,-95.20941 l 3.72147,-75.20889 z"
     opacity="0.05"
     id="path106"
     style="stroke-width:0.630895" />
  <path
     d="m 200.67548,161.65368 a 46.894103,51.639901 0 0 0 1.26252,25.09171 l -8.10427,25.5485 c 0,0 -61.72585,-37.84277 -56.47131,-47.00555 2.97597,-5.19709 3.35473,-18.94787 3.11424,-29.87169 -0.17434,-8.30212 -0.70942,-14.96233 -0.70942,-14.96233 0,0 75.75201,8.20281 65.66979,27.24334 a 40.815907,44.946576 0 0 0 -4.76155,13.95602 z"
     fill="#ffa2a2"
     id="path108"
     style="stroke-width:0.630895" />
  <path
     d="m 205.43703,147.69766 a 40.815907,44.946576 0 0 0 -4.76155,13.95602 51.072489,56.241149 0 0 1 -60.19882,-26.23703 c -0.17434,-8.30212 -0.70942,-14.96233 -0.70942,-14.96233 0,0 75.73399,8.20281 65.66979,27.24334 z"
     opacity="0.1"
     id="path110"
     style="stroke-width:0.630895" />
  <path
     d="M 236.08052,106.71677 A 51.006355,56.168324 0 1 1 143.45865,74.276326 q 1.08218,-1.67499 2.27857,-3.27053 a 51.018381,56.181564 0 0 1 16.59933,-14.5651 v 0 a 50.104547,55.175249 0 0 1 10.91189,-4.35628 51.102549,56.27425 0 0 1 62.20683,45.63508 51.607563,56.830373 0 0 1 0.62525,8.997274 z"
     fill="#ffa2a2"
     id="path112"
     style="stroke-width:0.630895" />
  <path
     d="m 256.21492,337.64643 c -0.76353,4.48871 0.1924,12.69151 1.64129,21.03997 0.0602,0.36411 0.12626,0.72824 0.1924,1.09237 0.0661,0.36413 0.16233,0.92687 0.24649,1.38369 0.66734,3.5883 1.3948,7.14352 2.10423,10.37433 0.70942,3.23079 1.3467,5.99817 1.88779,8.27561 0.81763,3.40956 1.37675,5.55461 1.37675,5.55461 0,0 0.0721,2.10532 0.16834,5.45529 0.0541,1.93318 0.11431,4.29009 0.17435,6.89195 0,0.75473 0.042,1.5227 0.0602,2.31717 0.0301,1.38367 0.0602,2.82032 0.0901,4.29007 0,0.47669 0,0.95336 0.0299,1.43665 0,1.58231 0.0541,3.19771 0.0782,4.80648 0.0301,2.21125 0.0541,4.42251 0.0661,6.56754 0,0.82094 0,1.62865 0,2.42312 0,2.05235 0,4.01863 0,5.82603 -0.0661,5.13089 -0.25251,9.00389 -0.64932,10.12274 -0.13835,0.384 -0.26451,0.80108 -0.38477,1.23803 a 38.014284,41.861421 0 0 0 -1.13026,6.26963 l -1.02205,-0.92027 c -1.95392,-1.77429 -3.8898,-3.5883 -5.85575,-5.34936 a 85.130834,93.746283 0 0 0 -10.37682,-8.19617 c -0.24651,-0.1589 -0.493,-0.31779 -0.7455,-0.47007 -0.67335,-0.43032 -1.35873,-0.83418 -2.05612,-1.21816 a 47.080479,51.845136 0 0 0 -4.41287,-2.14504 c -6.94393,-2.91302 -14.38085,-3.9723 -21.91998,-3.79355 -3.00603,1.26452 -4.95996,2.17152 -4.95996,2.17152 l -3.82367,1.27114 -0.63728,0.21186 c -4.14231,1.3903 -9.968,3.3632 -12.06621,4.18416 -3.39081,1.32408 -32.83188,8.07037 -32.83188,8.07037 a 48.908145,53.857768 0 0 1 -8.21249,1.65514 115.95469,127.68958 0 0 1 -15.39689,3.54858 85.792161,94.47454 0 0 1 -35.23672,-3.12487 5.759558,6.3424391 0 0 1 -1.02205,-0.0331 c 0.21043,0 0.41483,-0.0529 0.6012,-0.0927 l -0.73347,-0.23835 -1.004,-0.34426 q -2.525063,-0.8739 -5.008062,-1.91332 l -1.00401,-0.42372 q -2.404827,-1.01955 -4.707439,-2.19137 l -1.004026,-0.50318 q -2.404826,-1.23139 -4.707439,-2.60184 c -0.553104,-0.31779 -1.100206,-0.66205 -1.64129,-0.98646 q -2.452925,-1.50949 -4.809653,-3.1646 c -0.264532,-2.49592 -0.402823,-4.16429 -0.402823,-4.16429 l -2.344708,-12.85701 -0.120207,-0.66205 -1.683371,-9.26871 -0.120207,-0.66205 -3.661333,-20.16605 -0.120207,-0.66205 -1.683386,-9.26869 -0.120207,-0.66205 -3.709431,-20.1528 -0.120208,-0.66205 -1.68337,-9.26869 -0.120208,-0.66205 -3.679386,-20.19253 -0.120208,-0.66205 -1.683386,-9.23559 -0.120207,-0.66206 -0.667324,-3.64129 -1.004026,-5.51486 c 0,0 -3.204439,-5.04482 -6.811671,-11.0099 l -0.402778,-0.66205 c -1.028067,-1.67498 -2.086194,-3.41617 -3.114261,-5.12426 -0.342689,-0.56276 -0.673342,-1.11887 -1.004011,-1.66838 q -0.751509,-1.25127 -1.454941,-2.44296 l -0.324636,-0.5495 -0.06608,-0.1125 c -5.182401,-8.83174 -1.713445,-12.67163 -1.713445,-12.67163 0,0 2.176357,-3.24404 4.984006,-7.53413 0.138352,-0.21847 0.28257,-0.43695 0.432867,-0.66206 1.202406,-1.85373 2.525079,-3.87961 3.823681,-5.90547 l 1.004011,-1.57569 c 0.378751,-0.58921 0.751499,-1.17845 1.112227,-1.76106 0.144249,-0.21846 0.28257,-0.44355 0.414844,-0.66204 2.771557,-4.40925 5.05613,-8.25576 5.525075,-9.61958 0.733476,-2.15167 5.410855,-8.51397 10.070211,-14.09505 3.673369,-4.40925 7.328714,-8.32859 8.970005,-9.2687 3.721466,-2.16489 5.25454,-9.16277 5.25454,-9.16277 0,0 8.098252,-3.12488 9.192456,-5.53474 1.094189,-2.40986 16.418952,-13.24099 16.418952,-13.24099 0,0 6.19844,-4.39602 8.70547,-7.04423 a 5.1282912,5.6472866 0 0 0 0.91984,-1.18506 c 0.87175,-1.72132 6.56517,-3.13812 8.87981,-3.64789 0.60121,-0.13245 0.97396,-0.20524 0.97396,-0.20524 a 19.593318,21.57621 0 0 1 3.50505,-5.06468 c 0.94388,-0.92026 2.12224,-4.09147 3.11425,-7.16338 1.07615,-3.34998 1.91182,-6.57416 1.91182,-6.57416 1.75553,-6.50795 5.25456,-4.58138 5.25456,-4.58138 a 12.024129,13.241 0 0 0 0.22845,2.64819 v 0 c 1.46092,7.94461 9.39686,11.25485 13.56321,14.96895 4.59924,4.09148 11.81973,14.70413 17.51315,16.86904 4.71345,1.79415 10.17842,8.56031 11.90991,10.81789 l 0.1323,0.17213 c 0.28857,0.37075 0.43285,0.58261 0.43285,0.58261 0,0 3.2285,-0.18538 5.19444,-0.22509 h 0.71544 a 2.0921985,2.3039342 0 0 0 1.0942,-0.48991 c 1.95391,-1.46315 4.86376,-5.75323 6.13231,-6.73969 1.52704,-1.21155 3.06614,-20.73541 3.06614,-20.73541 l 0.0782,-0.0396 c 5.45293,-2.8137 11.30266,25.3499 11.30266,25.3499 0,0 10.28664,3.37645 11.1644,5.78631 0.16835,0.47669 0.94391,1.3241 2.11025,2.35029 a 115.67213,127.37842 0 0 0 16.8939,11.81759 c 0.13231,0.0727 0.25852,0.14561 0.39079,0.20524 a 4.0100471,4.4158735 0 0 0 0.36673,0.19198 c 0.22244,0.11915 0.43887,0.2251 0.64328,0.32441 q 0.48699,0.23835 0.90182,0.39723 l 0.36072,0.13896 a 8.6934457,9.5732429 0 0 1 2.40483,1.37044 c 0.21643,0.17213 0.43287,0.35088 0.64328,0.54288 a 16.990095,18.709534 0 0 1 2.24853,2.4893 c 0.10221,0.13246 0.19839,0.27145 0.29459,0.40386 v 0 c 0.45691,0.62894 0.86573,1.25127 1.20241,1.82727 a 24.583331,27.071224 0 0 1 1.50901,2.76737 c 0,0 8.97002,16.87563 11.81974,18.79559 2.84971,1.91995 4.59922,21.45705 4.59922,21.45705 v 0 l -9.61931,39.26618 c 0,0 -0.45089,9.93075 -1.2926,20.0601 -0.46892,5.68039 -1.06412,11.46009 -1.77354,15.61777 z"
     fill="#ced7e7"
     id="path114"
     style="stroke-width:0.630895" />
  <path
     d="m 183.76354,195.90815 c 0,0 -6.45095,3.85314 -11.48905,4.21727 a 9.469002,10.427288 0 0 1 -1.97196,-0.12581 c -5.2786,-0.8805 -13.02213,-5.6605 -13.02213,-5.6605 l 9.08423,-10.97018 11.05016,6.03127 4.06416,4.1643 z"
     fill="#63667e"
     id="path116"
     style="stroke-width:0.630895" />
  <path
     d="m 235.43122,97.719496 a 6.048137,6.6602232 0 0 1 -0.77556,0.98648 c -3.16236,3.310254 -8.77761,1.939794 -13.08826,1.17181 a 47.663648,52.487324 0 0 1 -10.89988,-3.46913 c -3.04209,-1.43002 -6.69142,-3.17785 -9.4269,-1.12549 -1.05212,0.78121 -1.77357,2.0325 -2.86775,2.72102 -1.09421,0.68854 -2.48902,0.73488 -3.7816,0.75474 -4.20844,0 -8.4169,0.0529 -12.52314,-0.99307 -6.12629,-1.57568 -12.46302,-5.54136 -18.28869,-2.92626 -4.55715,2.0391 -7.02812,7.501024 -8.26058,12.751074 -0.6012,2.57539 -1.04611,5.29641 -2.40483,7.48117 -1.35872,2.18477 -3.986,3.73398 -6.22249,2.70778 -3.30062,-1.51608 -3.7876,-7.68638 -7.7676,-7.99755 -4.37075,-0.33765 -4.31665,4.63435 -3.04209,8.22929 1.8878,5.29639 4.35875,10.59279 4.46697,16.11429 a 51.036416,56.201426 0 0 1 2.90983,-59.875804 5.4950269,6.0511372 0 0 0 2.17037,-2.79386 3.7936127,4.1775356 0 0 0 0.10826,-0.47668 c 0.33067,-1.84713 -0.6012,-3.78692 -0.65532,-5.7201 -0.21043,-4.72043 4.43089,-8.01081 8.68744,-8.60666 2.83167,-0.39723 5.7295,-0.0927 8.56719,-0.19198 v 0 a 19.382896,21.344493 0 0 0 4.2385,-0.62235 20.386911,22.450116 0 0 0 6.61327,-3.74057 51.102549,56.27425 0 0 1 62.20684,45.63512 z"
     opacity="0.1"
     id="path118"
     style="stroke-width:0.630895" />
  <path
     d="m 236.45929,93.820036 a 6.6132709,7.2825502 0 0 1 -1.80363,3.44266 c -3.16236,3.310254 -8.77761,1.93319 -13.08826,1.16521 a 47.068454,51.831895 0 0 1 -10.89988,-3.44266 c -3.04209,-1.42341 -6.69142,-3.17122 -9.4269,-1.11887 -1.05212,0.78122 -1.77357,2.03251 -2.86775,2.72103 -1.09421,0.68852 -2.48902,0.73488 -3.7816,0.74811 -4.20844,0.0331 -8.4169,0.0596 -12.52314,-0.98645 -6.12629,-1.58229 -12.46302,-5.54135 -18.28869,-2.93288 -4.55715,2.03911 -7.02812,7.507654 -8.26058,12.757704 -0.6012,2.57537 -1.04611,5.29641 -2.40483,7.47455 -1.35872,2.17815 -3.986,3.74058 -6.22249,2.7144 -3.30062,-1.51609 -3.7876,-7.68639 -7.7676,-7.99757 -4.37075,-0.33765 -4.31665,4.63435 -3.04209,8.22929 2.23649,6.26962 5.27859,12.50613 4.28059,19.15311 -0.99199,0 -2.63328,-0.0396 -3.60723,-0.0662 0.75752,-1.42341 -0.68538,-3.11826 -2.12227,-3.60156 -1.43688,-0.48328 -3.11425,-0.47666 -4.20844,-1.62864 -1.0942,-1.15196 -1.1002,-2.93288 -0.98597,-4.52841 a 28.298787,31.162694 0 0 1 2.24248,-9.89104 c 0.78759,-1.98615 1.80364,-4.1378 1.20242,-6.21665 a 16.040188,17.663494 0 0 0 -1.2986,-2.70778 c -1.25052,-2.6482 -0.95591,-5.95845 0.11416,-8.692714 0.45691,-1.16521 0.78758,-2.26422 1.16634,-3.31027 a 13.370832,14.723992 0 0 1 2.0501,-4.12456 c 1.37676,-1.88684 2.72346,-4.72703 1.20243,-6.48147 -0.38477,-0.44357 0.38476,-0.74811 0.1382,-1.32409 a 1.028063,1.1321056 0 0 1 -0.0901,-0.31117 2.7294774,3.0057071 0 0 1 0.43287,-1.98615 4.4068433,4.8528266 0 0 1 0.23447,-0.44358 3.4208647,3.7670646 0 0 1 0.23447,-0.43695 19.112354,21.046571 0 0 1 5.20044,-6.24314 c 1.30462,-1.03941 2.83168,-2.03911 3.34872,-3.72071 0.6012,-1.98616 -0.45693,-4.09809 -0.5471,-6.19679 -0.21042,-4.72041 4.4309,-8.01081 8.68743,-8.60666 4.25655,-0.59583 8.6694,0.39062 12.81773,-0.82093 5.88581,-1.70809 10.02211,-7.42819 15.36683,-10.63913 a 21.757661,23.95959 0 0 1 19.11836,-0.75475 c 6.24052,3.13812 10.94798,9.48054 17.46506,11.86393 2.30861,0.84744 4.80965,1.18508 6.88981,2.58861 2.40483,1.62865 3.86576,4.47547 5.11627,7.28256 1.90583,4.25698 2.2906,8.53382 3.60724,13.0424 1.04609,3.57505 2.49502,8.24912 2.61526,12.36709 a 11.254585,12.393576 0 0 1 -0.29461,3.66112 z"
     fill="#896363"
     id="path120"
     style="stroke-width:0.630895" />
  <g
     opacity="0.1"
     id="g136"
     transform="matrix(0.60120647,0,0,0.66205002,33.666322,3.5759891)">
    <path
       d="m 235.54,183.71 a 4.45,4.45 0 0 0 -0.75,-3.74 c 0.26,0.78 -0.87,1.23 -0.25,1.88 a 4,4 0 0 1 1,1.86 z"
       transform="translate(-63.83,-59.93)"
       id="path122" />
    <path
       d="m 234.76,177.68 v 0 a 4.13,4.13 0 0 0 -0.21,1.08 c 0.19,-0.32 0.45,-0.65 0.21,-1.08 z"
       transform="translate(-63.83,-59.93)"
       id="path124" />
    <path
       d="m 398.42,199 c -5.27,5 -14.6,2.93 -21.79,1.76 a 77.76,77.76 0 0 1 -18.11,-5.23 c -5.07,-2.16 -11.13,-4.8 -15.69,-1.7 -1.74,1.18 -2.94,3.07 -4.77,4.11 -1.83,1.04 -4.14,1.11 -6.29,1.13 -7,0 -14,0.09 -20.84,-1.5 -10.18,-2.38 -20.72,-8.35 -30.41,-4.42 -7.58,3.09 -11.69,11.34 -13.74,19.27 -1,3.89 -1.73,8 -4,11.3 -2.27,3.3 -6.64,5.64 -10.35,4.1 -5.49,-2.3 -6.3,-11.61 -12.92,-12.08 -5.17,-0.37 -6.61,3.33 -6.26,7.44 0.3,-3.14 2,-5.56 6.26,-5.26 6.62,0.47 7.43,9.79 12.92,12.08 3.71,1.55 8.09,-0.78 10.35,-4.1 2.26,-3.32 3,-7.41 4,-11.29 2.05,-7.93 6.16,-16.19 13.74,-19.27 9.69,-3.94 20.23,2 30.41,4.42 6.8,1.59 13.86,1.54 20.84,1.49 2.15,0 4.42,-0.06 6.29,-1.12 1.87,-1.06 3,-2.93 4.77,-4.12 4.56,-3.09 10.62,-0.45 15.69,1.7 a 78.27,78.27 0 0 0 18.11,5.24 c 7.19,1.16 16.52,3.25 21.79,-1.77 2.86,-2.73 3.72,-6.68 3.53,-11 -0.16,3.43 -1.16,6.54 -3.53,8.82 z"
       transform="translate(-63.83,-59.93)"
       id="path126" />
    <path
       d="m 249.48,149.14 a 10.63,10.63 0 0 0 -0.06,1.5 c 0.1,2.08 0.89,4.16 1.14,6.19 0.37,-2.49 -0.78,-5.09 -1.08,-7.69 z"
       transform="translate(-63.83,-59.93)"
       id="path128" />
    <path
       d="m 229.16,220.09 a 7.36,7.36 0 0 1 0.19,0.91 7.18,7.18 0 0 0 -0.19,-3.09 25.93,25.93 0 0 0 -2.16,-4.1 12.35,12.35 0 0 1 -1.31,-4.75 13.17,13.17 0 0 0 1.31,6.94 25.41,25.41 0 0 1 2.16,4.09 z"
       transform="translate(-63.83,-59.93)"
       id="path130" />
    <path
       d="m 241.57,257.07 -5.85,-0.09 a 2.51,2.51 0 0 1 -0.18,2.18 c 1.65,0 4.39,0.06 6,0.1 a 24.5,24.5 0 0 0 0.29,-5.18 23.45,23.45 0 0 1 -0.26,2.99 z"
       transform="translate(-63.83,-59.93)"
       id="path132" />
    <path
       d="m 232,251.54 c -2.39,-0.72 -5.17,-0.73 -6.95,-2.48 a 6.34,6.34 0 0 1 -1.66,-4.19 c -0.15,2.3 0,4.78 1.66,6.38 1.78,1.75 4.56,1.76 6.95,2.48 a 5.94,5.94 0 0 1 3.63,3 c 1.01,-2.07 -1.31,-4.5 -3.63,-5.19 z"
       transform="translate(-63.83,-59.93)"
       id="path134" />
  </g>
  <path
     d="m 244.14871,428.07584 c -0.67334,-0.43032 -1.35872,-0.83418 -2.05613,-1.21816 a 47.080479,51.845136 0 0 0 -4.41285,-2.14504 c -6.94393,-2.91302 -14.38086,-3.9723 -21.91997,-3.79355 -3.00605,1.26452 -4.95997,2.17152 -4.95997,2.17152 l -3.82366,1.27114 -0.63729,0.21186 c -0.042,-0.46344 -0.0901,-0.92687 -0.1323,-1.39692 -0.042,-0.47006 -0.0901,-0.92027 -0.13835,-1.3837 -1.3467,-14.04208 -2.40483,-28.46814 -2.40483,-28.46814 v -12.45978 -1.44988 l -0.0721,-36.71069 -0.60122,-12.10227 -0.28255,-5.35599 -0.0541,-1.01955 -0.10826,-2.09208 -0.0602,-1.24466 a 10.160389,11.188645 0 0 1 -0.33667,-1.20494 v 0 c -0.042,-0.1655 -0.0842,-0.35086 -0.12021,-0.54286 -0.15029,-0.66205 -0.31262,-1.5161 -0.48096,-2.44296 -1.10021,-6.09087 -2.47698,-16.35926 -2.56114,-18.44473 -0.10826,-2.78062 -2.2966,-19.4113 -2.2966,-19.4113 -0.22246,-9.15616 -7.21448,-26.39594 -8.97602,-29.6466 -1.76154,-3.25066 -3.72748,-22.78114 -3.06616,-23.8338 0.34269,-0.56273 0.56514,-3.89285 0.70342,-6.96476 0,-0.3509 0.0301,-0.69516 0.042,-1.0328 0.0901,-2.40326 0.1323,-4.40925 0.1323,-4.40925 l 6.87781,-1.49624 1.84571,-0.39723 0.14424,-0.0331 0.0602,0.13245 c 0.1984,0.40387 0.81765,1.69486 1.54511,3.3897 0.0842,0.17877 0.16232,0.37076 0.2465,0.56275 0.0361,0.0927 0.078,0.18537 0.1202,0.27806 1.3467,3.24404 2.90383,7.51427 2.83768,9.97048 -0.10826,4.34304 4.3828,14.82992 4.3828,14.82992 0.43289,2.40986 9.95598,26.38931 9.95598,26.38931 0,0 7.77362,23.50277 7.33473,27.36254 -0.43888,3.85974 3.72147,29.40824 3.72147,29.40824 l 4.26855,26.27677 c 2.07418,5.17723 4.80967,17.10737 4.80967,17.10737 l 1.04009,6.76616 0.19839,1.291 2.77156,18.05411 1.35872,8.84497 c 0,0 0.57116,4.70057 1.43688,9.93075 0.0721,0.47007 0.15633,0.94674 0.24049,1.42341 a 66.168782,72.865225 0 0 0 2.26655,10.16246 34.551334,38.048015 0 0 1 1.16033,4.86608 z"
     opacity="0.1"
     id="path138"
     style="stroke-width:0.630895" />
  <path
     d="m 244.89421,428.54591 c -0.24649,-0.1589 -0.49299,-0.31779 -0.7455,-0.47007 -0.67334,-0.43032 -1.35872,-0.83418 -2.05613,-1.21816 a 47.080479,51.845136 0 0 0 -4.41285,-2.14504 c -6.94393,-2.91302 -14.38086,-3.9723 -21.91997,-3.79355 -3.00605,1.26452 -4.95997,2.17152 -4.95997,2.17152 l -3.82366,1.27114 c -0.0481,-0.46342 -0.0901,-0.92686 -0.13836,-1.39692 -0.0481,-0.47007 -0.0842,-0.84743 -0.1202,-1.27113 -1.3467,-14.00898 -2.40483,-28.36885 -2.40483,-28.36885 v -12.57894 -1.4499 l -0.0721,-36.61799 -0.60121,-11.55939 -0.1202,-2.39663 -0.0841,-1.62203 -0.10827,-2.14504 -0.10826,-2.17814 -0.0782,-1.56904 v -0.34428 c 0,-0.0331 0,-0.0727 -0.042,-0.1125 -0.11416,-0.3575 -0.25251,-0.90039 -0.4028,-1.58893 l -0.0721,-0.33101 c -0.0301,-0.15228 -0.0661,-0.31779 -0.0962,-0.48331 -1.13029,-5.64728 -2.7896,-17.82237 -2.87978,-20.10645 -0.10826,-2.78061 -2.29661,-19.41131 -2.29661,-19.41131 -0.22245,-9.15616 -7.21448,-26.39594 -8.97602,-29.64659 -1.76153,-3.25067 -3.72145,-22.78114 -3.06615,-23.83381 0.37877,-0.66204 0.60121,-4.6807 0.7455,-7.99756 0,-0.26482 0,-0.52303 0,-0.76798 0.078,-2.04575 0.10826,-3.64129 0.10826,-3.64129 l 6.39683,-1.39029 1.62327,-0.3509 0.25251,-0.0529 0.6012,-0.13245 c 0,0 0.78758,1.60217 1.73147,3.80679 l 0.12021,0.27806 c 1.37676,3.27053 3.00601,7.7195 2.95793,10.24853 -0.10826,4.34305 4.38279,14.82994 4.38279,14.82994 0.43286,2.40986 9.95597,26.38931 9.95597,26.38931 0,0 7.7736,23.50276 7.33472,27.36252 -0.43887,3.85974 3.72148,29.40825 3.72148,29.40825 l 4.26857,26.27677 c 2.07416,5.17723 4.80964,17.10738 4.80964,17.10738 l 0.96795,6.30272 0.19839,1.27775 2.18237,14.24731 2.01406,13.12845 c 0,0 0.60119,4.68069 1.43086,9.93074 0.078,0.47671 0.15631,0.95336 0.24047,1.43667 a 66.511471,73.242593 0 0 0 2.26655,10.20881 36.673593,40.38505 0 0 1 1.27456,5.28978 z"
     fill="#63667e"
     id="path140"
     style="stroke-width:0.630895" />
  <path
     d="m 239.47132,88.523626 c 0,0 -2.29661,3.25729 -4.37077,3.25729 -2.07416,0 -10.14837,-0.36412 -14.3568,-1.80739 -4.20845,-1.44328 -24.84186,-2.53565 -24.84186,-2.53565 0,0 -29.21863,0.11915 -30.2046,-0.9666 -0.98597,-1.08575 -18.16847,-6.87206 -19.91797,-6.50795 -0.36673,0.0794 -1.26254,0.25157 -2.45895,0.47006 l -1.37074,0.24497 c -2.07417,0.36411 -4.66537,0.78782 -7.03412,1.099 -2.92787,0.37736 -5.50105,0.56936 -6.31869,0.23832 v -2.77399 c 0,0 3.39082,-5.4288 3.60725,-6.98462 0.21644,-1.55583 3.06615,-24.11186 10.50908,-32.18226 a 29.338875,32.308041 0 0 1 14.11633,-14.565098 c 10.07021,-4.826346 20.14042,-8.917809 20.14042,-8.917809 l 1.76153,-0.278065 5.68141,-0.926866 a 4.286602,4.7204165 0 0 1 0.55912,-0.516407 c 1.57517,-1.324095 6.34873,-4.204005 12.57123,1.986157 l 1.10021,1.93319 c 0,0 19.14842,4.938887 28.01019,22.172058 8.8618,17.23316 9.30669,34.1088 9.96201,41.8217 0,0 -0.43888,2.17153 0.43887,3.01233 a 12.270623,13.51244 0 0 1 0.90783,0.97983 c 0.0782,0.086 0.15631,0.17213 0.22845,0.26482 0.25252,0.27805 0.48699,0.56936 0.67938,0.8077 a 0.28256704,0.31116351 0 0 1 0.0602,0.0662 1.9238606,2.11856 0 0 0 0.1503,0.17875 z"
     fill="#fed253"
     id="path142"
     style="stroke-width:0.630895" />
  <path
     d="m 239.47132,88.523626 c 0,0 -2.29661,3.25729 -4.37077,3.25729 -2.07416,0 -10.14837,-0.36412 -14.3568,-1.80739 -4.20845,-1.44328 -24.84186,-2.53565 -24.84186,-2.53565 0,0 -29.21863,0.11915 -30.2046,-0.9666 -0.98597,-1.08575 -18.16847,-6.87206 -19.91797,-6.50795 -0.36673,0.0794 -1.26254,0.25157 -2.45895,0.47006 l -0.31261,-2.11856 -0.0782,-0.52302 c 0,0 33.16256,-7.83206 55.26891,-3.72733 22.10636,4.10469 38.4171,8.67284 38.4171,8.67284 0,0 -0.43887,2.17153 0.43887,3.01232 a 12.270623,13.51244 0 0 1 0.90783,0.97985 c 0.078,0.086 0.15631,0.17213 0.22845,0.26482 0.25252,0.27806 0.48699,0.56936 0.67938,0.80768 a 0.28256704,0.31116351 0 0 1 0.0602,0.0662 1.9960054,2.198006 0 0 0 0.1503,0.17877 z"
     opacity="0.05"
     id="path144"
     style="stroke-width:0.630895" />
  <path
     d="m 236.45929,93.820036 c -4.09422,0.35088 -11.63937,-0.74811 -14.93999,-1.28439 -0.93789,-0.15226 -1.85772,-0.33762 -2.78359,-0.56273 -3.5411,-0.84743 -14.42894,-3.22418 -21.04222,-2.12518 -7.99003,1.3241 -30.53528,-1.08577 -30.53528,-1.08577 0,0 -13.8999,-3.13148 -19.48509,-5.66052 -2.05012,-0.93349 -5.47699,-1.2248 -8.88585,-0.76136 a 24.739646,27.243358 0 0 0 -2.58518,0.50979 c -4.65334,1.21155 -8.57922,3.9723 -7.89984,8.67948 a 10.040148,11.056235 0 0 1 -0.72146,-1.07916 c -0.29459,-4.30332 0.91985,-6.86546 2.60322,-8.37493 v 0 l 0.39679,-0.17875 a 48.553434,53.467159 0 0 1 6.26457,-1.47637 c 0.33069,-0.0596 0.67336,-0.1125 1.02207,-0.15889 5.98201,-0.88714 14.63337,-1.08576 21.93201,2.95937 0,0 6.78161,3.50224 11.38083,3.50224 4.59924,0 42.02432,0.36413 50.78391,3.13149 a 37.274801,41.047101 0 0 0 5.32068,1.23803 21.643433,23.8338 0 0 0 9.49907,-0.98645 11.254585,12.393576 0 0 1 -0.32465,3.7141 z"
     opacity="0.1"
     id="path146"
     style="stroke-width:0.630895" />
  <path
     d="m 239.47132,88.523626 c 0,0 -2.29661,3.25729 -4.37077,3.25729 -2.07416,0 -10.14837,-0.36412 -14.3568,-1.80739 -4.20845,-1.44328 -24.84186,-2.53565 -24.84186,-2.53565 0,0 -29.21863,0.11915 -30.2046,-0.9666 -0.98597,-1.08575 -18.16847,-6.87206 -19.91797,-6.50795 -0.36673,0.0794 -1.26254,0.25157 -2.45895,0.47006 l -1.37074,0.24497 a 24.408982,26.879231 0 0 0 -7.03412,1.099 c -2.92787,0.37736 -5.50105,0.56936 -6.31869,0.23832 v -0.5495 a 14.428955,15.8892 0 0 1 1.96596,-1.04603 53.170699,58.551704 0 0 1 12.44498,-2.1318 c 5.24852,-0.21185 11.38684,0.46343 16.77965,3.45591 0,0 6.78161,3.50223 11.38085,3.50223 4.59924,0 42.02434,0.35751 50.78391,3.1315 a 38.068393,41.921006 0 0 0 5.32068,1.23141 22.124398,24.363439 0 0 0 11.59728,-1.83388 0.28256704,0.31116351 0 0 1 0.0602,0.0662 1.9960054,2.198006 0 0 0 0.1503,0.17876 z"
     opacity="0.1"
     id="path148"
     style="stroke-width:0.630895" />
  <path
     d="m 128.38641,91.416796 c 0,0 -7.33472,-6.15045 2.18838,-10.24854 0,0 16.6354,-5.66052 29.22466,1.32411 0,0 6.78161,3.48899 11.38083,3.48899 4.59924,0 42.02432,0.36413 50.78391,3.13812 a 37.876007,41.709151 0 0 0 5.32068,1.23142 22.647448,24.939424 0 0 0 13.50911,-2.82695 c 0.60121,-0.36413 1.1423,-0.54951 1.30463,-0.33764 0.54709,0.72824 0.11416,4.94551 -4.70144,5.78631 -3.75754,0.66204 -12.29468,-0.58923 -15.88389,-1.16521 -0.93187,-0.15227 -1.85772,-0.34426 -2.77757,-0.56274 -3.5411,-0.84742 -14.42894,-3.22419 -21.07228,-2.12519 -7.98403,1.32411 -30.53527,-1.08575 -30.53527,-1.08575 0,0 -13.89389,-3.1315 -19.4791,-5.66716 -5.58521,-2.53563 -21.34283,-0.35089 -19.26265,9.05023 z"
     fill="#fed253"
     id="path150"
     style="stroke-width:0.630895" />
  <path
     d="m 190.22048,26.794081 c -0.6012,-0.953342 -8.32669,-7.76583 -11.47703,-10.519968 l 5.68141,-0.926866 a 4.286602,4.7204165 0 0 1 0.55912,-0.516408 c 4.13029,4.773394 5.2365,11.963242 5.2365,11.963242 z"
     opacity="0.1"
     id="path152"
     style="stroke-width:0.630895" />
  <polygon
     points="218.72,90.26 214.53,96.45 230.55,95.91 230.91,88.99 "
     opacity="0.1"
     id="polygon154"
     transform="matrix(0.60120647,0,0,0.66205002,33.666322,3.5759891)" />
  <polygon
     points="316.47,97.73 318.29,103.37 328.49,105.01 324.12,98.27 "
     opacity="0.1"
     id="polygon156"
     transform="matrix(0.60120647,0,0,0.66205002,33.666322,3.5759891)" />
  <path
     d="m 118.64687,193.6307 c 0.65531,1.20493 22.21458,32.44046 27.908,31.57316 5.69343,-0.86727 -27.908,-31.57316 -27.908,-31.57316 z"
     opacity="0.1"
     id="path158"
     style="stroke-width:0.630895" />
  <path
     d="m 190.88182,222.1783 c 0,0 5.25454,5.54798 4.485,7.71288 -0.76955,2.16489 -4.485,-7.71288 -4.485,-7.71288 z"
     opacity="0.1"
     id="path160"
     style="stroke-width:0.630895" />
  <path
     d="m 133.53273,260.26603 c 0,0 -4.59922,23.74113 -2.18839,24.49585 2.41084,0.75473 2.18839,-24.49585 2.18839,-24.49585 z"
     opacity="0.1"
     id="path162"
     style="stroke-width:0.630895" />
  <path
     d="m 192.63134,352.46312 c 0.76352,2.40985 7.11227,18.08059 8.53712,18.92139 1.42486,0.8408 -8.53712,-18.92139 -8.53712,-18.92139 z"
     opacity="0.1"
     id="path164"
     style="stroke-width:0.630895" />
  <path
     d="m 266.39937,288.10524 c -0.22245,0.8408 -5.69343,5.78631 -4.49102,7.59372 1.20242,1.80738 4.49102,-7.59372 4.49102,-7.59372 z"
     opacity="0.1"
     id="path166"
     style="stroke-width:0.630895" />
  <path
     d="m 223.93013,332.09184 c -0.10826,0.60908 -1.20239,13.241 0.87777,15.67073 2.08018,2.42973 -0.87777,-15.67073 -0.87777,-15.67073 z"
     opacity="0.1"
     id="path168"
     style="stroke-width:0.630895" />
  <path
     d="m 280.01068,397.71425 c -1.58719,0.97319 -3.22848,1.91332 -4.89983,2.81369 -1.80363,0.96659 -3.60724,1.88685 -5.44694,2.75414 -0.73346,0.35089 -1.46693,0.69515 -2.19441,1.02616 q -1.65931,0.75475 -3.28258,1.4499 c -3.2886,1.41678 -6.45696,2.64822 -9.27662,3.68763 -1.09418,0.40385 -2.14029,0.77459 -3.11423,1.11885 -4.90585,1.71473 -8.1644,2.6482 -8.1644,2.6482 a 8.8497591,9.7453761 0 0 0 -2.26654,-0.20523 c -0.21043,0 -0.42685,0 -0.64931,0 a 28.521234,31.407654 0 0 0 -3.03609,0.42371 c -6.71548,1.32411 -16.20252,5.0382 -21.91997,7.46793 -3.00605,1.26452 -4.95997,2.17151 -4.95997,2.17151 l -3.82366,1.27115 -0.63729,0.21185 c -4.14231,1.39031 -9.96801,3.36322 -12.06621,4.18417 -3.39081,1.32409 -32.83189,8.07038 -32.83189,8.07038 a 48.908145,53.857768 0 0 1 -8.21249,1.65514 149.87475,165.04246 0 0 1 -20.57327,0.51639 c -6.88983,0.48992 -18.03621,-1.17845 -24.52321,-2.30394 l -1.03409,-0.17875 c -2.50702,-0.4502 -4.10022,-0.77461 -4.10022,-0.77461 l 0.84168,-1.27775 17.26064,-26.2238 0.10221,-0.15889 16.08227,-24.42302 0.6012,-0.88714 1.46095,-2.21788 c 0,0 0.87776,-1.3241 4.25653,-1.41016 0.39679,0 0.82968,0 1.30462,0 a 35.236711,38.80275 0 0 1 8.33873,1.8736 l 0.78158,0.25818 c 11.64536,3.6744 29.64549,2.75414 29.64549,2.75414 0,0 11.20046,-1.98614 20.00214,-3.17784 l 0.65531,-0.0927 a 80.736015,88.906701 0 0 1 8.6754,-0.82757 c 5.36277,0.11915 16.96605,-3.01234 16.96605,-3.01234 2.49501,-0.58921 3.54712,-1.08575 4.95394,-2.19138 0.18637,-0.14561 0.38477,-0.30454 0.60121,-0.47667 0.60121,-0.49653 1.2926,-1.10561 2.18238,-1.86036 1.62325,-1.37045 3.90184,-3.23081 7.48501,-5.83929 0.31263,-0.22508 0.6433,-0.45018 0.99803,-0.66203 0.35469,-0.21187 0.8056,-0.49656 1.23848,-0.73489 a 46.948213,51.699486 0 0 1 10.89385,-3.9723 63.86015,70.322953 0 0 1 9.48103,-1.43665 h 0.47495 c 9.0181,-0.52964 18.22858,1.17183 23.61539,6.75292 a 14.783667,16.27981 0 0 1 2.44089,3.31025 13.707507,15.094741 0 0 1 0.87777,1.80078 15.336776,16.888895 0 0 1 1.08819,3.70748 q 0.0661,0.35749 0.10826,0.715 c 0,0.0727 0,0.13895 0,0.21187 0,0.19198 0.0361,0.38398 0.0481,0.57598 0.48097,7.92473 -6.98602,15.08811 -16.44901,20.91416 z"
     opacity="0.1"
     id="path170"
     style="stroke-width:0.630895" />
  <path
     d="m 102.99746,434.29912 c 0,0 19.47909,3.9723 29.65752,3.25066 0,0 18.71555,1.08578 28.78576,-2.1649 0,0 29.45912,-6.75291 32.83189,-8.077 3.37276,-1.3241 16.52716,-5.66715 16.52716,-5.66715 0,0 25.61138,-11.81098 32.83188,-9.88441 0,0 56.69377,-16.14739 52.64165,-37.96195 -4.05215,-21.81455 -39.83594,-16.86903 -51.10256,-8.67947 -11.2666,8.18955 -9.6193,9.0436 -15.21052,10.3677 0,0 -11.60328,3.13149 -16.96605,3.01231 -5.36276,-0.11914 -29.33287,4.09811 -29.33287,4.09811 0,0 -18.82376,0.96658 -30.42103,-3.01234 -11.59728,-3.97891 -13.8999,-0.48328 -13.8999,-0.48328 z"
     fill="#ffa2a2"
     id="path172"
     style="stroke-width:0.630895" />
  <path
     d="m 145.23822,377.6806 a 0.29459116,0.3244045 0 0 1 0,0.0794 4.0581436,4.4688376 0 0 1 -0.34268,1.4234 c -2.30864,6.23652 -15.41494,23.05921 -15.41494,23.05921 a 41.837957,46.072061 0 0 1 -2.15832,5.83928 81.313173,89.542265 0 0 1 -6.2225,11.61898 142.87071,157.32958 0 0 1 -11.32072,15.80313 h -0.0299 a 17.200516,18.941251 0 0 1 -1.61725,1.17183 c -1.41283,0.92687 -3.5351,2.07222 -5.53711,2.21126 a 5.759558,6.3424391 0 0 1 -1.02205,-0.0331 c 0.21041,0 0.41483,-0.0529 0.60122,-0.0927 l -0.73349,-0.23834 -1.00401,-0.34426 q -2.525069,-0.87392 -5.008053,-1.91332 l -1.004011,-0.42371 q -2.404826,-1.01955 -4.707454,-2.1914 l -1.00401,-0.50315 q -2.404827,-1.23142 -4.707454,-2.60186 c -0.553105,-0.31778 -1.100207,-0.66204 -1.641291,-0.98645 q -2.452924,-1.50947 -4.809653,-3.1646 -2.501022,-1.75444 -4.893812,-3.66114 c -1.202421,-2.4562 -2.194411,-4.63436 -2.73551,-5.80617 -0.985957,-2.17815 -1.070132,-5.2964 -0.949895,-7.554 0,-0.2317 0,-0.45019 0.03614,-0.66204 0.102214,-1.4168 0.258514,-2.39001 0.258514,-2.39001 a 30.902013,34.029372 0 0 1 -2.404827,-4.13119 4.4128554,4.8594471 0 0 1 -0.673342,-2.37675 2.5611395,2.8203331 0 0 0 -0.08422,-1.00632 c -0.462942,-2.09209 -2.452924,-5.68701 -4.292625,-7.9446 -1.370741,-1.66176 -1.454917,-7.87178 -1.322658,-12.27442 0.07802,-2.6482 0.228469,-4.59462 0.228469,-4.59462 a 1.400811,1.5425767 0 0 1 -0.571158,-0.81433 17.867856,19.676126 0 0 1 -0.973952,-4.48869 c 0,-0.21847 -0.05413,-0.43695 -0.08422,-0.66205 -0.38477,-3.03881 -0.559138,-6.09086 -0.559138,-6.09086 -4.44891,-3.56845 -6.565163,-9.1363 -7.55115,-14.10166 l -0.126256,-0.66205 a 37.876007,41.709151 0 0 1 -0.685393,-9.26871 c 0,-0.29792 0,-0.52302 0,-0.66205 0,-0.13895 0,-0.16552 0,-0.16552 0,0 0.589197,-14.34661 2.236491,-19.94755 0.06608,-0.23836 0.1382,-0.45682 0.210431,-0.66206 a 4.5030364,4.9587546 0 0 1 0.468944,-0.9997 c 0.601203,-0.88052 1.028067,-2.54227 1.382777,-4.50855 0.246478,-1.36383 0.450891,-2.87992 0.601188,-4.38939 0.138352,-1.2579 0.246508,-2.50917 0.330668,-3.66776 0.234472,-3.0984 0.306627,-5.51488 0.306627,-5.51488 l -1.112243,-6.0379 c -0.306611,-1.64851 -0.541068,-3.31026 -0.703401,-4.97199 0,-0.21849 -0.04808,-0.43695 -0.07212,-0.66205 a 50.807957,55.949846 0 0 1 -0.150297,-9.23559 c 0,-0.22511 0,-0.44357 0.03614,-0.66206 a 50.832006,55.976328 0 0 1 4.905849,-20.19252 l 0.300609,-0.66204 q 0.601203,-1.32413 1.262539,-2.60186 c 0.318633,-0.62897 0.655304,-1.25128 1.004011,-1.86698 a 49.587509,54.605885 0 0 1 3.006029,-4.7734 c 0.156315,-0.22508 0.318633,-0.44357 0.480966,-0.66203 a 48.986301,53.943835 0 0 1 6.228507,-7.0707 c 6.072177,-5.7466 11.645365,-8.24253 16.707529,-8.43453 22.136415,-0.86065 34.551335,42.25204 36.559365,49.80603 0.19238,0.72826 0.28857,1.12547 0.28857,1.12547 0,0 8.96999,9.88443 6.34273,14.22084 a 6.7755968,7.4613036 0 0 0 -0.90783,3.12488 c -0.72144,5.83267 1.34672,15.439 1.34672,15.439 0,0 0.73347,2.6482 2.87375,8.99066 l 0.63128,1.85373 c 1.34068,3.9723 1.65331,10.63915 0.88377,16.61083 -0.73948,5.72012 -2.47698,10.77818 -5.26056,12.07579 -5.69341,2.6482 -4.16035,5.29641 -2.84971,7.47455 a 27.018218,29.752528 0 0 1 1.9419,4.88593 c 0.82364,2.44296 1.58717,5.01171 1.87576,6.01141 0.0842,0.27807 0.12626,0.43034 0.12626,0.43034 a 11.885852,13.088728 0 0 1 2.47095,-0.72826 c 1.07616,-0.1655 2.14031,-0.0463 2.3447,0.96661 0.10827,0.54286 0.72748,1.18506 1.59921,1.82724 2.58519,1.95968 7.3708,4.01203 7.3708,4.01203 z"
     opacity="0.1"
     id="path174"
     style="stroke-width:0.630895" />
  <path
     d="m 143.92759,377.6806 v 0 a 3.9619505,4.3629096 0 0 1 -0.34267,1.45651 c -2.29662,6.24314 -15.41494,23.10555 -15.41494,23.10555 a 42.74578,47.071756 0 0 1 -2.15834,5.83928 76.593703,84.345172 0 0 1 -4.91186,9.44746 141.3737,155.68106 0 0 1 -12.49307,17.80914 l -0.1382,0.16551 c 0,0 -0.52906,0.44357 -1.37075,1.01295 a 15.631368,17.213301 0 0 1 -4.89984,2.2642 l -0.73346,-0.23834 -1.00401,-0.34426 q -2.525063,-0.87392 -5.008062,-1.91332 l -1.004011,-0.42371 q -2.404826,-1.01955 -4.707438,-2.1914 l -1.004026,-0.50315 q -2.404826,-1.23142 -4.707439,-2.60187 c -0.553104,-0.31777 -1.100206,-0.66204 -1.64129,-0.98644 q -2.452925,-1.50947 -4.809653,-3.1646 -2.501038,-1.75444 -4.893828,-3.66114 -1.106225,-0.87391 -2.188393,-1.79416 c -0.811634,-1.69484 -1.460934,-3.12487 -1.863742,-4.01202 -0.985987,-2.17814 -1.070148,-5.29639 -0.949895,-7.55399 0,-0.23172 0,-0.45019 0.03614,-0.66205 0.102214,-1.41679 0.258514,-2.39 0.258514,-2.39 0,0 -0.486968,-0.72163 -1.076166,-1.70146 -0.330653,-0.54288 -0.685363,-1.17183 -1.00401,-1.79417 -0.601188,-1.1652 -1.070148,-2.34365 -0.97997,-3.01232 a 1.3406904,1.4763715 0 0 0 0,-0.34428 2.9158513,3.2109425 0 0 0 -0.09012,-0.66203 c -0.462927,-2.09209 -2.458943,-5.68702 -4.298628,-7.94461 -1.370757,-1.66175 -1.454917,-7.87178 -1.328661,-12.27441 0,-0.2251 0,-0.44357 0,-0.66205 0.08422,-2.28407 0.21043,-3.93257 0.21043,-3.93257 -0.679375,-0.32441 -1.202435,-2.72765 -1.539107,-5.29641 l -0.09012,-0.66205 c -0.384769,-3.0388 -0.559123,-6.09085 -0.559123,-6.09085 -4.448925,-3.56845 -6.565163,-9.13629 -7.545147,-14.10168 a 36.709668,40.424773 0 0 1 -0.781559,-10.59279 c 0,-0.10584 0,-0.1655 0,-0.1655 0,0 0.517042,-14.41945 2.164336,-20.02702 0.06608,-0.23833 0.138352,-0.45682 0.210431,-0.66205 a 4.5030364,4.9587546 0 0 1 0.535081,-0.9666 c 0.913832,-1.40354 1.521038,-4.78001 1.917828,-8.2359 l 0.07212,-0.66204 c 0.498989,-4.63435 0.637265,-9.18265 0.637265,-9.18265 l -1.11823,-6.03788 q -0.456924,-2.4827 -0.703417,-4.972 c -0.03009,-0.21848 -0.04808,-0.44357 -0.07212,-0.66205 a 50.819983,55.963089 0 0 1 -0.150297,-9.23559 c 0,-0.22512 0,-0.44359 0.04219,-0.66207 a 50.711764,55.843919 0 0 1 4.905849,-20.19252 c 0.09616,-0.22509 0.192392,-0.44358 0.300593,-0.66205 a 47.104526,51.871618 0 0 1 2.573162,-5.00509 c 0.324666,-0.56276 0.655334,-1.11888 1.004026,-1.66837 0.547102,-0.8739 1.118245,-1.73458 1.71343,-2.56876 l 0.480966,-0.66205 a 49.046423,54.010039 0 0 1 6.174391,-7.05083 c 6.613276,-6.24313 12.625334,-8.65299 18.036205,-8.43451 21.312775,0.8408 33.276775,42.40429 35.242725,49.80602 0.19238,0.72826 0.28857,1.12548 0.28857,1.12548 0,0 8.97603,9.88441 6.34873,14.22084 a 6.7755968,7.4613036 0 0 0 -0.90781,3.12487 c -0.72746,5.83266 1.34671,15.43901 1.34671,15.43901 0,0 0.73348,2.6482 2.87376,8.99064 0.19239,0.58923 0.40282,1.20493 0.60122,1.85375 1.34068,3.97228 1.65331,10.63913 0.88377,16.61082 -0.73949,5.72673 -2.47096,10.77817 -5.26056,12.07579 -5.68742,2.64819 -4.16035,5.29641 -2.84371,7.47455 a 27.018218,29.752528 0 0 1 1.9419,4.88594 c 1.04009,3.11824 1.996,6.44173 1.996,6.44173 a 11.699477,12.883493 0 0 1 1.20242,-0.43034 6.1503421,6.7727717 0 0 1 2.59721,-0.29792 1.1483043,1.2645155 0 0 1 1.02806,0.96661 c 0.16234,0.79445 1.40682,1.78091 2.91585,2.7144 a 55.683742,61.319072 0 0 0 6.05416,3.12487 z"
     fill="#ced7e7"
     id="path176"
     style="stroke-width:0.630895" />
  <path
     d="m 64.796791,314.01788 c 2.080176,-0.11915 24.408991,-9.63946 29.008213,-6.38878 4.599237,3.25066 33.066366,24.34358 33.066366,24.34358 0,0 -17.83779,-25.66769 -33.378981,-31.69234 -15.541185,-6.02466 -28.695598,13.73754 -28.695598,13.73754 z"
     opacity="0.1"
     id="path178"
     style="stroke-width:0.630895" />
  <path
     d="m 96.895208,352.82725 c 0,0 22.328822,4.93888 25.719622,8.31534 z"
     opacity="0.1"
     id="path180"
     style="stroke-width:0.630895" />
  <path
     d="m 92.59658,389.5975 c -0.32465,0.36413 -8.416884,20.36466 -7.767584,20.36466 0.649301,0 7.551151,-11.9169 7.551151,-11.9169 z"
     opacity="0.1"
     id="path182"
     style="stroke-width:0.630895" />
  <path
     d="m 107.81313,365.5982 c 0,0 -6.56519,2.53563 -5.80166,2.77397 0.76355,0.23836 5.5792,-1.68822 5.80166,-2.77397 z"
     opacity="0.1"
     id="path184"
     style="stroke-width:0.630895" />
  <path
     d="m 101.24794,395.85388 c 1.0942,2.52904 4.59322,10.12275 5.36277,8.91781 0.76954,-1.20494 -5.36277,-8.91781 -5.36277,-8.91781 z"
     opacity="0.1"
     id="path186"
     style="stroke-width:0.630895" />
  <path
     d="m 183.20441,195.39837 -0.93787,1.46975 c 0,0 -7.44895,-5.77969 -10.50908,-8.67285 -3.06016,-2.89315 -10.28666,10.36109 -15.98009,13.97588 -5.69342,3.61479 -15.31873,4.58138 -15.31873,4.58138 0,0 -7.44293,-8.19617 -7.2145,-10.59279 0.22847,-2.39663 -3.49901,-3.1315 -3.72145,-4.81974 -0.22245,-1.68822 -1.53309,-6.50795 -3.28259,-8.91781 -0.92586,-1.27114 -1.05813,-5.25006 -0.97395,-8.71258 0.6012,-0.13245 0.97395,-0.20524 0.97395,-0.20524 a 19.593318,21.57621 0 0 1 3.50503,-5.06467 c 1.97196,-1.92657 5.0321,-13.73754 5.0321,-13.73754 1.74951,-6.50796 5.24853,-4.58138 5.24853,-4.58138 0,9.88438 9.19847,13.49919 13.79169,17.59728 4.5932,4.09808 11.8197,14.70413 17.51313,16.87565 4.67138,1.75444 10.13635,8.54045 11.87383,10.80466 z"
     opacity="0.1"
     id="path188"
     style="stroke-width:0.630895" />
  <path
     d="m 183.20441,193.94848 -0.93787,1.47636 c 0,0 -7.47901,-5.76644 -10.53916,-8.67945 -3.06014,-2.91302 -10.28664,10.36107 -15.98007,13.97586 -5.69341,3.61479 -15.31873,4.58802 -15.31873,4.58802 0,0 -7.44295,-8.20281 -7.21448,-10.5928 0.22845,-2.39001 -3.49901,-3.1315 -3.72148,-4.82637 -0.22244,-1.69483 -1.53306,-6.50794 -3.28258,-8.9178 -0.92586,-1.27113 -1.05811,-5.25005 -0.97395,-8.71257 l 0.97395,-0.19862 a 19.593318,21.57621 0 0 1 3.50505,-5.06467 c 1.97194,-1.93319 5.03208,-13.73755 5.03208,-13.73755 1.74951,-6.50795 5.24853,-4.588 5.24853,-4.588 0,9.88441 9.19846,13.50581 13.79168,17.60391 4.59323,4.09809 11.81971,14.6975 17.51314,16.86903 4.70144,1.78091 10.16641,8.54045 11.90389,10.80465 z"
     fill="#ced7e7"
     id="path190"
     style="stroke-width:0.630895" />
  <path
     d="m 183.76354,195.90815 c 0,0 -6.45095,3.85314 -11.48905,4.21727 a 9.469002,10.427288 0 0 1 -1.97196,-0.12581 v 0 c 0,0 5.56115,-4.57477 10.72551,-5.50824 z"
     opacity="0.1"
     id="path192"
     style="stroke-width:0.630895" />
  <path
     d="m 196.8999,215.55117 c 0,0 -8.13433,-3.489 -10.82172,1.76105 0.0901,-2.40985 0.12626,-4.40924 0.12626,-4.40924 l 8.86781,-1.93319 c 0,0 0.85371,1.74119 1.8517,4.08484 -0.024,0.31117 -0.024,0.49654 -0.024,0.49654 z"
     opacity="0.1"
     id="path194"
     style="stroke-width:0.630895" />
  <path
     d="m 170.30253,199.99961 c 0,0 9.74554,-6.44173 14.42896,-5.89885 4.91185,0.56274 14.42894,0.95997 14.42894,0.95997 0,0 -3.28258,8.19618 -2.8437,9.88441 0.43887,1.68822 0.54709,9.8844 0.54709,9.8844 0,0 -9.84776,-4.21725 -11.48905,3.61479 0,0 -5.36276,-8.79865 -8.97601,-11.45344 a 24.577321,27.064605 0 0 1 -6.09623,-6.99128 z"
     fill="#63667e"
     id="path196"
     style="stroke-width:0.630895" />
  <path
     d="m 225.35499,207.48079 c -2.8437,0 -12.91391,-6.99787 -15.1023,-11.57264 -2.18838,-4.57477 -5.25454,0.47667 -8.09825,2.17153 -1.80361,1.08576 -8.95197,-1.18507 -12.80569,-2.83358 1.9539,-1.46312 6.2826,-5.58108 7.55115,-6.56753 1.52705,-1.21156 3.06614,-20.73541 3.06614,-20.73541 5.47099,-3.1315 11.38085,25.31016 11.38085,25.31016 0,0 10.29267,3.37647 11.1644,5.78633 0.16834,0.47667 0.94389,1.32409 2.11024,2.35027 1.2024,3.33674 1.86374,6.09087 0.73346,6.09087 z"
     opacity="0.1"
     id="path198"
     style="stroke-width:0.630895" />
  <path
     d="m 225.35499,206.03091 c -2.8437,0 -12.91391,-6.99126 -15.1023,-11.56603 -2.18838,-4.57478 -5.25454,0.47668 -8.09825,2.16491 -1.80361,1.08575 -7.53312,-1.01293 -11.38686,-2.64821 1.95393,-1.45652 4.86377,-5.74659 6.13232,-6.73966 1.52705,-1.20494 3.06614,-20.72879 3.06614,-20.72879 5.47099,-3.13149 11.38085,25.31018 11.38085,25.31018 0,0 10.29267,3.37645 11.1644,5.78631 0.16834,0.47667 0.94389,1.3241 2.11024,2.35027 1.2024,3.31688 1.86374,6.07102 0.73346,6.07102 z"
     fill="#ced7e7"
     id="path200"
     style="stroke-width:0.630895" />
  <path
     d="m 264.24704,417.20499 95.17701,-87.3906 a 5.0982308,5.6141841 0 0 1 3.40282,-1.32411 l 35.50725,1.02619 c 0,0 2.45894,1.98615 -1.1483,6.32918 l -89.78418,81.13424 a 5.7114613,6.2894751 0 0 1 -3.42688,1.41679 l -38.82591,1.41679 a 1.3406904,1.4763715 0 0 1 -0.90181,-2.60848 z"
     fill="#0aa8a7"
     id="path202"
     style="stroke-width:0.630895" />
  <path
     d="m 310.28743,406.4533 c 0,0 20.78972,32.78472 43.88806,2.2907 23.09837,-30.49404 16.41896,-46.51564 9.41491,-47.36307 -7.00405,-0.84742 -46.41314,32.53977 -53.30297,45.07237 z"
     fill="#ffa2a2"
     id="path204"
     style="stroke-width:0.630895" />
  <path
     d="m 450.50682,39.770266 c 0,0 26.79577,-57.267312 58.46732,-27.733271 0,0 6.91389,2.773991 6.39084,10.824523 0,0 -2.66336,-1.608782 -4.77959,4.541659 a 26.982146,29.712805 0 0 1 -3.00605,6.176931 13.226541,14.5651 0 0 1 -6.67338,5.547978 v 0 c 0,0 -14.21252,11.7249 -40.53936,2.68131 0,0 -7.44293,1.17844 -8.64535,0.15888 l 8.65137,-6.964762 c 0,0 4.39481,7.183252 10.82171,8.004172 0,0 -10.82171,-7.481157 -9.58323,-9.103169 0.2525,-0.331032 4.7375,-3.46253 4.7375,-3.46253 0,0 7.68943,12.453159 17.65744,13.373419 0,0 -13.96603,-7.011111 -15.96805,-14.565104 l 7.01609,-4.309953 c 0,0 7.53913,13.605137 18.85984,15.127857 0,0 -14.36882,-7.885028 -17.26665,-15.955413 l 7.42489,-3.191088 c 0,0 7.59325,13.108598 17.01416,14.306906 0,0 -15.76364,-10.956933 -15.27065,-14.915986 0,0 6.98,-2.476059 9.1203,-2.151666 0,0 5.64533,9.268709 11.17642,9.434217 0,0 -9.82972,-8.553694 -9.1804,-9.871166 0,0 9.8718,-0.562737 15.03016,2.065584 0,0 -7.33474,-4.495314 -15.03016,-3.767069 0,0 3.48097,-4.508545 8.02007,-5.501624 0,0 -5.44091,-2.4628279 -10.41288,5.667147 0,0 -7.67741,0.774603 -8.62732,1.7147 0,0 3.8838,-8.7920069 8.66338,-12.5326009 0,0 -7.12428,1.383684 -10.65336,13.3005969 l -7.52712,3.025565 c 0,0 4.57519,-11.9168979 8.60929,-15.5979019 0,0 -7.0702,2.648204 -10.44898,16.5512589 l -6.92589,4.144415 c 0,0 3.22848,-10.592788 6.91387,-15.763395 0,0 -6.07819,4.012021 -8.86177,17.027931 l -4.3287,3.356596 c 0,0 2.48298,-7.693041 3.37879,-9.83146 0.89579,-2.13842 0.44489,-2.581993 0.44489,-2.581993 a 25.172515,27.720034 0 0 0 -5.66939,13.750778 c 0,0 -8.50106,7.547388 -9.00005,7.017728 z"
     fill="#0aa8a7"
     opacity="0.1"
     id="path206"
     style="stroke-width:0.630895" />
  <path
     d="m 561.3272,70.396696 c 0,0 12.10831,-25.87952 26.41701,-12.5326 0,0 3.12627,1.25128 2.88581,4.88594 0,0 -1.20244,-0.72164 -2.15835,2.05898 a 12.024129,13.241 0 0 1 -1.3467,2.78722 6.0120647,6.6205002 0 0 1 -3.00603,2.50917 v 0 c 0,0 -6.4269,5.29639 -18.32478,1.21155 0,0 -3.36074,0.52964 -3.90182,0.0727 l 3.90784,-3.15135 c 0,0 1.98398,3.25066 4.89383,3.61478 0,0 -4.88181,-3.37644 -4.3287,-4.11133 0.10826,-0.14561 2.13429,-1.56243 2.13429,-1.56243 0,0 3.47497,5.62743 7.98402,6.04451 0,0 -6.31267,-3.1712 -7.21447,-6.62049 l 3.17435,-1.93981 c 0,0 3.40284,6.15044 8.5191,6.83898 0,0 -6.49302,-3.56183 -7.81568,-7.20973 l 3.35474,-1.44326 c 0,0 3.42687,5.92534 7.68342,6.46822 0,0 -7.1243,-4.95214 -6.89585,-6.73966 0,0 3.15033,-1.11887 4.11827,-0.97322 0,0 2.54911,4.19078 5.05013,4.25698 0,0 -4.44292,-3.85975 -4.14831,-4.4556 0,0 4.46094,-0.25159 6.78159,0.93349 0,0 -3.31262,-2.0325 -6.78159,-1.70147 a 7.4489481,8.2027997 0 0 1 3.60724,-2.4893 c 0,0 -2.45894,-1.11224 -4.70745,2.56214 0,0 -3.46897,0.35087 -3.89582,0.77459 0,0 1.75552,-3.97229 3.91384,-5.66053 0,0 -3.22246,0.62233 -4.80964,6.01143 l -3.36675,1.39029 c 0,0 2.06214,-5.38248 3.8898,-7.05083 0,0 -3.19842,1.1983 -4.72549,7.47455 l -3.12628,1.86697 c 0,0 1.45493,-4.79324 3.12027,-7.12366 0,0 -2.74751,1.81403 -3.99801,7.69304 l -1.95994,1.51608 c 0,0 1.12425,-3.47576 1.52707,-4.44235 0.40281,-0.9666 0.19839,-1.16521 0.19839,-1.16521 a 11.422923,12.578949 0 0 0 -2.56115,6.22988 c 0,0 -3.87778,3.40957 -4.0882,3.17122 z"
     fill="#0aa8a7"
     opacity="0.1"
     id="path208"
     style="stroke-width:0.630895" />
  <path
     d="m 430.12591,100.50676 c 0,0 12.10831,-25.879554 26.45309,-12.532624 0,0 3.12026,1.25128 2.88579,4.89254 0,0 -1.2024,-0.72824 -2.15832,2.05236 a 12.276636,13.519062 0 0 1 -1.34671,2.78723 6.0120647,6.6205002 0 0 1 -3.03609,2.509184 v 0 c 0,0 -6.42088,5.29639 -18.31877,1.21154 0,0 -3.36074,0.53627 -3.90183,0.0727 l 3.90784,-3.151354 c 0,0 1.98398,3.250674 4.88781,3.621424 0,0 -4.88179,-3.383094 -4.32868,-4.117964 0.11431,-0.14561 2.14029,-1.56243 2.14029,-1.56243 0,0 3.47497,5.627424 7.97802,6.044524 0,0 -6.30667,-3.171244 -7.21448,-6.620514 l 3.17436,-1.93319 c 0,0 3.40885,6.14384 8.52512,6.832364 0,0 -6.49304,-3.561834 -7.81568,-7.209724 l 3.35472,-1.44327 c 0,0 3.43289,5.92536 7.68944,6.46823 0,0 -7.1243,-4.95214 -6.90187,-6.73967 0,0 3.15634,-1.11887 4.12429,-0.97321 0,0 2.54912,4.19077 5.05013,4.26361 0,0 -4.44291,-3.86638 -4.14833,-4.46222 0,0 4.45494,-0.25159 6.78161,0.93347 0,0 -3.31866,-2.03248 -6.78761,-1.70145 a 7.4489481,8.2027997 0 0 1 3.60723,-2.48932 c 0,0 -2.45293,-1.11224 -4.70144,2.56214 0,0 -3.46895,0.3509 -3.8958,0.7746 0,0 1.74951,-3.97231 3.91384,-5.66052 0,0 -3.22246,0.62231 -4.80964,6.01141 l -3.40885,1.3903 c 0,0 2.06816,-5.38247 3.88982,-7.04422 0,0 -3.19242,1.19169 -4.71948,7.46793 l -3.13228,1.86699 c 0,0 1.46093,-4.79326 3.12627,-7.12366 0,0 -2.74752,1.81401 -4.00404,7.69301 l -1.95994,1.51611 c 0,0 1.12426,-3.47576 1.52709,-4.44237 0.40279,-0.96659 0.2044,-1.16521 0.2044,-1.16521 a 11.362802,12.512746 0 0 0 -2.56115,6.2299 c 0,0 -3.85974,3.409554 -4.07017,3.171224 z"
     fill="#0aa8a7"
     opacity="0.1"
     id="path210"
     style="stroke-width:0.630895" />
</svg>
