<?xml version="1.0" encoding="UTF-8" standalone="no"?>
<svg
   xmlns:dc="http://purl.org/dc/elements/1.1/"
   xmlns:cc="http://creativecommons.org/ns#"
   xmlns:rdf="http://www.w3.org/1999/02/22-rdf-syntax-ns#"
   xmlns:svg="http://www.w3.org/2000/svg"
   xmlns="http://www.w3.org/2000/svg"
   xmlns:sodipodi="http://sodipodi.sourceforge.net/DTD/sodipodi-0.dtd"
   xmlns:inkscape="http://www.inkscape.org/namespaces/inkscape"
   id="ad467010-4b2c-4db1-84f0-cd2022f75deb"
   data-name="Layer 1"
   width="700"
   height="650"
   viewBox="0 0 700.00002 649.99999"
   version="1.1"
   sodipodi:docname="other_building_services.svg"
   inkscape:version="1.0.2 (e86c870879, 2021-01-15)">
  <metadata
     id="metadata217">
    <rdf:RDF>
      <cc:Work
         rdf:about="">
        <dc:format>image/svg+xml</dc:format>
        <dc:type
           rdf:resource="http://purl.org/dc/dcmitype/StillImage" />
        <dc:title>QA engineers</dc:title>
      </cc:Work>
    </rdf:RDF>
  </metadata>
  <defs
     id="defs215" />
  <sodipodi:namedview
     pagecolor="#ffffff"
     bordercolor="#666666"
     borderopacity="1"
     objecttolerance="10"
     gridtolerance="10"
     guidetolerance="10"
     inkscape:pageopacity="0"
     inkscape:pageshadow="2"
     inkscape:window-width="1360"
     inkscape:window-height="699"
     id="namedview213"
     showgrid="false"
     inkscape:zoom="0.35983463"
     inkscape:cx="151.3258"
     inkscape:cy="346.67701"
     inkscape:window-x="0"
     inkscape:window-y="0"
     inkscape:window-maximized="1"
     inkscape:current-layer="ad467010-4b2c-4db1-84f0-cd2022f75deb" />
  <title
     id="title2">QA engineers</title>
  <path
     d="m 559.12913,424.89952 c -10.56059,23.99866 -32.01576,40.04593 -54.24229,50.6288 A 200.13026,220.38393 0 0 1 449.04217,491.939 q -5.52681,0.72247 -11.08941,1.12091 a 215.07651,236.84277 0 0 1 -28.45712,-0.035 q -8.54867,-0.62613 -17.03769,-2.00099 a 214.88566,236.6326 0 0 1 -56.96593,-18.26715 q -7.84886,-3.8925 -15.37965,-8.4987 a 196.7585,216.67094 0 0 1 -24.03965,-17.31266 q -2.52881,-2.12796 -4.994,-4.34786 l -0.67595,-0.60863 c -1.29223,-1.17344 -2.57255,-2.37315 -3.87274,-3.53784 a 56.301918,61.99981 0 0 0 -6.86279,-5.4206 c -0.16302,-0.10509 -0.32605,-0.21017 -0.49304,-0.31088 -0.44532,-0.2846 -0.8986,-0.55169 -1.35984,-0.80564 a 31.137029,34.288171 0 0 0 -2.91847,-1.41864 c -4.59242,-1.92655 -9.51089,-2.62711 -14.49695,-2.50889 -0.82704,0 -1.65406,0.0613 -2.48508,0.1226 v 0 c -1.16103,0.0876 -2.32603,0.21893 -3.48706,0.38531 l -0.42942,0.0657 a 79.033424,87.031793 0 0 0 -10.94627,2.58771 c -5.54272,1.7514 -10.98603,3.94066 -16.46513,5.91537 v 0 c -2.32603,0.84506 -4.65604,1.6507 -7.00593,2.37316 l -0.5169,0.15763 a 76.687506,84.448465 0 0 1 -10.18285,2.34688 56.739291,62.481448 0 0 1 -23.30407,-2.06666 l -0.26242,-0.0832 -0.48508,-0.15763 -0.66402,-0.22768 q -1.66997,-0.57796 -3.31211,-1.26539 L 180.18859,437.86 q -1.59045,-0.67429 -3.11331,-1.44928 l -0.66401,-0.33278 q -1.59045,-0.81439 -3.11331,-1.72076 c -0.3658,-0.21016 -0.72763,-0.43784 -1.08548,-0.65239 q -1.62225,-0.99831 -3.1809,-2.09293 -1.65407,-1.16031 -3.23657,-2.42132 -0.7316,-0.57797 -1.44731,-1.18658 a 64.158741,70.651757 0 0 1 -7.70175,-7.64927 c -0.13121,-0.14449 -0.25447,-0.29336 -0.37773,-0.43785 -0.6322,-0.75311 -1.25248,-1.51935 -1.85287,-2.3031 -0.22267,-0.28898 -0.44533,-0.57796 -0.66402,-0.87571 q -1.06957,-1.43615 -2.0636,-2.93798 c -0.0994,-0.14449 -0.19483,-0.29336 -0.29026,-0.43785 a 57.490781,63.308984 0 0 1 -6.70772,-13.35448 c -0.0557,-0.14449 -0.10736,-0.29336 -0.15507,-0.43785 q -0.79523,-2.25494 -1.45128,-4.58431 c -0.17893,-0.64802 -0.3499,-1.31355 -0.50099,-1.96158 -0.0517,-0.19265 -0.0994,-0.38968 -0.14314,-0.58234 -2.19483,-9.51452 -2.44533,-19.40559 -2.44533,-29.23974 q 0,-1.72076 0,-3.43713 c 0.0636,-15.90716 0.28629,-32.08579 2.41749,-47.77401 0,-0.10947 0.0278,-0.21892 0.0437,-0.32402 a 135.4904,149.20236 0 0 1 2.90655,-15.68385 105.06908,115.70232 0 0 1 4.89461,-15.89401 c 4.90256,-12.6977 12.03175,-24.25261 19.94822,-34.96246 9.54269,-12.88598 20.47704,-24.77804 32.6559,-34.59029 q 2.62424,-2.11483 5.32005,-4.10705 l 0.83102,-0.59986 c 0.29025,-0.21455 0.58051,-0.43785 0.87076,-0.62613 v 0 c 0.59642,-0.43785 1.19284,-0.84943 1.79722,-1.26539 l 0.67594,-0.46412 1.28826,-0.87571 0.39761,-0.24957 0.68787,-0.43785 0.67992,-0.43785 q 1.19283,-0.77501 2.4135,-1.51497 5.21271,-3.2007 10.67193,-5.8497 1.61032,-0.78376 3.24054,-1.51059 a 114.28573,125.85173 0 0 1 15.16891,-5.47753 q 2.86281,-0.79688 5.7614,-1.40112 3.41947,-0.72684 6.87473,-1.2041 a 109.09689,120.13777 0 0 1 11.04566,-0.90635 c 25.97205,-0.69618 52.20651,8.61255 72.56029,26.455 8.11129,7.11072 15.39953,15.53061 24.50883,20.98187 7.95225,4.74631 17.26036,6.71226 25.77721,2.97739 7.03775,-3.08686 11.61823,-4.61934 19.52277,-4.15084 a 163.64137,180.20227 0 0 1 47.83675,11.01636 c 0.62028,0.24957 1.24056,0.5079 1.85686,0.76624 40.04354,16.87918 74.4728,50.39673 92.3574,93.46821 q 0.70776,1.70761 1.37972,3.44151 c 10.66794,27.43142 14.51683,59.59162 2.74353,86.33561 z"
     fill="#0aa8a7"
     opacity="0.1"
     id="path4"
     style="stroke-width:0.417247" />
  <path
     d="m 219.56812,273.42908 v 166.01588 l -0.5169,0.15763 a 76.687506,84.448465 0 0 1 -10.18285,2.34688 56.739291,62.481448 0 0 1 -23.30407,-2.06666 l -0.26242,-0.0832 -0.48508,-0.15763 -0.66401,-0.22768 q -1.66997,-0.57797 -3.31212,-1.26539 l -0.66401,-0.28022 q -1.59045,-0.67429 -3.1133,-1.4493 l -0.66402,-0.33276 q -1.59045,-0.81441 -3.1133,-1.72077 c -0.3658,-0.21016 -0.72763,-0.43784 -1.08548,-0.65239 q -1.62226,-0.9983 -3.1809,-2.09293 -1.65408,-1.16031 -3.23657,-2.42132 -0.73161,-0.57797 -1.44731,-1.18658 a 64.158741,70.651757 0 0 1 -7.70176,-7.64927 c -0.13121,-0.14449 -0.25446,-0.29336 -0.37772,-0.43785 -0.63221,-0.7531 -1.25249,-1.51935 -1.85287,-2.3031 -0.22267,-0.28898 -0.44533,-0.57796 -0.66402,-0.87571 q -1.06958,-1.43615 -2.06361,-2.93798 c -0.0994,-0.14449 -0.19483,-0.29337 -0.29025,-0.43785 a 57.490781,63.308984 0 0 1 -6.70773,-13.35448 c -0.0557,-0.14449 -0.10735,-0.29337 -0.15507,-0.43785 q -0.79522,-2.25494 -1.45129,-4.58432 c -0.17892,-0.64801 -0.34989,-1.31354 -0.50098,-1.96157 -0.0517,-0.19265 -0.0994,-0.38968 -0.14315,-0.58234 -2.19481,-9.51452 -2.44532,-19.40559 -2.44532,-29.23974 q 0,-1.72076 0,-3.43714 c 0.0636,-15.90715 0.28629,-32.08577 2.4175,-47.774 0,-0.10947 0.0278,-0.21893 0.0437,-0.32401 a 135.4904,149.20236 0 0 1 2.90654,-15.68385 h 40.60418 v -22.56251 h 8.09539 V 255.3064 h 17.42337 v 18.12268 z"
     fill="#0aa8a7"
     opacity="0.1"
     id="path6"
     style="stroke-width:0.417247" />
  <path
     d="m 559.12913,424.89952 c -10.56059,23.99866 -32.01576,40.04593 -54.24229,50.6288 A 200.13026,220.38393 0 0 1 449.04217,491.939 q -5.52681,0.72247 -11.08941,1.12091 a 215.07651,236.84277 0 0 1 -28.45712,-0.035 q -8.54867,-0.62613 -17.03769,-2.00099 a 214.88566,236.6326 0 0 1 -56.96593,-18.26715 q -7.84886,-3.8925 -15.37965,-8.4987 a 196.7585,216.67094 0 0 1 -24.03965,-17.31266 q -2.52881,-2.12796 -4.994,-4.34786 l -0.67595,-0.60863 c -1.29223,-1.17344 -2.57255,-2.37315 -3.87274,-3.53784 a 56.301918,61.99981 0 0 0 -6.86279,-5.4206 c -0.16302,-0.10509 -0.32605,-0.21017 -0.49304,-0.31088 -0.44532,-0.2846 -0.8986,-0.55169 -1.35984,-0.80564 a 31.137029,34.288171 0 0 0 -2.91847,-1.41864 V 362.5801 h 73.79288 v 15.11902 h 32.38554 V 267.10651 h 38.1191 v 44.22302 h 18.85478 V 285.146 h 15.57845 v -27.96997 h 7.15703 v -16.28808 c 0.62028,0.24957 1.24055,0.5079 1.85685,0.76624 v 15.52184 h 6.96617 v 27.98749 h 15.56653 v 26.18353 h 22.95416 v 99.75576 h 36.48492 v -72.54765 h 11.75739 c 10.68385,27.44017 14.53274,59.60038 2.75944,86.34436 z"
     fill="#0aa8a7"
     opacity="0.1"
     id="path8"
     style="stroke-width:0.417247" />
  <rect
     x="392.46594"
     y="283.74924"
     width="17.037691"
     height="18.761946"
     fill="#0aa8a7"
     opacity="0.1"
     id="rect10"
     style="stroke-width:0.417247" />
  <rect
     x="392.46594"
     y="322.63922"
     width="17.037691"
     height="18.761946"
     fill="#0aa8a7"
     opacity="0.1"
     id="rect12"
     style="stroke-width:0.417247" />
  <rect
     x="392.46594"
     y="361.5336"
     width="17.037691"
     height="18.761946"
     fill="#0aa8a7"
     opacity="0.1"
     id="rect14"
     style="stroke-width:0.417247" />
  <rect
     x="392.46594"
     y="400.42801"
     width="17.037691"
     height="18.761946"
     fill="#0aa8a7"
     opacity="0.1"
     id="rect16"
     style="stroke-width:0.417247" />
  <rect
     x="392.46594"
     y="439.31799"
     width="17.037691"
     height="18.761946"
     fill="#0aa8a7"
     opacity="0.1"
     id="rect18"
     style="stroke-width:0.417247" />
  <path
     d="m 409.5036,478.2036 v 14.8169 q -8.54868,-0.62613 -17.0377,-2.00098 V 478.2036 Z"
     fill="#0aa8a7"
     opacity="0.1"
     id="path20"
     style="stroke-width:0.417247" />
  <rect
     x="280.51416"
     y="386.82834"
     width="59.63789"
     height="8.498702"
     fill="#0aa8a7"
     opacity="0.1"
     id="rect22"
     style="stroke-width:0.417247" />
  <rect
     x="280.51416"
     y="412.63971"
     width="59.63789"
     height="8.498702"
     fill="#0aa8a7"
     opacity="0.1"
     id="rect24"
     style="stroke-width:0.417247" />
  <path
     d="m 340.15204,438.45103 v 8.49433 h -44.07136 q -2.52882,-2.12796 -4.99401,-4.34786 l -0.67594,-0.60863 c -1.29224,-1.17344 -2.57256,-2.37315 -3.87275,-3.53784 z"
     fill="#0aa8a7"
     opacity="0.1"
     id="path26"
     style="stroke-width:0.417247" />
  <path
     d="m 340.15204,464.25802 v 8.4987 h -4.65207 q -7.84886,-3.8925 -15.37964,-8.4987 z"
     fill="#0aa8a7"
     opacity="0.1"
     id="path28"
     style="stroke-width:0.417247" />
  <rect
     x="437.96072"
     y="334.55316"
     width="11.08941"
     height="12.211685"
     fill="#0aa8a7"
     opacity="0.1"
     id="rect30"
     style="stroke-width:0.417247" />
  <rect
     x="197.80281"
     y="277.64124"
     width="11.08941"
     height="12.211685"
     fill="#0aa8a7"
     opacity="0.1"
     id="rect32"
     style="stroke-width:0.417247" />
  <rect
     x="197.80281"
     y="306.01401"
     width="11.08941"
     height="12.211685"
     fill="#0aa8a7"
     opacity="0.1"
     id="rect34"
     style="stroke-width:0.417247" />
  <rect
     x="197.80281"
     y="334.38242"
     width="11.08941"
     height="12.211685"
     fill="#0aa8a7"
     opacity="0.1"
     id="rect36"
     style="stroke-width:0.417247" />
  <rect
     x="197.80281"
     y="362.75522"
     width="11.08941"
     height="12.211685"
     fill="#0aa8a7"
     opacity="0.1"
     id="rect38"
     style="stroke-width:0.417247" />
  <rect
     x="197.80281"
     y="391.12802"
     width="11.08941"
     height="12.211685"
     fill="#0aa8a7"
     opacity="0.1"
     id="rect40"
     style="stroke-width:0.417247" />
  <rect
     x="197.80281"
     y="419.49646"
     width="11.08941"
     height="12.211685"
     fill="#0aa8a7"
     opacity="0.1"
     id="rect42"
     style="stroke-width:0.417247" />
  <rect
     x="480.30246"
     y="334.55316"
     width="11.08941"
     height="12.211685"
     fill="#0aa8a7"
     opacity="0.1"
     id="rect44"
     style="stroke-width:0.417247" />
  <rect
     x="437.96072"
     y="364.67737"
     width="11.08941"
     height="12.211685"
     fill="#0aa8a7"
     opacity="0.1"
     id="rect46"
     style="stroke-width:0.417247" />
  <rect
     x="480.30246"
     y="364.67737"
     width="11.08941"
     height="12.211685"
     fill="#0aa8a7"
     opacity="0.1"
     id="rect48"
     style="stroke-width:0.417247" />
  <rect
     x="437.96072"
     y="394.806"
     width="11.08941"
     height="12.211685"
     fill="#0aa8a7"
     opacity="0.1"
     id="rect50"
     style="stroke-width:0.417247" />
  <rect
     x="480.30246"
     y="394.806"
     width="11.08941"
     height="12.211685"
     fill="#0aa8a7"
     opacity="0.1"
     id="rect52"
     style="stroke-width:0.417247" />
  <rect
     x="437.96072"
     y="424.93457"
     width="11.08941"
     height="12.211685"
     fill="#0aa8a7"
     opacity="0.1"
     id="rect54"
     style="stroke-width:0.417247" />
  <rect
     x="480.30246"
     y="424.93457"
     width="11.08941"
     height="12.211685"
     fill="#0aa8a7"
     opacity="0.1"
     id="rect56"
     style="stroke-width:0.417247" />
  <rect
     x="437.96072"
     y="455.05878"
     width="11.08941"
     height="12.211685"
     fill="#0aa8a7"
     opacity="0.1"
     id="rect58"
     style="stroke-width:0.417247" />
  <rect
     x="480.30246"
     y="455.05878"
     width="11.08941"
     height="12.211685"
     fill="#0aa8a7"
     opacity="0.1"
     id="rect60"
     style="stroke-width:0.417247" />
  <polygon
     points="749.43,761.01 777.32,761.01 777.32,776.44 749.43,779 "
     fill="#0aa8a7"
     opacity="0.1"
     id="polygon62"
     transform="matrix(0.39761242,0,0,0.43785176,139.97804,151.97338)" />
  <path
     d="m 142.40348,311.67982 v 7.00562 h 42.41332 v -7.00562 z m 3.77731,6.56777 h -3.1133 v -6.12992 h 3.1133 z m 3.77732,0 h -3.1133 v -6.12992 h 3.1133 z m 3.77732,0 h -3.1133 v -6.12992 h 3.1133 z m 3.77732,0 h -3.1133 v -6.12992 h 3.1133 z m 3.77732,0 h -3.11331 v -6.12992 h 3.11331 z m 3.77731,0 h -3.1133 v -6.12992 h 3.1133 z m 3.77733,0 h -3.11331 v -6.12992 h 3.11331 z m 3.77731,0 h -3.11331 v -6.12992 h 3.11331 z m 3.77732,0 h -3.1133 v -6.12992 h 3.1133 z m 3.77732,0 h -3.1133 v -6.12992 h 3.1133 z m 3.97613,0 h -3.31212 v -6.12992 h 3.31212 z"
     fill="#0aa8a7"
     opacity="0.1"
     id="path64"
     style="stroke-width:0.417247" />
  <path
     d="m 142.40348,332.02241 v 6.98373 h 42.41332 v -6.98373 z m 3.77731,6.54588 h -3.1133 v -6.10803 h 3.1133 z m 3.77732,0 h -3.1133 v -6.10803 h 3.1133 z m 3.77732,0 h -3.1133 v -6.10803 h 3.1133 z m 3.77732,0 h -3.1133 v -6.10803 h 3.1133 z m 3.77732,0 h -3.11331 v -6.10803 h 3.11331 z m 3.77731,0 h -3.1133 v -6.10803 h 3.1133 z m 3.77733,0 h -3.11331 v -6.10803 h 3.11331 z m 3.77731,0 h -3.11331 v -6.10803 h 3.11331 z m 3.77732,0 h -3.1133 v -6.10803 h 3.1133 z m 3.77732,0 h -3.1133 v -6.10803 h 3.1133 z m 3.97613,0 h -3.31212 v -6.10803 h 3.31212 z"
     fill="#0aa8a7"
     opacity="0.1"
     id="path66"
     style="stroke-width:0.417247" />
  <path
     d="m 142.40348,352.36062 v 6.98374 h 42.41332 v -6.98374 z m 3.77731,6.54588 h -3.1133 v -6.10803 h 3.1133 z m 3.77732,0 h -3.1133 v -6.10803 h 3.1133 z m 3.77732,0 h -3.1133 v -6.10803 h 3.1133 z m 3.77732,0 h -3.1133 v -6.10803 h 3.1133 z m 3.77732,0 h -3.11331 v -6.10803 h 3.11331 z m 3.77731,0 h -3.1133 v -6.10803 h 3.1133 z m 3.77733,0 h -3.11331 v -6.10803 h 3.11331 z m 3.77731,0 h -3.11331 v -6.10803 h 3.11331 z m 3.77732,0 h -3.1133 v -6.10803 h 3.1133 z m 3.77732,0 h -3.1133 v -6.10803 h 3.1133 z m 3.97613,0 h -3.31212 v -6.10803 h 3.31212 z"
     fill="#0aa8a7"
     opacity="0.1"
     id="path68"
     style="stroke-width:0.417247" />
  <path
     d="m 142.40348,372.68132 v 7.00563 h 42.41332 v -7.00563 z m 3.77731,6.56778 h -3.1133 v -6.12992 h 3.1133 z m 3.77732,0 h -3.1133 v -6.12992 h 3.1133 z m 3.77732,0 h -3.1133 v -6.12992 h 3.1133 z m 3.77732,0 h -3.1133 v -6.12992 h 3.1133 z m 3.77732,0 h -3.11331 v -6.12992 h 3.11331 z m 3.77731,0 h -3.1133 v -6.12992 h 3.1133 z m 3.77733,0 h -3.11331 v -6.12992 h 3.11331 z m 3.77731,0 h -3.11331 v -6.12992 h 3.11331 z m 3.77732,0 h -3.1133 v -6.12992 h 3.1133 z m 3.77732,0 h -3.1133 v -6.12992 h 3.1133 z m 3.97613,0 h -3.31212 v -6.12992 h 3.31212 z"
     fill="#0aa8a7"
     opacity="0.1"
     id="path70"
     style="stroke-width:0.417247" />
  <path
     d="m 142.5665,393.03705 c 0.15109,0.65678 0.32206,1.31356 0.50099,1.96158 v -1.52372 h 3.1133 v 6.12992 h -1.66201 c 0.0477,0.14449 0.0994,0.29336 0.15506,0.43785 h 40.15886 v -7.00563 z m 7.39161,6.56778 h -3.1133 v -6.12992 h 3.1133 z m 3.77732,0 h -3.1133 v -6.12992 h 3.1133 z m 3.77732,0 h -3.1133 v -6.12992 h 3.1133 z m 3.77732,0 h -3.11331 v -6.12992 h 3.11331 z m 3.77731,0 h -3.1133 v -6.12992 h 3.1133 z m 3.77733,0 h -3.11331 v -6.12992 h 3.11331 z m 3.77731,0 h -3.11331 v -6.12992 h 3.11331 z m 3.77732,0 h -3.1133 v -6.12992 h 3.1133 z m 3.77732,0 h -3.1133 v -6.12992 h 3.1133 z m 3.97613,0 h -3.31212 v -6.12992 h 3.31212 z"
     fill="#0aa8a7"
     opacity="0.1"
     id="path72"
     style="stroke-width:0.417247" />
  <path
     d="m 151.38157,413.37527 c 0.0954,0.14449 0.19085,0.29335 0.29025,0.43784 h 2.06361 v 2.93799 c 0.21869,0.29337 0.44135,0.58235 0.66402,0.87571 v -3.80932 h 3.1133 v 6.12993 h -1.26043 c 0.12326,0.14449 0.24652,0.29336 0.37773,0.43785 h 28.18675 v -7.00563 z m 9.9085,6.56777 h -3.11331 v -6.12993 h 3.11331 z m 3.77731,0 h -3.1133 v -6.12993 h 3.1133 z m 3.77733,0 h -3.11331 v -6.12993 h 3.11331 z m 3.77731,0 h -3.11331 v -6.12993 h 3.11331 z m 3.77732,0 h -3.1133 v -6.12993 h 3.1133 z m 3.77732,0 h -3.1133 v -6.12993 h 3.1133 z m 3.97613,0 h -3.31212 v -6.12993 h 3.31212 z"
     fill="#0aa8a7"
     opacity="0.1"
     id="path74"
     style="stroke-width:0.417247" />
  <path
     d="m 172.20056,433.71348 c 0.35785,0.22331 0.71968,0.43785 1.08548,0.65239 v -0.21454 h 3.1133 v 1.93531 l 0.66402,0.33276 v -2.26807 h 3.1133 v 3.71737 l 0.66401,0.28022 v -3.99759 h 3.31212 v 5.25422 l 0.66401,0.22768 v -5.91975 z"
     fill="#0aa8a7"
     opacity="0.1"
     id="path76"
     style="stroke-width:0.417247" />
  <path
     d="m 302.98322,251.03297 c 0,0 -9.47907,-0.63051 -8.34985,6.68162 a 1.6222587,1.7864352 0 0 0 0.84294,1.88276 c 0,0 0,-0.54294 0.97017,-0.35904 a 4.4333784,4.8820472 0 0 0 1.02981,0.0525 2.1431309,2.3600209 0 0 0 1.26044,-0.5692 v 0 c 0,0 2.664,-1.21286 3.70177,-6.00734 0,0 0.76342,-1.04646 0.73558,-1.31355 l -1.59045,0.75311 c 0,0 0.5487,1.26977 0.11929,2.32499 0,0 -0.0517,-2.27683 -0.36183,-2.22429 -0.0596,0 -0.83101,0.43785 -0.83101,0.43785 0,0 0.94234,2.21553 0.23062,3.82245 0,0 0.27037,-2.72344 -0.52088,-3.66044 l -1.15307,0.73121 c 0,0 1.10138,2.28559 0.35387,4.15083 0,0 0.19484,-2.85916 -0.58847,-3.97131 l -1.02186,0.87571 c 0,0 1.03379,2.25055 0.39762,3.80055 0,0 -0.0835,-3.33206 -0.62426,-3.586 a 6.1311834,6.7516741 0 0 0 -1.02981,1.22598 c 0,0 0.70774,1.63318 0.27037,2.49575 0,0 -0.27037,-2.21553 -0.49303,-2.22866 0,0 -0.88668,1.47118 -0.97813,2.47824 a 4.8429192,5.3330344 0 0 1 0.76341,-2.62712 2.6719555,2.9423638 0 0 0 -1.35983,0.775 c 0,0 0.13916,-1.03771 1.59044,-1.12966 0,0 0.73559,-1.11214 0.9344,-1.18219 0,0 -1.43538,-0.13136 -2.30615,0.29336 0,0 0.76739,-0.98079 2.56857,-0.53418 l 1.00596,-0.90635 c 0,0 -1.88866,-0.28461 -2.68786,0.0306 0,0 0.91849,-0.8757 2.95824,-0.23643 l 1.09741,-0.72247 a 10.01188,11.025107 0 0 0 -2.56858,-0.24519 c 0,0 1.00994,-0.59986 2.89064,0.0526 l 0.79523,-0.38969 c 0,0 -1.19284,-0.25396 -1.52286,-0.29336 -0.33001,-0.0394 -0.3658,-0.14449 -0.3658,-0.14449 a 4.0874556,4.5011161 0 0 1 2.2147,0.27147 c 0,0 1.6501,-0.69181 1.62225,-0.80565 z"
     fill="#0aa8a7"
     opacity="0.1"
     id="path78"
     style="stroke-width:0.417247" />
  <path
     d="m 278.10065,286.61719 c 0,0 -3.24055,9.82539 3.44729,10.72298 a 1.6182826,1.7820567 0 0 0 1.87276,-0.35466 c 0,0 -0.46521,-0.17076 -0.0358,-1.12965 a 4.5288054,4.9871315 0 0 0 0.34195,-1.06837 2.1510832,2.368778 0 0 0 -0.14314,-1.49307 v 0 c 0,0 -0.29822,-3.15691 -4.17891,-5.61326 0,0 -0.69184,-1.10777 -0.93439,-1.15155 l 0.19881,1.90466 c 0,0 1.26043,-0.21893 2.05963,0.53417 0,0 -1.98806,-0.59109 -2.03975,-0.24957 0,0.0657 0.14711,1.00268 0.14711,1.00268 0,0 2.19483,-0.36779 3.39165,0.84068 0,0 -2.29821,-1.05961 -3.33598,-0.48602 l 0.31014,1.39237 c 0,0 2.30218,-0.50791 3.7137,0.80564 0,0 -2.43339,-1.01143 -3.62622,-0.50352 l 0.47315,1.31355 c 0,0 2.25446,-0.43785 3.42345,0.6524 0,0 -2.92643,-0.8757 -3.29621,-0.35903 a 6.2584195,6.8917864 0 0 0 0.77137,1.43177 c 0,0 1.62623,-0.28022 2.25049,0.43784 0,0 -2.00795,-0.34589 -2.07952,-0.11821 0,0 1.02982,1.35734 1.88071,1.75141 a 4.866776,5.3593055 0 0 1 -2.06361,-1.55438 2.6719555,2.9423638 0 0 0 0.29025,1.65946 c 0,0 -0.86679,-0.43785 -0.53677,-1.99222 0,0 -0.76342,-1.09026 -0.76342,-1.31356 0,0 -0.52484,1.47556 -0.39761,2.51765 0,0 -0.63618,-1.09025 0.26242,-2.86356 l -0.50099,-1.31354 c 0,0 -0.79522,1.91341 -0.73955,2.85041 0,0 -0.49304,-1.22161 0.63617,-3.19632 l -0.31411,-1.36172 a 9.9124774,10.915644 0 0 0 -0.94234,2.62711 c 0,0 -0.23856,-1.23912 0.86281,-3.03869 l -0.1153,-0.93701 c 0,0 -0.55666,1.17345 -0.68787,1.52811 -0.13121,0.35466 -0.23062,0.34153 -0.23062,0.34153 a 4.0874556,4.5011161 0 0 1 0.86282,-2.2637 c 0,0 -0.12723,-1.95281 -0.23459,-1.95281 z"
     fill="#0aa8a7"
     opacity="0.1"
     id="path80"
     style="stroke-width:0.417247" />
  <path
     d="m 340.93534,278.33303 c 0,0 -3.23657,9.8429 3.44729,10.71861 a 1.6222587,1.7864352 0 0 0 1.87673,-0.35904 c 0,0 -0.46918,-0.17076 -0.0358,-1.12528 a 4.2544529,4.6850139 0 0 0 0.33797,-1.07274 2.1510832,2.368778 0 0 0 -0.13916,-1.49308 v 0 c 0,0 -0.29822,-3.1569 -4.17891,-5.61325 0,0 -0.69582,-1.10339 -0.93837,-1.14718 l 0.20279,1.90028 c 0,0 1.26043,-0.21455 2.05963,0.53856 0,0 -1.98806,-0.5911 -2.04373,-0.25395 0,0.07 0.14712,1.00268 0.14712,1.00268 0,0 2.19481,-0.36342 3.39561,0.84068 0,0 -2.2982,-1.05523 -3.33994,-0.48602 l 0.31411,1.39674 c 0,0 2.30217,-0.51228 3.71369,0.80565 0,0 -2.43736,-1.01582 -3.6302,-0.50791 l 0.47316,1.31356 c 0,0 2.25446,-0.43785 3.42345,0.6524 0,0 -2.92246,-0.8757 -3.29621,-0.35466 a 6.1351596,6.7560524 0 0 0 0.79522,1.43178 c 0,0 1.62226,-0.28461 2.25049,0.43785 0,0 -2.00794,-0.34591 -2.07951,-0.11384 0,0 1.02584,1.35295 1.87673,1.7514 a 4.8230386,5.3111419 0 0 1 -2.05963,-1.55437 2.6918361,2.9642564 0 0 0 0.28628,1.65945 c 0,0 -0.86282,-0.43784 -0.5328,-1.98784 0,0 -0.76342,-1.09463 -0.76739,-1.31356 0,0 -0.52088,1.47994 -0.39762,2.51765 0,0 -0.63618,-1.08587 0.26243,-2.86355 l -0.50099,-1.31356 c 0,0 -0.79523,1.91342 -0.73956,2.84604 0,0 -0.49305,-1.21723 0.63618,-3.19194 l -0.3181,-1.3661 a 9.9124774,10.915644 0 0 0 -0.94234,2.62711 c 0,0 -0.23459,-1.23911 0.8668,-3.03868 l -0.11531,-0.93701 c 0,0 -0.55665,1.17344 -0.69184,1.5281 -0.13519,0.35467 -0.23062,0.34153 -0.23062,0.34153 a 4.1152885,4.5317658 0 0 1 0.8668,-2.2637 c 0,0 -0.14314,-1.94844 -0.25447,-1.95281 z"
     fill="#0aa8a7"
     opacity="0.1"
     id="path82"
     style="stroke-width:0.417247" />
  <path
     d="m 251.11469,358.67007 c 0,0 -3.24054,9.82977 3.4473,10.72737 a 1.6143064,1.7776782 0 0 0 1.87276,-0.35905 c 0,0 -0.46521,-0.17076 -0.0358,-1.12527 a 4.2822857,4.7156634 0 0 0 0.34195,-1.07274 2.1232504,2.3381284 0 0 0 -0.14314,-1.49308 v 0 c 0,0 -0.29821,-3.1569 -4.17891,-5.60887 0,0 -0.69184,-1.10777 -0.93439,-1.15156 l 0.19881,1.90028 c 0,0 1.26441,-0.21455 2.05963,0.53856 0,0 -1.98806,-0.5911 -2.03975,-0.25396 0,0.07 0.14712,1.00269 0.14712,1.00269 0,0 2.19482,-0.36342 3.39163,0.84068 0,0 -2.2982,-1.05523 -3.33597,-0.48602 l 0.31014,1.39674 c 0,0 2.30218,-0.51228 3.7137,0.80565 0,0 -2.43339,-1.01582 -3.62622,-0.50791 l 0.47315,1.31355 c 0,0 2.25446,-0.43784 3.42344,0.65241 0,0 -2.92245,-0.87571 -3.2962,-0.35466 a 6.2584195,6.8917864 0 0 0 0.77136,1.43178 c 0,0 1.62624,-0.28461 2.25447,0.43785 0,0 -2.01192,-0.34591 -2.08349,-0.11385 0,0 1.02982,1.35296 1.88071,1.75141 a 4.8389431,5.3286559 0 0 1 -2.06361,-1.55 2.660027,2.9292283 0 0 0 0.29026,1.65509 c 0,0 -0.8668,-0.43785 -0.53678,-1.98785 0,0 -0.75944,-1.09463 -0.76342,-1.31356 0,0 -0.52484,1.47994 -0.39761,2.51765 0,0 -0.63618,-1.08587 0.26242,-2.86356 l -0.50099,-1.31355 c 0,0 -0.79522,1.91341 -0.73558,2.84603 0,0 -0.49304,-1.21722 0.63618,-3.19193 l -0.31809,-1.36172 a 9.8369311,10.832453 0 0 0 -0.94234,2.62711 c 0,0 -0.23857,-1.24349 0.86282,-3.03869 l -0.11531,-0.94138 c 0,0 -0.55666,1.17344 -0.68787,1.5281 -0.13121,0.35466 -0.23061,0.34153 -0.23061,0.34153 a 4.0715511,4.483602 0 0 1 0.86679,-2.2637 c 0,0 -0.13121,-1.96157 -0.23857,-1.96157 z"
     fill="#0aa8a7"
     opacity="0.1"
     id="path84"
     style="stroke-width:0.417247" />
  <path
     d="m 238.25591,266.02501 c 0,0 -3.23657,9.8254 3.44729,10.72299 a 1.6262347,1.7908137 0 0 0 1.87674,-0.35465 c 0,0 -0.46919,-0.17077 -0.0358,-1.12966 a 4.4572352,4.9083182 0 0 0 0.33797,-1.07274 2.1391548,2.3556425 0 0 0 -0.13916,-1.4887 v 0 c 0,0 -0.29821,-3.15691 -4.18288,-5.61326 0,0 -0.69185,-1.10776 -0.93439,-1.15155 l 0.20278,1.90465 c 0,0 1.26043,-0.21892 2.05566,0.53419 0,0 -1.98807,-0.5911 -2.03976,-0.24958 0,0.0656 0.14713,1.00268 0.14713,1.00268 0,0 2.19481,-0.36779 3.3956,0.84068 0,0 -2.2982,-1.05961 -3.33994,-0.48602 l 0.31014,1.39238 c 0,0 2.30217,-0.5123 3.71767,0.80564 0,0 -2.43737,-1.01582 -3.6302,-0.50353 l 0.47315,1.31355 c 0,0 2.25447,-0.43785 3.42345,0.65678 0,0 -2.92245,-0.8757 -3.29621,-0.35904 a 6.2584195,6.8917864 0 0 0 0.77137,1.43178 c 0,0 1.62623,-0.28023 2.25446,0.43785 0,0 -2.00794,-0.34591 -2.07951,-0.11822 0,0 1.02584,1.35734 1.87673,1.75141 a 4.8906327,5.3855767 0 0 1 -2.0636,-1.55438 2.6719555,2.9423638 0 0 0 0.29025,1.65946 c 0,0 -0.8668,-0.43786 -0.5328,-1.99223 0,0 -0.76342,-1.09025 -0.76739,-1.31355 0,0 -0.52087,1.47556 -0.39761,2.51765 0,0 -0.64016,-1.09026 0.26242,-2.86356 l -0.50497,-1.31355 c 0,0 -0.79522,1.91342 -0.73558,2.85042 0,0 -0.49304,-1.22161 0.63618,-3.19632 l -0.31809,-1.36172 a 9.9124774,10.915644 0 0 0 -0.94234,2.62711 c 0,0 -0.23459,-1.23912 0.86282,-3.0387 l -0.11133,-0.93699 c 0,0 -0.56064,1.17344 -0.69185,1.52372 -0.13121,0.35028 -0.23061,0.3459 -0.23061,0.3459 a 4.0715511,4.483602 0 0 1 0.86679,-2.26369 c 0,0 -0.12326,-1.9572 -0.23459,-1.9572 z"
     fill="#0aa8a7"
     opacity="0.1"
     id="path86"
     style="stroke-width:0.417247" />
  <path
     d="m 262.2876,319.5305 c 0,0 2.50098,10.07059 8.43335,6.56777 a 1.6182826,1.7820567 0 0 0 1.34394,-1.47993 c 0,0 -0.46918,0.15762 -0.6163,-0.8976 a 4.3737365,4.8163694 0 0 0 -0.28628,-1.09025 2.1033697,2.3162358 0 0 0 -0.89463,-1.12966 v 0 c 0,0 -1.89662,-2.39067 -6.3618,-1.93531 0,0 -1.14512,-0.45974 -1.36778,-0.34152 l 1.16103,1.42302 c 0,0 0.91848,-0.97641 1.9642,-0.8757 0,0 -1.94433,0.78813 -1.80119,1.09025 0.0318,0.0613 0.64414,0.72683 0.64414,0.72683 0,0 1.59045,-1.69448 3.21271,-1.47118 0,0 -2.42941,0.59548 -2.97812,1.72514 l 0.9821,0.94138 c 0,0 1.6143,-1.87839 3.45922,-1.70325 0,0 -2.52483,0.71808 -3.23258,1.89153 l 1.08151,0.78375 c 0,0 1.59045,-1.79957 3.14113,-1.63757 0,0 -2.83895,1.15155 -2.88269,1.79957 a 6.1987776,6.8261091 0 0 0 1.3837,0.67868 c 0,0 1.19283,-1.26102 2.06361,-1.08151 0,0 -1.82505,0.99393 -1.76143,1.22599 0,0 1.55069,0.43786 2.44532,0.22768 a 4.8508715,5.3417915 0 0 1 -2.49701,0.0438 2.6480987,2.9160927 0 0 0 1.10537,1.16906 c 0,0 -0.93838,0.18827 -1.47913,-1.28728 0,0 -1.19283,-0.40721 -1.32007,-0.5911 0,0 0.3499,1.54123 0.99404,2.31185 0,0 -1.08946,-0.48601 -1.28429,-2.50889 l -1.10139,-0.75748 c 0,0 0.36182,2.06228 0.88668,2.79349 0,0 -1.04175,-0.68305 -1.15308,-3.01242 l -0.97018,-0.91072 a 9.9403109,10.946294 0 0 0 0.61232,2.75846 c 0,0 -0.83895,-0.87571 -0.88269,-3.02994 l -0.58449,-0.69618 c 0,0 0.15904,1.31355 0.23459,1.68572 0.0755,0.37218 0,0.43786 0,0.43786 a 4.0834796,4.4967376 0 0 1 -0.47714,-2.39942 c 0,0 -1.12524,-1.5106 -1.21669,-1.44492 z"
     fill="#0aa8a7"
     opacity="0.1"
     id="path88"
     style="stroke-width:0.417247" />
  <path
     d="m 330.13618,328.52397 c 0,0 2.50098,10.07059 8.42939,6.56778 a 1.6143064,1.7776782 0 0 0 1.3479,-1.47994 c 0,0 -0.47316,0.15763 -0.62027,-0.8757 a 4.1789065,4.601822 0 0 0 -0.28231,-1.09025 2.1312025,2.3468855 0 0 0 -0.8986,-1.12966 v 0 c 0,0 -1.89661,-2.39067 -6.3618,-1.93093 0,0 -1.14513,-0.46412 -1.36381,-0.3459 l 1.15705,1.42302 c 0,0 0.91848,-0.97641 1.96421,-0.87571 0,0 -1.94433,0.78814 -1.79721,1.09025 0.0278,0.0613 0.64413,0.72684 0.64413,0.72684 0,0 1.59045,-1.69449 3.21271,-1.47118 0,0 -2.43339,0.59548 -2.9821,1.72513 l 0.98608,0.94139 c 0,0 1.59045,-1.87839 3.45525,-1.70324 0,0 -2.52086,0.71806 -3.22861,1.89151 l 1.08151,0.78375 c 0,0 1.59044,-1.79956 3.13716,-1.63756 0,0 -2.83895,1.15155 -2.87871,1.79957 a 6.1510642,6.7735666 0 0 0 1.37971,0.67867 c 0,0 1.19284,-1.26101 2.06361,-1.08149 0,0 -1.82106,0.99392 -1.76143,1.22598 0,0 1.5507,0.43786 2.4493,0.22769 a 4.8707521,5.363684 0 0 1 -2.50098,0.0438 2.6759315,2.9467424 0 0 0 1.10536,1.16906 c 0,0 -0.93837,0.18828 -1.47912,-1.28728 0,0 -1.19284,-0.4072 -1.31609,-0.5911 0,0 0.34592,1.54124 0.99005,2.31186 0,0 -1.08946,-0.48602 -1.28429,-2.50889 l -1.10138,-0.76624 c 0,0 0.36182,2.06227 0.89065,2.79349 0,0 -1.04175,-0.68305 -1.15308,-3.01242 l -0.97415,-0.91073 a 9.8170505,10.81056 0 0 0 0.6163,2.75847 c 0,0 -0.84294,-0.87571 -0.88668,-3.02994 l -0.58449,-0.69619 c 0,0 0.15905,1.31356 0.23459,1.68573 0.0756,0.37218 0,0.43785 0,0.43785 a 4.0834796,4.4967376 0 0 1 -0.47713,-2.39942 c 0,0 -1.12127,-1.52372 -1.21272,-1.45805 z"
     fill="#0aa8a7"
     opacity="0.1"
     id="path90"
     style="stroke-width:0.417247" />
  <path
     d="m 304.68104,429.65897 c 0,0 20.62813,-7.64927 16.35777,-34.75229 l -26.20265,-7.49164 -6.08348,22.23849 z"
     fill="#ced7e7"
     id="path92"
     style="stroke-width:0.417247" />
  <path
     d="m 288.75268,409.65353 15.92438,20.00544 c 0,0 20.62813,-7.64927 16.35777,-34.75229 z"
     opacity="0.1"
     id="path94"
     style="stroke-width:0.417247" />
  <path
     d="m 202.07318,209.42392 c 0,0 2.78329,4.98713 6.58843,2.49575 3.80515,-2.49138 0.15507,-9.37441 0.15507,-9.37441 0,0 -7.28823,-1.099 -6.7435,6.87866 z"
     fill="#fed253"
     id="path96"
     style="stroke-width:0.417247" />
  <path
     d="m 208.66161,211.91967 a 3.9244346,4.3215968 0 0 1 -3.06559,0.5692 c -1.39562,-0.38968 -2.46917,-1.57188 -3.04571,-2.34687 a 6.6401272,7.3121244 0 0 1 -0.47713,-0.71371 c -0.19483,-2.84603 0.60834,-4.54052 1.72165,-5.53882 v 0 c 1.53081,-1.37047 3.65009,-1.4274 4.5646,-1.38361 0.2823,0 0.44532,0.0438 0.44532,0.0438 l 0.0755,0.14011 c 0.10735,0.22331 0.34195,0.71808 0.59244,1.37924 0.8509,2.16737 1.8648,6.0949 -0.81113,7.85068 z"
     opacity="0.1"
     id="path98"
     style="stroke-width:0.417247" />
  <path
     d="m 306.70886,393.63253 14.31405,1.27415 26.64002,0.24081 -20.98995,28.46037 c 0,0 -6.66001,0.39844 -8.03178,1.43178 -1.37175,1.03332 -20.6321,0.48163 -20.6321,0.48163 l -3.10933,-14.58922 z"
     fill="#ffa2a2"
     id="path100"
     style="stroke-width:0.417247" />
  <path
     d="m 306.70886,393.63253 14.31405,1.27415 26.64002,0.24081 -20.98995,28.46037 c 0,0 -6.66001,0.39844 -8.03178,1.43178 -1.37175,1.03332 -20.6321,0.48163 -20.6321,0.48163 l -3.10933,-14.58922 z"
     opacity="0.05"
     id="path102"
     style="stroke-width:0.417247" />
  <path
     d="m 292.23179,317.11356 3.32802,6.21749 0.72366,10.84121 c 0,0 2.31807,9.24305 4.05563,11.95336 1.73757,2.71029 2.46122,9.88669 2.46122,9.88669 0,0 0.72366,6.69475 1.59045,8.12652 0.86681,1.43178 2.02783,11.822 2.02783,11.822 0,0 7.67392,16.8967 14.62021,18.96774 0,0 -34.45311,12.43499 -16.35777,34.75229 0,0 -12.88265,3.50281 -15.92438,-0.47725 -3.04174,-3.98007 -11.00194,-62.96746 -11.00194,-62.96746 l 2.46122,-49.73996 z"
     fill="#ced7e7"
     id="path104"
     style="stroke-width:0.417247" />
  <path
     d="m 292.23179,317.11356 3.32802,6.21749 0.72366,10.84121 c 0,0 2.31807,9.24305 4.05563,11.95336 1.73757,2.71029 2.46122,9.88669 2.46122,9.88669 0,0 0.72366,6.69475 1.59045,8.12652 0.86681,1.43178 2.02783,11.822 2.02783,11.822 0,0 7.67392,16.8967 14.62021,18.96774 0,0 -34.45311,12.43499 -16.35777,34.75229 0,0 -12.88265,3.50281 -15.92438,-0.47725 -3.04174,-3.98007 -11.00194,-62.96746 -11.00194,-62.96746 l 2.46122,-49.73996 z"
     opacity="0.05"
     id="path106"
     style="stroke-width:0.417247" />
  <path
     d="m 250.4308,256.51925 a 31.013768,34.152437 0 0 0 0.83498,16.59459 l -5.35982,16.89669 c 0,0 -40.82286,-25.0276 -37.34773,-31.08747 1.96818,-3.43714 2.21868,-12.53132 2.05963,-19.75587 -0.1153,-5.49067 -0.46918,-9.89545 -0.46918,-9.89545 0,0 50.09916,5.42499 43.43121,18.01759 a 26.993907,29.725756 0 0 0 -3.14909,9.22992 z"
     fill="#ffa2a2"
     id="path108"
     style="stroke-width:0.417247" />
  <path
     d="m 253.57989,247.28933 a 26.993907,29.725756 0 0 0 -3.14909,9.22992 33.777175,37.195507 0 0 1 -39.81294,-17.35206 c -0.1153,-5.49067 -0.46918,-9.89545 -0.46918,-9.89545 0,0 50.08724,5.42499 43.43121,18.01759 z"
     opacity="0.1"
     id="path110"
     style="stroke-width:0.417247" />
  <path
     d="m 273.84619,220.18631 a 33.733437,37.147344 0 1 1 -61.25617,-21.45473 q 0.71571,-1.10777 1.50695,-2.16299 a 33.74139,37.1561 0 0 1 10.97809,-9.63274 v 0 a 33.137019,36.490566 0 0 1 7.21666,-2.88106 33.797055,37.217399 0 0 1 41.14096,30.18111 34.13105,37.585195 0 0 1 0.41351,5.95041 z"
     fill="#ffa2a2"
     id="path112"
     style="stroke-width:0.417247" />
  <path
     d="m 287.16223,372.91338 c -0.50497,2.96864 0.12724,8.39362 1.08548,13.91494 0.0398,0.24081 0.0835,0.48163 0.12724,0.72245 0.0437,0.24082 0.10736,0.61299 0.16302,0.91511 0.44135,2.37315 0.92246,4.72442 1.39165,6.86114 0.46918,2.13671 0.89065,3.96694 1.2485,5.47314 0.54075,2.25494 0.91053,3.67358 0.91053,3.67358 0,0 0.0477,1.39237 0.11133,3.6079 0.0358,1.27852 0.0756,2.83728 0.11531,4.55804 0,0.49915 0.0278,1.00705 0.0398,1.53248 0.0199,0.9151 0.0398,1.86524 0.0596,2.83727 0,0.31526 0,0.63051 0.0198,0.95014 0,1.04647 0.0358,2.11483 0.0517,3.1788 0.0199,1.46243 0.0358,2.92486 0.0437,4.34349 0,0.54294 0,1.07712 0,1.60255 0,1.35734 0,2.65775 0,3.85309 -0.0437,3.39335 -0.167,5.95479 -0.42943,6.69475 -0.0915,0.25396 -0.17494,0.5298 -0.25447,0.81878 a 25.141033,27.685366 0 0 0 -0.74751,4.14647 l -0.67594,-0.60863 c -1.29224,-1.17344 -2.57255,-2.37315 -3.87274,-3.53784 a 56.301918,61.99981 0 0 0 -6.86279,-5.4206 c -0.16303,-0.10509 -0.32605,-0.21017 -0.49304,-0.31088 -0.44533,-0.2846 -0.89861,-0.55169 -1.35983,-0.80564 a 31.137029,34.288171 0 0 0 -2.91849,-1.41864 c -4.59242,-1.92655 -9.51088,-2.62711 -14.49694,-2.50889 -1.98806,0.8363 -3.28031,1.43615 -3.28031,1.43615 l -2.52881,0.84068 -0.42147,0.14011 c -2.73955,0.91949 -6.59241,2.22428 -7.98008,2.76723 -2.24254,0.87569 -21.71361,5.3374 -21.71361,5.3374 a 32.34577,35.61924 0 0 1 -5.43139,1.09464 76.687506,84.448465 0 0 1 -10.18285,2.34688 56.739291,62.481448 0 0 1 -23.30407,-2.06666 3.809127,4.1946198 0 0 1 -0.67594,-0.0219 c 0.13917,0 0.27435,-0.035 0.39761,-0.0613 l -0.48509,-0.15763 -0.664,-0.22768 q -1.66997,-0.57796 -3.31212,-1.26539 l -0.66401,-0.28023 q -1.59045,-0.67429 -3.1133,-1.44928 l -0.66402,-0.33278 q -1.59045,-0.81439 -3.1133,-1.72075 c -0.3658,-0.21017 -0.72763,-0.43785 -1.08548,-0.6524 q -1.62226,-0.99831 -3.1809,-2.09293 c -0.17495,-1.6507 -0.26641,-2.75409 -0.26641,-2.75409 l -1.55069,-8.50308 -0.0795,-0.43785 -1.11331,-6.12993 -0.0795,-0.43785 -2.42145,-13.33697 -0.0795,-0.43785 -1.11332,-6.12992 -0.0795,-0.43785 -2.45326,-13.32821 -0.0795,-0.43785 -1.11331,-6.12992 -0.0795,-0.43785 -2.43339,-13.35448 -0.0795,-0.43785 -1.11332,-6.10803 -0.0795,-0.43786 -0.44134,-2.40819 -0.66402,-3.6473 c 0,0 -2.11928,-3.33643 -4.50495,-7.28148 l -0.26638,-0.43785 c -0.67992,-1.10776 -1.37972,-2.25931 -2.05964,-3.38897 -0.22664,-0.37218 -0.44532,-0.73997 -0.66401,-1.10339 q -0.49701,-0.82754 -0.96223,-1.61567 l -0.2147,-0.36342 -0.0437,-0.0744 c -3.42742,-5.84094 -1.1332,-8.38048 -1.1332,-8.38048 0,0 1.43935,-2.14547 3.29621,-4.98275 0.0915,-0.14449 0.18688,-0.28898 0.28628,-0.43786 0.79522,-1.22598 1.66998,-2.56581 2.52882,-3.90563 l 0.66401,-1.04209 c 0.25049,-0.38968 0.49701,-0.77938 0.73558,-1.16469 0.0954,-0.14448 0.18688,-0.29335 0.27436,-0.43785 1.83299,-2.91609 3.34391,-5.46001 3.65405,-6.36198 0.48509,-1.42302 3.57851,-5.63078 6.66001,-9.32187 2.42941,-2.91609 4.8469,-5.50817 5.93238,-6.12992 2.46122,-1.43177 3.47513,-6.05987 3.47513,-6.05987 0,0 5.35584,-2.06666 6.0795,-3.66044 0.72365,-1.59378 10.85879,-8.75703 10.85879,-8.75703 0,0 4.09939,-2.90734 5.75743,-4.65875 a 3.391634,3.7348755 0 0 0 0.60834,-0.78375 c 0.57654,-1.13841 4.34193,-2.07542 5.87273,-2.41256 0.39762,-0.0876 0.64414,-0.13574 0.64414,-0.13574 a 12.958188,14.269589 0 0 1 2.31809,-3.34956 c 0.62424,-0.60862 1.40356,-2.70593 2.05963,-4.73756 0.71172,-2.21553 1.2644,-4.34787 1.2644,-4.34787 1.16103,-4.30408 3.47514,-3.02993 3.47514,-3.02993 a 7.9522479,8.7570353 0 0 0 0.15109,1.7514 v 0 c 0.96619,5.25423 6.21468,7.44348 8.97013,9.89983 3.04174,2.70593 7.81707,9.72469 11.58245,11.15647 3.11728,1.18657 6.73158,5.66142 7.87671,7.15449 l 0.0875,0.11384 c 0.19085,0.2452 0.28627,0.38531 0.28627,0.38531 0,0 2.13519,-0.1226 3.43538,-0.14886 h 0.47316 a 1.3836912,1.5237242 0 0 0 0.72366,-0.32401 c 1.29223,-0.96766 3.21668,-3.80494 4.05565,-4.45734 1.00992,-0.80127 2.02781,-13.71352 2.02781,-13.71352 l 0.0517,-0.0262 c 3.60634,-1.86086 7.4751,16.76535 7.4751,16.76535 0,0 6.80315,2.23304 7.38366,3.82682 0.11134,0.31526 0.62426,0.8757 1.39563,1.55438 a 76.500635,84.242676 0 0 0 11.17291,7.81565 c 0.0875,0.0481 0.17097,0.0963 0.25845,0.13574 a 2.6520748,2.9204712 0 0 0 0.24254,0.12697 c 0.14711,0.0788 0.29025,0.14887 0.42544,0.21455 q 0.32207,0.15763 0.59642,0.26271 l 0.23857,0.0919 a 5.7494757,6.3313362 0 0 1 1.59045,0.90635 c 0.14314,0.11384 0.28628,0.23206 0.42544,0.35904 a 11.236527,12.373691 0 0 1 1.48708,1.64632 c 0.0676,0.0876 0.13121,0.17952 0.19483,0.26709 v 0 c 0.30218,0.41596 0.57256,0.82754 0.79522,1.20848 a 16.258371,17.903758 0 0 1 0.998,1.83022 c 0,0 5.93239,11.16083 7.81707,12.43061 1.88468,1.26977 3.04173,14.19078 3.04173,14.19078 v 0 l -6.3618,25.96898 c 0,0 -0.2982,6.56778 -0.85487,13.2669 -0.31013,3.75677 -0.70377,7.57922 -1.17295,10.32893 z"
     fill="#ced7e7"
     id="path114"
     style="stroke-width:0.417247" />
  <path
     d="m 239.24596,279.1737 c 0,0 -4.26638,2.5483 -7.59837,2.78912 a 6.2623957,6.8961653 0 0 1 -1.30417,-0.0832 c -3.49104,-0.58233 -8.61228,-3.74362 -8.61228,-3.74362 l 6.00792,-7.25521 7.30811,3.98883 2.68786,2.75409 z"
     fill="#63667e"
     id="path116"
     style="stroke-width:0.417247" />
  <path
     d="m 273.41677,214.2359 a 3.9999809,4.4047887 0 0 1 -0.51292,0.65241 c -2.09145,2.18926 -5.80514,1.2829 -8.65602,0.77499 a 31.522712,34.712887 0 0 1 -7.20872,-2.29434 c -2.01191,-0.94575 -4.42542,-2.10169 -6.23455,-0.74435 -0.69583,0.51666 -1.17296,1.34421 -1.89661,1.79957 -0.72366,0.45537 -1.64613,0.48602 -2.50099,0.49915 -2.78328,0 -5.56658,0.035 -8.28227,-0.65677 -4.05167,-1.04209 -8.24251,-3.66482 -12.09536,-1.93531 -3.01391,1.34858 -4.6481,4.96086 -5.4632,8.43302 -0.39761,1.70325 -0.69185,3.50282 -1.59045,4.94773 -0.8986,1.44491 -2.63617,2.46949 -4.11529,1.79081 -2.18289,-1.00267 -2.50496,-5.08345 -5.13716,-5.28924 -2.89063,-0.22331 -2.85485,3.06496 -2.01191,5.4425 1.24851,3.50281 2.88269,7.00562 2.95426,10.65731 a 33.753318,37.169236 0 0 1 1.92444,-39.59931 3.6341774,4.0019651 0 0 0 1.43539,-1.84774 2.5089343,2.7628446 0 0 0 0.0716,-0.31526 c 0.21869,-1.22161 -0.39761,-2.50451 -0.4334,-3.78303 -0.13917,-3.12189 2.9304,-5.29801 5.7455,-5.69208 1.87275,-0.26271 3.78925,-0.0613 5.66598,-0.12697 v 0 a 12.819024,14.116341 0 0 0 2.80316,-0.41159 13.483037,14.847553 0 0 0 4.37374,-2.47386 33.797055,37.217399 0 0 1 41.14096,30.18113 z"
     opacity="0.1"
     id="path118"
     style="stroke-width:0.417247" />
  <path
     d="m 274.09669,211.65696 a 4.3737365,4.8163694 0 0 1 -1.19284,2.27683 c -2.09145,2.18926 -5.80514,1.27853 -8.65602,0.77062 a 31.129076,34.279414 0 0 1 -7.20872,-2.27683 c -2.01191,-0.94138 -4.42542,-2.09731 -6.23455,-0.73997 -0.69583,0.51666 -1.17296,1.34421 -1.89661,1.79957 -0.72366,0.45536 -1.64613,0.48602 -2.50099,0.49477 -2.78328,0.0219 -5.56658,0.0394 -8.28227,-0.6524 -4.05167,-1.04646 -8.24251,-3.66481 -12.09536,-1.93968 -3.01391,1.34858 -4.6481,4.96524 -5.4632,8.4374 -0.39761,1.70324 -0.69185,3.50282 -1.59045,4.94335 -0.8986,1.44054 -2.63617,2.47386 -4.11529,1.79519 -2.18289,-1.00268 -2.50496,-5.08345 -5.13716,-5.28925 -2.89063,-0.22331 -2.85485,3.06496 -2.01191,5.4425 1.47912,4.14646 3.49103,8.27102 2.831,12.66705 -0.65606,0 -1.74154,-0.0262 -2.38567,-0.0438 0.50099,-0.94138 -0.45328,-2.06228 -1.40358,-2.38192 -0.95029,-0.31962 -2.05963,-0.31524 -2.78328,-1.07711 -0.72366,-0.76186 -0.72763,-1.93968 -0.65208,-2.9949 a 18.715616,20.609682 0 0 1 1.48308,-6.54151 c 0.52088,-1.31356 1.19285,-2.73657 0.79523,-4.11143 a 10.608299,11.681885 0 0 0 -0.85884,-1.79081 c -0.82704,-1.75141 -0.6322,-3.94067 0.0755,-5.74899 0.30218,-0.77062 0.52087,-1.49746 0.77137,-2.18927 a 8.8429003,9.7378226 0 0 1 1.35585,-2.72781 c 0.91053,-1.24788 1.80118,-3.12626 0.79523,-4.28657 -0.25447,-0.29336 0.25447,-0.49477 0.0914,-0.8757 a 0.6799172,0.74872653 0 0 1 -0.0596,-0.20579 1.8051604,1.987847 0 0 1 0.28628,-1.31356 2.914499,3.2094534 0 0 1 0.15507,-0.29336 2.2624146,2.4913765 0 0 1 0.15507,-0.28898 12.640099,13.919308 0 0 1 3.43935,-4.12895 c 0.86282,-0.68742 1.87275,-1.34858 2.2147,-2.46072 0.39761,-1.31356 -0.30219,-2.7103 -0.36183,-4.09829 -0.13916,-3.12188 2.93041,-5.29801 5.7455,-5.69208 2.8151,-0.39406 5.73357,0.25834 8.4771,-0.54293 3.89263,-1.12966 6.6282,-4.91269 10.16297,-7.03627 a 14.389593,15.845855 0 0 1 12.64407,-0.49916 c 4.12722,2.07542 7.24053,6.27003 11.55065,7.8463 1.52682,0.56046 3.1809,0.78376 4.55663,1.712 1.59045,1.07712 2.55665,2.95988 3.38368,4.81637 1.26044,2.81539 1.51491,5.64391 2.38568,8.62569 0.69184,2.36439 1.6501,5.45562 1.72962,8.17907 a 7.4433045,8.1965847 0 0 1 -0.19484,2.42131 z"
     fill="#896363"
     id="path120"
     style="stroke-width:0.417247" />
  <g
     opacity="0.1"
     id="g136"
     transform="matrix(0.39761242,0,0,0.43785176,139.97804,151.97338)">
    <path
       d="m 235.54,183.71 a 4.45,4.45 0 0 0 -0.75,-3.74 c 0.26,0.78 -0.87,1.23 -0.25,1.88 a 4,4 0 0 1 1,1.86 z"
       transform="translate(-63.83,-59.93)"
       id="path122" />
    <path
       d="m 234.76,177.68 v 0 a 4.13,4.13 0 0 0 -0.21,1.08 c 0.19,-0.32 0.45,-0.65 0.21,-1.08 z"
       transform="translate(-63.83,-59.93)"
       id="path124" />
    <path
       d="m 398.42,199 c -5.27,5 -14.6,2.93 -21.79,1.76 a 77.76,77.76 0 0 1 -18.11,-5.23 c -5.07,-2.16 -11.13,-4.8 -15.69,-1.7 -1.74,1.18 -2.94,3.07 -4.77,4.11 -1.83,1.04 -4.14,1.11 -6.29,1.13 -7,0 -14,0.09 -20.84,-1.5 -10.18,-2.38 -20.72,-8.35 -30.41,-4.42 -7.58,3.09 -11.69,11.34 -13.74,19.27 -1,3.89 -1.73,8 -4,11.3 -2.27,3.3 -6.64,5.64 -10.35,4.1 -5.49,-2.3 -6.3,-11.61 -12.92,-12.08 -5.17,-0.37 -6.61,3.33 -6.26,7.44 0.3,-3.14 2,-5.56 6.26,-5.26 6.62,0.47 7.43,9.79 12.92,12.08 3.71,1.55 8.09,-0.78 10.35,-4.1 2.26,-3.32 3,-7.41 4,-11.29 2.05,-7.93 6.16,-16.19 13.74,-19.27 9.69,-3.94 20.23,2 30.41,4.42 6.8,1.59 13.86,1.54 20.84,1.49 2.15,0 4.42,-0.06 6.29,-1.12 1.87,-1.06 3,-2.93 4.77,-4.12 4.56,-3.09 10.62,-0.45 15.69,1.7 a 78.27,78.27 0 0 0 18.11,5.24 c 7.19,1.16 16.52,3.25 21.79,-1.77 2.86,-2.73 3.72,-6.68 3.53,-11 -0.16,3.43 -1.16,6.54 -3.53,8.82 z"
       transform="translate(-63.83,-59.93)"
       id="path126" />
    <path
       d="m 249.48,149.14 a 10.63,10.63 0 0 0 -0.06,1.5 c 0.1,2.08 0.89,4.16 1.14,6.19 0.37,-2.49 -0.78,-5.09 -1.08,-7.69 z"
       transform="translate(-63.83,-59.93)"
       id="path128" />
    <path
       d="m 229.16,220.09 a 7.36,7.36 0 0 1 0.19,0.91 7.18,7.18 0 0 0 -0.19,-3.09 25.93,25.93 0 0 0 -2.16,-4.1 12.35,12.35 0 0 1 -1.31,-4.75 13.17,13.17 0 0 0 1.31,6.94 25.41,25.41 0 0 1 2.16,4.09 z"
       transform="translate(-63.83,-59.93)"
       id="path130" />
    <path
       d="m 241.57,257.07 -5.85,-0.09 a 2.51,2.51 0 0 1 -0.18,2.18 c 1.65,0 4.39,0.06 6,0.1 a 24.5,24.5 0 0 0 0.29,-5.18 23.45,23.45 0 0 1 -0.26,2.99 z"
       transform="translate(-63.83,-59.93)"
       id="path132" />
    <path
       d="m 232,251.54 c -2.39,-0.72 -5.17,-0.73 -6.95,-2.48 a 6.34,6.34 0 0 1 -1.66,-4.19 c -0.15,2.3 0,4.78 1.66,6.38 1.78,1.75 4.56,1.76 6.95,2.48 a 5.94,5.94 0 0 1 3.63,3 c 1.01,-2.07 -1.31,-4.5 -3.63,-5.19 z"
       transform="translate(-63.83,-59.93)"
       id="path134" />
  </g>
  <path
     d="m 279.18215,432.71955 c -0.44532,-0.2846 -0.8986,-0.55169 -1.35984,-0.80564 a 31.137029,34.288171 0 0 0 -2.91847,-1.41864 c -4.59242,-1.92655 -9.51089,-2.62711 -14.49694,-2.50889 -1.98807,0.8363 -3.28031,1.43615 -3.28031,1.43615 l -2.52881,0.84068 -0.42147,0.14011 c -0.0278,-0.3065 -0.0596,-0.61299 -0.0875,-0.92386 -0.0278,-0.31088 -0.0596,-0.60863 -0.0915,-0.91512 -0.89065,-9.28684 -1.59045,-18.82762 -1.59045,-18.82762 v -8.24037 -0.95889 l -0.0477,-24.27889 -0.39762,-8.00393 -0.18687,-3.54222 -0.0358,-0.67429 -0.0716,-1.38361 -0.0398,-0.82317 a 6.7196499,7.3996946 0 0 1 -0.22266,-0.79689 v 0 c -0.0278,-0.10946 -0.0557,-0.23205 -0.0795,-0.35903 -0.0994,-0.43785 -0.20676,-1.00268 -0.31809,-1.61567 -0.72763,-4.02824 -1.63817,-10.81932 -1.69383,-12.19856 -0.0716,-1.83898 -1.51887,-12.83781 -1.51887,-12.83781 -0.14713,-6.05549 -4.77135,-17.45715 -5.93636,-19.607 -1.16501,-2.14985 -2.4652,-15.06648 -2.02783,-15.76266 0.22664,-0.37217 0.37376,-2.57457 0.46521,-4.6062 0,-0.23207 0.0199,-0.45975 0.0278,-0.68305 0.0596,-1.58941 0.0875,-2.91609 0.0875,-2.91609 l 4.54869,-0.98955 1.22067,-0.26271 0.0954,-0.0219 0.0398,0.0876 c 0.13121,0.2671 0.54076,1.12091 1.02187,2.2418 0.0557,0.11823 0.10735,0.24521 0.16302,0.37218 0.0239,0.0613 0.0516,0.1226 0.0795,0.1839 0.89065,2.14547 1.92047,4.96962 1.87672,6.59405 -0.0716,2.8723 2.8986,9.80788 2.8986,9.80788 0.28629,1.59378 6.58446,17.45277 6.58446,17.45277 0,0 5.14114,15.54373 4.85088,18.09642 -0.29026,2.55267 2.46122,19.44936 2.46122,19.44936 l 2.82304,17.37834 c 1.37177,3.424 3.18091,11.31409 3.18091,11.31409 l 0.68787,4.47485 0.13121,0.85381 1.83299,11.94022 0.8986,5.84969 c 0,0 0.37774,3.10876 0.95029,6.56778 0.0477,0.31088 0.10339,0.62613 0.15905,0.94138 a 43.761222,48.189965 0 0 0 1.499,6.72102 22.850785,25.163341 0 0 1 0.76739,3.21822 z"
     opacity="0.1"
     id="path138"
     style="stroke-width:0.417247" />
  <path
     d="m 279.67519,433.03043 c -0.16302,-0.10509 -0.32604,-0.21017 -0.49304,-0.31088 -0.44532,-0.2846 -0.8986,-0.55169 -1.35984,-0.80564 a 31.137029,34.288171 0 0 0 -2.91847,-1.41864 c -4.59242,-1.92655 -9.51089,-2.62711 -14.49694,-2.50889 -1.98807,0.8363 -3.28031,1.43615 -3.28031,1.43615 l -2.52881,0.84068 c -0.0318,-0.30649 -0.0596,-0.61299 -0.0915,-0.92387 -0.0318,-0.31088 -0.0557,-0.56045 -0.0795,-0.84067 -0.89065,-9.26494 -1.59045,-18.76195 -1.59045,-18.76195 v -8.31918 -0.9589 l -0.0477,-24.21758 -0.39761,-7.64489 -0.0795,-1.58503 -0.0556,-1.07274 -0.0716,-1.41864 -0.0716,-1.44053 -0.0517,-1.0377 v -0.22769 c 0,-0.0219 0,-0.0481 -0.0278,-0.0744 -0.0755,-0.23644 -0.167,-0.59548 -0.2664,-1.05085 l -0.0477,-0.21892 c -0.0199,-0.10071 -0.0437,-0.21017 -0.0636,-0.31964 -0.74752,-3.73487 -1.84492,-11.78696 -1.90456,-13.29755 -0.0716,-1.83898 -1.51888,-12.83782 -1.51888,-12.83782 -0.14712,-6.05549 -4.77135,-17.45715 -5.93636,-19.60699 -1.165,-2.14986 -2.46121,-15.06648 -2.02782,-15.76267 0.2505,-0.43785 0.39761,-3.09562 0.49304,-5.28925 0,-0.17514 0,-0.34591 0,-0.50791 0.0516,-1.35297 0.0716,-2.40819 0.0716,-2.40819 l 4.23059,-0.91948 1.07356,-0.23207 0.167,-0.035 0.39761,-0.0876 c 0,0 0.52087,1.05961 1.14512,2.51765 l 0.0795,0.1839 c 0.91053,2.16299 1.98805,5.10535 1.95625,6.77794 -0.0716,2.87231 2.89859,9.80789 2.89859,9.80789 0.28628,1.59378 6.58446,17.45277 6.58446,17.45277 0,0 5.14113,15.54373 4.85087,18.09641 -0.29025,2.55267 2.46123,19.44937 2.46123,19.44937 l 2.82305,17.37834 c 1.37176,3.424 3.18089,11.31409 3.18089,11.31409 l 0.64016,4.16835 0.13121,0.84505 1.44333,9.42257 1.33201,8.6826 c 0,0 0.3976,3.09561 0.94631,6.56777 0.0516,0.31527 0.10338,0.63051 0.15904,0.95015 a 43.987862,48.43954 0 0 0 1.499,6.75167 24.254357,26.708957 0 0 1 0.84294,3.49844 z"
     fill="#63667e"
     id="path140"
     style="stroke-width:0.417247" />
  <path
     d="m 276.08872,208.15414 c 0,0 -1.51888,2.15423 -2.89064,2.15423 -1.37176,0 -6.7117,-0.24081 -9.49498,-1.19533 -2.78329,-0.95452 -16.42935,-1.67697 -16.42935,-1.67697 0,0 -19.32396,0.0788 -19.97604,-0.63927 -0.65208,-0.71807 -12.01585,-4.54489 -13.1729,-4.30408 -0.24254,0.0525 -0.83499,0.16638 -1.62624,0.31088 l -0.90655,0.16201 c -1.37177,0.24081 -3.08548,0.52103 -4.65207,0.72683 -1.93637,0.24957 -3.63816,0.37655 -4.17891,0.15762 v -1.8346 c 0,0 2.24254,-3.59038 2.38568,-4.61933 0.14314,-1.02896 2.02782,-15.94656 6.95026,-21.28398 a 19.403486,21.367166 0 0 1 9.33594,-9.63274 c 6.66001,-3.19194 13.32002,-5.89786 13.32002,-5.89786 l 1.165,-0.1839 3.75744,-0.61299 a 2.8349765,3.121883 0 0 1 0.36978,-0.34153 c 1.04175,-0.8757 4.19878,-2.78035 8.31408,1.31356 l 0.72763,1.27853 c 0,0 12.66395,3.26637 18.52475,14.66366 5.86082,11.39728 6.15505,22.55811 6.58845,27.65909 0,0 -0.29026,1.43616 0.29025,1.99223 a 8.1152688,8.9365541 0 0 1 0.6004,0.64802 c 0.0517,0.0569 0.10338,0.11384 0.15109,0.17514 0.167,0.18389 0.32207,0.37655 0.44931,0.53418 a 0.18687784,0.20579033 0 0 1 0.0398,0.0438 1.2723597,1.4011256 0 0 0 0.0994,0.11822 z"
     fill="#fed253"
     id="path142"
     style="stroke-width:0.417247" />
  <path
     d="m 276.08872,208.15414 c 0,0 -1.51888,2.15423 -2.89064,2.15423 -1.37176,0 -6.7117,-0.24081 -9.49498,-1.19533 -2.78329,-0.95452 -16.42935,-1.67697 -16.42935,-1.67697 0,0 -19.32396,0.0788 -19.97604,-0.63927 -0.65208,-0.71807 -12.01585,-4.54489 -13.1729,-4.30408 -0.24254,0.0525 -0.83499,0.16638 -1.62624,0.31088 l -0.20675,-1.40113 -0.0517,-0.3459 c 0,0 21.93231,-5.17979 36.55251,-2.4651 14.62021,2.71467 25.40744,5.73585 25.40744,5.73585 0,0 -0.29025,1.43616 0.29025,1.99222 a 8.1152688,8.9365541 0 0 1 0.6004,0.64803 c 0.0516,0.0569 0.10338,0.11384 0.15109,0.17514 0.167,0.1839 0.32207,0.37655 0.44931,0.53417 a 0.18687784,0.20579033 0 0 1 0.0398,0.0438 1.3200732,1.4536678 0 0 0 0.0994,0.11823 z"
     opacity="0.05"
     id="path144"
     style="stroke-width:0.417247" />
  <path
     d="m 274.09669,211.65696 c -2.70774,0.23206 -7.69778,-0.49477 -9.88067,-0.84944 -0.62028,-0.1007 -1.22862,-0.22329 -1.84095,-0.37217 -2.34193,-0.56045 -9.54269,-2.13233 -13.91643,-1.4055 -5.28427,0.8757 -20.19474,-0.71808 -20.19474,-0.71808 0,0 -9.1928,-2.07103 -12.88661,-3.74363 -1.35586,-0.61737 -3.62225,-0.81003 -5.87672,-0.50353 a 16.361751,18.0176 0 0 0 -1.70973,0.33715 c -3.07752,0.80127 -5.67393,2.62711 -5.22462,5.74024 a 6.6401272,7.3121244 0 0 1 -0.47714,-0.71371 c -0.19483,-2.84603 0.60835,-4.54052 1.72166,-5.53882 v 0 l 0.26242,-0.11822 a 32.111179,35.360908 0 0 1 4.14312,-0.97641 c 0.2187,-0.0394 0.44533,-0.0744 0.67595,-0.10508 3.95625,-0.58672 9.67789,-0.71808 14.5049,1.9572 0,0 4.48507,2.31623 7.5268,2.31623 3.04174,0 27.7931,0.24082 33.58632,2.07104 a 24.65197,27.146809 0 0 0 3.51887,0.81878 14.314047,15.762663 0 0 0 6.28228,-0.6524 7.4433045,8.1965847 0 0 1 -0.21471,2.45635 z"
     opacity="0.1"
     id="path146"
     style="stroke-width:0.417247" />
  <path
     d="m 276.08872,208.15414 c 0,0 -1.51888,2.15423 -2.89064,2.15423 -1.37176,0 -6.7117,-0.24081 -9.49498,-1.19533 -2.78329,-0.95452 -16.42935,-1.67697 -16.42935,-1.67697 0,0 -19.32396,0.0788 -19.97604,-0.63927 -0.65208,-0.71807 -12.01585,-4.54489 -13.1729,-4.30408 -0.24254,0.0525 -0.83499,0.16638 -1.62624,0.31088 l -0.90655,0.16201 a 16.143064,17.776782 0 0 0 -4.65207,0.72683 c -1.93637,0.24957 -3.63816,0.37655 -4.17891,0.15762 v -0.36342 a 9.5426982,10.508442 0 0 1 1.3002,-0.6918 35.164842,38.72361 0 0 1 8.23058,-1.40988 c 3.47115,-0.14011 7.53077,0.30649 11.09735,2.28559 0,0 4.48507,2.31623 7.52681,2.31623 3.04174,0 27.79311,0.23644 33.58632,2.07104 a 25.176818,27.724773 0 0 0 3.51887,0.8144 14.632137,16.112944 0 0 0 7.66995,-1.21285 0.18687784,0.20579033 0 0 1 0.0398,0.0438 1.3200732,1.4536678 0 0 0 0.0994,0.11823 z"
     opacity="0.1"
     id="path148"
     style="stroke-width:0.417247" />
  <path
     d="m 202.62188,210.06756 c 0,0 -4.85087,-4.06765 1.4473,-6.77795 0,0 11.00195,-3.74363 19.32795,0.87571 0,0 4.48507,2.30747 7.5268,2.30747 3.04174,0 27.7931,0.24082 33.58632,2.07542 a 25.049582,27.584661 0 0 0 3.51887,0.81441 14.97806,16.493876 0 0 0 8.93435,-1.86963 c 0.39762,-0.24082 0.75547,-0.36342 0.86283,-0.2233 0.36182,0.48163 0.0755,3.27075 -3.10933,3.82682 -2.48508,0.43785 -8.13118,-0.38969 -10.50493,-0.77062 -0.6163,-0.1007 -1.22862,-0.22768 -1.83697,-0.37217 -2.34193,-0.56045 -9.54269,-2.13234 -13.93631,-1.40551 -5.2803,0.87571 -20.19473,-0.71807 -20.19473,-0.71807 0,0 -9.18883,-2.07104 -12.88265,-3.74802 -3.69382,-1.67696 -14.11524,-0.23206 -12.7395,5.98544 z"
     fill="#fed253"
     id="path150"
     style="stroke-width:0.417247" />
  <path
     d="m 243.51631,167.32884 c -0.39761,-0.6305 -5.50692,-5.13599 -7.59042,-6.95746 l 3.75744,-0.61299 a 2.8349765,3.121883 0 0 1 0.36978,-0.34153 c 2.7316,3.15692 3.4632,7.91198 3.4632,7.91198 z"
     opacity="0.1"
     id="path152"
     style="stroke-width:0.417247" />
  <polygon
     points="214.53,96.45 230.55,95.91 230.91,88.99 218.72,90.26 "
     opacity="0.1"
     id="polygon154"
     transform="matrix(0.39761242,0,0,0.43785176,139.97804,151.97338)" />
  <polygon
     points="318.29,103.37 328.49,105.01 324.12,98.27 316.47,97.73 "
     opacity="0.1"
     id="polygon156"
     transform="matrix(0.39761242,0,0,0.43785176,139.97804,151.97338)" />
  <path
     d="m 196.18056,277.66749 c 0.4334,0.79689 14.69178,21.45474 18.45717,20.88115 3.76539,-0.57358 -18.45717,-20.88115 -18.45717,-20.88115 z"
     opacity="0.1"
     id="path158"
     style="stroke-width:0.417247" />
  <path
     d="m 243.95369,296.54766 c 0,0 3.47513,3.6692 2.96619,5.10097 -0.50895,1.43177 -2.96619,-5.10097 -2.96619,-5.10097 z"
     opacity="0.1"
     id="path160"
     style="stroke-width:0.417247" />
  <path
     d="m 206.02544,321.73727 c 0,0 -3.04173,15.70137 -1.44731,16.20051 1.59443,0.49915 1.44731,-16.20051 1.44731,-16.20051 z"
     opacity="0.1"
     id="path162"
     style="stroke-width:0.417247" />
  <path
     d="m 245.11075,382.71251 c 0.50496,1.59377 4.70375,11.95773 5.64609,12.5138 0.94234,0.55607 -5.64609,-12.5138 -5.64609,-12.5138 z"
     opacity="0.1"
     id="path164"
     style="stroke-width:0.417247" />
  <path
     d="m 293.89779,340.14894 c -0.14712,0.55607 -3.76539,3.82682 -2.97017,5.02216 0.79523,1.19533 2.97017,-5.02216 2.97017,-5.02216 z"
     opacity="0.1"
     id="path166"
     style="stroke-width:0.417247" />
  <path
     d="m 265.81044,369.23981 c -0.0716,0.40282 -0.79521,8.75703 0.58052,10.36395 1.37574,1.60692 -0.58052,-10.36395 -0.58052,-10.36395 z"
     opacity="0.1"
     id="path168"
     style="stroke-width:0.417247" />
  <path
     d="m 302.89973,412.63968 c -1.0497,0.64363 -2.13518,1.26539 -3.24054,1.86086 -1.19284,0.63926 -2.38567,1.24788 -3.60237,1.82147 -0.48508,0.23206 -0.97017,0.45974 -1.45129,0.67866 q -1.0974,0.49916 -2.17096,0.9589 c -2.17494,0.937 -4.27036,1.75142 -6.13516,2.43884 -0.72365,0.26709 -1.4155,0.51228 -2.05962,0.73996 -3.24452,1.13405 -5.39959,1.75141 -5.39959,1.75141 a 5.8528548,6.4451778 0 0 0 -1.49899,-0.13573 c -0.13917,0 -0.2823,0 -0.42943,0 a 18.862733,20.771688 0 0 0 -2.00794,0.28022 c -4.44133,0.87571 -10.71566,3.33205 -14.49694,4.93897 -1.98807,0.8363 -3.28031,1.43615 -3.28031,1.43615 l -2.52881,0.84068 -0.42147,0.14011 c -2.73955,0.91949 -6.59242,2.22429 -7.98008,2.76723 -2.24254,0.8757 -21.71362,5.33741 -21.71362,5.33741 a 32.34577,35.61924 0 0 1 -5.43139,1.09464 99.120795,109.15207 0 0 1 -13.60629,0.34152 c -4.55664,0.32401 -11.92838,-0.77938 -16.21861,-1.52373 l -0.6839,-0.11822 c -1.65804,-0.29774 -2.71171,-0.51229 -2.71171,-0.51229 l 0.55665,-0.84505 11.41545,-17.34331 0.0676,-0.10508 10.63613,-16.15235 0.39761,-0.58672 0.96621,-1.46681 c 0,0 0.58051,-0.8757 2.81509,-0.93262 0.26242,0 0.54871,0 0.86282,0 a 23.304064,25.662491 0 0 1 5.51488,1.23912 l 0.5169,0.17075 c 7.70175,2.43009 19.60627,1.82147 19.60627,1.82147 0,0 7.40751,-1.31355 13.22857,-2.10169 l 0.43339,-0.0613 a 53.395371,58.799116 0 0 1 5.73754,-0.54732 c 3.54671,0.0788 11.22063,-1.99223 11.22063,-1.99223 1.65009,-0.38968 2.34591,-0.71807 3.27632,-1.44929 0.12326,-0.0963 0.25447,-0.20141 0.39762,-0.31525 0.39761,-0.32838 0.85487,-0.7312 1.44333,-1.23036 1.07355,-0.90636 2.58051,-2.13672 4.95027,-3.86186 0.20676,-0.14886 0.42545,-0.29773 0.66005,-0.43784 0.23458,-0.14012 0.53279,-0.3284 0.81908,-0.48602 a 31.049554,34.191844 0 0 1 7.20473,-2.62711 42.234391,46.508614 0 0 1 6.27035,-0.95014 h 0.31411 c 5.96419,-0.35028 12.05561,0.775 15.61822,4.46609 a 9.7772893,10.766775 0 0 1 1.6143,2.18926 9.065563,9.9830203 0 0 1 0.58052,1.19096 10.143092,11.169598 0 0 1 0.71968,2.45197 q 0.0437,0.23643 0.0716,0.47287 c 0,0.0481 0,0.0919 0,0.14012 0,0.12697 0.0239,0.25395 0.0318,0.38093 0.31809,5.24108 -4.62026,9.97864 -10.87868,13.83174 z"
     opacity="0.1"
     id="path170"
     style="stroke-width:0.417247" />
  <path
     d="m 185.83071,436.83536 c 0,0 12.88264,2.62711 19.61422,2.14985 0,0 12.37767,0.71809 19.03768,-1.43177 0,0 19.48301,-4.46609 21.71362,-5.34179 2.2306,-0.8757 10.93036,-3.74801 10.93036,-3.74801 0,0 16.93828,-7.81128 21.71361,-6.53713 0,0 37.49485,-10.6792 34.81495,-25.10642 -2.67992,-14.42722 -26.3458,-11.15646 -33.79706,-5.74023 -7.45125,5.41622 -6.3618,5.98105 -10.05959,6.85675 0,0 -7.67392,2.07104 -11.22063,1.99222 -3.5467,-0.0788 -19.39951,2.71031 -19.39951,2.71031 0,0 -12.44924,0.63926 -20.11918,-1.99223 -7.66995,-2.63148 -9.1928,-0.31962 -9.1928,-0.31962 z"
     fill="#ffa2a2"
     id="path172"
     style="stroke-width:0.417247" />
  <path
     d="m 213.76695,399.39028 a 0.19483008,0.21454736 0 0 1 0,0.0525 2.6838838,2.9554994 0 0 1 -0.22663,0.94138 c -1.52684,4.12457 -10.19479,15.25038 -10.19479,15.25038 a 27.669848,30.470104 0 0 1 -1.42742,3.86185 53.777079,59.219451 0 0 1 -4.1153,7.6843 94.488619,104.0511 0 0 1 -7.48704,10.45152 h -0.0198 a 11.375691,12.526939 0 0 1 -1.06958,0.775 c -0.93439,0.61299 -2.33797,1.37048 -3.66201,1.46243 a 3.809127,4.1946198 0 0 1 -0.67594,-0.0219 c 0.13916,0 0.27435,-0.035 0.39762,-0.0613 l -0.4851,-0.15763 -0.66401,-0.22768 q -1.66997,-0.57797 -3.31211,-1.26539 l -0.66401,-0.28022 q -1.59045,-0.67429 -3.11331,-1.4493 l -0.66401,-0.33276 q -1.59045,-0.81441 -3.11331,-1.72076 c -0.3658,-0.21017 -0.72763,-0.43785 -1.08548,-0.6524 q -1.62226,-0.9983 -3.1809,-2.09293 -1.65407,-1.16031 -3.23656,-2.42132 c -0.79523,-1.62443 -1.45129,-3.06497 -1.80915,-3.83996 -0.65207,-1.44053 -0.70774,-3.50281 -0.62822,-4.99589 0,-0.15324 0,-0.29774 0.0239,-0.43785 0.0676,-0.93701 0.17097,-1.58065 0.17097,-1.58065 a 20.437279,22.505581 0 0 1 -1.59045,-2.73219 2.9184751,3.2138319 0 0 1 -0.44532,-1.57188 1.6938289,1.8652485 0 0 0 -0.0557,-0.66554 c -0.30617,-1.38362 -1.62226,-3.76115 -2.83896,-5.25422 -0.90655,-1.09902 -0.96222,-5.20606 -0.87475,-8.11778 0.0516,-1.75141 0.1511,-3.03869 0.1511,-3.03869 a 0.9264369,1.0201947 0 0 1 -0.37774,-0.53856 11.817041,13.012954 0 0 1 -0.64413,-2.96863 c 0,-0.14449 -0.0358,-0.28898 -0.0557,-0.43785 -0.25447,-2.00974 -0.36979,-4.02824 -0.36979,-4.02824 -2.94232,-2.36002 -4.34192,-6.04236 -4.99401,-9.32624 l -0.0835,-0.43785 a 25.049582,27.584661 0 0 1 -0.45329,-6.12993 c 0,-0.19703 0,-0.3459 0,-0.43785 0,-0.0919 0,-0.10947 0,-0.10947 0,0 0.38967,-9.48824 1.47912,-13.19246 0.0437,-0.15764 0.0914,-0.30212 0.13917,-0.43786 a 2.978117,3.2795097 0 0 1 0.31014,-0.66116 c 0.39761,-0.58234 0.67992,-1.68135 0.91451,-2.98176 0.16301,-0.90198 0.2982,-1.90466 0.3976,-2.90296 0.0915,-0.83192 0.16303,-1.65946 0.21869,-2.4257 0.15507,-2.04915 0.20279,-3.64731 0.20279,-3.64731 l -0.73559,-3.99321 c -0.20278,-1.09025 -0.35784,-2.18926 -0.4652,-3.28826 0,-0.1445 -0.0318,-0.28898 -0.0477,-0.43785 a 33.602225,37.002852 0 0 1 -0.0994,-6.10803 c 0,-0.14888 0,-0.29336 0.0239,-0.43786 a 33.61813,37.020366 0 0 1 3.24452,-13.35447 l 0.19881,-0.43785 q 0.39761,-0.87572 0.83499,-1.72076 c 0.21073,-0.41597 0.43339,-0.82754 0.66401,-1.23474 a 32.795072,36.114013 0 0 1 1.98806,-3.15692 c 0.10338,-0.14886 0.21073,-0.29336 0.31809,-0.43784 a 32.397459,35.676161 0 0 1 4.11927,-4.67626 c 4.01588,-3.80056 7.70175,-5.45126 11.04965,-5.57824 14.64008,-0.5692 22.85078,27.9437 24.17881,32.93959 0.12723,0.48164 0.19085,0.74434 0.19085,0.74434 0,0 5.93237,6.53714 4.19481,9.40506 a 4.4810919,4.9345893 0 0 0 -0.6004,2.06666 c -0.47713,3.85748 0.89066,10.2107 0.89066,10.2107 0,0 0.48509,1.75141 1.90058,5.94604 l 0.4175,1.22598 c 0.88667,2.62711 1.09343,7.03628 0.58449,10.9857 -0.48906,3.78304 -1.63817,7.12823 -3.47911,7.98641 -3.76538,1.75141 -2.75148,3.50282 -1.88468,4.94335 a 17.868702,19.677058 0 0 1 1.28429,3.23135 c 0.54472,1.61567 1.04969,3.31453 1.24055,3.97569 0.0557,0.1839 0.0835,0.28461 0.0835,0.28461 a 7.8607978,8.6563289 0 0 1 1.63418,-0.48164 c 0.71173,-0.10946 1.41551,-0.0306 1.55069,0.63927 0.0716,0.35903 0.48112,0.78375 1.05765,1.20846 1.70973,1.29605 4.87473,2.65339 4.87473,2.65339 z"
     opacity="0.1"
     id="path174"
     style="stroke-width:0.417247" />
  <path
     d="m 212.90016,399.39028 v 0 a 2.6202658,2.8854431 0 0 1 -0.22663,0.96327 c -1.51889,4.12895 -10.19479,15.28103 -10.19479,15.28103 a 28.270243,31.13126 0 0 1 -1.42743,3.86185 50.655822,55.782314 0 0 1 -3.2485,6.24815 93.49856,102.96084 0 0 1 -8.26238,11.77821 l -0.0914,0.10946 c 0,0 -0.3499,0.29336 -0.90656,0.66992 a 10.337923,11.384146 0 0 1 -3.24054,1.49745 l -0.48508,-0.15763 -0.66401,-0.22768 q -1.66997,-0.57797 -3.31212,-1.26539 l -0.66401,-0.28022 q -1.59045,-0.67429 -3.1133,-1.4493 l -0.66402,-0.33276 q -1.59045,-0.81441 -3.1133,-1.72077 c -0.3658,-0.21016 -0.72763,-0.43784 -1.08548,-0.65239 q -1.62226,-0.9983 -3.1809,-2.09293 -1.65408,-1.16031 -3.23657,-2.42132 -0.73161,-0.57797 -1.44731,-1.18658 c -0.53678,-1.1209 -0.9662,-2.06666 -1.2326,-2.65338 -0.65209,-1.44053 -0.70775,-3.50281 -0.62822,-4.99589 0,-0.15325 0,-0.29774 0.0239,-0.43785 0.0676,-0.93701 0.17097,-1.58065 0.17097,-1.58065 0,0 -0.32206,-0.47725 -0.71173,-1.12527 -0.21868,-0.35904 -0.45327,-0.775 -0.66401,-1.18659 -0.3976,-0.77061 -0.70775,-1.54999 -0.64811,-1.99222 a 0.8866757,0.97640942 0 0 0 0,-0.22769 1.9284202,2.123581 0 0 0 -0.0596,-0.43784 c -0.30616,-1.38362 -1.62624,-3.76115 -2.84293,-5.25423 -0.90656,-1.09901 -0.96222,-5.20606 -0.87872,-8.11777 0,-0.14887 0,-0.29336 0,-0.43785 0.0557,-1.51059 0.13917,-2.60084 0.13917,-2.60084 -0.44931,-0.21455 -0.79524,-1.80395 -1.0179,-3.50282 l -0.0596,-0.43785 c -0.25447,-2.00973 -0.36978,-4.02823 -0.36978,-4.02823 -2.94233,-2.36002 -4.34192,-6.04235 -4.99004,-9.32625 a 24.278215,26.735228 0 0 1 -0.51689,-7.00562 c 0,-0.07 0,-0.10946 0,-0.10946 0,0 0.34195,-9.53641 1.4314,-13.24502 0.0437,-0.15762 0.0915,-0.30212 0.13917,-0.43785 a 2.978117,3.2795097 0 0 1 0.35388,-0.63927 c 0.60437,-0.92824 1.00595,-3.16129 1.26837,-5.44687 l 0.0477,-0.43785 c 0.33001,-3.06496 0.42146,-6.07301 0.42146,-6.07301 l -0.73955,-3.9932 q -0.30219,-1.64195 -0.46521,-3.28827 c -0.0199,-0.14449 -0.0318,-0.29336 -0.0477,-0.43785 a 33.610178,37.01161 0 0 1 -0.0994,-6.10803 c 0,-0.14888 0,-0.29337 0.0279,-0.43786 a 33.538607,36.932796 0 0 1 3.24452,-13.35448 c 0.0636,-0.14886 0.12724,-0.29336 0.1988,-0.43785 a 31.152933,34.305685 0 0 1 1.70178,-3.31015 c 0.21472,-0.37219 0.43341,-0.73998 0.66402,-1.10339 0.36183,-0.57796 0.73956,-1.14718 1.13319,-1.69887 l 0.31809,-0.43785 a 32.437221,35.719946 0 0 1 4.08348,-4.66312 c 4.37374,-4.12894 8.34986,-5.72272 11.92838,-5.57823 14.09536,0.55607 22.00784,28.0444 23.30804,32.93959 0.12723,0.48164 0.19085,0.74434 0.19085,0.74434 0,0 5.93636,6.53713 4.19878,9.40506 a 4.4810919,4.9345893 0 0 0 -0.60039,2.06666 c -0.48111,3.85747 0.89066,10.2107 0.89066,10.2107 0,0 0.48509,1.75141 1.90058,5.94603 0.12724,0.38969 0.26641,0.79689 0.39762,1.22599 0.88667,2.6271 1.09343,7.03627 0.58449,10.98569 -0.48907,3.78742 -1.63419,7.12823 -3.47911,7.98642 -3.76142,1.7514 -2.75148,3.50282 -1.88071,4.94335 a 17.868702,19.677058 0 0 1 1.28429,3.23135 c 0.68787,2.06227 1.32007,4.26029 1.32007,4.26029 a 7.7375374,8.520595 0 0 1 0.79523,-0.28461 4.067575,4.4792235 0 0 1 1.71768,-0.19703 0.7594397,0.83629686 0 0 1 0.67992,0.63927 c 0.10736,0.52542 0.93041,1.17782 1.92842,1.79519 a 36.826862,40.55383 0 0 0 4.00396,2.06666 z"
     fill="#ced7e7"
     id="path176"
     style="stroke-width:0.417247" />
  <path
     d="m 160.56641,357.28646 c 1.37574,-0.0788 16.14307,-6.37513 19.1848,-4.22527 3.04174,2.14985 21.86869,16.09981 21.86869,16.09981 0,0 -11.79716,-16.97552 -22.07544,-20.95997 -10.27828,-3.98445 -18.97805,9.08543 -18.97805,9.08543 z"
     opacity="0.1"
     id="path178"
     style="stroke-width:0.417247" />
  <path
     d="m 181.79494,382.95333 c 0,0 14.76733,3.26636 17.00986,5.49941 z"
     opacity="0.1"
     id="path180"
     style="stroke-width:0.417247" />
  <path
     d="m 178.95201,407.27161 c -0.21471,0.24082 -5.56657,13.46832 -5.13715,13.46832 0.42942,0 4.99401,-7.88133 4.99401,-7.88133 z"
     opacity="0.1"
     id="path182"
     style="stroke-width:0.417247" />
  <path
     d="m 189.01559,391.39949 c 0,0 -4.34194,1.67696 -3.83697,1.83459 0.50498,0.15764 3.68984,-1.11652 3.83697,-1.83459 z"
     opacity="0.1"
     id="path184"
     style="stroke-width:0.417247" />
  <path
     d="m 184.67365,411.40931 c 0.72366,1.6726 3.03776,6.69476 3.54671,5.89786 0.50894,-0.79689 -3.54671,-5.89786 -3.54671,-5.89786 z"
     opacity="0.1"
     id="path186"
     style="stroke-width:0.417247" />
  <path
     d="m 238.87618,278.83655 -0.62027,0.97203 c 0,0 -4.92642,-3.82244 -6.95026,-5.73585 -2.02386,-1.91341 -6.80316,6.85238 -10.56855,9.24305 -3.76539,2.39067 -10.13116,3.02993 -10.13116,3.02993 0,0 -4.92244,-5.4206 -4.77136,-7.00562 0.1511,-1.58503 -2.3141,-2.07104 -2.46121,-3.18757 -0.14712,-1.11652 -1.01392,-4.30408 -2.17097,-5.89786 -0.61232,-0.84068 -0.6998,-3.47217 -0.64413,-5.76213 0.39761,-0.0876 0.64413,-0.13574 0.64413,-0.13574 a 12.958188,14.269589 0 0 1 2.31808,-3.34956 c 1.30417,-1.27415 3.32802,-9.08542 3.32802,-9.08542 1.15705,-4.30409 3.47115,-3.02993 3.47115,-3.02993 0,6.53711 6.08348,8.92779 9.12124,11.63809 3.03775,2.7103 7.81705,9.72469 11.58244,11.16084 3.08945,1.16031 6.70375,5.64829 7.85285,7.14574 z"
     opacity="0.1"
     id="path188"
     style="stroke-width:0.417247" />
  <path
     d="m 238.87618,277.87766 -0.62027,0.9764 c 0,0 -4.9463,-3.81368 -6.97015,-5.74022 -2.02385,-1.92655 -6.80315,6.85237 -10.56854,9.24304 -3.76538,2.39067 -10.13116,3.03432 -10.13116,3.03432 0,0 -4.92245,-5.42499 -4.77135,-7.00563 0.15109,-1.58065 -2.3141,-2.07104 -2.46123,-3.19195 -0.14711,-1.12089 -1.0139,-4.30408 -2.17096,-5.89786 -0.61232,-0.84067 -0.69979,-3.47216 -0.64413,-5.76212 l 0.64413,-0.13136 a 12.958188,14.269589 0 0 1 2.31809,-3.34956 c 1.30416,-1.27853 3.32801,-9.08543 3.32801,-9.08543 1.15705,-4.30408 3.47115,-3.03431 3.47115,-3.03431 0,6.53713 6.08347,8.93217 9.12123,11.64248 3.03777,2.7103 7.81706,9.7203 11.58245,11.15646 3.10933,1.17782 6.72363,5.64829 7.87273,7.14574 z"
     fill="#ced7e7"
     id="path190"
     style="stroke-width:0.417247" />
  <path
     d="m 239.24596,279.1737 c 0,0 -4.26638,2.5483 -7.59837,2.78912 a 6.2623957,6.8961653 0 0 1 -1.30417,-0.0832 v 0 c 0,0 3.67791,-3.02556 7.0934,-3.64292 z"
     opacity="0.1"
     id="path192"
     style="stroke-width:0.417247" />
  <path
     d="m 247.93379,292.16476 c 0,0 -5.3797,-2.30748 -7.15702,1.16468 0.0596,-1.59377 0.0835,-2.91608 0.0835,-2.91608 l 5.86479,-1.27853 c 0,0 0.56461,1.15155 1.22464,2.70154 -0.0159,0.20579 -0.0159,0.32839 -0.0159,0.32839 z"
     opacity="0.1"
     id="path194"
     style="stroke-width:0.417247" />
  <path
     d="m 230.34342,281.87962 c 0,0 6.44529,-4.26029 9.5427,-3.90125 3.24849,0.37217 9.54269,0.63488 9.54269,0.63488 0,0 -2.17096,5.42061 -1.8807,6.53713 0.29025,1.11652 0.36182,6.53712 0.36182,6.53712 0,0 -6.51289,-2.78911 -7.59837,2.39067 0,0 -3.5467,-5.81905 -5.93635,-7.57482 a 16.254396,17.89938 0 0 1 -4.03179,-4.62373 z"
     fill="#63667e"
     id="path196"
     style="stroke-width:0.417247" />
  <path
     d="m 266.75278,286.82735 c -1.8807,0 -8.54071,-4.62809 -9.98802,-7.65365 -1.4473,-3.02556 -3.47513,0.31525 -5.35584,1.43616 -1.19283,0.71807 -5.92045,-0.78376 -8.46914,-1.87401 1.29223,-0.96765 4.15505,-3.69109 4.99401,-4.34349 1.00993,-0.80127 2.02782,-13.71352 2.02782,-13.71352 3.61828,-2.07104 7.52681,16.73907 7.52681,16.73907 0,0 6.80713,2.23305 7.38366,3.82683 0.11133,0.31525 0.62425,0.8757 1.39562,1.55437 0.79522,2.20678 1.2326,4.02824 0.48508,4.02824 z"
     opacity="0.1"
     id="path198"
     style="stroke-width:0.417247" />
  <path
     d="m 266.75278,285.86846 c -1.8807,0 -8.54071,-4.62372 -9.98802,-7.64928 -1.4473,-3.02556 -3.47513,0.31526 -5.35584,1.43178 -1.19283,0.71807 -4.98208,-0.66991 -7.53078,-1.75141 1.29224,-0.96328 3.21669,-3.80055 4.05565,-4.45733 1.00993,-0.79689 2.02782,-13.70914 2.02782,-13.70914 3.61828,-2.07103 7.52681,16.73908 7.52681,16.73908 0,0 6.80713,2.23304 7.38366,3.82682 0.11133,0.31525 0.62425,0.8757 1.39562,1.55437 0.79522,2.19364 1.2326,4.01511 0.48508,4.01511 z"
     fill="#ced7e7"
     id="path200"
     style="stroke-width:0.417247" />
  <path
     d="m 292.47433,425.53003 62.94603,-57.79643 a 3.3717533,3.7129829 0 0 1 2.25048,-0.87571 l 23.48299,0.67868 c 0,0 1.62624,1.31355 -0.75944,4.18585 l -59.37944,53.65874 a 3.7773179,4.1595917 0 0 1 -2.26639,0.937 l -25.67781,0.93701 a 0.8866757,0.97640942 0 0 1 -0.59642,-1.72514 z"
     fill="#0aa8a7"
     id="path202"
     style="stroke-width:0.417247" />
  <path
     d="m 322.92349,418.41932 c 0,0 13.74944,21.68242 29.0257,1.51497 15.27628,-20.16746 10.8588,-30.76347 6.22662,-31.32392 -4.63218,-0.56045 -30.69568,21.52042 -35.25232,29.80895 z"
     fill="#ffa2a2"
     id="path204"
     style="stroke-width:0.417247" />
  <path
     d="m 415.65864,175.91074 c 0,0 17.72158,-37.87417 38.6678,-18.34161 0,0 4.57255,1.8346 4.22663,7.15888 0,0 -1.76143,-1.06398 -3.16102,3.00366 a 17.844845,19.650787 0 0 1 -1.98807,4.08516 8.7474727,9.6327386 0 0 1 -4.41349,3.6692 v 0 c 0,0 -9.39956,7.75435 -26.81101,1.7733 0,0 -4.92244,0.77937 -5.71767,0.10508 l 5.72165,-4.6062 c 0,0 2.90654,4.7507 7.15702,5.29362 0,0 -7.15702,-4.94772 -6.33794,-6.02045 0.16699,-0.21893 3.13318,-2.28997 3.13318,-2.28997 0,0 5.08546,8.23599 11.67788,8.84461 0,0 -9.23654,-4.63685 -10.56059,-9.63274 l 4.64014,-2.85042 c 0,0 4.98606,8.99786 12.4731,10.00492 0,0 -9.50293,-5.21482 -11.41943,-10.55223 l 4.91051,-2.11045 c 0,0 5.02185,8.66947 11.25244,9.46198 0,0 -10.4254,-7.24645 -10.09936,-9.8648 0,0 4.61628,-1.63756 6.03178,-1.42302 0,0 3.73358,6.12993 7.39161,6.23939 0,0 -6.50096,-5.65705 -6.07153,-6.52837 0,0 6.52879,-0.37217 9.94031,1.36609 0,0 -4.85088,-2.97301 -9.94031,-2.49138 0,0 2.30217,-2.98176 5.30414,-3.63854 0,0 -3.59839,-1.62881 -6.88664,3.74801 0,0 -5.07751,0.51229 -5.70574,1.13403 0,0 2.56858,-5.81466 5.72959,-8.28853 0,0 -4.7117,0.91511 -7.04568,8.79645 l -4.97812,2.00098 c 0,0 3.02584,-7.88133 5.69382,-10.31579 0,0 -4.67593,1.75141 -6.91051,10.9463 l -4.58049,2.74094 c 0,0 2.13518,-7.00562 4.57254,-10.42524 0,0 -4.01986,2.65338 -5.8608,11.26155 l -2.86282,2.21991 c 0,0 1.64214,-5.08785 2.23459,-6.50211 0.59244,-1.41426 0.29423,-1.70762 0.29423,-1.70762 a 16.648032,18.332853 0 0 0 -3.74949,9.09418 c 0,0 -5.62224,4.99152 -5.95225,4.64123 z"
     fill="#0aa8a7"
     opacity="0.1"
     id="path206"
     style="stroke-width:0.417247" />
  <path
     d="m 488.95053,196.16576 c 0,0 8.00792,-17.11562 17.47109,-8.28853 0,0 2.06758,0.82754 1.90855,3.23135 0,0 -0.79524,-0.47726 -1.42744,1.36172 a 7.9522479,8.7570353 0 0 1 -0.89065,1.84335 3.9761242,4.3785176 0 0 1 -1.98806,1.65946 v 0 c 0,0 -4.25048,3.50281 -12.11923,0.80127 0,0 -2.22265,0.35028 -2.5805,0.0481 l 2.58448,-2.08417 c 0,0 1.31212,2.14985 3.23657,2.39066 0,0 -3.22862,-2.23303 -2.86282,-2.71906 0.0716,-0.0963 1.41153,-1.03332 1.41153,-1.03332 0,0 2.2982,3.72174 5.28029,3.99758 0,0 -4.17493,-2.0973 -4.77134,-4.37851 l 2.09938,-1.28291 c 0,0 2.25049,4.06764 5.63417,4.52301 0,0 -4.29421,-2.35564 -5.16896,-4.76821 l 2.21868,-0.95451 c 0,0 2.26639,3.91877 5.08149,4.27781 0,0 -4.71171,-3.27514 -4.56062,-4.45733 0,0 2.08349,-0.73997 2.72365,-0.64364 0,0 1.68587,2.7716 3.33994,2.81538 0,0 -2.93836,-2.55267 -2.74352,-2.94674 0,0 2.95028,-0.16639 4.48506,0.61737 0,0 -2.19083,-1.34421 -4.48506,-1.12528 a 4.9264179,5.4249833 0 0 1 2.38568,-1.64632 c 0,0 -1.62624,-0.73559 -3.11331,1.69449 0,0 -2.29423,0.23205 -2.57653,0.51228 0,0 1.16103,-2.6271 2.58845,-3.74363 0,0 -2.1312,0.41158 -3.18089,3.9757 l -2.22663,0.91948 c 0,0 1.36381,-3.55974 2.57255,-4.66312 0,0 -2.1153,0.79251 -3.12524,4.94335 l -2.06759,1.23474 c 0,0 0.96223,-3.17005 2.06362,-4.71129 0,0 -1.81709,1.19972 -2.64412,5.08785 l -1.29622,1.00267 c 0,0 0.74353,-2.29872 1.00994,-2.93798 0.2664,-0.63927 0.13121,-0.77062 0.13121,-0.77062 a 7.5546358,8.3191829 0 0 0 -1.69384,4.12018 c 0,0 -2.5646,2.25494 -2.70376,2.09731 z"
     fill="#0aa8a7"
     opacity="0.1"
     id="path208"
     style="stroke-width:0.417247" />
  <path
     d="m 402.17957,216.07927 c 0,0 8.00792,-17.11563 17.49495,-8.28854 0,0 2.06361,0.82754 1.90854,3.23572 0,0 -0.79522,-0.48163 -1.42742,1.35734 a 8.1192457,8.9409332 0 0 1 -0.89066,1.84336 3.9761242,4.3785176 0 0 1 -2.00794,1.65946 v 0 c 0,0 -4.2465,3.50281 -12.11526,0.80126 0,0 -2.22265,0.35467 -2.5805,0.0481 l 2.58448,-2.08417 c 0,0 1.31212,2.14985 3.23259,2.39505 0,0 -3.22861,-2.23743 -2.86281,-2.72344 0.0756,-0.0963 1.4155,-1.03333 1.4155,-1.03333 0,0 2.2982,3.72174 5.27632,3.99759 0,0 -4.17096,-2.09732 -4.77135,-4.37852 l 2.09939,-1.27853 c 0,0 2.25447,4.06327 5.63815,4.51863 0,0 -4.29422,-2.35564 -5.16896,-4.7682 l 2.21867,-0.95452 c 0,0 2.27037,3.91878 5.08547,4.27781 0,0 -4.71171,-3.27513 -4.5646,-4.45733 0,0 2.08747,-0.73997 2.72763,-0.64364 0,0 1.68588,2.7716 3.33994,2.81977 0,0 -2.93835,-2.55706 -2.74353,-2.95112 0,0 2.94631,-0.16639 4.48507,0.61736 0,0 -2.19482,-1.3442 -4.48904,-1.12527 a 4.9264179,5.4249833 0 0 1 2.38567,-1.64633 c 0,0 -1.62226,-0.73559 -3.10933,1.69449 0,0 -2.29422,0.23207 -2.57652,0.51229 0,0 1.15705,-2.62712 2.58845,-3.74363 0,0 -2.1312,0.41157 -3.18089,3.97569 l -2.25447,0.91949 c 0,0 1.36779,-3.55974 2.57256,-4.65875 0,0 -2.11133,0.78813 -3.12126,4.93897 l -2.07156,1.23475 c 0,0 0.9662,-3.17006 2.06758,-4.71129 0,0 -1.81709,1.19971 -2.6481,5.08783 l -1.29622,1.00269 c 0,0 0.74354,-2.29872 1.00995,-2.93799 0.26639,-0.63926 0.13518,-0.77062 0.13518,-0.77062 a 7.5148746,8.2753987 0 0 0 -1.69383,4.12019 c 0,0 -2.55267,2.25493 -2.69184,2.09731 z"
     fill="#0aa8a7"
     opacity="0.1"
     id="path210"
     style="stroke-width:0.417247" />
</svg>
