<svg xmlns="http://www.w3.org/2000/svg" data-name="Layer 1" viewBox="0 0 1164.07 530"><defs><linearGradient id="a" x1="1755.38" x2="1755.38" y1="741.53" y2="284.16" gradientTransform="translate(-1059.38 -92.32) scale(.7744)" gradientUnits="userSpaceOnUse"><stop offset="0" stop-color="gray" stop-opacity=".25"/><stop offset=".54" stop-color="gray" stop-opacity=".12"/><stop offset="1" stop-color="gray" stop-opacity=".1"/></linearGradient></defs><g transform="translate(44.472)"><path fill="none" stroke="#3f3d56" stroke-miterlimit="10" stroke-width="3.098" d="M874.39 446.27c4.6-8.518-.62-18.941-6.613-26.538-5.994-7.597-13.304-15.488-13.165-25.16.225-13.94 14.977-22.11 26.771-29.481a130.935 130.935 0 0 0 24.006-19.322c2.889-2.958 5.692-6.117 7.38-9.889 2.44-5.42 2.37-11.616 2.215-17.57q-.774-29.76-2.935-59.459"/><path fill="#0aa8a7" d="M934.506 257.767a21.683 21.683 0 0 0-10.841-17.757l-4.855 9.603.147-11.616a21.683 21.683 0 1 0 15.534 19.786zm-38.665 146.74a21.683 21.683 0 1 1 1.076-17.478l-13.536 11.02 14.892-3.454a21.42 21.42 0 0 1-2.432 9.912zm-10.702-42.096a21.683 21.683 0 0 1-22.674-20.645 21.412 21.412 0 0 1 1.874-9.874 21.683 21.683 0 0 1 13.939-12.01l-.109 8.936 4.91-9.719h.054a21.684 21.684 0 1 1 2.03 43.32zm52.628-35.011a21.683 21.683 0 1 1 9.587-40.57l-3.872 10.493 7.883-7.566a21.621 21.621 0 0 1 6.97 14.97 21.172 21.172 0 0 1-.55 5.97 21.683 21.683 0 0 1-20.018 16.704z"/><path d="M931.587 263.544c-5.003.55-9.866 2.107-14.892 2.424-5.025.318-10.531-.898-13.714-4.801-1.711-2.099-2.563-4.763-4.011-7.055a15.441 15.441 0 0 0-5.46-5.142 21.683 21.683 0 1 0 40.532 14.396 37.11 37.11 0 0 0-2.455.178zm6.18 63.856a21.683 21.683 0 0 1-20.622-30.929 16.03 16.03 0 0 1 4.36 4.368c1.548 2.323 2.477 5.026 4.297 7.163 3.369 3.973 9.138 5.274 14.373 5.026 5.235-.248 10.284-1.72 15.488-2.2a34.4 34.4 0 0 1 2.184-.13 21.683 21.683 0 0 1-20.08 16.703zm-52.628 35.011a21.683 21.683 0 0 1-22.674-20.645 21.412 21.412 0 0 1 1.874-9.874 17.617 17.617 0 0 1 4.584 4.407c1.68 2.377 2.734 5.11 4.7 7.31 3.656 4.073 9.804 5.506 15.35 5.374 5.373-.116 10.539-1.433 15.874-1.843a21.683 21.683 0 0 1-19.708 15.271zm10.702 42.096a21.683 21.683 0 0 1-39.494-17.687 21.629 21.629 0 0 1 4.755 4.244c2.06 2.516 3.423 5.358 5.808 7.705 4.43 4.344 11.616 6.14 17.958 6.311a94.166 94.166 0 0 0 10.973-.573z" opacity=".1"/><ellipse cx="544.382" cy="466.513" fill="#0aa8a7" opacity=".1" rx="394.941" ry="39.494"/><g opacity=".1"><path fill="#0aa8a7" d="M187.116 92.264a14.078 14.078 0 0 1 3.492-13.049l4.786 5.088-2.223-7.21a14.078 14.078 0 1 1-6.055 15.17z"/><path d="M189.996 95.33c3.214-.573 6.536-.495 9.719-1.223 3.183-.728 6.404-2.486 7.667-5.498.681-1.627.727-3.439 1.208-5.135a9.982 9.982 0 0 1 2.462-4.205 14.086 14.086 0 1 1-22.62 16.394c.519-.124 1.038-.24 1.564-.333z" opacity=".1"/></g><g opacity=".1"><path fill="#0aa8a7" d="M843.926 8.42a11.391 11.391 0 0 1 10.841-1.293l-2.393 5.119 4.747-3.826a11.368 11.368 0 1 1-13.164 0z"/><path d="M842.493 11.502c1.394 2.238 2.323 4.747 3.826 6.923 1.502 2.176 3.786 4.058 6.427 4.097 1.417 0 2.796-.48 4.205-.627a8.178 8.178 0 0 1 3.872.58 11.376 11.376 0 1 1-19.073-12.05c.27.35.518.706.743 1.077z" opacity=".1"/></g><g opacity=".1"><path fill="#0aa8a7" d="M891.675 64.262a13.165 13.165 0 0 1 12.545-1.495l-2.765 5.924 5.499-4.437a13.165 13.165 0 1 1-15.28 0z"/><path d="M890.01 67.824c1.618 2.594 2.695 5.506 4.437 8.023 1.742 2.516 4.375 4.692 7.434 4.747 1.65 0 3.237-.566 4.879-.736a9.409 9.409 0 0 1 4.5.681A13.165 13.165 0 1 1 889.172 66.6c.295.388.574.798.837 1.224z" opacity=".1"/></g><g opacity=".2"><path fill="none" stroke="#3f3d56" stroke-miterlimit="10" stroke-width="3.098" d="M237.908 367.135c-6.807-6.869-4.747-18.353-1.138-27.328 3.608-8.976 8.394-18.586 5.513-27.879-4.135-13.273-20.606-16.99-33.995-20.73a130.555 130.555 0 0 1-28.46-11.732c-3.608-2.014-7.186-4.26-9.873-7.403-3.872-4.523-5.552-10.478-7.086-16.263q-7.658-28.76-13.939-57.862"/><path fill="#0aa8a7" d="M127.07 203.25a21.683 21.683 0 0 1 5.373-20.096l7.365 7.845-3.415-11.113a21.683 21.683 0 1 1-9.293 23.364zm78.5 129.866a21.683 21.683 0 1 0-5.932-16.448l16.1 6.745-15.264.89a21.466 21.466 0 0 0 5.095 8.813zm-1.611-43.405a21.683 21.683 0 0 0-5.421-42.747l2.625 8.519-7.395-7.915h-.055a21.683 21.683 0 1 0 10.277 42.128zm-60.372-18.748a21.683 21.683 0 1 0-20.645-36.218l6.636 9.021-9.695-5.041a21.613 21.613 0 0 0-2.494 16.34 21.327 21.327 0 0 0 2.207 5.575 21.683 21.683 0 0 0 23.99 10.323z"/><path d="M131.499 207.966c4.956-.883 10.067-.774 14.969-1.882 4.902-1.107 9.858-3.825 11.801-8.464 1.054-2.501 1.123-5.297 1.859-7.906a15.542 15.542 0 0 1 3.787-6.474 21.683 21.683 0 1 1-34.848 25.245c.82-.194 1.626-.34 2.432-.519zm12.088 62.997a21.683 21.683 0 0 0 11.058-35.49 16.022 16.022 0 0 0-2.95 5.42c-.821 2.664-.96 5.514-2.099 8.085-2.122 4.762-7.287 7.635-12.39 8.882-5.103 1.247-10.354 1.247-15.488 2.254a35.8 35.8 0 0 0-2.137.495 21.683 21.683 0 0 0 24.006 10.354zm60.372 18.748a21.683 21.683 0 0 0 11.345-35.15 17.486 17.486 0 0 0-3.152 5.522c-.945 2.757-1.185 5.676-2.455 8.34-2.323 4.933-7.852 8.046-13.165 9.486-5.188 1.402-10.516 1.595-15.75 2.71a21.683 21.683 0 0 0 23.177 9.092zm1.611 43.405a21.683 21.683 0 0 0 32.927-28.118 21.296 21.296 0 0 0-3.369 5.42c-1.27 2.99-1.766 6.103-3.4 9.022-3.02 5.42-9.377 9.169-15.441 11.128a94.794 94.794 0 0 1-10.718 2.548z" opacity=".1"/></g><path fill="#fff" d="M878.332 60.506l-.17 385.873c-27.104 0 0 0-27.367.139H748.954l-.31-.124a62.772 62.772 0 0 0-47.416 0l-.255.109H598.915q-5.157-2.091-10.067-4.585a60.968 60.968 0 0 0-54.78 0q-4.949 2.486-10.068 4.585H421.865l-.255-.109a62.772 62.772 0 0 0-47.416 0l-.31.124H272.059a137.068 137.068 0 0 1-46.317-31.115V60.506z"/><path fill="#ededf4" d="M878.332 45.413v16.642H225.735V45.413a5.707 5.707 0 0 1 5.715-5.715H872.6a5.707 5.707 0 0 1 5.731 5.715z"/><circle cx="236.081" cy="50.71" r="2.672" fill="#fa5959" opacity=".8"/><circle cx="243.422" cy="50.71" r="2.672" fill="#fed253" opacity=".8"/><circle cx="250.755" cy="50.71" r="2.672" fill="#8ccf4d" opacity=".8"/><path fill="#ededf4" d="M311.29 62.055v385.237s-34.848-.139-85.548-.913V62.055zm567.994 0v385.872c-.325.24-31.161-.356-32.524.14h-53.046V62.055z"/><path fill="#fff" d="M237.536 80.865h61.952v7.744h-61.952zm0 17.811h61.952v7.744h-61.952zm0 17.811h61.952v7.744h-61.952zm0 17.811h61.952v7.744h-61.952zm0 17.811h61.952v7.744h-61.952zm.186 52.659h61.952v7.744h-61.952zm0 17.811h61.952v7.744h-61.952zm0 17.811h61.952v7.744h-61.952zm0 17.811h61.952v7.744h-61.952zm0 17.811h61.952v7.744h-61.952zm.178 52.659h61.952v7.744H237.9zm0 17.811h61.952v7.744H237.9zm0 17.811h61.952v7.744H237.9zm0 17.811h61.952v7.744H237.9zm0 17.811h61.952v7.744H237.9zM798.384 65.377h7.744v7.744h-7.744zm9.292 0h7.744v7.744h-7.744zm9.293 0h7.744v7.744h-7.744zm9.293 0h7.744v7.744h-7.744zm9.292 0h7.744v7.744h-7.744zm-37.17 32.524h7.744v7.744h-7.744zm9.292 0h7.744v7.744h-7.744zm9.293 0h7.744v7.744h-7.744zm9.293 0h7.744v7.744h-7.744zm9.292 0h7.744v7.744h-7.744zm-37.17 32.525h7.744v7.744h-7.744zm9.292 0h7.744v7.744h-7.744zm9.293 0h7.744v7.744h-7.744zm9.293 0h7.744v7.744h-7.744zm9.292 0h7.744v7.744h-7.744zm-37.17 32.524h7.744v7.744h-7.744zm9.292 0h7.744v7.744h-7.744zm9.293 0h7.744v7.744h-7.744zm9.293 0h7.744v7.744h-7.744zm9.292 0h7.744v7.744h-7.744zm-37.17 32.525h7.744v7.744h-7.744zm9.292 0h7.744v7.744h-7.744zm9.293 0h7.744v7.744h-7.744zm9.293 0h7.744v7.744h-7.744zm9.292 0h7.744v7.744h-7.744zM798.384 228h7.744v7.744h-7.744zm9.292 0h7.744v7.744h-7.744zm9.293 0h7.744v7.744h-7.744zm9.293 0h7.744v7.744h-7.744zm9.292 0h7.744v7.744h-7.744zm-37.17 32.524h7.744v7.744h-7.744zm9.292 0h7.744v7.744h-7.744zm9.293 0h7.744v7.744h-7.744zm9.293 0h7.744v7.744h-7.744zm9.292 0h7.744v7.744h-7.744zm-37.17 32.525h7.744v7.744h-7.744zm9.292 0h7.744v7.744h-7.744zm9.293 0h7.744v7.744h-7.744zm9.293 0h7.744v7.744h-7.744zm9.292 0h7.744v7.744h-7.744zm-37.17 32.524h7.744v7.744h-7.744zm9.292 0h7.744v7.744h-7.744zm9.293 0h7.744v7.744h-7.744zm9.293 0h7.744v7.744h-7.744zm9.292 0h7.744v7.744h-7.744zm-37.17 32.525h7.744v7.744h-7.744zm9.292 0h7.744v7.744h-7.744zm9.293 0h7.744v7.744h-7.744zm9.293 0h7.744v7.744h-7.744zm9.292 0h7.744v7.744h-7.744zm-37.17 32.524h7.744v7.744h-7.744zm9.292 0h7.744v7.744h-7.744zm9.293 0h7.744v7.744h-7.744zm9.293 0h7.744v7.744h-7.744zm9.292 0h7.744v7.744h-7.744zm-37.17 32.525h7.744v7.744h-7.744zm9.292 0h7.744v7.744h-7.744zm9.293 0h7.744v7.744h-7.744zm9.293 0h7.744v7.744h-7.744zm9.292 0h7.744v7.744h-7.744z"/><path fill="#ededf4" d="M575.738 148.082l-24.448 3.655-50.452 7.535-111.149 16.61-.395.055-36.396 239.675-.147.952 414.3-180.913 1.1-.48zm167.447 76.952l-12.762 4.832-18.818-9.146 12.661-4.251zm-202.404-67l.419-.063 4.646 2.873-3.167.511-5.638.906-4.313-2.981 6.613-1.007zm-3.957 5.358l4.097 2.834 2.067 1.433-2.067.41-1.549.31-4.097.813-5.931-4.592 7.016-1.13zm6.459-1.046l3.988-.65 6.265 3.872-9.1 1.812-2.005-1.386-4.097-2.834zm17.71-2.865l7.93-1.278 5.908 3.098-8.518 1.696-3.175-1.812-2.819-1.61zm7.496 6.002l3.648 2.083-.837.17-9.192 1.828-5.707-3.508 9.71-1.928zm-26.244 9.145l8.371-1.672 1.24.867.286.194 1.789 1.239-8.519 1.835-2.393-1.89-.178-.147zm9.827-1.959l9.827-1.96 2.323 1.426.434.263.666.41-9.912 2.146-1.642-1.139-.294-.209zm-31.51 59.388l-19.267 5.08-5.583-9.873 18.206-4.406zm-7.28-10.152l-18.12 4.399-4.647-8.232 16.758-3.965.357-.085 4.437 6.195v.054zm58.49-34.329l1.782 1.24-4.414.952-5.212 1.115-.558.124-1.417-1.1-1.641-1.278-6.97-5.42 9.1-2.076 6.52 4.515zm-32.028-1.239l1.192-.27 11.105-2.533 6.908 5.35 1.641 1.279 1.472 1.138-13.072 2.827-1.85-1.55-1.255-1.052-5.421-4.554zm23.41 5.816l1.2.93.418.324 5.932 4.593-13.397 3.175-7.318-6.196zm-15.488 2.261l-4.236.914h-.078l-22.201 4.801-.922.201-6.8-8.015 7.474-1.703 17.47-3.98zm-26.485 6.815l21.343-4.647 1.835-.395 4.329-.937 7.349 6.196-4.91 1.161-1.804.426-22.318 5.281-5.824-6.86-.178-.21zm11.88 15.883l-11.384 2.756-7.28 1.766-5.66-7.876 12.692-3.004 5.189-1.224zm-11.36 3.872l12.134-2.935 7.295 8.603-19.143 5.05-.325.084-6.598-9.192zm6.086-11.71l22.457-5.312 1.805-.426 4.995-1.184 8.27 6.97-3.6.874-6.97 1.68-20.553 4.988zm30.565-7.232l13.436-3.175 2.827 2.191 5.9 4.577-5.9 1.433-8 1.936zm16.263-2.323l-1.495-1.162 1.495-.356 9.292-2.192 9.432 6.528-11.476 2.78zm0-2.618l-2.58.612-6.427-4.98-1.122-.851 2.85-.62 7.248-1.549h.131l7.961 5.514zm-22.326-14.713l-5.754-4.445 8.611-1.851 6.118 4.236zm-1.348.31l-10.012 2.284-1.55.348-.665.155-5.514-4.646 6.195-1.332 1.549-.333 4.275-.922zm-13.536 3.097l-16.564 3.764-8.224 1.874-4.445-5.227 12.483-2.688 11.167-2.408zm-25.927 5.909l-9.416 2.145-6.552 1.494-3.965-5.521 10.3-2.215 5.165-1.146zm-9.378 3.237l10.153-2.324 6.76 7.984-16.626 3.601-.465.101-5.769-8.038zm17.688 6.582l1.409 1.657 4.608 5.421-4.43 1.092-13.343 3.097-5.42-7.573zm15.178 16.224L554 213.1l8.248-2.005 4.057-.984 8.27 6.97.62.518-.62.163-32.338 8.518zm39.618-2.03l-6.97-5.885 6.97-1.688 6.97-1.696 9.168 7.117-14.257 3.763zm8.309-9.594l11.57-2.803 9.664 6.69-12.104 3.19zm12.963-3.136l13.289-3.222 10.16 6.242-13.823 3.686zm-1.177-.821l-9.416-6.52 12.39-2.936 10.19 6.265zm-10.617-7.341l-7.93-5.491 11.872-2.563 8.387 5.11zm-9.13-6.32l-.364-.255-10.717-7.419 10.578-2.416.14.085 12.118 7.458zm-12.274-8.518l-6.094-4.22 10.067-2.169 6.512 4.004zm-21.187-4.646l2.578 1.99-3.175.681-1.548.333-7.218 1.55-3.175-2.672 3.872-.775 1.425-.279h.062l4.995-.999 1.549-.302.418.333zm-20.91 3.562l7.056-1.41 3.198 2.695-10.16 2.192-13.258 2.904-2.687-3.167zm-14.333 6.582l-4.453.96-10.942 2.324-2.486-3.47 13.296-2.656 1.882-.371zm-16.533 3.563l-13.94 2.996-2.145-3.779 13.568-2.71zm.681.944l3.973 5.537-14.714 3.353-3.314-5.862zm4.646 6.474l5.762 8.023-16.015 3.47-4.584-8.109zm6.443 8.975l1.015 1.387 4.422 6.195-.41.093-16.58 3.926-4.593-8.124zm-7.418 21.064l-19.848 4.87-3.632-8.587 18.818-4.453zm.542.968l5.599 9.889-21.08 5.63-4.483-10.61zm6.14 10.841l6.668 11.802-22.535 6.412-5.343-12.56zm1.07-.278l19.36-5.111 7.921 11.02-20.622 5.87zm20.498-5.421l19.569-5.111 8.735 10.292-20.452 5.815zm20.738-5.42l31.572-8.333 1.618-.426 10.68 9.068-35.174 10.005zm34.43-9.115l14.341-3.74 11.074 8.58-14.713 4.189zm15.627-4.12l12.189-3.214 11.724 8.123-12.863 3.656zm13.544-3.493l13.939-3.67 12.39 7.612-14.613 4.158zm15.372-4.065l12.467-3.284 12.693 7.24-12.801 3.64zm-1.255-.775l-10.121-6.195 12.15-2.974 10.354 5.91zm-11.399-7.016l-10.183-6.257 11.616-2.749 10.648 6.071zm-11.469-7.054l-8.356-5.096 11.369-2.463 8.518 4.856zm-9.649-5.932l-12.282-7.55 10.431-2.378 13.165 7.496zm-13.583-8.356h-.046l-6.466-3.973 6.443-1.386 3.732-.774 6.683 3.818zm-.046-6.466l-3.47.774h-.077l-4.236.945-.488-.302-.449-.279-2.44-1.502 8.937-1.781 1.17-.233 3.368 1.92zm-14.017-.922l-9.71 1.936-5.212-3.616 9.215-1.828zm-11.166 2.223l-8.263 1.65-.24-.187-1.55-1.2-2.988-2.323 2.989-.596 1.549-.31 3.283-.65zm-10.068 1.618l.403.31-.403.078-11.445 2.284-4.476-3.771 11.538-2.324zm-12.777 2.935l-6.195 1.247-16.394 3.268-2.44-2.873-1.014-1.13.914-.179 14.713-2.927 5.94-1.185zm-25.02 3.361l1.184 1.394-1.123.225-13.939 2.787-2.943-4.104 14.629-2.904zm-15.04 4.646l-13.435 2.68-2.385-4.213 12.878-2.563zm-14.543 2.904l-15.023 2.997-1.827-4.336 14.458-2.866zm.558.976l2.145 3.795-15.558 3.353-1.742-4.128zm2.695 4.77l3.33 5.878-16.379 3.733-2.633-6.234zm3.872 6.846l4.577 8.092-17.641 3.818-3.438-8.146zm5.126 9.068l4.585 8.131-18.686 4.422-3.686-8.72zm-11.073 22.403l-19.964 4.84-2.556-8.967 18.88-4.468zm.418 1l4.491 10.624-21.373 5.638-3.23-11.392zm4.91 11.615l5.32 12.576-23.016 6.544-3.802-13.451zm5.738 13.568l6.195 14.713-24.835 7.636-4.46-15.744zm1.037-.295l22.66-6.45 7.797 13.776-24.238 7.388zm23.689-6.745l20.754-5.908 9.246 12.886-22.21 6.776zm21.846-6.195l20.544-5.839 10.292 12.12-21.606 6.59zm21.683-6.195l35.397-10.067 12.654 10.656-37.76 11.53zm36.636-10.423l14.791-4.205 13.165 10.183-15.294 4.647zm16.061-4.57l12.964-3.631 13.939 9.649-13.77 4.197zm14.288-4.057l14.713-4.182 14.714 9.068-15.55 4.74zm16.1-4.584l12.87-3.655 15.178 8.665-13.312 4.058zm14.326-4.058l12.05-3.43 15.619 8.239-12.53 3.825zm-1.294-.775l-12.645-7.194 11.616-3.059 13.033 6.87zM634.6 201.95l-10.315-5.878 11.275-2.733 10.57 5.575zm-11.662-6.652l-10.648-6.071 10.687-2.525 11.159 5.886zm-12.003-6.846l-8.472-4.832 10.408-2.246 8.673 4.57zm-9.835-5.599l-13.165-7.504 9.417-2.152 14.063 7.418zm-14.535-8.286l-6.66-3.802 9.114-1.967 6.892 3.64zm-8.054-4.592l-3.338-1.905 9.037-1.804 3.338 1.758zm-4.747-2.71l-6.033-3.446 8.604-1.704 6.38 3.361zm-9.06-3.934l-9.634 1.92-6.195-3.81 9.75-1.548zm-30.845 6.14l-11.469 2.278-6.009-5.057 11.492-1.859zm-12.8 2.549l-5.87 1.169-13.77 2.734-1.664.333-5.142-6.056 6.567-1.061 8.154-1.317 5.653-.913zm-22.504 4.468l-14.513 2.888-4.8-6.683 14.147-2.323zm-15.666 3.097l-12.747 2.533-4.143-7.272 12.057-1.951zm-13.854 2.757l-14.334 2.85-3.4-8.023 13.567-2.191zm-15.41 3.098l-14.102 2.803-2.479-8.75 13.165-2.13zm.425.999l1.836 4.336-14.807 2.95-1.262-4.452zm2.261 5.343l1.75 4.143-15.418 3.322-1.27-4.483zm2.176 5.142l2.633 6.242-16.316 3.717-1.874-6.606zm3.06 7.24l3.438 8.14-17.571 3.794-2.324-8.185zm3.871 9.139l3.694 8.735-18.756 4.437-2.64-9.347zm-13.28 23.417l-21.87 5.297-1.207-9.417 20.529-4.855zm.286 1.03l3.23 11.438-23.666 6.195-1.55-12.313zm3.523 12.437l3.818 13.474-25.78 7.334-1.858-14.528zm4.105 14.504l4.468 15.767-28.211 8.596-2.184-16.99zm4.755 16.79l5.42 19.111-31.092 10.44-2.687-20.91zm1.022-.31l25.036-7.636 7.457 17.633-27.103 9.083zm26.081-7.977l24.355-7.426 9.2 16.262-26.113 8.766zm25.4-7.744l22.334-6.807 10.78 15.016-23.937 8.054zm23.387-7.109l21.683-6.613 11.848 13.94-22.79 7.65zm22.814-6.97l38-11.615 14.202 11.964-40.377 13.552zm39.215-11.956l15.356-4.646 14.613 11.321-15.79 5.297zm16.603-5.064l13.862-4.22 15.333 10.616-14.62 4.902zm15.163-4.647l15.65-4.77 16.007 9.904-16.386 5.499zm17.036-5.18l13.374-4.082 16.324 9.293-13.706 4.608zm14.784-4.507l12.591-3.872 16.642 8.773-12.956 4.353zm14.04-4.283l11.445-3.492 17.037 8.262-11.856 3.973zm-1.34-.712l-15.581-8.217 10.841-3.097 16.123 7.829zm-16.967-8.898l-12.995-6.853 10.346-2.742 13.413 6.513zm-14.389-7.59l-10.524-5.552 9.96-2.416 10.84 5.258zM635.7 192.23l-11.144-5.877 9.293-2.207 11.701 5.684zm-12.576-6.636l-8.627-4.554 8.99-1.943 8.875 4.313zm-10.067-5.328l-14.094-7.434 7.945-1.805 15.054 7.31zm-15.543-8.193l-6.86-3.624 7.588-1.634 7.133 3.461zm-8.332-4.399l-3.299-1.742 7.473-1.487 3.33 1.61zm-4.801-2.532l-6.374-3.36 6.97-1.395 6.76 3.284zm-7.876-4.15l-5.823-3.098 6.97-1.123 5.8 2.819zm-7.395-3.873l-4.956-2.61 6.613-1.014 5.188 2.525zm-1.75.287l-7.512 1.177-1.022.162-4.794-2.725 2.2-.333 6.125-.937zm-10.192 1.65l-9.664 1.548-4.646-2.857 9.455-1.487zm-21.605 3.484l-7.372 1.193-4.027-3.098 7.055-1.076zm-8.805 1.394l-11.415 1.843-3.871-3.26 11.236-1.72zm-12.808 2.068l-5.584.906-7.186 1.161-7.334 1.185-3.043-3.585 10.237-1.55 3.663-.565 5.367-.813zm-21.374 3.422l-14.04 2.324-2.702-3.764 13.691-2.09zm-15.217 2.455l-11.925 1.928-2.238-3.957 11.453-1.75zm-13.048 2.107l-13.444 2.207-1.757-4.167 12.947-1.974zm-14.52 2.323l-13.04 2.106-1.232-4.344 12.506-1.905zm-14.102 2.33l-13.273 2.146-.596-4.592 12.63-1.929zm.295 1.038l2.478 8.766-14.714 2.92-1.2-9.548zm2.772 9.796l1.262 4.46-15.488 3.099-.596-4.6zm1.549 5.49l1.27 4.5-16.325 3.516-.627-4.894zm1.548 5.53l1.875 6.621-17.448 3.98-.906-7.054zm2.169 7.651l2.323 8.178-18.864 4.08-1.061-8.247zm2.602 9.208l2.695 9.378-20.382 4.816-1.286-10.067zm-17.424 24.92l-23.457 5.684.17-9.89 22.079-5.219zm.14 1.068l1.548 12.336-25.377 6.676.232-13.32zm1.718 13.405l1.867 14.543-27.747 7.891.279-15.689zm1.998 15.612l2.184 17.036-30.403 9.293.326-18.345zm2.324 18.09l2.679 20.908-33.655 11.314.41-22.906zm2.818 22.008l3.439 26.77-37.775 14.312.526-29.737zm1.038-.349l31.247-10.485 6.822 24.1-34.638 13.118zm32.261-10.841l27.213-9.13L508 314.08l-29.682 11.244zm28.258-9.486l26.229-8.774 11.314 20.002-28.29 10.71zm27.266-9.154l24.007-8.061 13.095 18.245-25.803 9.811zm25.098-8.417l22.876-7.675 14.241 16.774-24.053 9.107zm24.007-8.046l40.593-13.622 16.68 14.055-43.063 16.31zm41.778-14.017l15.806-5.281 17.036 13.164-16.262 6.15zm17.037-5.723l14.713-4.933 17.688 12.244-15.41 5.839zm15.968-5.358l16.471-5.53 18.3 11.252-17.138 6.49zm17.811-5.971l13.769-4.646 18.469 10.531-14.001 5.305zm15.124-5.08l13.025-4.368 18.655 9.843-13.273 5.026zm14.388-4.832l11.926-3.996 18.895 9.176-12.228 4.647zm24.61-9.378l-12.607 4.228-16.982-8.209 12.39-3.77zm-18.655-8.433l-12.313 3.748-16.084-7.814 11.926-3.392zm-17.981-8.124l-11.856 3.377-13.374-6.498 11.616-3.097zm-15.194-6.876l-11.507 3.035-10.78-5.235 11.345-2.749zm-12.522-5.67l-11.275 2.734-11.693-5.677 10.802-2.555zm-13.76-6.195l-10.726 2.532-8.828-4.32 10.617-2.324zm-10.571-4.786l-10.532 2.223-15.085-7.326 9.595-2.16zm-17.571-7.992l-9.54 2.169-7.102-3.446 8.635-1.859-.117-.542zm-8.914-4.034l-9.292 1.998-3.284-1.595 7.946-1.588-.202-1.007zm-4.894-2.215l-9.292 1.843-6.76-3.283 8.951-1.774zm-8.774-3.973l-8.843 1.766-5.746-2.772 9.076-1.464zm-7.225-3.267l-8.983 1.448-5.204-2.525 8.836-1.347zm-11.159-5.05l4.066 1.836-8.79 1.363-3.871-1.89zm-10.439 1.55l3.872 1.897-6.512.99-3.694-1.943zm-12.723 1.897l4.647-.69 3.701 1.952-5.676.867-2.556.395-3.515-2.013zm-5.119.774l3.524 2.013-9.401 1.433-3.361-2.06zm-10.841 1.626l3.369 2.076-8.34 1.27-3.098-2.138zm-9.603 1.44l3.098 2.138-6.97 1.06-2.842-2.199zm-8.162 1.216l2.85 2.207-11.159 1.704-2.772-2.246zm-17.81 2.664l.27-.038 5.111-.775 2.687 2.27-5.28.773-2.696.41-11.004 1.681-2.06-2.423zm-14.273 2.099l2.068 2.424-13.583 2.075-1.812-2.486zm-14.504 2.168l1.804 2.51-11.322 1.726-1.47-2.594zm-12.12 1.804l1.472 2.602-12.816 1.96-1.139-2.695zm-13.575 2.03l1.146 2.694-12.39 1.89-.774-2.788zm-13.087 1.959l.775 2.787-12.468 1.905-.372-2.896zm-26.33 3.926l13.165-1.967.372 2.896-13.614 2.075zm-.069 4.089l13.8-2.037.588 4.608-14.442 2.323zm-.108 5.924l14.605-2.362 1.223 9.556-15.96 3.214zm-.132 11.5l16.13-3.199.59 4.6-16.844 3.361zm-.1 5.83l16.997-3.383.627 4.901-17.725 3.818zm-.117 6.436l17.88-3.872.907 7.062-18.919 4.314zm-.155 8.619l19.074-4.345 1.06 8.232-20.28 4.383zm20.266 4.948l1.293 10.067-21.915 5.189.194-10.842zm-36.327-44.806l15.744-2.323-.054 3.004-16.162 2.47zm-.635 4.228l16.263-2.494-.086 4.848-16.99 2.75zm-.944 6.195l17.145-2.772-.225 10.446-18.686 3.717zm-1.898 12.491l18.834-3.748-.078 4.747-19.5 3.872zm-.952 6.025l19.646-3.919-.093 5.352-20.436 4.398zm-1.053 6.97l20.583-4.43-.132 7.535-21.683 4.94zm-1.394 9.176l21.83-4.972-.147 8.255-22.938 4.964zm-1.425 9.409l23.084-4.995-.193 10.88-24.672 5.831zm-1.952 12.855l24.827-5.886-.178 9.897-26.22 6.366zm-1.75 11.523l26.384-6.389-.271 13.296-28.328 7.473zm-2.323 15.573l28.482-7.512-.279 15.705-30.774 8.758zm-2.75 18.105l30.938-8.797-.325 18.376-33.624 10.246zm-3.22 20.932l33.77-10.292-.402 22.93-37.17 12.476zm32.083 83.503l-47.959 20.909 6.652-43.816 41.996-15.906zm-41.128-24.076L366 336.693l37.34-12.53-.487 29.784zm42.204 23.604l.69-38.72 37.945-14.365 4.43 34.329zm44.048-19.229l-4.391-34.236 34.793-13.164 8.596 30.38zm39.99-17.47l-8.589-30.325 29.807-11.283 11.538 27.305zm33.74-14.713l-11.523-27.26 28.404-10.763 13.94 24.58zm31.75-13.878l-13.877-24.525 25.942-9.827 15.89 22.148zm28.954-12.645l-15.813-22.133 24.146-9.137 17.106 20.134zm26.43-11.547l-17.036-20.134 43.273-16.386 19.584 16.502zm46.882-20.475l-19.515-16.44 16.263-6.195 19.87 15.395zm17.71-7.744l-19.793-15.34 15.488-5.862 20.444 14.155zm17.285-7.55l-20.374-14.117 17.222-6.52 20.909 12.878zm18.973-8.286l-20.909-12.824 14.063-5.328 20.97 11.965zm15.387-6.722l-20.909-11.918 13.328-5.049 21.032 11.09zm14.713-6.42l-20.955-11.05 12.282-4.646 21.126 10.26zm13.746-6l-21.04-10.223 12.816-4.855 20.994 9.501z"/><path fill="#ededf4" d="M500.854 160.062l-.047-1.696 48.036-8.58 25.74 20.583v49.763l-53.192 12.01-18.872-24.021z"/><path d="M502.519 208.12l-1.665-48.058 19.677 18.028 54.053-7.372v49.414l-52.628 11.887-.565.124z" opacity=".1"/><path d="M573.724 171.229l.86-.356v49.259l-52.628 11.887-1.425-53.93z" opacity=".1"/><path fill="#0aa8a7" d="M534.88 165.978h4.469v20.979h1.549v-20.979h4.46l-2.617-4.545-2.618-4.538-2.625 4.538zm7.42 30.442l13.799 13.08-.016.023-2.617 4.537h10.477l-2.617-4.537-2.617-4.546-1.812 3.144-13.537-12.824zm3.763-3.67l17.648-3.153.713 4.074 4.019-3.361 4.027-3.361-4.918-1.804-4.925-1.805.82 4.732-17.655 3.152z"/><path fill="url(#a)" d="M357.397 236.255c-1.3-8.712-9.207-29.025-9.207-29.025a28.024 28.024 0 0 0-.473-1.804c-5.614-19.306-13.39-21.017-13.39-21.017l-27.83-5.932a2.13 2.13 0 0 1 .572.558c-.14 0-.286 0-.441.062a10.911 10.911 0 0 1-2.44-5.274 15.93 15.93 0 0 1-.139-.89 19.577 19.577 0 0 0-1.595-29.428c-.287-.224-.58-.449-.89-.658 1.316-1.394 1.354-3.337.379-5.273-2.2-4.562-6.97-7.442-11.864-8.844-3.748-1.076-7.814-1.425-11.523-.248a42.026 42.026 0 0 0-6.025 2.796c-3.701 1.85-7.744 3.306-10.555 6.342a3.144 3.144 0 0 0-1.053 2.548 6.884 6.884 0 0 0 1.046 1.85c.774 1.387.588 3.137.054 4.647-.535 1.51-1.34 2.912-1.72 4.46-.379 1.55-.232 3.37.93 4.476a20.134 20.134 0 0 0 1.742 1.232 9.293 9.293 0 0 1 1.657 1.858l3.3 4.453a45.69 45.69 0 0 1 4.12 6.28 30.48 30.48 0 0 0 2.555 4.786 6.97 6.97 0 0 0 1.1 1.146l-.326-.124a4.995 4.995 0 0 0 3.686 1.418h.17a.999.999 0 0 0 .667-.272v.612c.062 2.138.046 4.414-.101 6.552l-.256-.132a2.238 2.238 0 0 0-2.4.256l-25.64 20.56s-5.576 7.627-4.794 20.777l-4.492 19.731s-5.622 16.743-1.3 28.707a4608.366 4608.366 0 0 0 6.822 18.787s1.735 13.583 4.321 14.713c2.587 1.13 3.717 1.712 3.717 1.712l.519 3.244s.17.318.472.852c1.89 3.284 8.883 14.869 12.948 13.63a52.659 52.659 0 0 1 .658 9.525l4.02 26.987s2.803 7.35 2.632 11.19c-.17 3.841 3.284 9.293 3.284 9.293a17.811 17.811 0 0 0-1.727 12.56c1.642 7.172 3.717 40.316 3.717 40.316l3.02 8.03-.062 9.347a9.037 9.037 0 0 1-1.858 4.174c-1.944 2.106-1.812 4.546-6.482 7.426-4.67 2.881-7.643 3.973-7.643 7.814a10.013 10.013 0 0 1-.14 1.549c-.433 2.81-1.277 4.321 7.334 5.142a22.659 22.659 0 0 0 16.843-5.638s1.495-2.695 8.518-3.779c0 0 2.393-.131 2.525-2.246.046-.727.039-2.13 0-3.662-.116-2.935-.395-6.35-.775-6.52-.379-.171-1.285-3.16-1.548-4.229h1.943s1.82-13.583 0-22.38c-1.82-8.797-.17-15.031-.17-15.031l-.348-23.232s-2.417-2.563-.52-7.093c1.898-4.53 0-26.903 0-26.903s.698-8.03 2.68-9.912c1.983-1.882.1-11.763 0-12.274l3.54 11.848s1.548 23.58 4.839 27.878l.945 10.671s6.737 9.828 5.42 15.124c-1.316 5.297 1.387 24.433 1.387 24.433v19.56s-3.028 7.853 1.208 10.672l1.82-.07c-.62.558-1.061 1.402-1.758 2.122-.813.836-1.27 4.004-1.55 6.73-.216 2.323-.286 4.29-.286 4.29a7.109 7.109 0 0 0 5.189 3.097c3.368.194 14.512 8.712 14.512 8.712s11.02 0 13.87-.573h.162a3.771 3.771 0 0 0 2.153-1.758 4.445 4.445 0 0 0 .519-3.229c-.349-1.688-1.689-3.531-4.647-5.103-7.395-3.872-8.518-7.55-8.518-7.55l-4.832-7.257h.689s-.434-7.682 4.832-16.316l-.34-38.062s2.16-13.071-1.55-20.134c0 0-.301-7.52 2.177-9.82 2.478-2.3-3.3-25.632-3.3-25.632s-1.184-12.514-2.609-23.936c5.831 5.529 11.887-14.388 12.901-17.92h.148s0-.1-.07-.263l.07-.255s-1.294-4.608-.349-3.671c.945.937 3.284-2.563 3.284-2.563s-.341-19.05 3.717-28.653c4.057-9.602-1.797-32.95-1.797-32.95zm-17.37 12.158v-.047c.604 11.616-.116 36.45-.116 36.45s-.774 3.176-1.657 6.924l-.612-23.58-.58-22.21zm-74.341-8.015s2.935 36.73 0 42.026c-.837 1.502-1.55 4.19-2.122 7.256-.968-2.548-3.02-8.518-2.323-11.701.944-4.097-1.905-14.86-1.905-15.116 0-.256-.256-5.979 1.82-10.377 2.075-4.399.689-6.28.689-6.28s1.734-7.218 3.81-5.847z"/><path fill="#a1616a" d="M272.802 323.072c-2.555 11.252-12.73-5.754-15.046-9.835l-.473-.844 1.108-5.173 5.831-2.377a16.262 16.262 0 0 1 2.61 1.696c3.19 2.493 7.945 7.829 5.97 16.533zm78.942-18.4s0 .085-.062.248l-.085.279c-.991 3.508-6.931 23.278-12.654 17.81-6.272-6.016-3.221-19.847-3.221-19.847h.038l13.165-1.347 2.61 2.68z"/><path fill="#2f2e41" d="M344.109 401.928l.333 37.721c-5.166 8.573-4.74 16.2-4.74 16.2l-17.036.674c-4.159-2.795-1.185-10.593-1.185-10.593v-19.407s-2.633-18.988-1.363-24.246c1.27-5.258-5.336-15.008-5.336-15.008l-.937-10.594c-3.221-4.243-4.747-27.645-4.747-27.645l-3.47-11.763c.094.51 1.89 10.369 0 12.188-1.889 1.82-2.624 9.835-2.624 9.835s1.866 22.218 0 26.71c-1.867 4.49.503 7.038.503 7.038l.34 23.062s-1.61 6.195.171 14.915c1.781 8.72 0 22.217 0 22.217h-18.33l.085-9.409-2.95-8.007s-2.037-32.896-3.647-40.02a17.858 17.858 0 0 1 1.696-12.46s-3.392-5.422-3.222-9.247c.17-3.826-2.57-11.066-2.57-11.066l-3.943-26.794a51.884 51.884 0 0 0-1.951-15.263c-2.323-7.628-5.676-17.633-5.676-17.633l3.825.34 19.36 1.72s46.967-3.16 49.073-.535a8.658 8.658 0 0 1 .883 2.734c2.106 9.478 4.894 39.153 4.894 39.153s5.684 23.147 3.245 25.439c-2.44 2.292-2.137 9.742-2.137 9.742 3.57 7.024 1.456 20.002 1.456 20.002z"/><path fill="#303d5c" d="M304.405 467.566c-.131 2.099-2.478 2.223-2.478 2.223-6.869 1.084-8.332 3.755-8.332 3.755a22.109 22.109 0 0 1-16.534 5.6c-8.448-.775-7.62-2.324-7.194-5.112a9.812 9.812 0 0 0 .14-1.549c0-3.817 2.92-4.894 7.504-7.743 4.584-2.85 4.445-5.282 6.357-7.373 1.913-2.09 2.099-6.195 2.099-6.195 2.16-3.756 7.628.565 7.628.565.255 1.332 8.394 1.147 8.394 1.147s1.084 4.32 1.634 4.576c.372.17.643 3.562.775 6.474.038 1.48.054 2.858.008 3.632z"/><path d="M304.405 467.566c-.131 2.099-2.478 2.223-2.478 2.223-6.869 1.084-8.332 3.755-8.332 3.755a22.109 22.109 0 0 1-16.534 5.6c-8.448-.775-7.62-2.324-7.194-5.112 3.772.937 10.997 2.246 15.202-.046 5.854-3.175 10.067-5.421 10.067-5.421l9.254-4.646c.046 1.494.062 2.873.015 3.647z" opacity=".1"/><path fill="#303d5c" d="M356.158 478.841a3.702 3.702 0 0 1-2.114 1.75h-.163c-2.795.566-13.613.566-13.613.566s-10.935-8.449-14.242-8.643a6.97 6.97 0 0 1-5.087-3.097s.062-1.967.278-4.252c.256-2.71.705-5.854 1.503-6.683 1.463-1.548 1.78-3.624 5.088-2.323 0 0 4.7-8.278 10.23-1.882l5.73 8.69s1.076 3.623 8.332 7.503c2.904 1.549 4.22 3.384 4.561 5.057a4.491 4.491 0 0 1-.503 3.314z"/><path d="M356.158 478.841c-.65.55-1.363 1.139-2.114 1.75h-.163c-2.795.566-13.613.566-13.613.566s-10.935-8.449-14.242-8.643a6.97 6.97 0 0 1-5.087-3.097s.062-1.967.278-4.252c3.361 1.007 8.465 2.788 9.835 4.701 2.091 2.92 8.464 6.97 8.464 6.97s11.872-1.139 17.145-1.301a4.491 4.491 0 0 1-.503 3.306z" opacity=".1"/><path fill="#a1616a" d="M309.927 182.96l-15.65 16.534s-18.95-1.394-15.643-6.97c1.688-2.85 1.951-8.82 1.804-14.008-.14-5.003-.658-9.293-.658-9.293s26.585-13.227 24.548-.89a20.367 20.367 0 0 0-.078 7.046c1.178 6.227 5.677 7.582 5.677 7.582z"/><path d="M304.343 168.332a20.367 20.367 0 0 0-.077 7.047c-3.547 3.586-8.472 2.796-13.94 2.796-3.608 0-7.48.054-10.384-1.657-.14-5.003-.17-7.295-.17-7.295s26.608-13.227 24.571-.89z" opacity=".1"/><path fill="#a1616a" d="M309.927 160.58a19.592 19.592 0 0 1-19.592 19.585 19.584 19.584 0 1 1 19.592-19.584z"/><path d="M336.581 307.576c-4.87 11.616-36.249 11.848-36.249 11.848v-12.653l-1.897-.124c.82 3.624-1.154 12.46-1.154 12.46-24.78 3.5-30.836-10.617-30.836-10.617l.86-4.832 19.359 1.719s46.967-3.16 49.073-.534a8.658 8.658 0 0 1 .844 2.733z" opacity=".1"/><path fill="#e1e7ef" d="M300.332 317.899v-12.654l-1.897-.124c.82 3.625-1.154 12.46-1.154 12.46-18.663 2.633-26.701-4.716-29.535-8.518a11.802 11.802 0 0 1-1.301-2.106l7.565-42.592 1.781-62.726 2.734-10.996.627-5.282v-.062h.07l1.928.829 11.547 4.995 13.118-9.905.186-.147.658-.488 1.084.868 2.695 2.16 8.65 55.842s15 42.994 17.81 60.348c.11.69.202 1.332.272 1.944 1.828 15.86-36.838 16.154-36.838 16.154z"/><circle cx="294.098" cy="192.377" r="1.115" fill="#67647e"/><circle cx="294.609" cy="202.545" r="1.115" fill="#67647e"/><circle cx="295.724" cy="219.017" r="1.115" fill="#67647e"/><circle cx="297.567" cy="236.758" r="1.115" fill="#67647e"/><circle cx="298.683" cy="253.423" r="1.115" fill="#67647e"/><circle cx="299.798" cy="271.164" r="1.115" fill="#67647e"/><circle cx="299.356" cy="288.712" r="1.115" fill="#67647e"/><path d="M279.896 270.552s-1.247 16.317-3.531 21.064c-2.285 4.747-3.307 18.059-3.307 18.059l-5.312-.604a11.802 11.802 0 0 1-1.301-2.107l7.565-42.591 1.781-62.726 2.734-10.996.627-5.282h.078a2.16 2.16 0 0 1 1.89 0l.255.132a9.574 9.574 0 0 0-.217.666c-2.075 6.49-2.85 18.446-2.85 18.446s2.974 21.876 3.307 32.052c.333 10.176-1.72 33.887-1.72 33.887z" opacity=".1"/><path d="M266.832 306.539a3.183 3.183 0 0 1-.21.395c-2.06 3.484-7.279 5.7-8.866 6.303l-.473-.844 1.108-5.173 5.831-2.377a16.262 16.262 0 0 1 2.61 1.696z" opacity=".1"/><path fill="#303d5c" d="M252.707 223.276l-4.832 2.888-4.407 19.585s-5.513 16.618-1.277 28.482a4349.919 4349.919 0 0 0 6.698 18.655s1.696 13.482 4.244 14.582c2.547 1.1 3.647 1.696 3.647 1.696l.503 3.221s6.9-2.323 9.347-6.466c2.447-4.143-1.796-14.388-1.796-14.388s-3.648-8.735-2.718-12.8c.929-4.066-1.859-14.714-1.859-15.009 0-.294-.255-5.94 1.773-10.3 2.03-4.359.682-6.233.682-6.233l-1.27-12.468z"/><path d="M336.984 303.913s-12.8 4.833-16.874.589c-4.073-4.244-3.647-24.076-3.647-24.076s-3.872-36.629-6.358-42.646c-2.486-6.017-1.185-49.437-1.185-49.437s-1.657-5.615-3.098-7.078a1.37 1.37 0 0 0-.302-.248l.488.1 1.743.38 2.695 2.16 8.65 55.842s15 42.995 17.81 60.349z" opacity=".1"/><path d="M351.744 305.183h-.147c-1.603.21-15.836 1.929-15.89-1.037a9.03 9.03 0 0 1 .054-1.022l13.164-1.348 2.61 2.68c.046.17.085.325.124.44z" opacity=".1"/><path fill="#303d5c" d="M338.091 203.66l9.355 4.879s7.744 20.134 9.037 28.815c0 0 5.77 23.162 1.781 32.695-3.988 9.533-3.64 28.436-3.64 28.436s-2.322 3.477-3.228 2.54c-.906-.937.34 3.647.34 3.647s-15.975 2.122-16.045-1.014c-.07-3.136 3.663-18.144 3.663-18.144s1.014-35.7-.426-41.29c-1.44-5.592-.837-40.564-.837-40.564z"/><path d="M310.19 241.675s-5.25 12.886-6.97 13.738c-1.719.852.333 4.236.333 4.236s9.61-13.397 6.637-17.974zm-3.136-45.193c.062-.24-6.273 6.195-7.969 7.178-1.696.984 6.195-.054 7.969-7.178zm-17.634 44.187s-9.664 6.249-8.394 8.72c1.27 2.47 8.395-8.72 8.395-8.72zm17.549 91.223s8.231 5.29 21.032 6.614zm-19.755 12.716s7.635 9.58 11.112 9.835c3.477.255-11.112-9.835-11.112-9.835zm10.686 37.558c-.34.17-4.328 8.65-8.394 8.905-4.066.256 8.394-8.905 8.394-8.905zm35.352 18.57s7.565-1.696 9.246 3.732c0 0-.511-1.695-9.246-3.732zm-5.081 31.03s9.154-1.866 11.105.681c1.952 2.548-11.105-.681-11.105-.681zm-25.918 4.329c0 .085-9.293 1.866-8.96 3.05.333 1.186 9.95 1.015 10.284-.851a1.766 1.766 0 0 0-1.324-2.2zm22.86 8.053s15.325-1.866 14.357 1.356c-.968 3.221-14.357-1.356-14.357-1.356zm-80.235-188.766c.085.256 10.067 1.61 11.445 4.832 0 0-9.835-4.576-11.36-4.576m14.017 25.972s-8.31 2.626-7.745 6.614c.566 3.988-.813-1.866 7.744-6.613zm-3.873 20.182s3.028-4.159 5.909-3.392c2.88.766-5.909 3.392-5.909 3.392zm47.463-156.521a4.778 4.778 0 0 1-.976.728c-2.408 1.394-3.059 3.547-4.212 6.025-1.054 2.269-2.23 4.646-4.368 5.963-2.757 1.665-6.396 1.053-9.293 2.509a7.217 7.217 0 0 0-3.833 7.085 20.506 20.506 0 0 0 .813 3.245 22.852 22.852 0 0 1 .875 7.055.953.953 0 0 1 0 .209 19.584 19.584 0 1 1 20.986-32.819z" opacity=".1"/><path fill="#2f2e41" d="M302.059 139.378c-2.153-4.523-6.83-7.38-11.616-8.774-3.67-1.069-7.659-1.417-11.306-.248a41.422 41.422 0 0 0-5.909 2.773c-3.632 1.835-7.628 3.29-10.361 6.303a3.098 3.098 0 0 0-1.03 2.525 6.606 6.606 0 0 0 1.022 1.835c.775 1.378.573 3.098.054 4.646-.519 1.55-1.316 2.889-1.688 4.43-.372 1.54-.224 3.337.914 4.437a20.63 20.63 0 0 0 1.704 1.224 9.293 9.293 0 0 1 1.634 1.843l3.229 4.422a45.434 45.434 0 0 1 4.05 6.195 30.201 30.201 0 0 0 2.509 4.747c1.076 1.432 2.757 2.586 4.546 2.424a.867.867 0 0 0 .712-.341.976.976 0 0 0 .093-.45 23.286 23.286 0 0 0-.875-7.046 19.809 19.809 0 0 1-.821-3.253 7.217 7.217 0 0 1 3.833-7.085c2.881-1.449 6.52-.837 9.293-2.502 2.137-1.293 3.314-3.694 4.368-5.963 1.153-2.485 1.796-4.646 4.212-6.032 2.416-1.386 2.625-3.733 1.433-6.11z"/><path d="M293.285 459.512s2.981 3.818 2.215 5.979c-.767 2.16-2.215-5.979-2.215-5.979zm40.532 9.541s.666-5.119 3.337-5.165c2.672-.047 2.796-.271 4.833.503 2.036.774 3.95 2.006 3.345 2.192-.604.185-3.516-2.928-6.482-1.34a21.528 21.528 0 0 0-5.033 3.81zm-49.445-271.495l8.363-5.885s-12.274-7.249-13.738-6.234c-1.463 1.014-2.462 10.183-2.462 10.183z" opacity=".1"/><path fill="#e1e7ef" d="M284.31 197.17l8.394-6.008s-12.274-7.249-13.738-6.196c-1.463 1.054-2.462 10.687-2.462 10.687z"/><path d="M284.31 197.17l8.394-6.008s-12.274-7.249-13.738-6.196c-1.463 1.054-2.462 10.687-2.462 10.687z" opacity=".03"/><path fill="#303d5c" d="M280.36 185.005l-.255-.131a2.176 2.176 0 0 0-2.323.247l-25.16 20.413s-5.468 7.566-4.709 20.63l14.776 21.025s1.696-7.124 3.732-5.77c0 0 2.881 36.46 0 41.717-2.88 5.259-4.135 24.905-4.135 24.905l9.75 1.1s1.022-13.312 3.306-18.06c2.285-4.746 3.54-21.055 3.54-21.055s2.06-23.712 1.718-33.888c-.34-10.175-3.306-32.044-3.306-32.044s.828-12.8 3.066-19.089z"/><path d="M305.428 193.833l-10.463-3.872s13.32-14.582 14.977-6.49z" opacity=".1"/><path fill="#e1e7ef" d="M305.428 193.33l-10.463-3.872s13.32-14.613 14.962-6.497z"/><path d="M305.428 193.33l-10.463-3.872s13.32-14.613 14.962-6.497z" opacity=".03"/><path d="M305.087 180.924a.573.573 0 0 1 .433.093z" opacity=".1"/><path fill="#303d5c" d="M306.101 179.91l27.747 5.978s7.628 1.696 13.164 20.854c5.537 19.159-7.542 42.639-7.542 42.639l-2.889-2.448 1.449 55.958s-12.809 4.832-16.875.596c-4.065-4.235-3.647-24.083-3.647-24.083s-3.872-36.629-6.358-42.646c-2.485-6.017-1.223-49.43-1.223-49.43s-2.277-7.76-3.826-7.418z"/><path d="M331.478 215.563c-.395.364-.852 17.292.844 30.201a164.357 164.357 0 0 0 4.81 23.232l-2.518-51.637s-1.951-2.896-3.136-1.796zm-3.392-14.583c.674.427 3.64 7.458 2.285 10.347-1.355 2.888-2.285-10.346-2.285-10.346zm-26.19-61.602a15.248 15.248 0 0 0-6.102-6.389 14.535 14.535 0 0 1 4.577 5.374c1.185 2.378.844 4.763-1.487 6.11-2.331 1.348-3.059 3.547-4.213 6.025-1.053 2.27-2.222 4.647-4.367 5.963-2.757 1.665-6.397 1.053-9.293 2.501a7.233 7.233 0 0 0-3.833 7.094 20.723 20.723 0 0 0 .813 3.244 22.852 22.852 0 0 1 .875 7.055.883.883 0 0 1-.093.45.86.86 0 0 1-.713.34 4.22 4.22 0 0 1-2.09-.387 4.855 4.855 0 0 0 3.616 1.402.697.697 0 0 0 .774-.775 23.038 23.038 0 0 0-.867-7.047 19.809 19.809 0 0 1-.82-3.252 7.217 7.217 0 0 1 3.871-7.086c2.873-1.448 6.513-.836 9.293-2.501 2.145-1.294 3.314-3.694 4.368-5.963 1.161-2.486 1.804-4.646 4.212-6.033 2.409-1.386 2.664-3.748 1.48-6.125z" opacity=".1"/></g></svg>