<svg xmlns="http://www.w3.org/2000/svg" data-name="Layer 1" viewBox="0 0 1164.07 530"><g transform="translate(218.312)"><path fill="#ffb8b8" d="M525.182 375.569s67.377 3.483 51.683 24.693c-15.693 21.21-56.93-12.442-56.93-12.442z"/><path fill="#575a89" d="M401.02 173.547l13.713 3.429s8 24 13.714 45.714c5.715 21.714 17.143 86.856 17.143 86.856l88.601 62.094-10.567 23.64-118.033-46.52-26.286-103.214z"/><path d="M388.233 332.097l25.69-115.95-5.112 107.039 10.666 31.824z" opacity=".2"/><path fill="#2f2e41" d="M432.447 406.116s14.857 39.999 17.143 67.427c2.286 27.428 4.571 49.142 4.571 49.142h-69.713l-13.714-20.57v20.57h-81.142s-22.857-74.284-13.714-83.427c9.143-9.143 95.999-48 95.999-48z"/><path fill="#3f3d56" d="M161.888 521.644h403.395v1.389H161.888z"/><circle cx="345.02" cy="86.691" r="43.428" fill="#ffb8b8"/><path fill="#ffb8b8" d="M311.878 104.977l-3.429 50.285 43.428 58.285 21.714-54.857s-19.428-12.57-8-38.856z"/><path fill="#575a89" d="M438.73 415.829c0 10.29-28.57 26.286-28.57 26.286v5.714l-11.429 5.715-25.14-50.282-6.854 54.85s-50.289 8.006-66.286 0c-16.004-7.998-24.002-4.568-46.859-12.567-22.856-7.998 9.144-115.43 9.144-115.43l-22.856-165.71 49.934-24.968 2.632-1.319 6.867-1.264 10.525-1.944 35.181 23.78 2.833 14.859 1.743 9.144 9.137-10.29 6.901-22.697 49.102 27.273-13.713 109.708s37.708 118.859 37.708 129.142z"/><path fill="#ffb8b8" d="M270.735 451.258s52.571 42.285 27.429 50.285c-25.143 8-38.857-43.428-38.857-43.428z"/><path fill="#575a89" d="M251.307 166.69l-11.428-2.285s-17.143 9.142-18.286 27.428c-1.143 18.285-16 146.284-16 146.284l48 129.14 38.856-14.856-37.713-121.142 28.57-105.14z"/><circle cx="350.046" cy="197.401" r="4.166" fill="#2f2e41"/><circle cx="350.046" cy="224.479" r="4.166" fill="#2f2e41"/><circle cx="373.653" cy="402.917" r="4.166" fill="#2f2e41"/><path fill="#2f2e41" d="M308.354 42.201l-8.028-3.213s16.786-18.48 40.14-16.873l-6.568-7.232s16.055-6.428 30.652 10.445c7.673 8.87 16.55 19.296 22.084 31.04h8.598l-3.588 7.902 12.558 7.9-12.89-1.419a44.15 44.15 0 0 1 .35 13.105 16.956 16.956 0 0 1-6.21 11.093s-9.955-20.609-9.955-23.822v8.034s-8.028-7.23-8.028-12.052l-4.38 5.625h-29.191l4.378-7.232-16.785 2.41 6.568-8.838-25.989 36.497s-14.88-41.317 6.284-53.37z"/><circle cx="566.6" cy="279.981" r="69.431" fill="#3f3d56"/><circle cx="566.6" cy="279.981" r="59.711" opacity=".1"/><path d="M292.765 450.96l-22.218-90.26-5.55 3.518z" opacity=".2"/><path fill="#3f3d56" d="M123.418 194.76h-17.626a2.9 2.9 0 0 1-2.898-2.898v-25.337a2.9 2.9 0 0 1 2.898-2.898h17.626a2.9 2.9 0 0 1 2.898 2.898v25.337a2.9 2.9 0 0 1-2.898 2.898zm-17.626-29.744a1.51 1.51 0 0 0-1.51 1.509v25.337a1.51 1.51 0 0 0 1.51 1.51h17.626a1.51 1.51 0 0 0 1.51-1.51v-25.337a1.51 1.51 0 0 0-1.51-1.51zm49.821 29.744h-15.918a3.756 3.756 0 0 1-3.751-3.752v-51.17a3.756 3.756 0 0 1 3.751-3.752h15.918a3.756 3.756 0 0 1 3.752 3.752v51.17a3.756 3.756 0 0 1-3.752 3.752zm-15.918-57.286a2.366 2.366 0 0 0-2.363 2.364v51.17a2.366 2.366 0 0 0 2.363 2.363h15.918a2.366 2.366 0 0 0 2.363-2.363v-51.17a2.366 2.366 0 0 0-2.363-2.364zm48.353 57.286h-14.689a4.372 4.372 0 0 1-4.366-4.367v-75.278a4.372 4.372 0 0 1 4.366-4.367h14.689a4.372 4.372 0 0 1 4.366 4.367v75.278a4.372 4.372 0 0 1-4.366 4.367zm-14.689-82.623a2.981 2.981 0 0 0-2.978 2.978v75.278a2.981 2.981 0 0 0 2.978 2.978h14.689a2.981 2.981 0 0 0 2.978-2.978v-75.278a2.981 2.981 0 0 0-2.978-2.978z"/><path fill="#0aa8a7" d="M107.995 168.452h13.22v21.482h-13.22zm33.049-27.265h13.22v48.748h-13.22zm33.05-25.338h13.22v74.085h-13.22z"/><path fill="#3f3d56" d="M593.402 114.914H501.06a.694.694 0 0 1-.695-.694V20.488a.695.695 0 0 1 1.389 0v93.037h91.65a.695.695 0 0 1 0 1.39zM201.81 204.48H92.11a.694.694 0 0 1-.695-.694V94.779a.695.695 0 0 1 1.389 0v108.313H201.81a.694.694 0 0 1 0 1.388z"/><path fill="#3f3d56" d="M532.927 106.213H515.3a2.9 2.9 0 0 1-2.898-2.898V77.977a2.9 2.9 0 0 1 2.898-2.897h17.627a2.9 2.9 0 0 1 2.897 2.897v25.338a2.9 2.9 0 0 1-2.897 2.898zM515.3 76.468a1.511 1.511 0 0 0-1.51 1.51v25.337a1.511 1.511 0 0 0 1.51 1.509h17.627a1.51 1.51 0 0 0 1.508-1.509V77.977a1.51 1.51 0 0 0-1.508-1.509zm53.723 29.745H552.8a3.603 3.603 0 0 1-3.6-3.6V56.72a3.603 3.603 0 0 1 3.6-3.599h16.223a3.603 3.603 0 0 1 3.6 3.6v45.893a3.603 3.603 0 0 1-3.6 3.6zM552.8 54.509a2.213 2.213 0 0 0-2.21 2.21v45.894a2.213 2.213 0 0 0 2.21 2.21h16.223a2.213 2.213 0 0 0 2.21-2.21V56.72a2.213 2.213 0 0 0-2.21-2.21z"/><path fill="#0aa8a7" d="M517.186 80.146h13.22v21.482h-13.22zm37.116-21.262h13.22v41.564h-13.22z"/><circle cx="523.971" cy="61.452" r="6.249" fill="#0aa8a7"/><circle cx="560.769" cy="37.846" r="6.249" fill="#0aa8a7"/><g style="line-height:1.25"><path style="-inkscape-font-specification:'Chomsky, Normal';font-variant-ligatures:normal;font-variant-caps:normal;font-variant-numeric:normal;font-variant-east-asian:normal" fill="#0aa8a7" stroke-width="2.631" d="M548.375 256.173l1.834-4.697h34.616l-1.834 4.697h-11.806q2.635 2.978 3.335 7.904h10.305l-1.834 4.697h-8.204q-.167 4.811-2.2 8.057-2.169 3.55-6.337 4.926 2.168.84 4.202 3.589 1.967 2.596 4.135 7.56l6.836 15.58h-7.236l-6.37-14.625q-2.5-5.766-4.769-7.599-2.334-1.87-6.336-1.87h-7.336v-6.34h8.47q4.869 0 7.337-2.558 2.267-2.367 2.468-6.72h-19.276l1.834-4.697h17.075q-.6-2.558-2.101-4.544-2.468-3.36-7.337-3.36z" aria-label="₹" font-family="Chomsky" font-size="105.259" font-weight="400" letter-spacing="0" word-spacing="0"/></g></g></svg>