<svg xmlns="http://www.w3.org/2000/svg" data-name="Layer 1" viewBox="0 0 1164.07 530"><g transform="translate(134.253)"><path fill="#3f3d56" d="M132.399 496.782h248.618v1.366H132.399zm584.698-228.554l-.866-.325c-.19-.071-19.12-7.324-27.986-23.768-8.868-16.445-4.526-36.245-4.481-36.443l.204-.902.865.325c.19.071 19.12 7.324 27.987 23.768 8.867 16.445 4.525 36.245 4.48 36.443zm-27.433-24.859c7.497 13.904 22.456 21.031 26.246 22.658.72-4.062 2.98-20.488-4.51-34.378s-22.454-21.028-26.245-22.659c-.721 4.065-2.98 20.49 4.51 34.38z"/><path fill="#d0cde1" d="M695.704 239.732c15.936 9.588 22.073 28.631 22.073 28.631s-19.7 3.499-35.635-6.088c-15.936-9.588-22.073-28.631-22.073-28.631s19.7-3.499 35.635 6.088z"/><path fill="#3f3d56" d="M714.67 321.615a48.55 48.55 0 0 1-48.495-48.494v-.683h96.989v.683a48.55 48.55 0 0 1-48.495 48.494zm-47.124-47.81a47.128 47.128 0 0 0 94.247 0z"/><path fill="#0aa8a7" d="M714.67 313.078a32.102 32.102 0 0 0 32.101-32.102h-64.203a32.102 32.102 0 0 0 32.101 32.102z"/><circle cx="286.419" cy="49.092" r="34.834" fill="#2f2e41"/><path fill="#a0616a" d="M275.15 72.656s4.78 32.102-4.099 39.615c-8.88 7.513 14.343 38.932 14.343 38.932l31.419-50.543s-23.906-6.147-11.611-24.589z"/><path fill="#575a89" d="M263.538 166.912l-4.774 18.742-4.788 18.824-16.393-1.366 7.513-31.418s-1.366-29.37-2.049-36.2a9.25 9.25 0 0 1 .28-3.743 4.214 4.214 0 0 1 3.818-3.087z"/><path fill="#a0616a" d="M281.98 428.507l-20.491 4.098-1.995-17.423-7.178-62.845-1.755-15.354 23.905-6.83-.157 5.464-.526 18.442a76.484 76.484 0 0 1 2.288 10.983 117.644 117.644 0 0 1 1.127 21.118c-.683 19.125 4.781 42.347 4.781 42.347z"/><path fill="#2f2e41" d="M260.123 431.24l21.173-6.148 11.611 28.687 16.393 38.249s21.173 28.003-1.366 24.588c-22.54-3.415-25.955-8.879-25.955-11.61v-4.782l-2.732.683-2.049-2.05-2.732-20.49s-6.147-5.464-3.415-12.977z"/><path d="M276.071 365.042l-.239.628s-3.558 33.194-15.101 47.333l-1.237 2.179-7.178-62.845 4.508-16.72h17.485l-.526 18.442a76.484 76.484 0 0 1 2.288 10.983z" opacity=".2"/><path fill="#a0616a" d="M285.394 335.617l-11.611 30.053s-3.559 33.197-15.098 47.334l-14.955 26.432s-17.758-6.148-16.392-6.148c1.366 0 11.611-34.833 11.611-34.833l9.562-39.615 6.263-23.223z"/><path fill="#2f2e41" d="M249.877 431.24l-21.173-6.148-11.611 28.687-16.393 38.249s-21.173 28.003 1.366 24.588c22.54-3.415 25.955-8.879 25.955-11.61v-4.782l2.732.683 2.05-2.05 2.731-20.49s6.147-5.464 3.415-12.977z"/><circle cx="291.883" cy="57.972" r="23.906" fill="#a0616a"/><path d="M263.538 166.912l-4.774 18.742-4.105-.3a11.798 11.798 0 0 0-1.366-4.781c-1.366-2.732 0-.683 2.732-3.415s.683-1.366-1.366-4.781c-2.05-3.416 1.366-10.929 1.366-10.929-3.825-2.732-8.88-32.784-8.88-32.784z" opacity=".2"/><path fill="#575a89" d="M286.077 140.958l-14.343-31.419-27.32 19.125s8.879 29.37 13.66 32.784c0 0-3.415 7.513-1.366 10.929 2.049 3.415 4.098 2.049 1.366 4.78-2.732 2.733-4.098.684-2.732 3.416a11.798 11.798 0 0 1 1.366 4.78l64.886 4.782 4.098-11.611s8.196-15.71 5.464-37.566l10.246-37.566-28.687-4.781z"/><path fill="#2f2e41" d="M323.775 186.18s11.48 25.128-.132 66.11c-11.611 40.98-21.856 84.01-21.856 84.01l-52.593 6.147-1.366-23.905-18.441-2.732s2.732-77.18 10.928-96.305a2290.39 2290.39 0 0 1 16.008-36.407z"/><path d="M247.508 318.098l12.95-84.014 1.35.208-12.95 84.014z" opacity=".2"/><path fill="#2f2e41" d="M309.875 38.934a16.425 16.425 0 0 0-8.29-9.15c-4.765-2.27-10.32-2.087-15.542-1.331-6.025.872-12.358 2.695-16.248 7.378-2.495 3.004-3.694 6.846-4.836 10.58-1.32 4.318-2.652 8.7-2.77 13.213a50.04 50.04 0 0 0 .927 9.31 13.84 13.84 0 0 0 1.413 4.84c.854 1.46 2.414 2.633 4.102 2.527a17.98 17.98 0 0 1 1.14-19.281 35.115 35.115 0 0 1 3.188-3.546l8.682-8.816c2.664-2.705 5.447-5.489 9.002-6.817a13.316 13.316 0 0 1 12.354 1.739 13.031 13.031 0 0 1 3.58 4.099c.637 1.133 2.113 4.784 2.113 4.784s1.71-8.073 1.185-9.53z"/><ellipse cx="268.319" cy="57.972" fill="#a0616a" rx="2.391" ry="4.781"/><circle cx="270.709" cy="17.674" r="10.928" fill="#2f2e41"/><path fill="#3f3d56" d="M296.751 229.484h-40.686a3.861 3.861 0 0 1-3.86-3.861l-1.794-53.236a3.861 3.861 0 0 1 3.862-3.861h44.271a3.861 3.861 0 0 1 3.861 3.86l-1.793 53.237a3.861 3.861 0 0 1-3.86 3.861z"/><circle cx="276.408" cy="184.662" r="3.586" fill="#d0cde1"/><path fill="#a0616a" d="M325.01 186.037l-23 2.655s-39.155-1.972-29.593 9.64c9.562 11.61 31.419 2.048 31.419 2.048l28.686-1.366zm-83.404 6.469s-7.595 3.367-3.876 9.549c3.72 6.18 21.313 12.433 23.599 3.24 2.286-9.193-10.885-12.093-14.155-12.531a29.22 29.22 0 0 0-5.568-.258z"/><path fill="#575a89" d="M333.205 106.124l8.197-2.732a18.54 18.54 0 0 1 5.464 9.562c1.366 6.147 23.222 75.815 12.294 81.28-10.928 5.463-30.053 14.342-30.053 14.342l-8.879-23.222 14.343-7.513-5.464-30.053s-5.464-41.664 4.098-41.664z"/><path fill="#3f3d56" d="M615.29 321.274H440.44V146.422h174.85zm-173.485-1.366h172.12v-172.12h-172.12z"/><path fill="#0aa8a7" d="M461.612 167.595h132.505V300.1H461.612z"/><path fill="#3f3d56" d="M511.026 260.613c-3.965-12.3-8.964-21.014-15.733-27.425l-.432-.41.347-.484c12.953-18.082 23.64-35.773 31.768-52.58l.601-1.243.623 1.233c10.38 20.543 20.948 37.74 32.309 52.573l.353.46-.398.423c-8.228 8.74-13.56 17.712-16.302 27.43l-1.316-.372c2.76-9.776 8.07-18.8 16.227-27.57-11.053-14.5-21.359-31.233-31.47-51.1-8.01 16.356-18.414 33.525-30.94 51.06 6.724 6.533 11.71 15.32 15.664 27.586z"/><path fill="#3f3d56" d="M526.908 180.012h1.366v52.68h-1.366z"/><circle cx="527.59" cy="232.692" r="3.841" fill="#3f3d56"/><path fill="#cfcce0" d="M500.758 293.196l53.123-35.33.757 1.137-53.124 35.33z"/><path fill="#3f3d56" d="M497.9 275.416c-2.355-1.604-3.02-3.177-3.085-3.344l1.272-.498-.636.249.634-.254c.04.097 4.355 9.736 32.143 4.474 29.101-5.511 32.492 3.08 32.622 3.449l-1.289.455c-.026-.069-3.417-7.8-31.08-2.562-18.136 3.435-26.68.69-30.581-1.969z"/><path fill="#3f3d56" d="M491.86 269.375l6.71-1.271 1.271 6.71-6.71 1.271zm63.557 7.08l6.71-1.27 1.272 6.71-6.711 1.271z"/><circle cx="528.003" cy="276.256" r="3.415" fill="#cfcce0"/><circle cx="501.136" cy="293.764" r="3.415" fill="#cfcce0"/><circle cx="554.259" cy="258.434" r="3.415" fill="#cfcce0"/><path fill="#3f3d56" d="M527.182 233.822h1.366v12.294h-1.366zm-101.087 86.743h330.579v1.366H426.095z"/></g></svg>