<svg xmlns="http://www.w3.org/2000/svg" data-name="Layer 1" viewBox="0 0 1164.07 530"><path fill="#0aa8a7" d="M893.458 416.252c-15.968 36.287-48.409 60.55-82.016 76.552a302.605 333.23 0 0 1-84.44 24.814q-8.357 1.093-16.768 1.695a325.205 358.116 0 0 1-43.028-.053q-12.926-.947-25.762-3.026a324.916 357.798 0 0 1-86.134-27.62q-11.868-5.886-23.255-12.85a297.507 327.615 0 0 1-36.349-26.178q-3.824-3.218-7.55-6.574l-1.023-.92c-1.954-1.775-3.89-3.589-5.856-5.35a85.13 93.746 0 0 0-10.377-8.196 29.405 29.405 0 0 0-.745-.47 36.52 36.52 0 0 0-2.056-1.218 47.08 51.845 0 0 0-4.413-2.145c-6.944-2.913-14.38-3.973-21.92-3.794-1.25 0-2.5.093-3.758.186a79.243 79.243 0 0 0-5.272.582l-.65.1a119.502 131.596 0 0 0-16.55 3.912c-8.382 2.648-16.612 5.959-24.897 8.944-3.517 1.278-7.04 2.496-10.593 3.589l-.782.238a115.955 127.69 0 0 1-15.397 3.549 85.792 94.475 0 0 1-35.236-3.125l-.397-.126-.734-.238-1.004-.345q-2.525-.873-5.008-1.913l-1.004-.424q-2.404-1.02-4.707-2.191l-1.004-.503q-2.405-1.232-4.708-2.602c-.553-.318-1.1-.662-1.64-.986q-2.454-1.51-4.81-3.165-2.502-1.754-4.894-3.661-1.107-.874-2.189-1.794a97.01 106.828 0 0 1-11.644-11.566c-.199-.219-.385-.444-.57-.662a100.118 100.118 0 0 1-2.803-3.483 71.876 71.876 0 0 1-1.004-1.324q-1.617-2.171-3.12-4.442c-.15-.219-.295-.444-.439-.662a86.928 95.726 0 0 1-10.142-20.193 14.442 14.442 0 0 1-.235-.662q-1.202-3.41-2.194-6.932c-.27-.98-.53-1.986-.758-2.966-.078-.29-.15-.589-.216-.88-3.319-14.386-3.698-29.342-3.698-44.212v-5.197c.097-24.052.433-48.515 3.656-72.236 0-.166.042-.331.066-.49a204.867 225.6 0 0 1 4.395-23.715 158.869 174.947 0 0 1 7.4-24.032c7.413-19.2 18.193-36.671 30.163-52.865 14.43-19.484 30.962-37.465 49.377-52.302q3.968-3.197 8.044-6.21l1.257-.907c.44-.324.878-.662 1.316-.946.902-.663 1.804-1.285 2.718-1.914l1.022-.702 1.948-1.324.601-.377 1.04-.662 1.028-.662q1.804-1.172 3.65-2.29 7.881-4.84 16.136-8.846 2.435-1.185 4.9-2.284a172.805 190.293 0 0 1 22.936-8.282q4.328-1.205 8.711-2.119 5.17-1.099 10.395-1.82a164.959 181.653 0 0 1 16.702-1.37c39.27-1.053 78.938 13.022 109.714 40 12.264 10.752 23.284 23.483 37.058 31.726 12.024 7.176 26.098 10.149 38.976 4.502 10.642-4.668 17.568-6.985 29.52-6.277a247.433 272.473 0 0 1 72.33 16.658c.94.377 1.876.768 2.808 1.158 60.548 25.522 112.606 76.202 139.65 141.328q1.07 2.582 2.085 5.204c16.13 41.477 21.95 90.105 4.148 130.543z" opacity=".1"/><path fill="#0aa8a7" d="M380.028 187.222v251.023l-.782.238a115.955 127.69 0 0 1-15.397 3.549 85.792 94.475 0 0 1-35.236-3.125l-.397-.126-.734-.238-1.004-.344q-2.525-.874-5.008-1.914l-1.004-.423q-2.405-1.02-4.707-2.192l-1.004-.503q-2.405-1.231-4.708-2.602c-.553-.318-1.1-.662-1.64-.986q-2.454-1.51-4.81-3.165-2.502-1.754-4.894-3.661-1.107-.874-2.189-1.794a97.01 106.828 0 0 1-11.645-11.566c-.199-.219-.385-.444-.57-.662a100.073 100.073 0 0 1-2.803-3.483 71.872 71.872 0 0 1-1.004-1.324q-1.617-2.171-3.12-4.442c-.15-.219-.295-.444-.439-.662a86.928 95.726 0 0 1-10.142-20.193 14.463 14.463 0 0 1-.235-.662q-1.202-3.41-2.194-6.931c-.27-.98-.53-1.987-.758-2.966-.078-.292-.15-.59-.216-.88-3.319-14.387-3.698-29.343-3.698-44.213v-5.197c.096-24.052.433-48.515 3.656-72.236 0-.165.042-.331.066-.49a204.867 225.6 0 0 1 4.395-23.715h61.395v-34.115h12.24V159.82h26.345v27.402zm513.43 229.03c-15.968 36.287-48.409 60.55-82.016 76.552a302.605 333.23 0 0 1-84.44 24.814q-8.357 1.093-16.768 1.695a325.205 358.116 0 0 1-43.028-.053q-12.926-.947-25.762-3.026a324.916 357.798 0 0 1-86.134-27.62q-11.868-5.886-23.255-12.85a297.507 327.615 0 0 1-36.349-26.178q-3.824-3.218-7.55-6.574l-1.023-.92c-1.954-1.775-3.89-3.589-5.856-5.35a85.13 93.746 0 0 0-10.377-8.196 29.405 29.405 0 0 0-.745-.47 36.52 36.52 0 0 0-2.056-1.218 47.08 51.845 0 0 0-4.413-2.145v-102.69h111.578v22.86h48.968v-167.22h57.638v66.866h28.51v-39.59h23.554v-42.292h10.822v-24.628a201.8 201.8 0 0 1 2.807 1.158v23.47h10.534v42.318h23.537v39.59h34.707V395.39h55.167V285.695h17.778c16.154 41.491 21.974 90.119 4.172 130.557z" opacity=".1"/><path fill="#0aa8a7" d="M641.457 202.827h25.762v28.369h-25.762zm0 58.803h25.762v28.369h-25.762zm0 58.81h25.762v28.369h-25.762zm0 58.81h25.762v28.369h-25.762zm0 58.803h25.762v28.369h-25.762zm25.761 58.797v22.403q-12.926-.946-25.762-3.025V496.85zM472.181 358.686h90.175v12.85h-90.175zm0 39.028h90.175v12.85h-90.175zm90.175 39.028v12.844h-66.638q-3.824-3.218-7.55-6.574l-1.023-.92c-1.954-1.775-3.89-3.589-5.856-5.35zm0 39.021v12.85h-7.034q-11.868-5.885-23.255-12.85zm147.89-196.119h16.768v18.465h-16.768zm-363.128-86.053h16.768v18.465h-16.768zm0 42.901h16.768v18.465h-16.768zm0 42.894h16.768v18.465h-16.768zm0 42.901h16.768v18.465h-16.768zm0 42.901h16.768v18.465h-16.768zm0 42.894h16.768v18.465h-16.768zM774.27 279.644h16.768v18.465H774.27zm-64.023 45.549h16.768v18.465h-16.768zm64.023 0h16.768v18.465H774.27zm-64.023 45.556h16.768v18.465h-16.768zm64.023 0h16.768v18.465H774.27zm-64.023 45.556h16.768v18.465h-16.768zm64.023 0h16.768v18.465H774.27zm-64.023 45.549h16.768v18.465h-16.768zm64.023 0h16.768v18.465H774.27zm-64.023 57.459v-11.91h16.768v10.215zM263.352 245.059v10.593h64.13v-10.593zm5.711 9.93h-4.707v-9.268h4.707zm5.712 0h-4.708v-9.268h4.708zm5.711 0h-4.707v-9.268h4.707zm5.712 0h-4.708v-9.268h4.708zm5.711 0h-4.707v-9.268h4.707zm5.711 0h-4.707v-9.268h4.707zm5.712 0h-4.708v-9.268h4.708zm5.711 0h-4.707v-9.268h4.707zm5.712 0h-4.708v-9.268h4.708zm5.711 0h-4.707v-9.268h4.707zm6.012 0h-5.008v-9.268h5.008zm-63.126 20.829v10.56h64.13v-10.56zm5.711 9.897h-4.707v-9.235h4.707zm5.712 0h-4.708v-9.235h4.708zm5.711 0h-4.707v-9.235h4.707zm5.712 0h-4.708v-9.235h4.708zm5.711 0h-4.707v-9.235h4.707zm5.711 0h-4.707v-9.235h4.707zm5.712 0h-4.708v-9.235h4.708zm5.711 0h-4.707v-9.235h4.707zm5.712 0h-4.708v-9.235h4.708zm5.711 0h-4.707v-9.235h4.707zm6.012 0h-5.008v-9.235h5.008zm-63.126 20.855v10.56h64.13v-10.56zm5.711 9.897h-4.707v-9.235h4.707zm5.712 0h-4.708v-9.235h4.708zm5.711 0h-4.707v-9.235h4.707zm5.712 0h-4.708v-9.235h4.708zm5.711 0h-4.707v-9.235h4.707zm5.711 0h-4.707v-9.235h4.707zm5.712 0h-4.708v-9.235h4.708zm5.711 0h-4.707v-9.235h4.707zm5.712 0h-4.708v-9.235h4.708zm5.711 0h-4.707v-9.235h4.707zm6.012 0h-5.008v-9.235h5.008zm-63.126 20.829v10.592h64.13v-10.592zm5.711 9.93h-4.707v-9.268h4.707zm5.712 0h-4.708v-9.268h4.708zm5.711 0h-4.707v-9.268h4.707zm5.712 0h-4.708v-9.268h4.708zm5.711 0h-4.707v-9.268h4.707zm5.711 0h-4.707v-9.268h4.707zm5.712 0h-4.708v-9.268h4.708zm5.711 0h-4.707v-9.268h4.707zm5.712 0h-4.708v-9.268h4.708zm5.711 0h-4.707v-9.268h4.707zm6.012 0h-5.008v-9.268h5.008zm-62.88 20.848c.23.993.487 1.986.758 2.966v-2.304h4.707v9.269h-2.513c.072.218.15.444.235.662h60.721v-10.593zm11.177 9.931h-4.708v-9.269h4.708zm5.711 0h-4.707v-9.269h4.707zm5.712 0h-4.708v-9.269h4.708zm5.711 0h-4.707v-9.269h4.707zm5.711 0h-4.707v-9.269h4.707zm5.712 0h-4.708v-9.269h4.708zm5.711 0h-4.707v-9.269h4.707zm5.712 0h-4.708v-9.269h4.708zm5.711 0h-4.707v-9.269h4.707zm6.012 0h-5.008v-9.269h5.008zm-49.55 20.821c.143.219.288.444.438.663h3.12v4.442c.33.443.667.88 1.004 1.324v-5.76h4.708v9.269h-1.906c.186.218.372.443.57.662h42.62v-10.593zm14.981 9.931h-4.707v-9.268h4.707zm5.711 0h-4.707v-9.268h4.707zm5.712 0h-4.708v-9.268h4.708zm5.711 0h-4.707v-9.268h4.707zm5.712 0h-4.708v-9.268h4.708zm5.711 0h-4.707v-9.268h4.707zm6.012 0h-5.008v-9.268h5.008zm-18.072 20.822c.541.337 1.088.662 1.641.986v-.324h4.708v2.926l1.004.503v-3.43h4.707v5.622l1.004.423v-6.044h5.008v7.944l1.004.345v-8.951zm197.75-276.221s-14.334-.953-12.626 10.103a2.453 2.701 0 0 0 1.274 2.847s0-.821 1.467-.543a6.703 7.382 0 0 0 1.557.08 3.24 3.568 0 0 0 1.906-.861s4.028-1.834 5.597-9.084c0 0 1.155-1.582 1.113-1.986l-2.405 1.139s.83 1.92.18 3.515c0 0-.078-3.442-.547-3.363-.09 0-1.257.662-1.257.662s1.425 3.35.35 5.78c0 0 .408-4.118-.788-5.535l-1.744 1.106s1.665 3.456.535 6.276c0 0 .295-4.323-.89-6.005l-1.545 1.324s1.563 3.403.601 5.747c0 0-.126-5.038-.943-5.422a9.27 10.209 0 0 0-1.558 1.854s1.07 2.469.41 3.773c0 0-.41-3.35-.746-3.37 0 0-1.34 2.225-1.48 3.748a7.323 8.064 0 0 1 1.155-3.973 4.04 4.449 0 0 0-2.056 1.172s.21-1.569 2.405-1.708c0 0 1.112-1.682 1.413-1.787 0 0-2.17-.2-3.487.443 0 0 1.16-1.483 3.883-.808l1.521-1.37s-2.855-.43-4.064.046c0 0 1.39-1.324 4.473-.357l1.66-1.093a15.138 16.67 0 0 0-3.884-.37s1.527-.907 4.37.08l1.203-.59s-1.804-.384-2.303-.444c-.499-.06-.553-.218-.553-.218a6.18 6.806 0 0 1 3.35.41s2.494-1.046 2.452-1.218zm-37.625 53.805s-4.9 14.856 5.213 16.214a2.447 2.695 0 0 0 2.832-.537s-.704-.258-.055-1.708a6.848 7.54 0 0 0 .518-1.615 3.253 3.582 0 0 0-.217-2.258s-.45-4.773-6.319-8.487c0 0-1.046-1.675-1.412-1.741l.3 2.88s1.906-.332 3.114.807c0 0-3.006-.894-3.084-.377 0 .1.223 1.516.223 1.516s3.318-.556 5.128 1.271c0 0-3.475-1.602-5.044-.735l.47 2.106s3.48-.768 5.614 1.218c0 0-3.68-1.53-5.483-.762l.715 1.986s3.41-.662 5.177.987c0 0-4.425-1.324-4.984-.543a9.463 10.42 0 0 0 1.166 2.165s2.46-.424 3.403.662c0 0-3.036-.523-3.144-.179 0 0 1.557 2.053 2.843 2.648a7.359 8.103 0 0 1-3.12-2.35 4.04 4.449 0 0 0 .44 2.51s-1.312-.663-.813-3.013c0 0-1.154-1.648-1.154-1.986 0 0-.793 2.231-.6 3.807 0 0-.963-1.649.396-4.33l-.758-1.986s-1.202 2.893-1.118 4.31c0 0-.746-1.847.962-4.833l-.475-2.06a14.988 16.505 0 0 0-1.425 3.973s-.36-1.874 1.305-4.595l-.175-1.416s-.84 1.774-1.04 2.31c-.198.536-.348.517-.348.517a6.18 6.806 0 0 1 1.304-3.423s-.192-2.953-.355-2.953zm95.01-12.526s-4.895 14.883 5.212 16.207a2.453 2.701 0 0 0 2.837-.543s-.71-.258-.054-1.701a6.433 7.084 0 0 0 .511-1.622 3.253 3.582 0 0 0-.21-2.258s-.45-4.773-6.319-8.487c0 0-1.052-1.669-1.419-1.735l.307 2.873s1.906-.324 3.114.815c0 0-3.006-.894-3.09-.384 0 .105.222 1.516.222 1.516s3.32-.55 5.135 1.27c0 0-3.475-1.595-5.05-.734l.474 2.112s3.481-.775 5.616 1.218c0 0-3.686-1.536-5.49-.768l.716 1.986s3.41-.662 5.177.987c0 0-4.42-1.324-4.984-.537a9.277 10.215 0 0 0 1.202 2.165s2.453-.43 3.403.662c0 0-3.036-.523-3.145-.172 0 0 1.552 2.046 2.838 2.648a7.293 8.03 0 0 1-3.114-2.35 4.07 4.482 0 0 0 .433 2.51s-1.305-.663-.806-3.006c0 0-1.154-1.655-1.16-1.986 0 0-.788 2.237-.6 3.806 0 0-.963-1.642.395-4.33l-.757-1.986s-1.203 2.893-1.118 4.304c0 0-.746-1.84.962-4.827l-.48-2.065a14.988 16.505 0 0 0-1.426 3.972s-.355-1.874 1.31-4.595l-.174-1.416s-.842 1.774-1.046 2.31c-.204.536-.349.517-.349.517a6.222 6.852 0 0 1 1.31-3.423s-.216-2.946-.384-2.953zM427.727 316.11s-4.9 14.863 5.212 16.22a2.44 2.688 0 0 0 2.832-.543s-.704-.258-.054-1.701a6.475 7.13 0 0 0 .517-1.622 3.21 3.535 0 0 0-.217-2.258s-.45-4.773-6.318-8.48c0 0-1.047-1.676-1.413-1.742l.3 2.873s1.912-.324 3.115.815c0 0-3.006-.894-3.085-.384 0 .106.223 1.516.223 1.516s3.318-.55 5.128 1.271c0 0-3.475-1.596-5.044-.735l.47 2.112s3.48-.774 5.614 1.218c0 0-3.68-1.536-5.483-.768l.716 1.986s3.408-.662 5.176.987c0 0-4.419-1.324-4.984-.536a9.463 10.42 0 0 0 1.166 2.165s2.46-.43 3.41.662c0 0-3.043-.523-3.15-.173 0 0 1.556 2.046 2.843 2.649a7.317 8.057 0 0 1-3.12-2.344 4.022 4.43 0 0 0 .438 2.503s-1.31-.662-.81-3.006c0 0-1.15-1.655-1.156-1.986 0 0-.793 2.237-.6 3.806 0 0-.963-1.641.396-4.33l-.758-1.985s-1.202 2.893-1.112 4.303c0 0-.745-1.84.962-4.827l-.48-2.058a14.874 16.38 0 0 0-1.426 3.972s-.36-1.88 1.305-4.595l-.175-1.423s-.84 1.774-1.04 2.31c-.198.537-.348.517-.348.517a6.156 6.78 0 0 1 1.31-3.423s-.198-2.966-.36-2.966zm-19.443-140.083s-4.894 14.856 5.212 16.213a2.459 2.708 0 0 0 2.838-.536s-.71-.258-.054-1.708a6.74 7.422 0 0 0 .51-1.622 3.234 3.562 0 0 0-.21-2.25s-.45-4.774-6.324-8.488c0 0-1.047-1.675-1.413-1.742l.306 2.88s1.906-.33 3.11.808c0 0-3.008-.894-3.086-.377 0 .099.223 1.516.223 1.516s3.318-.556 5.134 1.27c0 0-3.475-1.601-5.05-.734l.47 2.105s3.48-.774 5.62 1.218c0 0-3.685-1.535-5.489-.76l.716 1.985s3.408-.662 5.176.993c0 0-4.419-1.324-4.984-.543a9.463 10.42 0 0 0 1.166 2.165s2.46-.423 3.41.662c0 0-3.037-.523-3.145-.178 0 0 1.551 2.052 2.838 2.648a7.395 8.143 0 0 1-3.12-2.35 4.04 4.449 0 0 0 .438 2.509s-1.31-.662-.805-3.013c0 0-1.155-1.648-1.16-1.986 0 0-.788 2.231-.602 3.807 0 0-.968-1.648.397-4.33l-.764-1.986s-1.202 2.893-1.112 4.31c0 0-.745-1.847.962-4.833l-.48-2.059a14.988 16.505 0 0 0-1.426 3.972s-.355-1.873 1.305-4.594l-.169-1.417s-.847 1.774-1.046 2.304c-.198.53-.348.523-.348.523a6.156 6.78 0 0 1 1.31-3.423s-.186-2.96-.354-2.96zm36.336 80.903s3.782 15.226 12.752 9.93a2.447 2.695 0 0 0 2.032-2.238s-.71.239-.932-1.357a6.613 7.283 0 0 0-.433-1.648 3.18 3.502 0 0 0-1.352-1.708s-2.868-3.615-9.62-2.927c0 0-1.73-.695-2.068-.516l1.756 2.152s1.39-1.477 2.97-1.325c0 0-2.94 1.192-2.724 1.649.048.093.974 1.099.974 1.099s2.405-2.562 4.858-2.225c0 0-3.673.9-4.503 2.609l1.485 1.423s2.44-2.84 5.23-2.575c0 0-3.817 1.086-4.887 2.86l1.635 1.185s2.405-2.72 4.75-2.476c0 0-4.293 1.741-4.36 2.721a9.373 10.321 0 0 0 2.093 1.026s1.803-1.906 3.12-1.635c0 0-2.76 1.503-2.663 1.854 0 0 2.344.662 3.697.344a7.335 8.077 0 0 1-3.775.066 4.004 4.41 0 0 0 1.67 1.768s-1.418.284-2.236-1.947c0 0-1.803-.615-1.996-.893 0 0 .53 2.33 1.503 3.495 0 0-1.647-.735-1.94-3.793l-1.667-1.146s.547 3.119 1.34 4.224c0 0-1.574-1.033-1.743-4.555l-1.467-1.377a15.03 16.551 0 0 0 .926 4.171s-1.268-1.324-1.334-4.581l-.884-1.053s.24 1.986.355 2.549c.114.563 0 .662 0 .662a6.174 6.8 0 0 1-.722-3.628s-1.7-2.284-1.84-2.185zm102.59 13.598s3.782 15.227 12.746 9.93a2.44 2.688 0 0 0 2.038-2.237s-.715.238-.938-1.324a6.319 6.958 0 0 0-.427-1.649 3.222 3.549 0 0 0-1.358-1.708s-2.868-3.615-9.62-2.92c0 0-1.73-.701-2.062-.523l1.75 2.152s1.388-1.476 2.97-1.324c0 0-2.94 1.192-2.718 1.649.042.092.974 1.099.974 1.099s2.405-2.563 4.858-2.225c0 0-3.68.9-4.51 2.609l1.492 1.423s2.405-2.84 5.224-2.575c0 0-3.81 1.085-4.882 2.86l1.636 1.185s2.405-2.721 4.743-2.476c0 0-4.292 1.74-4.353 2.72a9.3 10.242 0 0 0 2.087 1.027s1.803-1.907 3.12-1.635c0 0-2.754 1.502-2.663 1.853 0 0 2.344.662 3.703.345a7.365 8.11 0 0 1-3.782.066 4.046 4.456 0 0 0 1.672 1.767s-1.42.285-2.237-1.946c0 0-1.803-.616-1.99-.894 0 0 .523 2.33 1.497 3.496 0 0-1.647-.735-1.942-3.794l-1.665-1.158s.547 3.118 1.347 4.224c0 0-1.575-1.033-1.744-4.555l-1.473-1.377a14.844 16.346 0 0 0 .932 4.17s-1.274-1.324-1.34-4.58l-.884-1.053s.24 1.986.354 2.548c.115.563 0 .662 0 .662a6.174 6.8 0 0 1-.72-3.628s-1.696-2.303-1.835-2.204z" opacity=".1"/><path fill="#ced7e7" d="M508.722 423.448s31.19-11.566 24.734-52.547l-39.62-11.327-9.198 33.625z"/><path d="M484.638 393.2l24.078 30.248s31.19-11.566 24.734-52.547z" opacity=".1"/><path fill="#fed253" d="M353.575 90.444s4.208 7.54 9.962 3.773c5.753-3.767.234-14.174.234-14.174s-11.02-1.662-10.196 10.4z"/><path d="M363.537 94.217a5.934 6.534 0 0 1-4.636.86c-2.11-.588-3.733-2.376-4.605-3.548a10.04 11.056 0 0 1-.72-1.079c-.296-4.303.92-6.865 2.602-8.375 2.315-2.072 5.52-2.158 6.902-2.092.427 0 .673.066.673.066l.114.212c.163.338.517 1.086.896 2.086 1.287 3.277 2.82 9.215-1.226 11.87z" opacity=".1"/><path fill="#ffa2a2" d="M511.788 368.975l21.644 1.926 40.28.364-31.737 43.034s-10.07.602-12.145 2.165c-2.074 1.562-31.196.728-31.196.728l-4.702-22.06z"/><path d="M511.788 368.975l21.644 1.926 40.28.364-31.737 43.034s-10.07.602-12.145 2.165c-2.074 1.562-31.196.728-31.196.728l-4.702-22.06z" opacity=".05"/><path fill="#ced7e7" d="M489.898 253.275l5.032 9.4 1.095 16.393s3.505 13.976 6.132 18.074c2.627 4.098 3.721 14.95 3.721 14.95s1.095 10.122 2.405 12.287c1.31 2.165 3.066 17.875 3.066 17.875s11.604 25.549 22.107 28.68c0 0-52.095 18.803-24.734 52.547 0 0-19.479 5.297-24.078-.721-4.6-6.018-16.636-95.21-16.636-95.21l3.722-75.209z"/><path d="M489.898 253.275l5.032 9.4 1.095 16.393s3.505 13.976 6.132 18.074c2.627 4.098 3.721 14.95 3.721 14.95s1.095 10.122 2.405 12.287c1.31 2.165 3.066 17.875 3.066 17.875s11.604 25.549 22.107 28.68c0 0-52.095 18.803-24.734 52.547 0 0-19.479 5.297-24.078-.721-4.6-6.018-16.636-95.21-16.636-95.21l3.722-75.209z" opacity=".05"/><path fill="#ffa2a2" d="M426.693 161.654a46.894 51.64 0 0 0 1.263 25.091l-8.104 25.549s-61.726-37.843-56.472-47.006c2.976-5.197 3.355-18.948 3.115-29.871-.175-8.302-.71-14.963-.71-14.963s75.752 8.203 65.67 27.244a40.816 44.947 0 0 0-4.762 13.956z"/><path d="M431.455 147.698a40.816 44.947 0 0 0-4.762 13.956 51.072 56.241 0 0 1-60.198-26.237c-.175-8.302-.71-14.963-.71-14.963s75.734 8.203 65.67 27.244z" opacity=".1"/><path fill="#ffa2a2" d="M462.098 106.717a51.006 56.168 0 1 1-92.62-32.44q1.081-1.676 2.277-3.271a51.018 56.182 0 0 1 16.6-14.565 50.105 55.175 0 0 1 10.911-4.357 51.103 56.274 0 0 1 62.207 45.635 51.608 56.83 0 0 1 .626 8.998z"/><path fill="#ced7e7" d="M482.233 337.646c-.764 4.49.192 12.692 1.641 21.04.06.365.126.729.193 1.093.066.364.162.927.246 1.383a332.392 332.392 0 0 0 2.104 10.375c.71 3.23 1.347 5.998 1.888 8.275.818 3.41 1.377 5.555 1.377 5.555a1097.222 1097.222 0 0 0 .343 12.347c0 .755.042 1.523.06 2.317l.09 4.29c0 .477 0 .954.03 1.437 0 1.582.054 3.198.078 4.807.03 2.21.054 4.422.066 6.567v8.249c-.066 5.131-.252 9.004-.65 10.123a17.02 17.02 0 0 0-.384 1.238 38.014 41.861 0 0 0-1.13 6.27l-1.022-.92c-1.954-1.775-3.89-3.589-5.856-5.35a85.13 93.746 0 0 0-10.377-8.196 28.356 28.356 0 0 0-.745-.47 36.537 36.537 0 0 0-2.057-1.218 47.08 51.845 0 0 0-4.412-2.145c-6.944-2.913-14.38-3.973-21.92-3.794-3.006 1.265-4.96 2.172-4.96 2.172l-3.824 1.27-.637.213c-4.143 1.39-9.968 3.363-12.066 4.184-3.39 1.324-32.832 8.07-32.832 8.07a48.908 53.858 0 0 1-8.213 1.655 115.955 127.69 0 0 1-15.397 3.549 85.792 94.475 0 0 1-35.236-3.125 5.76 6.342 0 0 1-1.023-.033c.21 0 .415-.053.602-.093l-.734-.238-1.004-.344q-2.525-.874-5.008-1.914l-1.004-.423q-2.405-1.02-4.707-2.192l-1.004-.503q-2.405-1.231-4.708-2.602c-.553-.318-1.1-.662-1.64-.986q-2.454-1.51-4.81-3.165c-.265-2.496-.404-4.164-.404-4.164l-2.344-12.857-.12-.662-1.684-9.269-.12-.662-3.66-20.166-.12-.662-1.685-9.269-.12-.662-3.71-20.153-.12-.662-1.683-9.268-.12-.662-3.68-20.193-.12-.662-1.683-9.236-.12-.662-.668-3.641-1.004-5.515s-3.204-5.045-6.812-11.01l-.402-.662a696.996 696.996 0 0 1-3.115-5.124c-.342-.563-.673-1.119-1.004-1.668q-.75-1.252-1.455-2.443l-.324-.55-.066-.112c-5.183-8.832-1.714-12.672-1.714-12.672s2.177-3.244 4.984-7.534c.14-.219.283-.437.433-.662 1.203-1.854 2.525-3.88 3.824-5.906l1.004-1.575c.38-.59.751-1.179 1.112-1.761.144-.219.283-.444.415-.662 2.771-4.41 5.056-8.256 5.525-9.62.733-2.152 5.41-8.514 10.07-14.095 3.674-4.41 7.33-8.329 8.97-9.269 3.722-2.165 5.255-9.163 5.255-9.163s8.098-3.124 9.192-5.534c1.094-2.41 16.42-13.241 16.42-13.241s6.198-4.396 8.705-7.045a5.128 5.647 0 0 0 .92-1.185c.871-1.72 6.565-3.138 8.88-3.647.6-.133.973-.206.973-.206a19.593 21.576 0 0 1 3.505-5.064c.944-.92 2.123-4.092 3.115-7.164a135.604 135.604 0 0 0 1.911-6.574c1.756-6.508 5.255-4.581 5.255-4.581a12.024 13.241 0 0 0 .228 2.648c1.461 7.944 9.397 11.255 13.564 14.969 4.6 4.091 11.82 14.704 17.513 16.869 4.713 1.794 10.178 8.56 11.91 10.818l.132.172c.288.37.433.582.433.582s3.228-.185 5.194-.225h.716a2.092 2.304 0 0 0 1.094-.49c1.954-1.463 4.864-5.753 6.132-6.74 1.527-1.21 3.066-20.735 3.066-20.735l.078-.04c5.453-2.813 11.303 25.35 11.303 25.35s10.287 3.377 11.165 5.787c.168.477.943 1.324 2.11 2.35a115.672 127.378 0 0 0 16.894 11.818c.132.073.258.145.39.205a4.01 4.416 0 0 0 .367.192c.223.12.44.225.644.325q.486.238.901.397l.361.139a8.693 9.573 0 0 1 2.405 1.37c.216.172.433.351.643.543a16.99 18.71 0 0 1 2.25 2.49c.101.132.197.27.293.403a22.34 22.34 0 0 1 1.203 1.827 24.583 27.071 0 0 1 1.51 2.768s8.97 16.875 11.82 18.795c2.85 1.92 4.598 21.457 4.598 21.457l-9.62 39.267s-.45 9.93-1.292 20.06c-.47 5.68-1.064 11.46-1.774 15.618z"/><path fill="#63667e" d="M409.782 195.908s-6.45 3.853-11.49 4.217a9.469 10.427 0 0 1-1.97-.125c-5.28-.88-13.024-5.66-13.024-5.66l9.085-10.971 11.05 6.031 4.064 4.165z"/><path d="M461.45 97.72a6.048 6.66 0 0 1-.776.986c-3.163 3.31-8.778 1.94-13.089 1.172a47.664 52.487 0 0 1-10.9-3.47c-3.042-1.43-6.69-3.177-9.426-1.125-1.053.781-1.774 2.033-2.868 2.721-1.094.689-2.49.735-3.782.755-4.208 0-8.417.053-12.523-.993-6.126-1.576-12.463-5.542-18.289-2.926-4.557 2.039-7.028 7.5-8.26 12.75-.6 2.576-1.046 5.297-2.405 7.482-1.359 2.185-3.986 3.734-6.222 2.708-3.3-1.516-3.788-7.687-7.768-7.998-4.37-.338-4.317 4.634-3.042 8.23 1.888 5.296 4.36 10.592 4.467 16.114a51.036 56.201 0 0 1 2.91-59.876 5.495 6.051 0 0 0 2.17-2.794 3.794 4.178 0 0 0 .108-.477c.331-1.847-.6-3.787-.655-5.72-.21-4.72 4.43-8.01 8.687-8.606 2.832-.398 5.73-.093 8.568-.192a19.383 21.344 0 0 0 4.238-.623 20.387 22.45 0 0 0 6.613-3.74 51.103 56.274 0 0 1 62.207 45.635z" opacity=".1"/><path fill="#896363" d="M462.478 93.82a6.613 7.283 0 0 1-1.804 3.443c-3.163 3.31-8.778 1.933-13.089 1.165a47.068 51.832 0 0 1-10.9-3.443c-3.042-1.423-6.69-3.171-9.426-1.119-1.052.782-1.774 2.033-2.868 2.721-1.094.689-2.49.735-3.782.749-4.208.033-8.417.06-12.523-.987-6.126-1.582-12.463-5.541-18.289-2.933-4.557 2.04-7.028 7.508-8.26 12.758-.6 2.575-1.046 5.296-2.405 7.474-1.359 2.179-3.986 3.741-6.222 2.715-3.3-1.516-3.788-7.687-7.768-7.998-4.37-.337-4.317 4.635-3.042 8.23 2.236 6.27 5.278 12.506 4.28 19.153-.992 0-2.633-.04-3.607-.067.758-1.423-.685-3.118-2.122-3.601-1.437-.483-3.114-.477-4.208-1.629-1.095-1.152-1.1-2.933-.986-4.528a28.299 31.163 0 0 1 2.242-9.891c.788-1.986 1.804-4.138 1.202-6.217a16.04 17.663 0 0 0-1.298-2.708c-1.25-2.648-.956-5.958.114-8.692.457-1.166.788-2.265 1.166-3.31a13.37 14.724 0 0 1 2.05-4.125c1.377-1.887 2.724-4.727 1.203-6.482-.385-.443.385-.748.138-1.324a1.028 1.132 0 0 1-.09-.31 2.73 3.006 0 0 1 .433-1.987 4.407 4.853 0 0 1 .234-.444 3.42 3.767 0 0 1 .235-.437 19.112 21.047 0 0 1 5.2-6.243c1.305-1.04 2.832-2.039 3.35-3.72.6-1.987-.458-4.099-.548-6.197-.21-4.72 4.43-8.011 8.687-8.607 4.257-.596 8.67.39 12.818-.82 5.886-1.709 10.022-7.429 15.367-10.64a21.758 23.96 0 0 1 19.118-.755c6.24 3.138 10.948 9.48 17.465 11.864 2.31.848 4.81 1.185 6.89 2.589 2.405 1.629 3.866 4.475 5.116 7.282 1.906 4.257 2.29 8.534 3.608 13.043 1.046 3.575 2.495 8.249 2.615 12.367a11.255 12.394 0 0 1-.295 3.661z"/><path d="M362.918 85.525a2.675 2.946 0 0 0-.45-2.477c.155.517-.524.815-.15 1.245a2.405 2.648 0 0 1 .6 1.232zm-.47-3.993a2.483 2.734 0 0 0-.126.715c.115-.211.27-.43.127-.715zm98.394 14.115c-3.168 3.31-8.778 1.94-13.1 1.165a46.75 51.481 0 0 1-10.888-3.462c-3.048-1.43-6.692-3.178-9.433-1.126-1.046.782-1.768 2.033-2.868 2.722-1.1.688-2.489.734-3.78.748-4.21 0-8.418.06-12.53-.993-6.12-1.576-12.458-5.529-18.283-2.927-4.557 2.046-7.028 7.508-8.26 12.758-.602 2.575-1.04 5.296-2.406 7.481-1.364 2.185-3.992 3.734-6.222 2.715-3.3-1.523-3.788-7.687-7.768-7.998-3.108-.245-3.974 2.205-3.763 4.926.18-2.08 1.202-3.681 3.763-3.483 3.98.311 4.467 6.482 7.768 7.998 2.23 1.026 4.864-.517 6.222-2.715 1.36-2.198 1.804-4.905 2.405-7.474 1.233-5.25 3.704-10.719 8.26-12.758 5.826-2.608 12.163 1.324 18.283 2.926 4.09 1.053 8.333 1.02 12.53.987 1.292 0 2.657-.04 3.781-.742 1.124-.701 1.804-1.94 2.868-2.727 2.741-2.046 6.385-.298 9.433 1.125a47.056 51.819 0 0 0 10.888 3.47c4.322.767 9.932 2.151 13.1-1.172 1.72-1.808 2.236-4.423 2.122-7.283-.096 2.27-.697 4.33-2.122 5.84zm-89.544-33.01a6.39 7.038 0 0 0-.036.994c.06 1.377.535 2.754.686 4.098.222-1.649-.47-3.37-.65-5.092zm-12.216 46.973a4.425 4.873 0 0 1 .114.602 4.317 4.754 0 0 0-.114-2.045 15.59 17.167 0 0 0-1.299-2.715 7.425 8.176 0 0 1-.787-3.144 7.918 8.72 0 0 0 .787 4.594 15.277 16.823 0 0 1 1.3 2.708zm7.461 24.483l-3.517-.06a1.509 1.662 0 0 1-.109 1.443c.992 0 2.64.04 3.608.066a14.73 16.22 0 0 0 .174-3.429 14.098 15.525 0 0 1-.156 1.98zm-5.754-3.662c-1.437-.476-3.108-.483-4.178-1.641a3.812 4.197 0 0 1-.998-2.774c-.09 1.522 0 3.164.998 4.223 1.07 1.159 2.741 1.166 4.178 1.642a3.571 3.933 0 0 1 2.183 1.986c.607-1.37-.788-2.979-2.183-3.436zM470.167 428.076a36.526 36.526 0 0 0-2.056-1.218 47.08 51.845 0 0 0-4.413-2.145c-6.944-2.913-14.38-3.973-21.92-3.794-3.006 1.265-4.96 2.172-4.96 2.172l-3.824 1.27-.637.213c-.042-.464-.09-.927-.132-1.397-.042-.47-.09-.92-.139-1.384-1.347-14.042-2.405-28.468-2.405-28.468v-13.91l-.072-36.71-.6-12.103-.284-5.356-.054-1.02-.108-2.091-.06-1.245a10.16 11.189 0 0 1-.337-1.205 8.893 8.893 0 0 1-.12-.543 61.409 61.409 0 0 1-.48-2.443c-1.1-6.09-2.478-16.36-2.562-18.445-.108-2.78-2.297-19.41-2.297-19.41-.222-9.157-7.214-26.397-8.976-29.647-1.76-3.251-3.727-22.782-3.066-23.834.343-.563.565-3.893.704-6.965 0-.35.03-.695.042-1.033.09-2.403.132-4.41.132-4.41l6.878-1.495 1.845-.398.145-.033.06.133a80.24 80.24 0 0 1 1.545 3.39c.084.178.162.37.246.562.037.093.078.186.12.278 1.347 3.244 2.904 7.515 2.838 9.97-.108 4.344 4.383 14.83 4.383 14.83.433 2.41 9.956 26.39 9.956 26.39s7.774 23.503 7.335 27.363c-.439 3.86 3.721 29.408 3.721 29.408l4.27 26.277c2.073 5.177 4.81 17.107 4.81 17.107l1.04 6.766.197 1.291 2.772 18.054 1.358 8.845s.571 4.7 1.437 9.931c.072.47.157.947.24 1.423a66.169 72.865 0 0 0 2.267 10.163 34.551 38.048 0 0 1 1.16 4.866z" opacity=".1"/><path fill="#63667e" d="M470.912 428.546a29.388 29.388 0 0 0-.745-.47 36.526 36.526 0 0 0-2.056-1.218 47.08 51.845 0 0 0-4.413-2.145c-6.944-2.913-14.38-3.973-21.92-3.794-3.006 1.265-4.96 2.172-4.96 2.172l-3.824 1.27c-.048-.463-.09-.926-.138-1.396-.048-.47-.084-.848-.12-1.271-1.347-14.01-2.405-28.37-2.405-28.37v-14.027l-.072-36.618-.602-11.56-.12-2.396-.084-1.622-.108-2.145-.108-2.178-.079-1.57v-.344c0-.033 0-.072-.042-.112-.114-.358-.252-.9-.402-1.589l-.073-.331c-.03-.152-.066-.318-.096-.483-1.13-5.648-2.79-17.823-2.88-20.107-.108-2.78-2.296-19.411-2.296-19.411-.223-9.156-7.215-26.396-8.976-29.647-1.762-3.25-3.722-22.78-3.066-23.833.38-.662.6-4.681.745-7.998v-.768c.078-2.046.108-3.641.108-3.641l6.397-1.39 1.624-.351.252-.053.601-.133s.788 1.602 1.732 3.807l.12.278c1.377 3.27 3.006 7.72 2.958 10.249-.108 4.343 4.383 14.83 4.383 14.83.433 2.41 9.956 26.389 9.956 26.389s7.773 23.503 7.334 27.362c-.438 3.86 3.722 29.409 3.722 29.409l4.268 26.276c2.075 5.178 4.81 17.108 4.81 17.108l.968 6.302.198 1.278 2.183 14.248 2.014 13.128s.601 4.68 1.43 9.93c.08.477.157.954.241 1.437a66.511 73.243 0 0 0 2.267 10.21 36.674 40.385 0 0 1 1.274 5.289z"/><path fill="#fed253" d="M465.49 88.524s-2.297 3.257-4.37 3.257c-2.076 0-10.15-.364-14.358-1.807-4.209-1.444-24.842-2.536-24.842-2.536s-29.219.119-30.205-.967c-.986-1.085-18.168-6.872-19.918-6.508-.366.08-1.262.252-2.459.47l-1.37.245c-2.075.364-4.666.788-7.034 1.1-2.928.377-5.502.569-6.32.238v-2.774s3.392-5.43 3.608-6.985c.217-1.556 3.066-24.112 10.51-32.182a29.339 32.308 0 0 1 14.115-14.565c10.07-4.827 20.14-8.918 20.14-8.918l1.762-.278 5.682-.927a4.287 4.72 0 0 1 .56-.516c1.574-1.325 6.348-4.204 12.57 1.986l1.1 1.933s19.15 4.939 28.01 22.172c8.862 17.233 9.307 34.109 9.963 41.822 0 0-.44 2.171.438 3.012a12.27 13.512 0 0 1 .908.98c.08.086.157.172.23.265.251.278.486.569.68.807a.283.311 0 0 1 .06.067 1.924 2.119 0 0 0 .15.178z"/><path d="M465.49 88.524s-2.297 3.257-4.37 3.257c-2.076 0-10.15-.364-14.358-1.807-4.209-1.444-24.842-2.536-24.842-2.536s-29.219.119-30.205-.967c-.986-1.085-18.168-6.872-19.918-6.508-.366.08-1.262.252-2.459.47l-.312-2.118-.078-.523s33.162-7.832 55.268-3.728c22.107 4.105 38.418 8.673 38.418 8.673s-.44 2.172.438 3.013a12.27 13.512 0 0 1 .908.98c.078.085.157.172.23.264.251.278.486.57.68.808a.283.311 0 0 1 .06.066 1.996 2.198 0 0 0 .15.179z" opacity=".05"/><path d="M462.478 93.82c-4.095.35-11.64-.748-14.94-1.284a36.448 36.448 0 0 1-2.784-.563c-3.54-.848-14.43-3.224-21.043-2.125-7.99 1.324-30.535-1.086-30.535-1.086s-13.9-3.132-19.485-5.66c-2.05-.934-5.477-1.225-8.886-.762a24.74 27.243 0 0 0-2.585.51c-4.653 1.211-8.58 3.972-7.9 8.68a10.04 11.056 0 0 1-.72-1.08c-.296-4.303.92-6.865 2.602-8.375l.397-.178a48.553 53.467 0 0 1 6.264-1.477c.331-.06.674-.112 1.022-.159 5.982-.887 14.634-1.086 21.932 2.96 0 0 6.782 3.502 11.381 3.502 4.6 0 42.025.364 50.784 3.131a37.275 41.047 0 0 0 5.32 1.238 21.643 23.834 0 0 0 9.5-.986 11.255 12.394 0 0 1-.325 3.714z" opacity=".1"/><path d="M465.49 88.524s-2.297 3.257-4.37 3.257c-2.076 0-10.15-.364-14.358-1.807-4.209-1.444-24.842-2.536-24.842-2.536s-29.219.119-30.205-.967c-.986-1.085-18.168-6.872-19.918-6.508-.366.08-1.262.252-2.459.47l-1.37.245a24.409 26.88 0 0 0-7.034 1.1c-2.928.377-5.502.569-6.32.238v-.55a14.429 15.89 0 0 1 1.967-1.046 53.17 58.552 0 0 1 12.445-2.132c5.248-.212 11.387.464 16.78 3.456 0 0 6.781 3.502 11.38 3.502 4.6 0 42.025.358 50.784 3.132a38.068 41.921 0 0 0 5.32 1.231 22.124 24.363 0 0 0 11.598-1.833.283.311 0 0 1 .06.066 1.996 2.198 0 0 0 .15.178z" opacity=".1"/><path fill="#fed253" d="M354.404 91.417s-7.334-6.15 2.19-10.249c0 0 16.634-5.66 29.223 1.324 0 0 6.782 3.49 11.381 3.49 4.6 0 42.025.363 50.784 3.137a37.876 41.71 0 0 0 5.32 1.232 22.647 24.94 0 0 0 13.51-2.827c.601-.364 1.142-.55 1.305-.338.547.729.114 4.946-4.702 5.787-3.757.662-12.295-.59-15.884-1.166a39.805 39.805 0 0 1-2.777-.562c-3.54-.848-14.43-3.225-21.073-2.126-7.984 1.325-30.535-1.085-30.535-1.085s-13.894-3.132-19.479-5.667c-5.585-2.536-21.343-.351-19.263 9.05z"/><path d="M416.238 26.794c-.6-.953-8.326-7.766-11.477-10.52l5.682-.927a4.287 4.72 0 0 1 .56-.516c4.13 4.773 5.235 11.963 5.235 11.963zM391.18 63.333l-2.519 4.098 9.631-.358.217-4.581zm58.768 4.945l1.094 3.734 6.133 1.086-2.628-4.462zM344.665 193.63c.655 1.206 22.214 32.441 27.908 31.574 5.693-.867-27.908-31.573-27.908-31.573zm72.235 28.548s5.254 5.548 4.485 7.713c-.77 2.165-4.485-7.713-4.485-7.713zm-57.349 38.088s-4.6 23.741-2.189 24.496c2.411.755 2.19-24.496 2.19-24.496zm59.098 92.197c.764 2.41 7.113 18.08 8.537 18.922 1.425.84-8.537-18.922-8.537-18.922zm73.77-64.358c-.224.841-5.695 5.787-4.493 7.594 1.203 1.807 4.491-7.594 4.491-7.594zm-42.47 43.987c-.109.609-1.203 13.24.877 15.67 2.08 2.43-.878-15.67-.878-15.67z" opacity=".1"/><path d="M506.028 397.714a101.31 101.31 0 0 1-4.9 2.814 118.41 118.41 0 0 1-5.446 2.754c-.734.351-1.467.695-2.195 1.026q-1.659.755-3.282 1.45a186.88 186.88 0 0 1-9.277 3.688c-1.094.404-2.14.774-3.114 1.119-4.906 1.714-8.164 2.648-8.164 2.648a8.85 9.745 0 0 0-2.267-.205h-.65a28.521 31.408 0 0 0-3.035.423c-6.716 1.324-16.203 5.039-21.92 7.468-3.006 1.265-4.96 2.172-4.96 2.172l-3.824 1.27-.637.213c-4.142 1.39-9.968 3.363-12.066 4.184-3.39 1.324-32.832 8.07-32.832 8.07a48.908 53.858 0 0 1-8.213 1.655 149.875 165.042 0 0 1-20.573.517c-6.89.49-18.036-1.179-24.523-2.304l-1.034-.179c-2.507-.45-4.1-.774-4.1-.774l.841-1.278 17.26-26.224.103-.159 16.082-24.423.601-.887 1.461-2.218s.878-1.324 4.257-1.41h1.305a35.237 38.803 0 0 1 8.338 1.873l.782.259c11.645 3.674 29.645 2.754 29.645 2.754s11.2-1.986 20.002-3.178l.656-.093a80.736 88.907 0 0 1 8.675-.827c5.363.119 16.966-3.013 16.966-3.013 2.495-.589 3.547-1.085 4.954-2.191.187-.146.385-.305.601-.477.602-.496 1.293-1.105 2.183-1.86 1.623-1.37 3.902-3.23 7.485-5.84.312-.224.643-.45.998-.661.355-.212.805-.497 1.238-.735a46.948 51.7 0 0 1 10.894-3.973 63.86 70.323 0 0 1 9.481-1.436h.475c9.018-.53 18.23 1.172 23.616 6.753a14.784 16.28 0 0 1 2.44 3.31 13.708 15.095 0 0 1 .878 1.8 15.337 16.889 0 0 1 1.088 3.708q.066.358.11.715v.212c0 .192.035.384.047.576.48 7.925-6.986 15.088-16.45 20.914z" opacity=".1"/><path fill="#ffa2a2" d="M329.015 434.3s19.48 3.971 29.658 3.25c0 0 18.716 1.086 28.786-2.165 0 0 29.46-6.753 32.832-8.077 3.372-1.324 16.527-5.667 16.527-5.667s25.611-11.811 32.832-9.885c0 0 56.693-16.147 52.641-37.962-4.052-21.814-39.836-16.869-51.102-8.68-11.267 8.19-9.62 9.045-15.21 10.369 0 0-11.604 3.131-16.967 3.012-5.363-.12-29.333 4.098-29.333 4.098s-18.823.967-30.42-3.012c-11.598-3.98-13.9-.484-13.9-.484z"/><path d="M371.256 377.68a.295.324 0 0 1 0 .08 4.058 4.469 0 0 1-.342 1.423c-2.31 6.237-15.415 23.06-15.415 23.06a41.838 46.072 0 0 1-2.159 5.839 81.313 89.542 0 0 1-6.222 11.618 142.87 157.33 0 0 1-11.32 15.803h-.03a17.2 18.941 0 0 1-1.618 1.172c-1.413.927-3.535 2.072-5.537 2.211a5.76 6.342 0 0 1-1.022-.033c.21 0 .415-.053.601-.093l-.734-.238-1.004-.344q-2.525-.874-5.008-1.914l-1.004-.423q-2.404-1.02-4.707-2.192l-1.004-.503q-2.405-1.231-4.708-2.602c-.553-.318-1.1-.662-1.64-.986q-2.454-1.51-4.81-3.165-2.5-1.754-4.894-3.66c-1.203-2.457-2.195-4.635-2.736-5.807-.986-2.178-1.07-5.297-.95-7.554 0-.232 0-.45.036-.662.103-1.417.26-2.39.26-2.39a30.902 34.03 0 0 1-2.406-4.131 4.413 4.86 0 0 1-.673-2.377 2.561 2.82 0 0 0-.084-1.006c-.463-2.093-2.453-5.687-4.293-7.945-1.37-1.662-1.455-7.872-1.323-12.274.078-2.649.23-4.595.23-4.595a1.4 1.543 0 0 1-.572-.814 17.868 19.676 0 0 1-.974-4.49c0-.218-.054-.436-.085-.661-.384-3.039-.559-6.091-.559-6.091-4.449-3.568-6.565-9.136-7.55-14.102l-.127-.662a37.876 41.71 0 0 1-.685-9.268V337.076s.59-14.347 2.236-19.948c.066-.238.138-.456.21-.662a4.503 4.959 0 0 1 .47-1c.6-.88 1.027-2.542 1.382-4.508.247-1.364.451-2.88.601-4.39.14-1.257.247-2.508.331-3.667.234-3.098.307-5.515.307-5.515l-1.113-6.038a58.11 58.11 0 0 1-.703-4.972c0-.218-.048-.437-.072-.662a50.808 55.95 0 0 1-.15-9.235c0-.226 0-.444.036-.662a50.832 55.976 0 0 1 4.906-20.193l.3-.662q.601-1.324 1.263-2.602c.318-.629.655-1.251 1.004-1.867a49.588 54.606 0 0 1 3.006-4.773c.156-.225.318-.444.48-.662a48.986 53.944 0 0 1 6.23-7.071c6.071-5.747 11.645-8.243 16.707-8.435 22.136-.86 34.551 42.253 36.56 49.807.192.728.288 1.125.288 1.125s8.97 9.884 6.342 14.22a6.776 7.461 0 0 0-.907 3.126c-.722 5.832 1.346 15.439 1.346 15.439s.734 2.648 2.874 8.99l.631 1.854c1.341 3.972 1.654 10.64.884 16.61-.74 5.721-2.477 10.78-5.26 12.077-5.694 2.648-4.16 5.296-2.85 7.474a27.018 29.753 0 0 1 1.942 4.886 158.012 158.012 0 0 1 2.002 6.442 11.886 13.089 0 0 1 2.47-.728c1.077-.166 2.141-.047 2.345.966.11.543.728 1.185 1.6 1.828 2.585 1.96 7.37 4.012 7.37 4.012z" opacity=".1"/><path fill="#ced7e7" d="M369.946 377.68a3.962 4.363 0 0 1-.343 1.457c-2.297 6.243-15.415 23.106-15.415 23.106a42.746 47.072 0 0 1-2.158 5.839 76.594 84.345 0 0 1-4.912 9.447 141.374 155.681 0 0 1-12.493 17.81l-.138.165s-.53.444-1.37 1.013a15.631 17.213 0 0 1-4.9 2.264l-.735-.238-1.004-.344q-2.525-.874-5.008-1.914l-1.004-.423q-2.404-1.02-4.707-2.192l-1.004-.503q-2.405-1.231-4.708-2.602c-.553-.318-1.1-.662-1.64-.986q-2.454-1.51-4.81-3.165-2.502-1.754-4.894-3.661-1.107-.874-2.189-1.794c-.81-1.695-1.46-3.125-1.863-4.012-.986-2.178-1.07-5.297-.95-7.554 0-.232 0-.45.036-.662.102-1.417.258-2.39.258-2.39s-.487-.722-1.076-1.702a28.586 28.586 0 0 1-1.004-1.794c-.6-1.165-1.07-2.344-.98-3.012a1.34 1.476 0 0 0 0-.344 2.916 3.21 0 0 0-.09-.663c-.463-2.092-2.459-5.687-4.299-7.944-1.37-1.662-1.454-7.872-1.328-12.275v-.662c.084-2.284.21-3.932.21-3.932-.68-.325-1.202-2.728-1.539-5.297l-.09-.662c-.385-3.038-.56-6.09-.56-6.09-4.448-3.569-6.564-9.137-7.544-14.102a36.71 40.425 0 0 1-.782-10.593v-.165s.517-14.42 2.164-20.027c.067-.239.14-.457.21-.663a4.503 4.959 0 0 1 .536-.966c.914-1.404 1.521-4.78 1.918-8.236l.072-.662c.5-4.634.637-9.183.637-9.183l-1.118-6.038q-.457-2.482-.703-4.972c-.03-.218-.049-.443-.073-.662a50.82 55.963 0 0 1-.15-9.235c0-.225 0-.444.042-.662a50.712 55.844 0 0 1 4.906-20.193c.096-.225.193-.443.3-.662a47.105 51.872 0 0 1 2.574-5.005 45.48 45.48 0 0 1 1.004-1.668 51.237 51.237 0 0 1 1.713-2.57l.481-.661a49.046 54.01 0 0 1 6.175-7.051c6.613-6.243 12.625-8.653 18.036-8.434 21.313.84 33.277 42.404 35.243 49.806.192.728.288 1.125.288 1.125s8.976 9.884 6.35 14.22a6.776 7.461 0 0 0-.909 3.126c-.727 5.832 1.347 15.439 1.347 15.439s.733 2.648 2.874 8.99c.192.59.402 1.205.6 1.854 1.342 3.972 1.654 10.64.885 16.611-.74 5.727-2.47 10.778-5.26 12.076-5.688 2.648-4.16 5.296-2.845 7.474a27.018 29.753 0 0 1 1.942 4.886c1.04 3.118 1.996 6.442 1.996 6.442a11.7 12.883 0 0 1 1.203-.43 6.15 6.773 0 0 1 2.597-.298 1.148 1.265 0 0 1 1.028.966c.162.795 1.407 1.781 2.916 2.715a55.684 61.32 0 0 0 6.054 3.125z"/><path d="M290.815 314.018c2.08-.12 24.41-9.64 29.008-6.389 4.6 3.25 33.066 24.344 33.066 24.344s-17.837-25.668-33.379-31.693c-15.54-6.024-28.695 13.738-28.695 13.738zm32.098 38.809s22.33 4.94 25.72 8.316zm-4.298 36.771c-.325.364-8.417 20.364-7.768 20.364.65 0 7.551-11.917 7.551-11.917zm15.216-24s-6.565 2.536-5.802 2.774c.764.239 5.58-1.688 5.802-2.774zm-6.565 30.256c1.094 2.529 4.593 10.123 5.363 8.918.77-1.205-5.363-8.918-5.363-8.918zm81.956-200.456l-.937 1.47s-7.45-5.78-10.51-8.673c-3.06-2.893-10.286 10.361-15.98 13.976-5.693 3.615-15.318 4.582-15.318 4.582s-7.443-8.197-7.215-10.593c.23-2.397-3.499-3.132-3.72-4.82-.224-1.688-1.534-6.508-3.284-8.918-.926-1.271-1.058-5.25-.974-8.712.601-.133.974-.206.974-.206a19.593 21.576 0 0 1 3.505-5.064c1.972-1.927 5.032-13.738 5.032-13.738 1.75-6.508 5.25-4.581 5.25-4.581 0 9.884 9.197 13.499 13.79 17.597 4.594 4.098 11.82 14.704 17.514 16.876 4.671 1.754 10.136 8.54 11.873 10.804z" opacity=".1"/><path fill="#ced7e7" d="M409.222 193.948l-.937 1.477s-7.48-5.767-10.54-8.68c-3.06-2.913-10.286 10.361-15.98 13.976-5.693 3.615-15.318 4.588-15.318 4.588s-7.443-8.203-7.215-10.593c.23-2.39-3.499-3.131-3.72-4.826-.224-1.695-1.534-6.508-3.284-8.918-.926-1.27-1.058-5.25-.974-8.712l.974-.199a19.593 21.576 0 0 1 3.505-5.065c1.972-1.933 5.032-13.737 5.032-13.737 1.75-6.508 5.25-4.588 5.25-4.588 0 9.884 9.197 13.506 13.79 17.604 4.594 4.098 11.82 14.697 17.514 16.869 4.701 1.78 10.166 8.54 11.903 10.804z"/><path d="M409.782 195.908s-6.45 3.853-11.49 4.217a9.469 10.427 0 0 1-1.97-.125s5.56-4.575 10.724-5.509zm13.136 19.643s-8.134-3.489-10.822 1.761c.09-2.41.126-4.409.126-4.409l8.868-1.933s.854 1.741 1.852 4.085c-.024.31-.024.496-.024.496z" opacity=".1"/><path fill="#63667e" d="M396.321 200s9.745-6.442 14.428-5.9c4.912.563 14.43.96 14.43.96s-3.283 8.197-2.844 9.885c.44 1.688.547 9.885.547 9.885s-9.848-4.218-11.49 3.614c0 0-5.362-8.798-8.975-11.453a24.577 27.065 0 0 1-6.096-6.991z"/><path d="M451.373 207.48c-2.844 0-12.914-6.997-15.102-11.572-2.189-4.575-5.255.477-8.099 2.172-1.803 1.085-8.952-1.185-12.805-2.834 1.954-1.463 6.282-5.581 7.55-6.567 1.528-1.212 3.067-20.736 3.067-20.736 5.471-3.131 11.38 25.31 11.38 25.31s10.294 3.377 11.165 5.787c.17.476.944 1.324 2.11 2.35 1.203 3.337 1.864 6.09.734 6.09z" opacity=".1"/><path fill="#ced7e7" d="M451.373 206.03c-2.844 0-12.914-6.99-15.102-11.565-2.189-4.575-5.255.477-8.099 2.165-1.803 1.086-7.533-1.013-11.386-2.648 1.954-1.457 4.863-5.747 6.132-6.74 1.527-1.205 3.066-20.729 3.066-20.729 5.471-3.131 11.38 25.31 11.38 25.31s10.294 3.377 11.165 5.787c.17.476.944 1.324 2.11 2.35 1.203 3.317 1.864 6.07.734 6.07z"/><path fill="#0aa8a7" d="M490.265 417.205l95.177-87.39a5.098 5.614 0 0 1 3.403-1.325l35.507 1.026s2.46 1.987-1.148 6.33L533.42 416.98a5.711 6.29 0 0 1-3.427 1.417l-38.826 1.416a1.34 1.476 0 0 1-.902-2.608z"/><path fill="#ffa2a2" d="M536.305 406.453s20.79 32.785 43.888 2.291c23.1-30.494 16.42-46.516 9.415-47.363-7.004-.847-46.413 32.54-53.303 45.072z"/><path fill="#0aa8a7" d="M676.525 39.77s26.796-57.267 58.467-27.733c0 0 6.914 2.774 6.391 10.825 0 0-2.663-1.61-4.78 4.541a26.982 29.713 0 0 1-3.006 6.177 13.227 14.565 0 0 1-6.673 5.548s-14.213 11.725-40.54 2.681c0 0-7.442 1.179-8.645.16l8.652-6.965s4.394 7.183 10.821 8.004c0 0-10.82-7.481-9.583-9.103.253-.332 4.738-3.463 4.738-3.463s7.69 12.453 17.657 13.373c0 0-13.966-7.01-15.968-14.565l7.016-4.31s7.54 13.605 18.86 15.128c0 0-14.369-7.885-17.267-15.955l7.425-3.191s7.593 13.108 17.014 14.307c0 0-15.763-10.957-15.27-14.916 0 0 6.98-2.476 9.12-2.152 0 0 5.645 9.269 11.176 9.434 0 0-9.83-8.554-9.18-9.871 0 0 9.872-.563 15.03 2.066 0 0-7.335-4.496-15.03-3.767 0 0 3.481-4.509 8.02-5.502 0 0-5.44-2.463-10.413 5.667 0 0-7.677.775-8.627 1.715 0 0 3.884-8.792 8.663-12.533 0 0-7.124 1.384-10.653 13.3l-7.527 3.026s4.575-11.917 8.61-15.598c0 0-7.07 2.649-10.45 16.552l-6.926 4.144s3.23-10.593 6.914-15.763c0 0-6.078 4.012-8.862 17.028l-4.328 3.356s2.483-7.693 3.378-9.831c.896-2.139.445-2.582.445-2.582a25.173 27.72 0 0 0-5.67 13.75s-8.5 7.548-9 7.018zm110.82 30.627s12.11-25.88 26.417-12.533c0 0 3.126 1.251 2.886 4.886 0 0-1.202-.722-2.158 2.059a12.024 13.241 0 0 1-1.347 2.787 6.012 6.62 0 0 1-3.006 2.51s-6.427 5.296-18.325 1.211c0 0-3.36.53-3.902.073l3.908-3.152s1.984 3.251 4.894 3.615c0 0-4.882-3.376-4.329-4.111.11-.146 2.135-1.563 2.135-1.563s3.475 5.628 7.984 6.045c0 0-6.313-3.171-7.215-6.62l3.174-1.94s3.403 6.15 8.52 6.839c0 0-6.493-3.562-7.816-7.21l3.355-1.443s3.427 5.925 7.683 6.468c0 0-7.124-4.952-6.896-6.74 0 0 3.15-1.119 4.118-.973 0 0 2.55 4.19 5.05 4.257 0 0-4.442-3.86-4.148-4.456 0 0 4.461-.251 6.782.934 0 0-3.313-2.033-6.782-1.702a7.449 8.203 0 0 1 3.608-2.489s-2.46-1.112-4.708 2.562c0 0-3.469.351-3.896.775 0 0 1.756-3.973 3.914-5.66 0 0-3.222.621-4.81 6.01l-3.366 1.39s2.062-5.382 3.89-7.05c0 0-3.199 1.198-4.726 7.475l-3.126 1.867s1.455-4.794 3.12-7.124c0 0-2.747 1.814-3.998 7.693l-1.96 1.516s1.124-3.476 1.527-4.442c.403-.967.2-1.166.2-1.166a11.423 12.579 0 0 0-2.563 6.23s-3.877 3.41-4.088 3.172zm-131.2 30.11s12.107-25.88 26.452-12.533c0 0 3.12 1.251 2.886 4.893 0 0-1.203-.729-2.159 2.052a12.277 13.52 0 0 1-1.346 2.787 6.012 6.62 0 0 1-3.036 2.51s-6.42 5.296-18.32 1.211c0 0-3.36.536-3.9.073l3.907-3.152s1.984 3.251 4.888 3.622c0 0-4.882-3.383-4.329-4.118.114-.146 2.14-1.563 2.14-1.563s3.475 5.628 7.978 6.045c0 0-6.306-3.171-7.214-6.62l3.174-1.934s3.41 6.144 8.525 6.833c0 0-6.493-3.562-7.815-7.21l3.354-1.443s3.433 5.925 7.69 6.468c0 0-7.124-4.952-6.902-6.74 0 0 3.156-1.119 4.124-.973 0 0 2.55 4.19 5.05 4.264 0 0-4.443-3.867-4.148-4.463 0 0 4.455-.251 6.782.934 0 0-3.319-2.033-6.788-1.702a7.449 8.203 0 0 1 3.607-2.489s-2.453-1.112-4.7 2.562c0 0-3.47.351-3.897.775 0 0 1.75-3.973 3.914-5.66 0 0-3.223.622-4.81 6.01l-3.409 1.39s2.07-5.382 3.89-7.043c0 0-3.192 1.191-4.72 7.468l-3.132 1.867s1.461-4.794 3.127-7.124c0 0-2.748 1.814-4.004 7.693l-1.96 1.516s1.124-3.476 1.527-4.442c.403-.967.204-1.165.204-1.165a11.363 12.513 0 0 0-2.56 6.23s-3.86 3.409-4.07 3.17z" opacity=".1"/></svg>